<svg width="73" height="81" viewBox="0 0 73 81" fill="none" xmlns="http://www.w3.org/2000/svg">
<g clip-path="url(#clip0_2_1254)">
<g clip-path="url(#clip1_2_1254)">
<g filter="url(#filter0_d_2_1254)">
<path d="M33.3113 11.9084C36.167 9.25491 40.669 9.5317 43.1834 12.5153C44.7468 14.3705 47.1789 15.2578 49.5676 14.8425C53.3755 14.1804 56.9739 16.8154 57.4941 20.6468L57.5171 20.8166C57.8449 23.2305 59.4119 25.2979 61.6477 26.2659C65.2188 27.8122 66.8283 31.9876 65.2179 35.5276L65.1616 35.6513C64.1481 37.8791 64.3686 40.4884 65.7283 42.5258C67.9044 45.7862 67.0131 50.2207 63.7259 52.3494C61.6763 53.6767 60.464 55.974 60.5244 58.4163L60.5289 58.5987C60.6246 62.4687 57.5069 65.6512 53.6362 65.6344C51.2074 65.6239 48.9354 66.9287 47.6916 69.014C45.7064 72.342 41.3085 73.3949 38.073 71.2568C36.049 69.9192 33.4669 69.7604 31.2965 70.8401C27.827 72.5661 23.5888 70.9822 22.0199 67.4357C21.0369 65.2135 18.9392 63.64 16.5271 63.3529C12.6831 62.8953 9.97251 59.3546 10.5344 55.5249L10.5609 55.3445C10.9155 52.9277 9.98946 50.4989 8.11521 48.9304C5.10916 46.4147 4.75957 41.9039 7.31284 38.9343C8.90832 37.0787 9.44193 34.5157 8.70474 32.1802L8.66384 32.0506C7.49246 28.3395 9.5938 24.3923 13.325 23.295C15.6609 22.608 17.4658 20.7479 18.0823 18.3921L18.1257 18.2264C19.1043 14.4871 22.9939 12.3125 26.6937 13.4362C29.0146 14.141 31.5356 13.5583 33.3113 11.9084Z" fill="#FA12E3"/>
<path d="M57.0695 20.7042L57.494 20.647M57.0695 20.7042L57.0925 20.874C57.4405 23.4367 59.1041 25.6316 61.4777 26.6593C64.8287 28.1103 66.339 32.0282 64.8278 35.3501L64.7716 35.4737M57.0695 20.7042C56.582 17.1137 53.2098 14.6444 49.6413 15.2648C47.1023 15.7063 44.5175 14.7632 42.8558 12.7915C40.4993 9.99514 36.2794 9.7357 33.603 12.2226C31.7158 13.9762 29.0364 14.5956 26.5695 13.8464C23.1023 12.7933 19.4571 14.8313 18.54 18.3354L18.4967 18.5011C17.8422 21.0022 15.926 22.9769 13.4461 23.7063C9.94485 24.7359 7.97302 28.4398 9.0722 31.9222L9.11311 32.0518C9.89528 34.5298 9.32894 37.2469 7.63762 39.214C5.23837 42.0045 5.56897 46.2415 8.3898 48.6022C10.3783 50.2663 11.3609 52.8431 10.9846 55.4073L10.9581 55.5877C10.4312 59.1786 12.9729 62.4986 16.5773 62.9277C19.1423 63.233 21.3683 64.9045 22.4115 67.2628C23.8839 70.5911 27.8595 72.0714 31.1053 70.4567C33.4124 69.3089 36.1573 69.4777 38.3089 70.8996C41.3358 72.8999 45.4605 71.9176 47.3235 68.7944C48.6436 66.5814 51.0547 65.195 53.6375 65.2062C57.2669 65.2219 60.1903 62.2378 60.1006 58.6091L60.096 58.4267C60.032 55.8355 61.3181 53.3981 63.4927 51.9899C66.5774 49.9924 67.4168 45.8273 65.372 42.7636C63.9305 40.6039 63.6962 37.8376 64.7716 35.4737M64.7716 35.4737L65.1615 35.6515" stroke="#8A007C" stroke-width="0.856841"/>
</g>
<path d="M18.4985 45.9146L19.1109 35.8018L25.8569 36.2166L25.7409 38.1324L21.02 37.8422L20.8825 40.1138L25.0286 40.3687L24.9134 42.2708L20.7673 42.0159L20.5237 46.0391L18.4985 45.9146ZM32.5179 46.7765L30.6062 42.9642L29.402 42.8902L29.1791 46.5713L27.1539 46.4467L27.7663 36.334L31.6387 36.5721C34.006 36.7176 35.0087 38.3039 34.9068 39.9871C34.8331 41.205 34.1427 42.3987 32.6745 42.8304L34.8852 46.9221L32.5179 46.7765ZM29.6779 38.3333L29.5122 41.0701L31.1679 41.1719C32.3037 41.2418 32.783 40.5845 32.8252 39.8866C32.8692 39.1613 32.4283 38.5024 31.5115 38.446L29.6779 38.3333ZM36.7982 47.0397L37.4106 36.9269L44.266 37.3484L44.1517 39.2369L39.3351 38.9407L39.2033 41.1165L43.6642 41.3908L43.5498 43.2792L39.089 43.005L38.9514 45.2766L43.7681 45.5727L43.6537 47.4612L36.7982 47.0397ZM45.9213 47.6006L46.5337 37.4878L53.3892 37.9093L53.2748 39.7978L48.4582 39.5016L48.3264 41.6774L52.7873 41.9517L52.673 43.8401L48.2121 43.5659L48.0745 45.8375L52.8912 46.1336L52.7768 48.0221L45.9213 47.6006Z" fill="white"/>
</g>
</g>
<defs>
<filter id="filter0_d_2_1254" x="2.17957" y="10.085" width="68.1658" height="69.1379" filterUnits="userSpaceOnUse" color-interpolation-filters="sRGB">
<feFlood flood-opacity="0" result="BackgroundImageFix"/>
<feColorMatrix in="SourceAlpha" type="matrix" values="0 0 0 0 0 0 0 0 0 0 0 0 0 0 0 0 0 0 127 0" result="hardAlpha"/>
<feOffset dy="3.42736"/>
<feGaussianBlur stdDeviation="1.71368"/>
<feComposite in2="hardAlpha" operator="out"/>
<feColorMatrix type="matrix" values="0 0 0 0 0.342829 0 0 0 0 0.2925 0 0 0 0 0.675 0 0 0 0.15 0"/>
<feBlend mode="normal" in2="BackgroundImageFix" result="effect1_dropShadow_2_1254"/>
<feBlend mode="normal" in="SourceGraphic" in2="effect1_dropShadow_2_1254" result="shape"/>
</filter>
<clipPath id="clip0_2_1254">
<rect width="72" height="80" fill="white" transform="translate(0.943359 0.96875)"/>
</clipPath>
<clipPath id="clip1_2_1254">
<rect width="72" height="72" fill="white" transform="translate(0.943359 4.96875)"/>
</clipPath>
</defs>
</svg>
