<svg width="56" height="56" viewBox="0 0 56 56" fill="none" xmlns="http://www.w3.org/2000/svg">
<mask id="mask0_2_885" style="mask-type:alpha" maskUnits="userSpaceOnUse" x="0" y="0" width="56" height="56">
<g clip-path="url(#clip0_2_885)">
<path d="M55.4434 28.0186C55.4434 21.8734 55.1773 16.894 54.8338 13.0265C54.2592 6.55552 49.4064 1.70279 42.9355 1.12813C39.068 0.784673 34.0886 0.518555 27.9434 0.518555C21.7982 0.518555 16.8188 0.784673 12.9513 1.12813C6.48033 1.70279 1.6276 6.55552 1.05294 13.0265C0.709477 16.894 0.443359 21.8734 0.443359 28.0186C0.443359 34.3948 0.729864 39.5159 1.09199 43.4422C1.66718 49.6784 6.27051 54.356 12.5086 54.911C16.358 55.2535 21.4386 55.5186 27.9434 55.5186C34.4482 55.5186 39.5288 55.2535 43.3782 54.911C49.6163 54.356 54.2196 49.6784 54.7948 43.4422C55.1569 39.5159 55.4434 34.3948 55.4434 28.0186Z" fill="black"/>
</g>
</mask>
<g mask="url(#mask0_2_885)">
<rect width="55" height="55" transform="translate(0.443359 0.518555)" fill="#F8F8FC"/>
<path d="M40.0233 22.1068L40.0328 22.1286L40.0434 22.15C42.0716 26.2319 41.8025 29.5563 40.2981 32.2131C38.7624 34.9253 35.8652 37.0703 32.4125 38.5608C25.6656 41.4732 17.8974 39.0542 15.2014 32.8217C12.5289 26.6438 16.2764 19.9452 23.0876 17.0051C29.8988 14.0649 37.3509 15.9289 40.0233 22.1068ZM18.4801 32.1138C19.5029 34.4782 21.8687 35.5824 24.2102 35.9391C26.5636 36.2976 29.1322 35.9489 30.9442 35.1667C32.8241 34.3551 34.0774 32.9421 34.5872 31.1445C35.0898 29.3721 34.8443 27.3228 33.9401 25.2326C33.0373 23.1454 31.6357 21.381 29.9557 20.326C28.2579 19.2599 26.2495 18.912 24.2804 19.7619C22.3866 20.5795 20.5 22.5762 19.3068 24.8155C18.1176 27.0473 17.4761 29.793 18.4801 32.1138Z" fill="url(#paint0_linear_2_885)" stroke="#7F76B3" stroke-width="2"/>
<path opacity="0.8" d="M15.1421 32.3881C17.6456 39.9401 25.5361 44.5816 33.0973 42.0953C40.6587 39.6091 44.223 31.2012 41.7195 23.6491C39.2159 16.0971 31.3256 11.4556 23.7642 13.9418C16.2029 16.4281 12.6385 24.836 15.1421 32.3881ZM36.0951 25.4985C37.2569 29.0033 34.2348 37.6807 29.8738 39.1147C25.5127 40.5488 19.4543 36.5476 19.4444 31.3913C19.4344 26.2349 22.3483 24.3566 26.4701 22.9844C30.5918 21.612 34.9332 21.9936 36.0951 25.4985Z" fill="#7F76B3"/>
<path opacity="0.5" d="M39.5145 33.8419C43.1055 27.6223 41.5013 19.5161 35.2877 15.9085C29.0741 12.3009 21.2651 14.942 17.6741 21.1617C14.0832 27.3814 15.6873 35.4876 21.9009 39.0952C28.1146 42.7027 35.9236 40.0616 39.5145 33.8419ZM22.2961 23.8451C23.9626 20.9587 31.628 17.7902 35.2118 19.8708C38.7957 21.9515 39.7323 28.4379 36.2608 31.5386C32.7893 34.6392 29.7743 33.801 26.3757 31.8447C22.9771 29.8884 20.6295 26.7316 22.2961 23.8451Z" fill="url(#paint1_linear_2_885)"/>
</g>
<defs>
<linearGradient id="paint0_linear_2_885" x1="22.7423" y1="16.1738" x2="32.7638" y2="39.3894" gradientUnits="userSpaceOnUse">
<stop stop-color="#7F76B3"/>
<stop offset="1" stop-color="#7F76B3" stop-opacity="0"/>
</linearGradient>
<linearGradient id="paint1_linear_2_885" x1="39.5145" y1="33.8419" x2="17.6435" y2="21.2147" gradientUnits="userSpaceOnUse">
<stop stop-color="white"/>
<stop offset="1" stop-color="white" stop-opacity="0"/>
</linearGradient>
<clipPath id="clip0_2_885">
<rect width="55" height="55" fill="white" transform="translate(0.443359 0.518555)"/>
</clipPath>
</defs>
</svg>
