<svg width="56" height="56" viewBox="0 0 56 56" fill="none" xmlns="http://www.w3.org/2000/svg">
<mask id="mask0_2_814" style="mask-type:alpha" maskUnits="userSpaceOnUse" x="0" y="0" width="56" height="56">
<g clip-path="url(#clip0_2_814)">
<path d="M55.4434 28.0186C55.4434 21.8734 55.1773 16.894 54.8338 13.0265C54.2592 6.55552 49.4064 1.70279 42.9355 1.12813C39.068 0.784673 34.0886 0.518555 27.9434 0.518555C21.7982 0.518555 16.8188 0.784673 12.9513 1.12813C6.48033 1.70279 1.6276 6.55552 1.05294 13.0265C0.709477 16.894 0.443359 21.8734 0.443359 28.0186C0.443359 34.3948 0.729864 39.5159 1.09199 43.4422C1.66718 49.6784 6.27051 54.356 12.5086 54.911C16.358 55.2535 21.4386 55.5186 27.9434 55.5186C34.4482 55.5186 39.5288 55.2535 43.3782 54.911C49.6163 54.356 54.2196 49.6784 54.7948 43.4422C55.1569 39.5159 55.4434 34.3948 55.4434 28.0186Z" fill="black"/>
</g>
</mask>
<g mask="url(#mask0_2_814)">
<rect width="55" height="55" transform="translate(0.443359 0.518555)" fill="#F8F8FC"/>
<g clip-path="url(#clip1_2_814)">
<path d="M34.6935 34.7686C33.541 34.7686 32.5974 34.7884 31.8533 34.8146C30.4599 34.8639 29.2935 35.6244 29.2935 37.0186C29.2935 38.4146 30.457 39.1784 31.8523 39.2255C32.583 39.2503 33.5202 39.2686 34.6935 39.2686C35.8667 39.2686 36.8039 39.2503 37.5346 39.2255C38.9299 39.1784 40.0935 38.4146 40.0935 37.0186C40.0935 35.6244 38.927 34.8639 37.5336 34.8146C36.7896 34.7884 35.8459 34.7686 34.6935 34.7686Z" stroke="#7F76B3" stroke-width="2" stroke-linecap="round" stroke-linejoin="round"/>
<path d="M36.4936 28.0186C36.4936 27.9899 36.4934 27.9617 36.493 27.9338C36.4739 26.5129 35.0969 25.892 33.6766 25.8476C32.3785 25.807 30.4806 25.7686 27.9436 25.7686C25.4065 25.7686 23.5086 25.807 22.2105 25.8476C20.7901 25.892 19.4132 26.5129 19.3941 27.9338C19.3937 27.9617 19.3936 27.9899 19.3936 28.0186C19.3936 28.0638 19.394 28.1082 19.395 28.1517C19.4246 29.5412 20.7713 30.1485 22.1604 30.1921C23.4249 30.2317 25.3083 30.2686 27.9436 30.2686C30.5788 30.2686 32.4623 30.2317 33.7267 30.1921C35.1158 30.1485 36.4625 29.5412 36.4921 28.1517C36.4931 28.1082 36.4936 28.0638 36.4936 28.0186Z" stroke="#7F76B3" stroke-width="2" stroke-linecap="round" stroke-linejoin="round"/>
<path d="M21.1935 16.7686C20.041 16.7686 19.0974 16.7884 18.3533 16.8147C16.96 16.8639 15.7935 17.6244 15.7935 19.0186C15.7935 20.4147 16.957 21.1784 18.3523 21.2256C19.083 21.2503 20.0203 21.2686 21.1935 21.2686C22.3667 21.2686 23.3039 21.2503 24.0346 21.2256C25.4299 21.1784 26.5935 20.4147 26.5935 19.0186C26.5935 17.6244 25.427 16.8639 24.0336 16.8147C23.2895 16.7884 22.3459 16.7686 21.1935 16.7686Z" stroke="#7F76B3" stroke-width="2" stroke-linecap="round" stroke-linejoin="round"/>
</g>
</g>
<defs>
<clipPath id="clip0_2_814">
<rect width="55" height="55" fill="white" transform="translate(0.443359 0.518555)"/>
</clipPath>
<clipPath id="clip1_2_814">
<rect width="26.1" height="24.3" fill="white" transform="translate(14.8936 15.8687)"/>
</clipPath>
</defs>
</svg>
