<svg width="70" height="70" viewBox="0 0 70 70" fill="none" xmlns="http://www.w3.org/2000/svg">
<mask id="mask0_2_868" style="mask-type:alpha" maskUnits="userSpaceOnUse" x="0" y="0" width="70" height="70">
<g clip-path="url(#clip0_2_868)">
<path d="M55.5732 28.1484C55.5732 22.0032 55.3071 17.0238 54.9636 13.1563C54.389 6.68541 49.5362 1.83268 43.0653 1.25802C39.1978 0.914556 34.2184 0.648438 28.0732 0.648438C21.928 0.648438 16.9486 0.914556 13.0811 1.25802C6.61021 1.83268 1.75748 6.68541 1.18282 13.1563C0.83936 17.0238 0.573242 22.0032 0.573242 28.1484C0.573242 34.5246 0.859747 39.6457 1.22188 43.572C1.79706 49.8082 6.40039 54.4858 12.6384 55.0408C16.4878 55.3833 21.5684 55.6484 28.0732 55.6484C34.578 55.6484 39.6586 55.3833 43.508 55.0408C49.7461 54.4858 54.3494 49.8082 54.9246 43.572C55.2867 39.6457 55.5732 34.5246 55.5732 28.1484Z" fill="black"/>
</g>
</mask>
<g mask="url(#mask0_2_868)">
<rect width="68.75" height="68.75" transform="translate(0.573242 0.648438)" fill="url(#paint0_linear_2_868)"/>
<g clip-path="url(#clip1_2_868)">
<path d="M51.3718 34.8506C51.3718 38.5844 51.209 41.605 50.9996 43.9459C50.6511 47.8445 47.7708 50.766 43.871 51.1012C41.5748 51.2987 38.5777 51.4489 34.7735 51.4489C30.9692 51.4489 27.9722 51.2987 25.6761 51.1012C21.7763 50.766 18.8959 47.8445 18.5474 43.9459C18.3381 41.605 18.1753 38.5844 18.1753 34.8506C18.1753 31.2611 18.3257 28.3306 18.5233 26.0296C18.8707 21.9842 21.9071 18.9479 25.9525 18.6005C28.2535 18.4029 31.184 18.2524 34.7735 18.2524" stroke="white" stroke-width="2" stroke-linecap="round" stroke-linejoin="round"/>
<path d="M27.9966 34.5017C32.0097 37.2111 33.729 39.6151 33.729 39.6151C33.729 39.6151 35.4589 35.6768 38.7767 31.3344C42.3504 26.6572 44.9993 24.8955 44.9993 24.8955" stroke="white" stroke-width="2" stroke-linecap="round" stroke-linejoin="round"/>
</g>
</g>
<defs>
<linearGradient id="paint0_linear_2_868" x1="-2.72346" y1="3.2457" x2="71.4735" y2="65.5043" gradientUnits="userSpaceOnUse">
<stop stop-color="#24223E"/>
<stop offset="1" stop-color="#282642"/>
</linearGradient>
<clipPath id="clip0_2_868">
<rect width="68.75" height="68.75" fill="white" transform="translate(0.573242 0.648438)"/>
</clipPath>
<clipPath id="clip1_2_868">
<rect width="36" height="36" fill="white" transform="translate(16.9434 17.0186)"/>
</clipPath>
</defs>
</svg>
