<svg width="56" height="56" viewBox="0 0 56 56" fill="none" xmlns="http://www.w3.org/2000/svg">
<mask id="mask0_2_854" style="mask-type:alpha" maskUnits="userSpaceOnUse" x="0" y="0" width="56" height="56">
<g clip-path="url(#clip0_2_854)">
<path d="M55.4434 28.0186C55.4434 21.8734 55.1773 16.894 54.8338 13.0265C54.2592 6.55552 49.4064 1.70279 42.9355 1.12813C39.068 0.784673 34.0886 0.518555 27.9434 0.518555C21.7982 0.518555 16.8188 0.784673 12.9513 1.12813C6.48033 1.70279 1.6276 6.55552 1.05294 13.0265C0.709477 16.894 0.443359 21.8734 0.443359 28.0186C0.443359 34.3948 0.729864 39.5159 1.09199 43.4422C1.66718 49.6784 6.27051 54.356 12.5086 54.911C16.358 55.2535 21.4386 55.5186 27.9434 55.5186C34.4482 55.5186 39.5288 55.2535 43.3782 54.911C49.6163 54.356 54.2196 49.6784 54.7948 43.4422C55.1569 39.5159 55.4434 34.3948 55.4434 28.0186Z" fill="black"/>
</g>
</mask>
<g mask="url(#mask0_2_854)">
<rect width="55" height="55" transform="translate(0.443359 0.518555)" fill="#F8F8FC"/>
<g clip-path="url(#clip1_2_854)">
<path d="M39.2987 14.9858L41.3416 17.7948L34.9577 34.6484L28.8291 32.3501L35.9791 15.2412L39.2987 14.9858Z" fill="#7F76B3" fill-opacity="0.1"/>
<path d="M33.0257 37.7973C31.7214 39.0049 29.1634 41.3136 28.8099 41.1791C28.4542 41.0439 28.2109 37.6289 28.11 35.8964C28.072 35.244 28.1804 34.5932 28.4181 33.9844L28.8099 32.9813L35.1065 16.858C35.7391 15.2382 37.536 14.3733 39.1614 14.9914C40.7434 15.5929 41.4758 17.395 40.8602 18.9714L34.6367 34.9078L34.1654 36.1143C33.9156 36.7542 33.5298 37.3306 33.0257 37.7973Z" fill="#7F76B3" fill-opacity="0.1"/>
<path d="M28.8099 32.9813L28.4181 33.9844C28.1804 34.5932 28.072 35.244 28.11 35.8964C28.2109 37.6289 28.4542 41.0439 28.8099 41.1791C29.1634 41.3136 31.7214 39.0049 33.0257 37.7973C33.5298 37.3306 33.9156 36.7542 34.1654 36.1143L34.6367 34.9078M28.8099 32.9813L35.1065 16.858C35.7391 15.2382 37.536 14.3733 39.1614 14.9914C40.7434 15.5929 41.4758 17.395 40.8602 18.9714L34.6367 34.9078M28.8099 32.9813C28.8099 32.9813 30.1057 32.786 31.8932 33.377C33.6807 33.9681 34.6367 34.9078 34.6367 34.9078" stroke="#7F76B3" stroke-width="2" stroke-linecap="round" stroke-linejoin="round"/>
<path d="M16.5722 19.3301C16.5722 19.3301 15.5508 21.3579 15.5508 28.0122C15.5508 34.6665 16.5722 36.6943 16.5722 36.6943" stroke="#7F76B3" stroke-width="2" stroke-linecap="round" stroke-linejoin="round"/>
<path d="M19.1255 16.777C19.1255 16.777 20.4023 16.0109 24.6157 15.7556C28.829 15.5002 31.1273 16.0109 31.1273 16.0109" stroke="#7F76B3" stroke-width="2" stroke-linecap="round" stroke-linejoin="round"/>
<path d="M19.1255 39.2495H24.4879" stroke="#7F76B3" stroke-width="2" stroke-linecap="round" stroke-linejoin="round"/>
<path d="M14.5293 17.0341C14.5293 18.3033 15.5582 19.3323 16.8275 19.3323C18.0968 19.3323 19.1257 18.3033 19.1257 17.0341C19.1257 15.7648 18.0968 14.7358 16.8275 14.7358C15.5582 14.7358 14.5293 15.7648 14.5293 17.0341Z" fill="#7F76B3" fill-opacity="0.1" stroke="#7F76B3" stroke-width="2" stroke-linecap="round" stroke-linejoin="round"/>
<path d="M14.5293 38.9945C14.5293 40.2638 15.5582 41.2927 16.8275 41.2927C18.0968 41.2927 19.1257 40.2638 19.1257 38.9945C19.1257 37.7253 18.0968 36.6963 16.8275 36.6963C15.5582 36.6963 14.5293 37.7253 14.5293 38.9945Z" fill="#7F76B3" fill-opacity="0.1" stroke="#7F76B3" stroke-width="2" stroke-linecap="round" stroke-linejoin="round"/>
</g>
</g>
<defs>
<clipPath id="clip0_2_854">
<rect width="55" height="55" fill="white" transform="translate(0.443359 0.518555)"/>
</clipPath>
<clipPath id="clip1_2_854">
<rect width="28.8" height="28.8" fill="white" transform="translate(13.5435 13.6187)"/>
</clipPath>
</defs>
</svg>
