<svg width="56" height="56" viewBox="0 0 56 56" fill="none" xmlns="http://www.w3.org/2000/svg">
<mask id="mask0_2_894" style="mask-type:alpha" maskUnits="userSpaceOnUse" x="0" y="0" width="56" height="56">
<g clip-path="url(#clip0_2_894)">
<path d="M55.4434 28.0186C55.4434 21.8734 55.1773 16.894 54.8338 13.0265C54.2592 6.55552 49.4064 1.70279 42.9355 1.12813C39.068 0.784673 34.0886 0.518555 27.9434 0.518555C21.7982 0.518555 16.8188 0.784673 12.9513 1.12813C6.48033 1.70279 1.6276 6.55552 1.05294 13.0265C0.709477 16.894 0.443359 21.8734 0.443359 28.0186C0.443359 34.3948 0.729864 39.5159 1.09199 43.4422C1.66718 49.6784 6.27051 54.356 12.5086 54.911C16.358 55.2535 21.4386 55.5186 27.9434 55.5186C34.4482 55.5186 39.5288 55.2535 43.3782 54.911C49.6163 54.356 54.2196 49.6784 54.7948 43.4422C55.1569 39.5159 55.4434 34.3948 55.4434 28.0186Z" fill="black"/>
</g>
</mask>
<g mask="url(#mask0_2_894)">
<rect width="55" height="55" transform="translate(0.443359 0.518555)" fill="#F8F8FC"/>
<g clip-path="url(#clip1_2_894)">
<path d="M41.3789 28.0171C41.3789 26.5194 41.3176 25.218 41.2251 24.1066C40.9611 20.9368 38.4323 18.7263 35.258 18.5233C33.4023 18.4047 31.0246 18.3135 28.1004 18.3135C25.176 18.3135 22.7985 18.4047 20.9427 18.5233C17.7684 18.7263 15.2396 20.9368 14.9756 24.1066C14.8831 25.218 14.8218 26.5194 14.8218 28.0171C14.8218 29.5884 14.8893 30.9436 14.9895 32.0902C15.2589 35.171 17.6924 37.319 20.7787 37.5146C22.6213 37.6314 25.0328 37.7206 28.1004 37.7206C31.1679 37.7206 33.5795 37.6314 35.422 37.5146C38.5083 37.319 40.9417 35.171 41.2112 32.0902C41.3115 30.9436 41.3789 29.5884 41.3789 28.0171Z" fill="#7F76B3" fill-opacity="0.1" stroke="#7F76B3" stroke-width="2" stroke-linecap="round" stroke-linejoin="round"/>
<path d="M29.1221 30.0591L32.697 32.6127L36.272 30.0591" stroke="#7F76B3" stroke-width="2" stroke-linecap="round" stroke-linejoin="round"/>
<path d="M36.2715 25.974L32.6966 23.4204L29.1216 25.974" stroke="#7F76B3" stroke-width="2" stroke-linecap="round" stroke-linejoin="round"/>
</g>
</g>
<defs>
<clipPath id="clip0_2_894">
<rect width="55" height="55" fill="white" transform="translate(0.443359 0.518555)"/>
</clipPath>
<clipPath id="clip1_2_894">
<rect width="29.7" height="22.5" fill="white" transform="translate(13.0933 16.7686)"/>
</clipPath>
</defs>
</svg>
