<svg width="56" height="56" viewBox="0 0 56 56" fill="none" xmlns="http://www.w3.org/2000/svg">
<mask id="mask0_2_876" style="mask-type:alpha" maskUnits="userSpaceOnUse" x="0" y="0" width="56" height="56">
<g clip-path="url(#clip0_2_876)">
<path d="M55.4434 28.0186C55.4434 21.8734 55.1773 16.894 54.8338 13.0265C54.2592 6.55552 49.4064 1.70279 42.9355 1.12813C39.068 0.784673 34.0886 0.518555 27.9434 0.518555C21.7982 0.518555 16.8188 0.784673 12.9513 1.12813C6.48033 1.70279 1.6276 6.55552 1.05294 13.0265C0.709477 16.894 0.443359 21.8734 0.443359 28.0186C0.443359 34.3948 0.729864 39.5159 1.09199 43.4422C1.66718 49.6784 6.27051 54.356 12.5086 54.911C16.358 55.2535 21.4386 55.5186 27.9434 55.5186C34.4482 55.5186 39.5288 55.2535 43.3782 54.911C49.6163 54.356 54.2196 49.6784 54.7948 43.4422C55.1569 39.5159 55.4434 34.3948 55.4434 28.0186Z" fill="black"/>
</g>
</mask>
<g mask="url(#mask0_2_876)">
<rect width="55" height="55" transform="translate(0.443359 0.518555)" fill="#F8F8FC"/>
<g clip-path="url(#clip1_2_876)">
<path d="M41.3008 28.1536C41.3008 25.282 41.1804 22.9375 41.0224 21.0967C40.7445 17.8604 38.3154 15.4313 35.0791 15.1534C33.2383 14.9953 30.8939 14.875 28.0223 14.875C25.1506 14.875 22.8061 14.9953 20.9654 15.1534C17.7291 15.4313 15.3 17.8604 15.0221 21.0967C14.864 22.9375 14.7437 25.282 14.7437 28.1536C14.7437 31.1405 14.8739 33.557 15.0413 35.4297C15.3202 38.5486 17.6244 40.8858 20.7442 41.154C22.5811 41.312 24.9788 41.4321 28.0223 41.4321C31.0656 41.4321 33.4633 41.312 35.3002 41.154C38.42 40.8858 40.7243 38.5486 41.0031 35.4297C41.1706 33.557 41.3008 31.1405 41.3008 28.1536Z" stroke="#7F76B3" stroke-width="2" stroke-linecap="round" stroke-linejoin="round"/>
<path d="M40.7896 22.2812L34.9702 28.5662C34.6129 28.9521 34.1013 29.1574 33.5763 29.1257L26.9136 28.7218C26.3294 28.6865 25.7661 28.9445 25.4114 29.41L22.3147 33.4745C22.044 33.8299 21.6479 34.0685 21.2072 34.142L15.7646 35.0491" stroke="#7F76B3" stroke-width="2" stroke-linecap="round" stroke-linejoin="round"/>
<path d="M34.4057 28.9206L41.3003 22.2812L40.7896 38.1134L36.4485 41.1777L20.361 41.433L16.786 39.6455L14.9985 35.0491L21.8932 34.0277L26.4896 28.6652L34.4057 28.9206Z" fill="#7F76B3" fill-opacity="0.1"/>
</g>
</g>
<defs>
<clipPath id="clip0_2_876">
<rect width="55" height="55" fill="white" transform="translate(0.443359 0.518555)"/>
</clipPath>
<clipPath id="clip1_2_876">
<rect width="29.7" height="28.8" fill="white" transform="translate(13.0933 13.6187)"/>
</clipPath>
</defs>
</svg>
