<svg width="56" height="56" viewBox="0 0 56 56" fill="none" xmlns="http://www.w3.org/2000/svg">
<mask id="mask0_2_823" style="mask-type:alpha" maskUnits="userSpaceOnUse" x="0" y="0" width="56" height="56">
<g clip-path="url(#clip0_2_823)">
<path d="M55.4434 28.0186C55.4434 21.8734 55.1773 16.894 54.8338 13.0265C54.2592 6.55552 49.4064 1.70279 42.9355 1.12813C39.068 0.784673 34.0886 0.518555 27.9434 0.518555C21.7982 0.518555 16.8188 0.784673 12.9513 1.12813C6.48033 1.70279 1.6276 6.55552 1.05294 13.0265C0.709477 16.894 0.443359 21.8734 0.443359 28.0186C0.443359 34.3948 0.729864 39.5159 1.09199 43.4422C1.66718 49.6784 6.27051 54.356 12.5086 54.911C16.358 55.2535 21.4386 55.5186 27.9434 55.5186C34.4482 55.5186 39.5288 55.2535 43.3782 54.911C49.6163 54.356 54.2196 49.6784 54.7948 43.4422C55.1569 39.5159 55.4434 34.3948 55.4434 28.0186Z" fill="black"/>
</g>
</mask>
<g mask="url(#mask0_2_823)">
<rect width="55" height="55" transform="translate(0.443359 0.518555)" fill="#F8F8FC"/>
<g clip-path="url(#clip1_2_823)">
<path fill-rule="evenodd" clip-rule="evenodd" d="M27.8061 41.2744C25.5839 41.2744 23.7963 41.169 22.3932 41.026C19.719 40.7533 17.8416 38.6828 17.6221 36.0037C17.4652 34.0875 17.3364 31.46 17.3364 27.9959C17.3364 24.5318 17.4652 21.9042 17.6221 19.988C17.8416 17.3089 19.719 15.2384 22.3932 14.9657C23.7963 14.8227 25.584 14.7173 27.8061 14.7173C29.9923 14.7173 31.8089 14.8193 33.2713 14.9588C36.1913 15.2375 38.292 17.5186 38.5193 20.443C38.6677 22.3523 38.7864 24.8597 38.7864 27.9959C38.7864 29.1986 38.769 30.309 38.7391 31.3285C36.25 33.425 33.2443 33.4508 31.6794 33.2814C31.2172 33.2314 30.776 33.6976 30.8433 34.1576C31.067 35.6868 31.0953 38.6273 28.8089 41.2671C28.4837 41.2719 28.1494 41.2744 27.8061 41.2744Z" fill="#7F76B3" fill-opacity="0.1"/>
<path d="M22.8158 41.0673C24.1499 41.1891 25.8012 41.2749 27.8061 41.2749C29.765 41.2749 31.4273 41.193 32.8038 41.0756C36.0155 40.8016 38.3246 38.2972 38.5542 35.0819C38.6858 33.2368 38.7865 30.883 38.7865 27.9964C38.7865 25.1097 38.6858 22.7559 38.5542 20.9107C38.3246 17.6956 36.0155 15.1911 32.8038 14.9171C31.4273 14.7997 29.765 14.7178 27.8061 14.7178C25.8012 14.7178 24.1499 14.8036 22.8158 14.9254C19.8741 15.1941 17.8112 17.4662 17.5889 20.4118C17.4474 22.2858 17.3364 24.7807 17.3364 27.9964C17.3364 31.212 17.4474 33.7069 17.5889 35.581C17.8112 38.5265 19.8741 40.7986 22.8158 41.0673Z" fill="#7F76B3" fill-opacity="0.1" stroke="#7F76B3" stroke-width="2" stroke-linecap="round" stroke-linejoin="round"/>
<path d="M38.5312 31.061C35.6165 34.2311 33.3834 31.1016 31.1258 33.3592C28.8683 35.6168 31.9977 37.8499 28.5723 41.0199" stroke="#7F76B3" stroke-width="2" stroke-linecap="round" stroke-linejoin="round"/>
<path d="M22.9541 20.8467H33.1683" stroke="#7F76B3" stroke-width="2" stroke-linecap="round" stroke-linejoin="round"/>
<path d="M22.9541 25.9541H29.5934" stroke="#7F76B3" stroke-width="2" stroke-linecap="round" stroke-linejoin="round"/>
</g>
</g>
<defs>
<clipPath id="clip0_2_823">
<rect width="55" height="55" fill="white" transform="translate(0.443359 0.518555)"/>
</clipPath>
<clipPath id="clip1_2_823">
<rect width="24.3" height="28.8" fill="white" transform="translate(15.7935 13.6187)"/>
</clipPath>
</defs>
</svg>
