<svg width="145" height="33" viewBox="0 0 145 33" fill="none" xmlns="http://www.w3.org/2000/svg">
<g clip-path="url(#clip0_2_1687)">
<path d="M23.1734 0.538086H2.71336C1.74336 0.538086 0.943359 1.30809 0.943359 2.25809V22.8181C0.943359 23.7681 1.74336 24.5381 2.71336 24.5381H23.1734C24.1534 24.5381 24.9434 23.7681 24.9434 22.8181V2.25809C24.9434 1.30809 24.1434 0.538086 23.1734 0.538086ZM8.21336 20.6381H4.59336V9.77809H8.21336V20.6381ZM6.41336 8.29809H6.38336C5.16336 8.29809 4.38336 7.46809 4.38336 6.42809C4.38336 5.36809 5.18336 4.55809 6.43336 4.55809C7.67336 4.55809 8.43336 5.35809 8.45336 6.42809C8.45336 7.46809 7.67336 8.29809 6.40336 8.29809H6.41336ZM21.2834 20.6381H17.6534V14.8381C17.6534 13.3881 17.1334 12.3881 15.8234 12.3881C14.8234 12.3881 14.2234 13.0581 13.9534 13.7081C13.8534 13.9381 13.8434 14.2581 13.8434 14.5881V20.6381H10.2234C10.2234 20.6381 10.2734 10.8181 10.2234 9.79809H13.8534V11.3381C14.181 10.7694 14.658 10.3011 15.2325 9.98382C15.8071 9.66656 16.4575 9.51243 17.1134 9.53809C19.5034 9.53809 21.2934 11.0981 21.2934 14.4281V20.6381H21.2834Z" fill="white"/>
</g>
<g clip-path="url(#clip1_2_1687)">
<path d="M63.4434 0.538086C64.2734 0.538086 64.9434 1.20809 64.9434 2.03809V23.0381C64.9434 23.8681 64.2734 24.5381 63.4434 24.5381H57.4434V15.5381H60.4434L61.1934 11.7881H57.4434V10.2881C57.4434 8.78809 58.1934 8.03809 59.6934 8.03809H61.1934V4.28809H58.1934C55.4334 4.28809 53.6934 6.44809 53.6934 9.53809V11.7881H50.6934V15.5381H53.6934V24.5381H42.4434C42.0455 24.5381 41.664 24.38 41.3827 24.0987C41.1014 23.8174 40.9434 23.4359 40.9434 23.0381V2.03809C40.9434 1.20809 41.6134 0.538086 42.4434 0.538086H63.4434Z" fill="white"/>
</g>
<g clip-path="url(#clip2_2_1687)">
<path d="M97.9235 0.538289C98.8604 0.505942 99.794 0.664828 100.667 1.00525C101.541 1.34567 102.336 1.86049 103.004 2.51829C103.647 3.18609 104.151 3.97618 104.484 4.84184C104.817 5.70751 104.973 6.63119 104.944 7.55829V17.5183C104.944 19.5983 104.264 21.3883 102.964 22.6483C101.584 23.9215 99.7595 24.6005 97.8835 24.5383H88.0035C86.1433 24.5959 84.3356 23.9167 82.9735 22.6483C82.2984 21.9721 81.7697 21.164 81.4205 20.2746C81.0712 19.3851 80.9089 18.4332 80.9435 17.4783V7.55829C80.9435 3.33829 83.7435 0.538289 87.9635 0.538289H97.9235ZM97.9735 2.76829H88.0035C86.5535 2.76829 85.3035 3.19829 84.4735 4.01829C84.03 4.49068 83.6863 5.04763 83.463 5.65587C83.2396 6.26411 83.1412 6.91114 83.1735 7.55829V17.4783C83.1735 18.9783 83.6035 20.1783 84.4735 21.0583C85.4439 21.9165 86.7094 22.3646 88.0035 22.3083H97.8835C99.1777 22.3646 100.443 21.9165 101.414 21.0583C101.879 20.5974 102.244 20.0447 102.485 19.4353C102.726 18.826 102.838 18.1731 102.814 17.5183V7.55829C102.846 6.27095 102.38 5.02081 101.514 4.06829C101.041 3.62478 100.484 3.28107 99.876 3.05771C99.2677 2.83435 98.6207 2.73591 97.9735 2.76829ZM92.9435 6.29829C96.3335 6.29829 99.1435 9.09829 99.1435 12.4983C99.1435 14.1426 98.4903 15.7196 97.3276 16.8824C96.1649 18.0451 94.5879 18.6983 92.9435 18.6983C91.2992 18.6983 89.7222 18.0451 88.5595 16.8824C87.3968 15.7196 86.7435 14.1426 86.7435 12.4983C86.7435 10.8539 87.3968 9.27695 88.5595 8.11423C89.7222 6.9515 91.2992 6.29829 92.9435 6.29829ZM92.9435 8.51829C91.8923 8.52355 90.8855 8.9435 90.1421 9.68688C89.3988 10.4303 88.9788 11.437 88.9735 12.4883C88.9788 13.5396 89.3988 14.5463 90.1421 15.2897C90.8855 16.0331 91.8923 16.453 92.9435 16.4583C93.9948 16.453 95.0016 16.0331 95.745 15.2897C96.4883 14.5463 96.9083 13.5396 96.9135 12.4883C96.9083 11.437 96.4883 10.4303 95.745 9.68688C95.0016 8.9435 93.9948 8.52355 92.9435 8.51829ZM99.3835 4.74829C99.7548 4.74829 100.111 4.89579 100.373 5.15834C100.636 5.42089 100.784 5.77699 100.784 6.14829C100.784 6.51959 100.636 6.87569 100.373 7.13824C100.111 7.40079 99.7548 7.54829 99.3835 7.54829C99.0122 7.54829 98.6561 7.40079 98.3936 7.13824C98.131 6.87569 97.9835 6.51959 97.9835 6.14829C97.9835 5.77699 98.131 5.42089 98.3936 5.15834C98.6561 4.89579 99.0122 4.74829 99.3835 4.74829Z" fill="white"/>
</g>
<path d="M139.187 2.78809H142.495L135.268 11.0481L143.77 22.2881H137.113L131.899 15.4711L125.933 22.2881H122.623L130.353 13.4531L122.197 2.78809H129.023L133.736 9.01909L139.187 2.78809ZM138.026 20.3081H139.859L128.027 4.66409H126.06L138.026 20.3081Z" fill="white"/>
<defs>
<clipPath id="clip0_2_1687">
<rect width="24" height="24" fill="white" transform="translate(0.943359 0.538086)"/>
</clipPath>
<clipPath id="clip1_2_1687">
<rect width="24" height="24" fill="white" transform="translate(40.9434 0.538086)"/>
</clipPath>
<clipPath id="clip2_2_1687">
<rect width="24" height="24" fill="white" transform="translate(80.9434 0.538086)"/>
</clipPath>
</defs>
</svg>
