<svg width="41" height="41" viewBox="0 0 41 41" fill="none" xmlns="http://www.w3.org/2000/svg">
<mask id="mask0_2_1238" style="mask-type:alpha" maskUnits="userSpaceOnUse" x="0" y="0" width="41" height="41">
<g clip-path="url(#clip0_2_1238)">
<path d="M20.9434 40.9678C24.8435 40.9678 28.0979 40.8204 30.7327 40.6169C36.1303 40.1999 40.1755 36.1548 40.5925 30.7572C40.796 28.1225 40.9434 24.8682 40.9434 20.9683C40.9434 17.0684 40.796 13.8142 40.5925 11.1794C40.1755 5.78179 36.1303 1.7366 30.7327 1.31966C28.0979 1.11613 24.8435 0.96875 20.9434 0.96875C16.8618 0.96875 13.4874 1.13017 10.7903 1.34843C5.58837 1.76938 1.69832 5.60881 1.29653 10.8122C1.09184 13.4632 0.94336 16.8169 0.943359 20.9683C0.943359 25.1197 1.09183 28.4734 1.29653 31.1243C1.69831 36.3277 5.58837 40.1672 10.7902 40.5881C13.4874 40.8064 16.8618 40.9678 20.9434 40.9678Z" fill="black"/>
</g>
</mask>
<g mask="url(#mask0_2_1238)">
<rect width="40" height="40" transform="translate(0.943359 0.96875)" fill="#F8F8FC"/>
<g clip-path="url(#clip1_2_1238)">
<path d="M20.751 9.08691C14.2945 9.08691 9.06055 14.3209 9.06055 20.7773C9.06055 21.0923 9.073 21.4043 9.09744 21.713C9.25193 23.6639 11.6523 24.0925 13.1308 22.8104C15.9419 20.3726 20.4056 17.2757 25.0225 17.1803C28.5716 17.107 30.2305 18.8483 30.9893 20.735C31.2538 21.3925 32.4414 21.4861 32.4414 20.7774C32.4414 14.3209 27.2075 9.08691 20.751 9.08691Z" fill="#242236" fill-opacity="0.09"/>
<path d="M25.0219 19.6533L21.8745 27.0722" stroke="#24223E" stroke-width="2" stroke-linecap="round" stroke-linejoin="round"/>
<path d="M31.5422 25.2816C32.1215 23.8953 32.4414 22.3737 32.4414 20.7774C32.4414 14.3209 27.2075 9.08691 20.751 9.08691C14.2945 9.08691 9.06055 14.3209 9.06055 20.7773C9.06055 22.5451 9.4529 24.2212 10.1553 25.7233" stroke="#24223E" stroke-width="2" stroke-linecap="round" stroke-linejoin="round"/>
<path d="M13.1079 21.0327C13.1079 16.6703 16.7314 13.1338 21.2013 13.1338" stroke="#24223E" stroke-width="2" stroke-linecap="round" stroke-linejoin="round"/>
<path d="M20.7505 32.4678C22.2405 32.4678 23.4483 31.26 23.4483 29.7701C23.4483 28.2801 22.2405 27.0723 20.7505 27.0723C19.2606 27.0723 18.0527 28.2801 18.0527 29.7701C18.0527 31.26 19.2606 32.4678 20.7505 32.4678Z" fill="#242236" fill-opacity="0.09" stroke="#24223E" stroke-width="2" stroke-linecap="round" stroke-linejoin="round"/>
</g>
</g>
<defs>
<clipPath id="clip0_2_1238">
<rect width="40" height="40" fill="white" transform="translate(0.943359 0.96875)"/>
</clipPath>
<clipPath id="clip1_2_1238">
<rect width="26" height="26" fill="white" transform="translate(7.94336 7.96875)"/>
</clipPath>
</defs>
</svg>
