<svg width="97" height="43" viewBox="0 0 97 43" fill="none" xmlns="http://www.w3.org/2000/svg">
<path d="M61.5557 3.83098L63.5335 10.612L62.9684 28.1294L58.1652 31.5199L46.5811 31.7037L51.1017 2.13574L61.5557 3.83098Z" fill="#514B81" fill-opacity="0.1"/>
<path d="M42.625 17.1102L39.9682 12.5936C39.8641 12.4167 39.8641 12.1974 39.9682 12.0205L42.6251 7.50391" stroke="#514B81" stroke-width="2" stroke-linecap="round" stroke-linejoin="round"/>
<path d="M55.0586 17.1104L57.7155 21.6271C57.8195 21.8039 57.8195 22.0233 57.7155 22.2001L55.0586 26.7168" stroke="#514B81" stroke-width="2" stroke-linecap="round" stroke-linejoin="round"/>
<path d="M46.582 31.2372L51.1026 2.70068" stroke="#514B81" stroke-width="2" stroke-linecap="round" stroke-linejoin="round"/>
<path d="M63.5336 17.1101C63.5336 13.2754 63.3396 10.2904 63.1124 8.10922C62.8166 5.26937 60.6822 3.13496 57.8423 2.83914C55.6611 2.61192 52.6762 2.41797 48.8415 2.41797C45.0069 2.41797 42.0219 2.61192 39.8407 2.83914C37.0008 3.13496 34.8664 5.26937 34.5706 8.10922C34.3434 10.2904 34.1494 13.2754 34.1494 17.1101C34.1494 21.0576 34.355 24.1046 34.5907 26.3014C34.8845 29.0381 36.9085 31.0983 39.6459 31.3856C41.7913 31.6108 44.8025 31.8021 48.8415 31.8021C52.8805 31.8021 55.8917 31.6108 58.0371 31.3856C60.7745 31.0983 62.7985 29.0381 63.0923 26.3014C63.328 24.1046 63.5336 21.0576 63.5336 17.1101Z" stroke="#514B81" stroke-width="2" stroke-linecap="round" stroke-linejoin="round"/>
</svg>
