<svg width="41" height="41" viewBox="0 0 41 41" fill="none" xmlns="http://www.w3.org/2000/svg">
<mask id="mask0_2_1216" style="mask-type:alpha" maskUnits="userSpaceOnUse" x="0" y="0" width="41" height="41">
<g clip-path="url(#clip0_2_1216)">
<path d="M20.9434 40.9678C24.8435 40.9678 28.0979 40.8204 30.7327 40.6169C36.1303 40.1999 40.1755 36.1548 40.5925 30.7572C40.796 28.1225 40.9434 24.8682 40.9434 20.9683C40.9434 17.0684 40.796 13.8142 40.5925 11.1794C40.1755 5.78179 36.1303 1.7366 30.7327 1.31966C28.0979 1.11613 24.8435 0.96875 20.9434 0.96875C16.8618 0.96875 13.4874 1.13017 10.7903 1.34843C5.58837 1.76938 1.69832 5.60881 1.29653 10.8122C1.09184 13.4632 0.94336 16.8169 0.943359 20.9683C0.943359 25.1197 1.09183 28.4734 1.29653 31.1243C1.69831 36.3277 5.58837 40.1672 10.7902 40.5881C13.4874 40.8064 16.8618 40.9678 20.9434 40.9678Z" fill="black"/>
</g>
</mask>
<g mask="url(#mask0_2_1216)">
<rect width="40" height="40" transform="translate(0.943359 0.96875)" fill="#F8F8FC"/>
<g clip-path="url(#clip1_2_1216)">
<path fill-rule="evenodd" clip-rule="evenodd" d="M20.7288 32.047C18.612 32.047 16.9645 31.9332 15.7251 31.7884C13.7666 31.5597 12.3895 30.0377 12.2111 28.074C12.062 26.4337 11.9316 24.0853 11.9316 20.8897C11.9316 17.6941 12.062 15.3457 12.2111 13.7054C12.3895 11.7417 13.7666 10.2197 15.7251 9.99095C16.9645 9.84622 18.612 9.73242 20.7288 9.73242C22.8261 9.73242 24.5186 9.84415 25.8255 9.98699C27.9645 10.2208 29.5036 11.8933 29.689 14.037C29.8323 15.695 29.955 17.9674 29.955 20.8897C29.955 21.9002 29.9403 22.833 29.9152 23.6896C27.7609 25.5038 25.1464 25.4722 23.8685 25.3169C23.53 25.2757 23.2092 25.6159 23.2637 25.9525C23.4659 27.201 23.5514 29.7552 21.5712 32.0408C21.298 32.0449 21.0172 32.047 20.7288 32.047Z" fill="#242236" fill-opacity="0.09"/>
<path d="M15.7251 31.7884C16.9645 31.9332 18.612 32.047 20.7287 32.047C22.826 32.047 24.5186 31.9352 25.8255 31.7924C27.9644 31.5586 29.5036 29.8861 29.6889 27.7424C29.8323 26.0844 29.9549 23.812 29.9549 20.8897C29.9549 17.9674 29.8323 15.695 29.6889 14.037C29.5036 11.8933 27.9644 10.2208 25.8255 9.98699C24.5186 9.84415 22.826 9.73242 20.7287 9.73242C18.612 9.73242 16.9645 9.84622 15.7251 9.99095C13.7666 10.2197 12.3894 11.7417 12.2111 13.7054C12.062 15.3457 11.9316 17.6941 11.9316 20.8897C11.9316 24.0853 12.062 26.4337 12.2111 28.074C12.3894 30.0377 13.7666 31.5597 15.7251 31.7884Z" stroke="#24223E" stroke-width="2" stroke-linecap="round" stroke-linejoin="round"/>
<path d="M29.7401 23.4639C27.291 26.1276 25.4147 23.4981 23.5178 25.395C21.6208 27.2919 24.2503 29.1683 21.3721 31.8319" stroke="#24223E" stroke-width="2" stroke-linecap="round" stroke-linejoin="round"/>
<path d="M16.6523 14.8818H25.2349" stroke="#24223E" stroke-width="2" stroke-linecap="round" stroke-linejoin="round"/>
<path d="M16.6523 19.1729H22.231" stroke="#24223E" stroke-width="2" stroke-linecap="round" stroke-linejoin="round"/>
</g>
</g>
<defs>
<clipPath id="clip0_2_1216">
<rect width="40" height="40" fill="white" transform="translate(0.943359 0.96875)"/>
</clipPath>
<clipPath id="clip1_2_1216">
<rect width="22" height="26" fill="white" transform="translate(9.94336 7.96875)"/>
</clipPath>
</defs>
</svg>
