<svg width="386" height="280" viewBox="0 0 386 280" fill="none" xmlns="http://www.w3.org/2000/svg">
<mask id="mask0_2_1285" style="mask-type:alpha" maskUnits="userSpaceOnUse" x="0" y="0" width="386" height="280">
<g clip-path="url(#clip0_2_1285)">
<path d="M-4.62891 3.70508L416.307 32.927V328.158H-4.62891V3.70508Z" fill="black"/>
</g>
</mask>
<g mask="url(#mask0_2_1285)">
<rect width="385" height="279" transform="translate(0.443359 0.158203)" fill="url(#paint0_linear_2_1285)"/>
<g clip-path="url(#clip1_2_1285)">
<path d="M45.8337 41.3644V44.8216H53.8439V49.3992H45.8337V57.5501H40.4434V36.7936H54.4322V41.3644H45.8337ZM58.7349 57.5501V36.7936H64.1252V57.5501H58.7349ZM84.5646 57.5501L74.6322 44.8489V57.5433H69.2419V36.7936H74.6322L84.5714 49.488V36.7936H89.9617V57.5501H84.5646ZM108.965 57.5501L107.624 53.9427H100.181L98.7517 57.5501H93.0878L100.934 36.7936H106.912L114.731 57.5501H108.965ZM103.916 43.2365L101.673 49.8365H106.16L103.916 43.2365ZM145.397 41.3644V57.5433H140.007V41.3644H135.013V36.7936H150.486V41.3644H145.397ZM164.646 57.5501L159.474 49.5837V57.5501H154.084V36.7936H162.498C164.461 36.7936 166.171 37.1694 167.574 38.6315C168.757 39.8476 169.352 41.5557 169.352 43.2365C169.352 44.5414 168.948 46.0035 168.169 47.0625C167.327 48.2104 166.205 48.7433 164.837 49.0507L171.349 57.5433H164.646V57.5501ZM160.5 40.9613H159.474V46.0992H160.5C162.183 46.0992 163.804 45.4433 163.804 43.5166C163.804 41.583 162.149 40.9613 160.5 40.9613ZM188.67 57.5501L187.329 53.9427H179.886L178.457 57.5501H172.759L180.735 36.7936H186.624L194.443 57.5501H188.67ZM183.621 43.2365L181.378 49.8365H185.865L183.621 43.2365ZM131.976 54.4824C130.622 57.1197 127.379 58.1582 124.581 58.1582C121.968 58.1582 119.348 57.229 117.207 55.7532L119.608 51.4011C120.963 52.5967 122.563 53.5396 124.424 53.5396C125.744 53.5396 127.037 52.9725 127.037 51.4625C127.037 47.8141 118.131 50.5812 118.131 43.2296C118.131 38.9868 121.024 36.1582 125.245 36.1582C127.571 36.1582 129.616 36.657 131.661 37.7228L129.828 42.157C128.788 41.3098 127.543 40.688 126.155 40.688C125.088 40.688 123.829 41.2824 123.829 42.5122C123.829 45.5936 132.763 43.5781 132.763 50.7452C132.763 51.9408 132.544 53.4166 131.976 54.4824Z" fill="white"/>
</g>
<path d="M49.2031 101.822L48.0996 106.158H45.4434L47.2988 101.822H49.2031ZM45.1406 101.822L44.0664 106.158H41.3809L43.2266 101.822H45.1406ZM70.2285 102.154L66.5273 116.158H63.0312L60.707 107.174C60.5833 106.705 60.5085 106.181 60.4824 105.602H60.4434C60.3848 106.24 60.3001 106.764 60.1895 107.174L57.8066 116.158H54.1641L50.4824 102.154H53.9297L55.9023 111.48C55.987 111.878 56.0488 112.411 56.0879 113.082H56.1465C56.1725 112.581 56.2669 112.034 56.4297 111.441L58.9688 102.154H62.3477L64.6426 111.559C64.7272 111.904 64.8021 112.405 64.8672 113.062H64.9062C64.9323 112.548 65.0007 112.027 65.1113 111.5L67.0449 102.154H70.2285ZM73.2656 104.576C72.7448 104.576 72.3184 104.423 71.9863 104.117C71.6543 103.805 71.4883 103.424 71.4883 102.975C71.4883 102.512 71.6543 102.135 71.9863 101.842C72.3184 101.549 72.7448 101.402 73.2656 101.402C73.793 101.402 74.2194 101.549 74.5449 101.842C74.877 102.135 75.043 102.512 75.043 102.975C75.043 103.443 74.877 103.827 74.5449 104.127C74.2194 104.426 73.793 104.576 73.2656 104.576ZM74.7891 116.158H71.7031V106.158H74.7891V116.158ZM83.4316 116.041C82.9759 116.282 82.2891 116.402 81.3711 116.402C79.1966 116.402 78.1094 115.273 78.1094 113.014V108.434H76.4883V106.158H78.1094V104L81.1855 103.121V106.158H83.4316V108.434H81.1855V112.477C81.1855 113.518 81.599 114.039 82.4258 114.039C82.7513 114.039 83.0866 113.945 83.4316 113.756V116.041ZM94.7793 116.158H91.7031V110.475C91.7031 109.01 91.1693 108.277 90.1016 108.277C89.5547 108.277 89.112 108.482 88.7734 108.893C88.4349 109.303 88.2656 109.824 88.2656 110.455V116.158H85.1797V101.354H88.2656V107.643H88.3047C89.0599 106.49 90.0853 105.914 91.3809 105.914C93.6465 105.914 94.7793 107.281 94.7793 110.016V116.158ZM113.1 115.66C112.077 116.155 110.743 116.402 109.096 116.402C106.947 116.402 105.258 115.771 104.027 114.508C102.797 113.245 102.182 111.562 102.182 109.459C102.182 107.219 102.872 105.403 104.252 104.01C105.639 102.617 107.436 101.92 109.643 101.92C111.01 101.92 112.162 102.092 113.1 102.438V105.475C112.162 104.915 111.094 104.635 109.896 104.635C108.581 104.635 107.52 105.048 106.713 105.875C105.906 106.702 105.502 107.822 105.502 109.234C105.502 110.589 105.883 111.669 106.645 112.477C107.406 113.277 108.432 113.678 109.721 113.678C110.951 113.678 112.077 113.378 113.1 112.779V115.66ZM118.324 116.158H115.238V101.354H118.324V116.158ZM122.484 104.576C121.964 104.576 121.537 104.423 121.205 104.117C120.873 103.805 120.707 103.424 120.707 102.975C120.707 102.512 120.873 102.135 121.205 101.842C121.537 101.549 121.964 101.402 122.484 101.402C123.012 101.402 123.438 101.549 123.764 101.842C124.096 102.135 124.262 102.512 124.262 102.975C124.262 103.443 124.096 103.827 123.764 104.127C123.438 104.426 123.012 104.576 122.484 104.576ZM124.008 116.158H120.922V106.158H124.008V116.158ZM134.184 115.797C133.487 116.201 132.481 116.402 131.166 116.402C129.63 116.402 128.386 115.937 127.436 115.006C126.485 114.075 126.01 112.874 126.01 111.402C126.01 109.703 126.518 108.365 127.533 107.389C128.555 106.406 129.919 105.914 131.625 105.914C132.803 105.914 133.656 106.07 134.184 106.383V109C133.539 108.518 132.82 108.277 132.025 108.277C131.14 108.277 130.437 108.538 129.916 109.059C129.402 109.573 129.145 110.286 129.145 111.197C129.145 112.083 129.392 112.779 129.887 113.287C130.382 113.788 131.062 114.039 131.928 114.039C132.696 114.039 133.448 113.798 134.184 113.316V115.797ZM146.234 116.158H142.533L139.34 111.197H139.301V116.158H136.215V101.354H139.301V110.777H139.34L142.318 106.158H145.98L142.396 110.855L146.234 116.158ZM159.125 110.094C159.125 114.299 157.165 116.402 153.246 116.402C149.444 116.402 147.543 114.348 147.543 110.24V102.154H150.707V110.279C150.707 112.545 151.592 113.678 153.363 113.678C155.102 113.678 155.971 112.584 155.971 110.396V102.154H159.125V110.094ZM165.004 114.996H164.965V120.758H161.879V106.158H164.965V107.662H165.004C165.766 106.497 166.837 105.914 168.217 105.914C169.512 105.914 170.512 106.36 171.215 107.252C171.924 108.137 172.279 109.345 172.279 110.875C172.279 112.542 171.866 113.88 171.039 114.889C170.219 115.898 169.125 116.402 167.758 116.402C166.553 116.402 165.635 115.934 165.004 114.996ZM164.916 110.895V111.695C164.916 112.385 165.098 112.949 165.463 113.385C165.827 113.821 166.306 114.039 166.898 114.039C167.602 114.039 168.145 113.769 168.529 113.229C168.92 112.682 169.115 111.91 169.115 110.914C169.115 109.156 168.432 108.277 167.064 108.277C166.433 108.277 165.915 108.518 165.512 109C165.115 109.475 164.916 110.107 164.916 110.895ZM194.291 106.158L191.41 116.158H188.168L186.693 110.299C186.596 109.908 186.54 109.482 186.527 109.02H186.469C186.423 109.527 186.358 109.941 186.273 110.26L184.691 116.158H181.488L178.666 106.158H181.811L183.188 112.682C183.253 112.988 183.301 113.359 183.334 113.795H183.393C183.425 113.339 183.484 112.955 183.568 112.643L185.287 106.158H188.227L189.77 112.682C189.809 112.844 189.854 113.222 189.906 113.814H189.975C190.007 113.437 190.059 113.059 190.131 112.682L191.43 106.158H194.291ZM204.652 112.037H198.129C198.233 113.489 199.148 114.215 200.873 114.215C201.973 114.215 202.94 113.954 203.773 113.434V115.66C202.849 116.155 201.648 116.402 200.17 116.402C198.555 116.402 197.302 115.956 196.41 115.064C195.518 114.166 195.072 112.916 195.072 111.314C195.072 109.654 195.554 108.339 196.518 107.369C197.481 106.399 198.666 105.914 200.072 105.914C201.531 105.914 202.657 106.347 203.451 107.213C204.252 108.079 204.652 109.254 204.652 110.738V112.037ZM201.791 110.143C201.791 108.71 201.212 107.994 200.053 107.994C199.558 107.994 199.128 108.199 198.764 108.609C198.406 109.02 198.188 109.531 198.109 110.143H201.791ZM207.836 101.979V106.295H205.492V101.979H207.836ZM220.463 106.158L216.742 116.158H213.227L209.682 106.158H212.982L214.721 112.32C214.916 113.017 215.03 113.609 215.062 114.098H215.102C215.147 113.635 215.268 113.062 215.463 112.379L217.24 106.158H220.463ZM230.57 112.037H224.047C224.151 113.489 225.066 114.215 226.791 114.215C227.891 114.215 228.858 113.954 229.691 113.434V115.66C228.767 116.155 227.566 116.402 226.088 116.402C224.473 116.402 223.22 115.956 222.328 115.064C221.436 114.166 220.99 112.916 220.99 111.314C220.99 109.654 221.472 108.339 222.436 107.369C223.399 106.399 224.584 105.914 225.99 105.914C227.449 105.914 228.575 106.347 229.369 107.213C230.17 108.079 230.57 109.254 230.57 110.738V112.037ZM227.709 110.143C227.709 108.71 227.13 107.994 225.971 107.994C225.476 107.994 225.046 108.199 224.682 108.609C224.324 109.02 224.105 109.531 224.027 110.143H227.709ZM237.279 115.895V113.395C237.787 113.701 238.292 113.928 238.793 114.078C239.301 114.228 239.779 114.303 240.229 114.303C240.775 114.303 241.205 114.228 241.518 114.078C241.837 113.928 241.996 113.701 241.996 113.395C241.996 113.199 241.924 113.036 241.781 112.906C241.638 112.776 241.452 112.662 241.225 112.564C241.003 112.467 240.759 112.379 240.492 112.301C240.225 112.223 239.968 112.135 239.721 112.037C239.324 111.887 238.972 111.728 238.666 111.559C238.367 111.383 238.113 111.181 237.904 110.953C237.702 110.725 237.546 110.462 237.436 110.162C237.331 109.863 237.279 109.508 237.279 109.098C237.279 108.538 237.4 108.056 237.641 107.652C237.888 107.249 238.214 106.92 238.617 106.666C239.027 106.406 239.493 106.217 240.014 106.1C240.541 105.976 241.088 105.914 241.654 105.914C242.097 105.914 242.546 105.95 243.002 106.021C243.458 106.087 243.907 106.184 244.35 106.314V108.697C243.959 108.469 243.539 108.3 243.09 108.189C242.647 108.072 242.211 108.014 241.781 108.014C241.579 108.014 241.387 108.033 241.205 108.072C241.029 108.105 240.873 108.157 240.736 108.229C240.6 108.294 240.492 108.382 240.414 108.492C240.336 108.596 240.297 108.717 240.297 108.854C240.297 109.036 240.355 109.192 240.473 109.322C240.59 109.452 240.743 109.566 240.932 109.664C241.12 109.755 241.329 109.84 241.557 109.918C241.791 109.99 242.022 110.064 242.25 110.143C242.66 110.286 243.031 110.442 243.363 110.611C243.695 110.781 243.979 110.979 244.213 111.207C244.454 111.435 244.636 111.702 244.76 112.008C244.89 112.314 244.955 112.678 244.955 113.102C244.955 113.694 244.825 114.202 244.564 114.625C244.311 115.042 243.969 115.383 243.539 115.65C243.116 115.911 242.624 116.1 242.064 116.217C241.511 116.34 240.935 116.402 240.336 116.402C239.236 116.402 238.217 116.233 237.279 115.895ZM255.727 112.037H249.203C249.307 113.489 250.222 114.215 251.947 114.215C253.048 114.215 254.014 113.954 254.848 113.434V115.66C253.923 116.155 252.722 116.402 251.244 116.402C249.63 116.402 248.376 115.956 247.484 115.064C246.592 114.166 246.146 112.916 246.146 111.314C246.146 109.654 246.628 108.339 247.592 107.369C248.555 106.399 249.74 105.914 251.146 105.914C252.605 105.914 253.731 106.347 254.525 107.213C255.326 108.079 255.727 109.254 255.727 110.738V112.037ZM252.865 110.143C252.865 108.71 252.286 107.994 251.127 107.994C250.632 107.994 250.202 108.199 249.838 108.609C249.48 109.02 249.262 109.531 249.184 110.143H252.865ZM266.547 112.037H260.023C260.128 113.489 261.042 114.215 262.768 114.215C263.868 114.215 264.835 113.954 265.668 113.434V115.66C264.743 116.155 263.542 116.402 262.064 116.402C260.45 116.402 259.197 115.956 258.305 115.064C257.413 114.166 256.967 112.916 256.967 111.314C256.967 109.654 257.449 108.339 258.412 107.369C259.376 106.399 260.561 105.914 261.967 105.914C263.425 105.914 264.551 106.347 265.346 107.213C266.146 108.079 266.547 109.254 266.547 110.738V112.037ZM263.686 110.143C263.686 108.71 263.106 107.994 261.947 107.994C261.452 107.994 261.023 108.199 260.658 108.609C260.3 109.02 260.082 109.531 260.004 110.143H263.686ZM278.041 116.158H274.965V110.602C274.965 109.052 274.411 108.277 273.305 108.277C272.771 108.277 272.331 108.482 271.986 108.893C271.641 109.303 271.469 109.824 271.469 110.455V116.158H268.383V106.158H271.469V107.74H271.508C272.243 106.523 273.314 105.914 274.721 105.914C276.934 105.914 278.041 107.288 278.041 110.035V116.158ZM294.34 116.158H291.42V114.723H291.381C290.71 115.842 289.717 116.402 288.402 116.402C287.432 116.402 286.667 116.129 286.107 115.582C285.554 115.029 285.277 114.293 285.277 113.375C285.277 111.435 286.426 110.315 288.725 110.016L291.439 109.654C291.439 108.561 290.847 108.014 289.662 108.014C288.471 108.014 287.338 108.368 286.264 109.078V106.754C286.693 106.533 287.279 106.337 288.021 106.168C288.77 105.999 289.451 105.914 290.062 105.914C292.914 105.914 294.34 107.337 294.34 110.182V116.158ZM291.439 112.096V111.422L289.623 111.656C288.62 111.786 288.119 112.239 288.119 113.014C288.119 113.365 288.24 113.655 288.48 113.883C288.728 114.104 289.06 114.215 289.477 114.215C290.056 114.215 290.528 114.016 290.893 113.619C291.257 113.215 291.439 112.708 291.439 112.096ZM49.7402 129.154V137.982H51.4199V140.287H49.7402V143.158H46.9277V140.287H40.8242V137.875C41.3646 137.27 41.9245 136.609 42.5039 135.893C43.0833 135.17 43.6432 134.428 44.1836 133.666C44.724 132.904 45.2253 132.139 45.6875 131.371C46.1562 130.596 46.5534 129.857 46.8789 129.154H49.7402ZM43.5879 137.982H46.9277V133.09C46.6999 133.513 46.4525 133.943 46.1855 134.379C45.9186 134.809 45.6387 135.235 45.3457 135.658C45.0527 136.075 44.7565 136.482 44.457 136.879C44.1576 137.27 43.8678 137.637 43.5879 137.982ZM57.6211 143.402C54.2878 143.402 52.6211 141.062 52.6211 136.381C52.6211 133.952 53.0703 132.104 53.9688 130.834C54.8737 129.558 56.1823 128.92 57.8945 128.92C61.1497 128.92 62.7773 131.299 62.7773 136.059C62.7773 138.428 62.3314 140.245 61.4395 141.508C60.554 142.771 59.2812 143.402 57.6211 143.402ZM57.7578 131.273C56.4232 131.273 55.7559 132.95 55.7559 136.303C55.7559 139.46 56.4102 141.039 57.7188 141.039C58.9948 141.039 59.6328 139.411 59.6328 136.156C59.6328 132.901 59.0078 131.273 57.7578 131.273ZM67.6504 136.254C66.6543 136.254 65.8503 135.938 65.2383 135.307C64.6328 134.675 64.3301 133.826 64.3301 132.758C64.3301 131.592 64.6523 130.668 65.2969 129.984C65.9479 129.301 66.8138 128.959 67.8945 128.959C68.9297 128.959 69.737 129.268 70.3164 129.887C70.9023 130.505 71.1953 131.374 71.1953 132.494C71.1953 133.646 70.873 134.561 70.2285 135.238C69.584 135.915 68.7246 136.254 67.6504 136.254ZM67.8359 130.678C66.8854 130.678 66.4102 131.339 66.4102 132.66C66.4102 133.91 66.8626 134.535 67.7676 134.535C68.6921 134.535 69.1543 133.884 69.1543 132.582C69.1543 131.312 68.7148 130.678 67.8359 130.678ZM77.875 129.154L68.7539 143.158H66.3711L75.4727 129.154H77.875ZM76.3711 143.354C75.375 143.354 74.571 143.038 73.959 142.406C73.3535 141.775 73.0508 140.925 73.0508 139.857C73.0508 138.692 73.373 137.768 74.0176 137.084C74.6686 136.4 75.5345 136.059 76.6152 136.059C77.6569 136.059 78.4674 136.365 79.0469 136.977C79.6263 137.589 79.916 138.454 79.916 139.574C79.916 140.727 79.5938 141.645 78.9492 142.328C78.3047 143.012 77.4453 143.354 76.3711 143.354ZM76.5273 137.777C75.5833 137.777 75.1113 138.438 75.1113 139.76C75.1113 141.01 75.5703 141.635 76.4883 141.635C77.4128 141.635 77.875 140.984 77.875 139.682C77.875 139.076 77.7513 138.607 77.5039 138.275C77.2565 137.943 76.931 137.777 76.5273 137.777ZM89.1836 131.576C88.6628 131.576 88.2363 131.423 87.9043 131.117C87.5723 130.805 87.4062 130.424 87.4062 129.975C87.4062 129.512 87.5723 129.135 87.9043 128.842C88.2363 128.549 88.6628 128.402 89.1836 128.402C89.7109 128.402 90.1374 128.549 90.4629 128.842C90.7949 129.135 90.9609 129.512 90.9609 129.975C90.9609 130.443 90.7949 130.827 90.4629 131.127C90.1374 131.426 89.7109 131.576 89.1836 131.576ZM90.707 143.158H87.6211V133.158H90.707V143.158ZM109.184 143.158H106.107V137.455C106.107 136.003 105.574 135.277 104.506 135.277C103.998 135.277 103.585 135.495 103.266 135.932C102.947 136.368 102.787 136.911 102.787 137.562V143.158H99.7012V137.396C99.7012 135.984 99.1771 135.277 98.1289 135.277C97.6016 135.277 97.1784 135.486 96.8594 135.902C96.5469 136.319 96.3906 136.885 96.3906 137.602V143.158H93.3047V133.158H96.3906V134.721H96.4297C96.7487 134.187 97.1947 133.754 97.7676 133.422C98.347 133.083 98.9785 132.914 99.6621 132.914C101.075 132.914 102.042 133.536 102.562 134.779C103.324 133.536 104.444 132.914 105.922 132.914C108.096 132.914 109.184 134.255 109.184 136.938V143.158ZM114.75 141.996H114.711V147.758H111.625V133.158H114.711V134.662H114.75C115.512 133.497 116.583 132.914 117.963 132.914C119.258 132.914 120.258 133.36 120.961 134.252C121.671 135.137 122.025 136.345 122.025 137.875C122.025 139.542 121.612 140.88 120.785 141.889C119.965 142.898 118.871 143.402 117.504 143.402C116.299 143.402 115.382 142.934 114.75 141.996ZM114.662 137.895V138.695C114.662 139.385 114.844 139.949 115.209 140.385C115.574 140.821 116.052 141.039 116.645 141.039C117.348 141.039 117.891 140.769 118.275 140.229C118.666 139.682 118.861 138.91 118.861 137.914C118.861 136.156 118.178 135.277 116.811 135.277C116.179 135.277 115.661 135.518 115.258 136C114.861 136.475 114.662 137.107 114.662 137.895ZM130.551 135.941C130.18 135.74 129.747 135.639 129.252 135.639C128.581 135.639 128.057 135.886 127.68 136.381C127.302 136.869 127.113 137.536 127.113 138.383V143.158H124.027V133.158H127.113V135.014H127.152C127.641 133.66 128.52 132.982 129.789 132.982C130.115 132.982 130.368 133.021 130.551 133.1V135.941ZM136.684 143.402C135.017 143.402 133.705 142.937 132.748 142.006C131.798 141.068 131.322 139.799 131.322 138.197C131.322 136.544 131.817 135.251 132.807 134.32C133.796 133.383 135.134 132.914 136.82 132.914C138.48 132.914 139.783 133.383 140.727 134.32C141.671 135.251 142.143 136.485 142.143 138.021C142.143 139.682 141.654 140.993 140.678 141.957C139.708 142.921 138.376 143.402 136.684 143.402ZM136.762 135.277C136.033 135.277 135.466 135.528 135.062 136.029C134.659 136.531 134.457 137.24 134.457 138.158C134.457 140.079 135.232 141.039 136.781 141.039C138.259 141.039 138.998 140.053 138.998 138.08C138.998 136.212 138.253 135.277 136.762 135.277ZM153.666 133.158L149.945 143.158H146.43L142.885 133.158H146.186L147.924 139.32C148.119 140.017 148.233 140.609 148.266 141.098H148.305C148.35 140.635 148.471 140.062 148.666 139.379L150.443 133.158H153.666ZM163.773 139.037H157.25C157.354 140.489 158.269 141.215 159.994 141.215C161.094 141.215 162.061 140.954 162.895 140.434V142.66C161.97 143.155 160.769 143.402 159.291 143.402C157.676 143.402 156.423 142.956 155.531 142.064C154.639 141.166 154.193 139.916 154.193 138.314C154.193 136.654 154.675 135.339 155.639 134.369C156.602 133.399 157.787 132.914 159.193 132.914C160.652 132.914 161.778 133.347 162.572 134.213C163.373 135.079 163.773 136.254 163.773 137.738V139.037ZM160.912 137.143C160.912 135.71 160.333 134.994 159.174 134.994C158.679 134.994 158.249 135.199 157.885 135.609C157.527 136.02 157.309 136.531 157.23 137.143H160.912ZM181.488 143.158H178.412V137.455C178.412 136.003 177.878 135.277 176.811 135.277C176.303 135.277 175.889 135.495 175.57 135.932C175.251 136.368 175.092 136.911 175.092 137.562V143.158H172.006V137.396C172.006 135.984 171.482 135.277 170.434 135.277C169.906 135.277 169.483 135.486 169.164 135.902C168.852 136.319 168.695 136.885 168.695 137.602V143.158H165.609V133.158H168.695V134.721H168.734C169.053 134.187 169.499 133.754 170.072 133.422C170.652 133.083 171.283 132.914 171.967 132.914C173.38 132.914 174.346 133.536 174.867 134.779C175.629 133.536 176.749 132.914 178.227 132.914C180.401 132.914 181.488 134.255 181.488 136.938V143.158ZM192.914 139.037H186.391C186.495 140.489 187.41 141.215 189.135 141.215C190.235 141.215 191.202 140.954 192.035 140.434V142.66C191.111 143.155 189.91 143.402 188.432 143.402C186.817 143.402 185.564 142.956 184.672 142.064C183.78 141.166 183.334 139.916 183.334 138.314C183.334 136.654 183.816 135.339 184.779 134.369C185.743 133.399 186.928 132.914 188.334 132.914C189.792 132.914 190.919 133.347 191.713 134.213C192.514 135.079 192.914 136.254 192.914 137.738V139.037ZM190.053 137.143C190.053 135.71 189.473 134.994 188.314 134.994C187.82 134.994 187.39 135.199 187.025 135.609C186.667 136.02 186.449 136.531 186.371 137.143H190.053ZM204.408 143.158H201.332V137.602C201.332 136.052 200.779 135.277 199.672 135.277C199.138 135.277 198.699 135.482 198.354 135.893C198.008 136.303 197.836 136.824 197.836 137.455V143.158H194.75V133.158H197.836V134.74H197.875C198.611 133.523 199.682 132.914 201.088 132.914C203.301 132.914 204.408 134.288 204.408 137.035V143.158ZM212.904 143.041C212.449 143.282 211.762 143.402 210.844 143.402C208.669 143.402 207.582 142.273 207.582 140.014V135.434H205.961V133.158H207.582V131L210.658 130.121V133.158H212.904V135.434H210.658V139.477C210.658 140.518 211.072 141.039 211.898 141.039C212.224 141.039 212.559 140.945 212.904 140.756V143.041ZM221.742 131.576C221.221 131.576 220.795 131.423 220.463 131.117C220.131 130.805 219.965 130.424 219.965 129.975C219.965 129.512 220.131 129.135 220.463 128.842C220.795 128.549 221.221 128.402 221.742 128.402C222.27 128.402 222.696 128.549 223.021 128.842C223.354 129.135 223.52 129.512 223.52 129.975C223.52 130.443 223.354 130.827 223.021 131.127C222.696 131.426 222.27 131.576 221.742 131.576ZM223.266 143.158H220.18V133.158H223.266V143.158ZM235.521 143.158H232.445V137.602C232.445 136.052 231.892 135.277 230.785 135.277C230.251 135.277 229.812 135.482 229.467 135.893C229.122 136.303 228.949 136.824 228.949 137.455V143.158H225.863V133.158H228.949V134.74H228.988C229.724 133.523 230.795 132.914 232.201 132.914C234.415 132.914 235.521 134.288 235.521 137.035V143.158ZM248.266 143.402C246.599 143.402 245.287 142.937 244.33 142.006C243.38 141.068 242.904 139.799 242.904 138.197C242.904 136.544 243.399 135.251 244.389 134.32C245.378 133.383 246.716 132.914 248.402 132.914C250.062 132.914 251.365 133.383 252.309 134.32C253.253 135.251 253.725 136.485 253.725 138.021C253.725 139.682 253.236 140.993 252.26 141.957C251.29 142.921 249.958 143.402 248.266 143.402ZM248.344 135.277C247.615 135.277 247.048 135.528 246.645 136.029C246.241 136.531 246.039 137.24 246.039 138.158C246.039 140.079 246.814 141.039 248.363 141.039C249.841 141.039 250.58 140.053 250.58 138.08C250.58 136.212 249.835 135.277 248.344 135.277ZM265.229 143.158H262.152V141.635H262.104C261.342 142.813 260.323 143.402 259.047 143.402C256.729 143.402 255.57 141.999 255.57 139.193V133.158H258.646V138.92C258.646 140.333 259.206 141.039 260.326 141.039C260.88 141.039 261.322 140.847 261.654 140.463C261.986 140.072 262.152 139.545 262.152 138.881V133.158H265.229V143.158ZM274.359 135.941C273.988 135.74 273.555 135.639 273.061 135.639C272.39 135.639 271.866 135.886 271.488 136.381C271.111 136.869 270.922 137.536 270.922 138.383V143.158H267.836V133.158H270.922V135.014H270.961C271.449 133.66 272.328 132.982 273.598 132.982C273.923 132.982 274.177 133.021 274.359 133.1V135.941ZM287.377 143.041C286.921 143.282 286.234 143.402 285.316 143.402C283.142 143.402 282.055 142.273 282.055 140.014V135.434H280.434V133.158H282.055V131L285.131 130.121V133.158H287.377V135.434H285.131V139.477C285.131 140.518 285.544 141.039 286.371 141.039C286.697 141.039 287.032 140.945 287.377 140.756V143.041ZM293.812 143.402C292.146 143.402 290.834 142.937 289.877 142.006C288.926 141.068 288.451 139.799 288.451 138.197C288.451 136.544 288.946 135.251 289.936 134.32C290.925 133.383 292.263 132.914 293.949 132.914C295.609 132.914 296.911 133.383 297.855 134.32C298.799 135.251 299.271 136.485 299.271 138.021C299.271 139.682 298.783 140.993 297.807 141.957C296.837 142.921 295.505 143.402 293.812 143.402ZM293.891 135.277C293.161 135.277 292.595 135.528 292.191 136.029C291.788 136.531 291.586 137.24 291.586 138.158C291.586 140.079 292.361 141.039 293.91 141.039C295.388 141.039 296.127 140.053 296.127 138.08C296.127 136.212 295.382 135.277 293.891 135.277ZM307.318 143.041C306.863 143.282 306.176 143.402 305.258 143.402C303.083 143.402 301.996 142.273 301.996 140.014V135.434H300.375V133.158H301.996V131L305.072 130.121V133.158H307.318V135.434H305.072V139.477C305.072 140.518 305.486 141.039 306.312 141.039C306.638 141.039 306.973 140.945 307.318 140.756V143.041ZM317.387 143.158H314.467V141.723H314.428C313.757 142.842 312.764 143.402 311.449 143.402C310.479 143.402 309.714 143.129 309.154 142.582C308.601 142.029 308.324 141.293 308.324 140.375C308.324 138.435 309.473 137.315 311.771 137.016L314.486 136.654C314.486 135.561 313.894 135.014 312.709 135.014C311.518 135.014 310.385 135.368 309.311 136.078V133.754C309.74 133.533 310.326 133.337 311.068 133.168C311.817 132.999 312.497 132.914 313.109 132.914C315.961 132.914 317.387 134.337 317.387 137.182V143.158ZM314.486 139.096V138.422L312.67 138.656C311.667 138.786 311.166 139.239 311.166 140.014C311.166 140.365 311.286 140.655 311.527 140.883C311.775 141.104 312.107 141.215 312.523 141.215C313.103 141.215 313.575 141.016 313.939 140.619C314.304 140.215 314.486 139.708 314.486 139.096ZM322.914 143.158H319.828V128.354H322.914V143.158ZM51.5469 169.016C51.5469 170.871 51.0098 172.307 49.9355 173.322C48.8613 174.344 47.3053 174.855 45.2676 174.855C43.9199 174.855 42.8522 174.663 42.0645 174.279V171.682C43.0931 172.281 44.1315 172.58 45.1797 172.58C46.2214 172.58 47.0286 172.303 47.6016 171.75C48.1745 171.203 48.4609 170.458 48.4609 169.514V168.723H48.4219C47.7188 169.842 46.6803 170.402 45.3066 170.402C44.0306 170.402 43.0182 169.953 42.2695 169.055C41.5208 168.156 41.1465 166.952 41.1465 165.441C41.1465 163.749 41.5632 162.404 42.3965 161.408C43.2298 160.412 44.3268 159.914 45.6875 159.914C46.9049 159.914 47.8164 160.383 48.4219 161.32H48.4609V160.158H51.5469V169.016ZM48.5 165.354V164.562C48.5 163.931 48.3112 163.394 47.9336 162.951C47.5625 162.502 47.0775 162.277 46.4785 162.277C45.7949 162.277 45.2578 162.544 44.8672 163.078C44.4766 163.612 44.2812 164.364 44.2812 165.334C44.2812 166.167 44.4668 166.828 44.8379 167.316C45.209 167.798 45.7168 168.039 46.3613 168.039C46.9993 168.039 47.5137 167.795 47.9043 167.307C48.3014 166.812 48.5 166.161 48.5 165.354ZM58.8906 170.402C57.224 170.402 55.9121 169.937 54.9551 169.006C54.0046 168.068 53.5293 166.799 53.5293 165.197C53.5293 163.544 54.0241 162.251 55.0137 161.32C56.0033 160.383 57.3411 159.914 59.0273 159.914C60.6875 159.914 61.9896 160.383 62.9336 161.32C63.8776 162.251 64.3496 163.485 64.3496 165.021C64.3496 166.682 63.8613 167.993 62.8848 168.957C61.9147 169.921 60.5833 170.402 58.8906 170.402ZM58.9688 162.277C58.2396 162.277 57.6732 162.528 57.2695 163.029C56.8659 163.531 56.6641 164.24 56.6641 165.158C56.6641 167.079 57.4388 168.039 58.9883 168.039C60.4661 168.039 61.2051 167.053 61.2051 165.08C61.2051 163.212 60.4596 162.277 58.9688 162.277ZM71.791 165.9H66.4492V163.742H71.791V165.9ZM80.4824 170.041C80.0267 170.282 79.3398 170.402 78.4219 170.402C76.2474 170.402 75.1602 169.273 75.1602 167.014V162.434H73.5391V160.158H75.1602V158L78.2363 157.121V160.158H80.4824V162.434H78.2363V166.477C78.2363 167.518 78.6497 168.039 79.4766 168.039C79.8021 168.039 80.1374 167.945 80.4824 167.756V170.041ZM86.918 170.402C85.2513 170.402 83.9395 169.937 82.9824 169.006C82.0319 168.068 81.5566 166.799 81.5566 165.197C81.5566 163.544 82.0514 162.251 83.041 161.32C84.0306 160.383 85.3685 159.914 87.0547 159.914C88.7148 159.914 90.0169 160.383 90.9609 161.32C91.9049 162.251 92.377 163.485 92.377 165.021C92.377 166.682 91.8887 167.993 90.9121 168.957C89.9421 169.921 88.6107 170.402 86.918 170.402ZM86.9961 162.277C86.2669 162.277 85.7005 162.528 85.2969 163.029C84.8932 163.531 84.6914 164.24 84.6914 165.158C84.6914 167.079 85.4661 168.039 87.0156 168.039C88.4935 168.039 89.2324 167.053 89.2324 165.08C89.2324 163.212 88.487 162.277 86.9961 162.277ZM99.8184 165.9H94.4766V163.742H99.8184V165.9ZM118.344 170.158H115.268V164.455C115.268 163.003 114.734 162.277 113.666 162.277C113.158 162.277 112.745 162.495 112.426 162.932C112.107 163.368 111.947 163.911 111.947 164.562V170.158H108.861V164.396C108.861 162.984 108.337 162.277 107.289 162.277C106.762 162.277 106.339 162.486 106.02 162.902C105.707 163.319 105.551 163.885 105.551 164.602V170.158H102.465V160.158H105.551V161.721H105.59C105.909 161.187 106.355 160.754 106.928 160.422C107.507 160.083 108.139 159.914 108.822 159.914C110.235 159.914 111.202 160.536 111.723 161.779C112.484 160.536 113.604 159.914 115.082 159.914C117.257 159.914 118.344 161.255 118.344 163.938V170.158ZM129.105 170.158H126.186V168.723H126.146C125.476 169.842 124.483 170.402 123.168 170.402C122.198 170.402 121.433 170.129 120.873 169.582C120.32 169.029 120.043 168.293 120.043 167.375C120.043 165.435 121.192 164.315 123.49 164.016L126.205 163.654C126.205 162.561 125.613 162.014 124.428 162.014C123.236 162.014 122.104 162.368 121.029 163.078V160.754C121.459 160.533 122.045 160.337 122.787 160.168C123.536 159.999 124.216 159.914 124.828 159.914C127.68 159.914 129.105 161.337 129.105 164.182V170.158ZM126.205 166.096V165.422L124.389 165.656C123.386 165.786 122.885 166.239 122.885 167.014C122.885 167.365 123.005 167.655 123.246 167.883C123.493 168.104 123.826 168.215 124.242 168.215C124.822 168.215 125.294 168.016 125.658 167.619C126.023 167.215 126.205 166.708 126.205 166.096ZM138.07 162.941C137.699 162.74 137.266 162.639 136.771 162.639C136.101 162.639 135.577 162.886 135.199 163.381C134.822 163.869 134.633 164.536 134.633 165.383V170.158H131.547V160.158H134.633V162.014H134.672C135.16 160.66 136.039 159.982 137.309 159.982C137.634 159.982 137.888 160.021 138.07 160.1V162.941ZM149.535 170.158H145.834L142.641 165.197H142.602V170.158H139.516V155.354H142.602V164.777H142.641L145.619 160.158H149.281L145.697 164.855L149.535 170.158ZM159.398 166.037H152.875C152.979 167.489 153.894 168.215 155.619 168.215C156.719 168.215 157.686 167.954 158.52 167.434V169.66C157.595 170.155 156.394 170.402 154.916 170.402C153.301 170.402 152.048 169.956 151.156 169.064C150.264 168.166 149.818 166.916 149.818 165.314C149.818 163.654 150.3 162.339 151.264 161.369C152.227 160.399 153.412 159.914 154.818 159.914C156.277 159.914 157.403 160.347 158.197 161.213C158.998 162.079 159.398 163.254 159.398 164.738V166.037ZM156.537 164.143C156.537 162.71 155.958 161.994 154.799 161.994C154.304 161.994 153.874 162.199 153.51 162.609C153.152 163.02 152.934 163.531 152.855 164.143H156.537ZM167.279 170.041C166.824 170.282 166.137 170.402 165.219 170.402C163.044 170.402 161.957 169.273 161.957 167.014V162.434H160.336V160.158H161.957V158L165.033 157.121V160.158H167.279V162.434H165.033V166.477C165.033 167.518 165.447 168.039 166.273 168.039C166.599 168.039 166.934 167.945 167.279 167.756V170.041ZM183.539 166.037H177.016C177.12 167.489 178.035 168.215 179.76 168.215C180.86 168.215 181.827 167.954 182.66 167.434V169.66C181.736 170.155 180.535 170.402 179.057 170.402C177.442 170.402 176.189 169.956 175.297 169.064C174.405 168.166 173.959 166.916 173.959 165.314C173.959 163.654 174.441 162.339 175.404 161.369C176.368 160.399 177.553 159.914 178.959 159.914C180.417 159.914 181.544 160.347 182.338 161.213C183.139 162.079 183.539 163.254 183.539 164.738V166.037ZM180.678 164.143C180.678 162.71 180.098 161.994 178.939 161.994C178.445 161.994 178.015 162.199 177.65 162.609C177.292 163.02 177.074 163.531 176.996 164.143H180.678ZM191.898 157.717C191.501 157.561 191.12 157.482 190.756 157.482C189.766 157.482 189.271 158.02 189.271 159.094V160.158H191.557V162.434H189.271V170.158H186.195V162.434H184.516V160.158H186.195V158.918C186.195 157.779 186.566 156.861 187.309 156.164C188.051 155.467 189.06 155.119 190.336 155.119C190.961 155.119 191.482 155.184 191.898 155.314V157.717ZM199.574 157.717C199.177 157.561 198.796 157.482 198.432 157.482C197.442 157.482 196.947 158.02 196.947 159.094V160.158H199.232V162.434H196.947V170.158H193.871V162.434H192.191V160.158H193.871V158.918C193.871 157.779 194.242 156.861 194.984 156.164C195.727 155.467 196.736 155.119 198.012 155.119C198.637 155.119 199.158 155.184 199.574 155.314V157.717ZM202.289 158.576C201.768 158.576 201.342 158.423 201.01 158.117C200.678 157.805 200.512 157.424 200.512 156.975C200.512 156.512 200.678 156.135 201.01 155.842C201.342 155.549 201.768 155.402 202.289 155.402C202.816 155.402 203.243 155.549 203.568 155.842C203.9 156.135 204.066 156.512 204.066 156.975C204.066 157.443 203.9 157.827 203.568 158.127C203.243 158.426 202.816 158.576 202.289 158.576ZM203.812 170.158H200.727V160.158H203.812V170.158ZM213.988 169.797C213.292 170.201 212.286 170.402 210.971 170.402C209.434 170.402 208.191 169.937 207.24 169.006C206.29 168.075 205.814 166.874 205.814 165.402C205.814 163.703 206.322 162.365 207.338 161.389C208.36 160.406 209.724 159.914 211.43 159.914C212.608 159.914 213.461 160.07 213.988 160.383V163C213.344 162.518 212.624 162.277 211.83 162.277C210.945 162.277 210.242 162.538 209.721 163.059C209.206 163.573 208.949 164.286 208.949 165.197C208.949 166.083 209.197 166.779 209.691 167.287C210.186 167.788 210.867 168.039 211.732 168.039C212.501 168.039 213.253 167.798 213.988 167.316V169.797ZM217.582 158.576C217.061 158.576 216.635 158.423 216.303 158.117C215.971 157.805 215.805 157.424 215.805 156.975C215.805 156.512 215.971 156.135 216.303 155.842C216.635 155.549 217.061 155.402 217.582 155.402C218.109 155.402 218.536 155.549 218.861 155.842C219.193 156.135 219.359 156.512 219.359 156.975C219.359 157.443 219.193 157.827 218.861 158.127C218.536 158.426 218.109 158.576 217.582 158.576ZM219.105 170.158H216.02V160.158H219.105V170.158ZM230.688 166.037H224.164C224.268 167.489 225.183 168.215 226.908 168.215C228.008 168.215 228.975 167.954 229.809 167.434V169.66C228.884 170.155 227.683 170.402 226.205 170.402C224.59 170.402 223.337 169.956 222.445 169.064C221.553 168.166 221.107 166.916 221.107 165.314C221.107 163.654 221.589 162.339 222.553 161.369C223.516 160.399 224.701 159.914 226.107 159.914C227.566 159.914 228.692 160.347 229.486 161.213C230.287 162.079 230.688 163.254 230.688 164.738V166.037ZM227.826 164.143C227.826 162.71 227.247 161.994 226.088 161.994C225.593 161.994 225.163 162.199 224.799 162.609C224.441 163.02 224.223 163.531 224.145 164.143H227.826ZM242.182 170.158H239.105V164.602C239.105 163.052 238.552 162.277 237.445 162.277C236.911 162.277 236.472 162.482 236.127 162.893C235.782 163.303 235.609 163.824 235.609 164.455V170.158H232.523V160.158H235.609V161.74H235.648C236.384 160.523 237.455 159.914 238.861 159.914C241.075 159.914 242.182 161.288 242.182 164.035V170.158ZM252.211 169.797C251.514 170.201 250.508 170.402 249.193 170.402C247.657 170.402 246.413 169.937 245.463 169.006C244.512 168.075 244.037 166.874 244.037 165.402C244.037 163.703 244.545 162.365 245.561 161.389C246.583 160.406 247.947 159.914 249.652 159.914C250.831 159.914 251.684 160.07 252.211 160.383V163C251.566 162.518 250.847 162.277 250.053 162.277C249.167 162.277 248.464 162.538 247.943 163.059C247.429 163.573 247.172 164.286 247.172 165.197C247.172 166.083 247.419 166.779 247.914 167.287C248.409 167.788 249.089 168.039 249.955 168.039C250.723 168.039 251.475 167.798 252.211 167.316V169.797ZM263.764 160.158L259.701 170.959C258.725 173.557 257.253 174.855 255.287 174.855C254.538 174.855 253.923 174.771 253.441 174.602V172.141C253.852 172.382 254.298 172.502 254.779 172.502C255.574 172.502 256.127 172.128 256.439 171.379L256.967 170.139L252.904 160.158H256.322L258.188 166.242C258.305 166.62 258.396 167.066 258.461 167.58H258.5C258.559 167.202 258.666 166.763 258.822 166.262L260.707 160.158H263.764ZM268.588 156.154L268.207 165.803H265.707L265.346 156.154H268.588ZM266.986 170.383C266.465 170.383 266.036 170.227 265.697 169.914C265.359 169.595 265.189 169.211 265.189 168.762C265.189 168.293 265.359 167.909 265.697 167.609C266.042 167.31 266.472 167.16 266.986 167.16C267.507 167.16 267.934 167.313 268.266 167.619C268.598 167.919 268.764 168.299 268.764 168.762C268.764 169.23 268.598 169.618 268.266 169.924C267.94 170.23 267.514 170.383 266.986 170.383ZM279.184 155.822L277.328 160.158H275.404L276.508 155.822H279.184ZM275.131 155.822L273.246 160.158H271.352L272.465 155.822H275.131Z" fill="white"/>
<rect x="40.4434" y="206.158" width="305" height="41" rx="14" fill="white" fill-opacity="0.1"/>
<path d="M145.268 230.158V219.976H149.285C150.054 219.976 150.71 220.114 151.254 220.389C151.801 220.661 152.217 221.047 152.502 221.547C152.79 222.045 152.934 222.63 152.934 223.302C152.934 223.979 152.789 224.56 152.497 225.047C152.205 225.531 151.783 225.903 151.229 226.161C150.679 226.42 150.013 226.549 149.231 226.549H146.541V224.819H148.883C149.294 224.819 149.635 224.762 149.907 224.65C150.179 224.537 150.381 224.368 150.513 224.143C150.649 223.917 150.717 223.637 150.717 223.302C150.717 222.964 150.649 222.679 150.513 222.447C150.381 222.215 150.177 222.04 149.902 221.92C149.63 221.798 149.287 221.736 148.873 221.736H147.421V230.158H145.268ZM150.767 225.525L153.297 230.158H150.921L148.445 225.525H150.767ZM157.773 230.307C156.988 230.307 156.311 230.148 155.745 229.83C155.181 229.509 154.747 229.055 154.442 228.468C154.137 227.878 153.985 227.18 153.985 226.375C153.985 225.589 154.137 224.9 154.442 224.307C154.747 223.713 155.176 223.251 155.73 222.92C156.287 222.588 156.939 222.422 157.689 222.422C158.192 222.422 158.661 222.504 159.095 222.666C159.533 222.825 159.914 223.065 160.239 223.387C160.567 223.708 160.822 224.113 161.005 224.6C161.187 225.084 161.278 225.651 161.278 226.3V226.882H154.83V225.569H159.284C159.284 225.265 159.218 224.994 159.086 224.759C158.953 224.524 158.769 224.34 158.534 224.207C158.302 224.071 158.032 224.003 157.723 224.003C157.402 224.003 157.117 224.078 156.868 224.227C156.623 224.373 156.431 224.57 156.292 224.819C156.152 225.064 156.081 225.337 156.078 225.639V226.887C156.078 227.265 156.147 227.591 156.287 227.866C156.429 228.141 156.63 228.354 156.888 228.503C157.147 228.652 157.453 228.726 157.808 228.726C158.043 228.726 158.259 228.693 158.454 228.627C158.65 228.561 158.817 228.461 158.956 228.329C159.095 228.196 159.202 228.034 159.274 227.841L161.233 227.971C161.134 228.441 160.93 228.852 160.622 229.204C160.317 229.552 159.922 229.823 159.439 230.019C158.958 230.211 158.403 230.307 157.773 230.307ZM164.838 230.302C164.35 230.302 163.916 230.218 163.535 230.049C163.154 229.876 162.852 229.623 162.63 229.288C162.412 228.95 162.302 228.529 162.302 228.025C162.302 227.601 162.38 227.245 162.536 226.956C162.692 226.668 162.904 226.436 163.172 226.26C163.441 226.085 163.746 225.952 164.087 225.863C164.432 225.773 164.793 225.71 165.171 225.674C165.615 225.627 165.973 225.584 166.245 225.545C166.516 225.501 166.714 225.439 166.836 225.356C166.959 225.273 167.02 225.15 167.02 224.988V224.958C167.02 224.643 166.921 224.399 166.722 224.227C166.526 224.055 166.248 223.969 165.887 223.969C165.506 223.969 165.202 224.053 164.977 224.222C164.751 224.388 164.602 224.597 164.529 224.849L162.571 224.689C162.67 224.225 162.866 223.824 163.157 223.486C163.449 223.145 163.825 222.883 164.286 222.701C164.75 222.515 165.287 222.422 165.897 222.422C166.321 222.422 166.727 222.472 167.115 222.572C167.506 222.671 167.852 222.825 168.154 223.034C168.459 223.243 168.699 223.511 168.875 223.839C169.05 224.164 169.138 224.554 169.138 225.008V230.158H167.13V229.099H167.07C166.947 229.338 166.783 229.548 166.578 229.731C166.372 229.91 166.125 230.05 165.837 230.153C165.549 230.253 165.216 230.302 164.838 230.302ZM165.444 228.841C165.756 228.841 166.031 228.779 166.269 228.657C166.508 228.531 166.695 228.362 166.831 228.15C166.967 227.938 167.035 227.697 167.035 227.429V226.618C166.969 226.662 166.878 226.701 166.762 226.738C166.649 226.771 166.521 226.802 166.379 226.832C166.236 226.859 166.094 226.884 165.951 226.907C165.809 226.927 165.68 226.945 165.564 226.961C165.315 226.998 165.098 227.056 164.912 227.135C164.727 227.215 164.582 227.323 164.48 227.459C164.377 227.591 164.326 227.757 164.326 227.956C164.326 228.244 164.43 228.465 164.639 228.617C164.851 228.766 165.119 228.841 165.444 228.841ZM173.595 230.282C173.015 230.282 172.49 230.133 172.019 229.835C171.552 229.533 171.181 229.091 170.905 228.508C170.634 227.921 170.498 227.202 170.498 226.35C170.498 225.475 170.639 224.747 170.92 224.167C171.202 223.584 171.577 223.148 172.044 222.86C172.515 222.568 173.03 222.422 173.59 222.422C174.018 222.422 174.374 222.495 174.659 222.641C174.947 222.784 175.179 222.963 175.355 223.178C175.534 223.39 175.67 223.599 175.763 223.805H175.827V219.976H177.94V230.158H175.852V228.935H175.763C175.663 229.147 175.522 229.358 175.34 229.567C175.161 229.772 174.928 229.943 174.639 230.079C174.354 230.215 174.006 230.282 173.595 230.282ZM174.266 228.597C174.608 228.597 174.896 228.504 175.131 228.319C175.37 228.13 175.552 227.866 175.678 227.528C175.807 227.19 175.872 226.794 175.872 226.34C175.872 225.886 175.809 225.492 175.683 225.157C175.557 224.822 175.375 224.564 175.136 224.381C174.898 224.199 174.608 224.108 174.266 224.108C173.918 224.108 173.625 224.202 173.386 224.391C173.148 224.58 172.967 224.842 172.844 225.177C172.722 225.511 172.66 225.899 172.66 226.34C172.66 226.784 172.722 227.177 172.844 227.518C172.97 227.856 173.151 228.122 173.386 228.314C173.625 228.503 173.918 228.597 174.266 228.597ZM189.276 224.699L187.337 224.819C187.303 224.653 187.232 224.504 187.123 224.371C187.013 224.235 186.869 224.128 186.69 224.048C186.515 223.965 186.304 223.924 186.059 223.924C185.731 223.924 185.454 223.993 185.229 224.133C185.003 224.269 184.891 224.451 184.891 224.68C184.891 224.862 184.963 225.016 185.109 225.142C185.255 225.268 185.505 225.369 185.86 225.445L187.242 225.724C187.985 225.876 188.538 226.121 188.903 226.459C189.267 226.797 189.45 227.242 189.45 227.792C189.45 228.292 189.302 228.731 189.007 229.109C188.715 229.487 188.314 229.782 187.804 229.994C187.297 230.203 186.712 230.307 186.049 230.307C185.038 230.307 184.233 230.097 183.633 229.676C183.036 229.252 182.687 228.675 182.584 227.946L184.667 227.836C184.73 228.145 184.882 228.38 185.124 228.542C185.366 228.702 185.676 228.781 186.054 228.781C186.425 228.781 186.723 228.71 186.949 228.567C187.178 228.421 187.294 228.234 187.297 228.006C187.294 227.813 187.212 227.656 187.053 227.533C186.894 227.407 186.649 227.311 186.317 227.245L184.995 226.981C184.249 226.832 183.694 226.574 183.33 226.206C182.968 225.838 182.788 225.369 182.788 224.799C182.788 224.308 182.92 223.886 183.185 223.531C183.454 223.176 183.83 222.903 184.314 222.711C184.801 222.519 185.371 222.422 186.024 222.422C186.989 222.422 187.748 222.626 188.301 223.034C188.858 223.442 189.183 223.997 189.276 224.699ZM194.845 222.522V224.113H190.246V222.522H194.845ZM191.29 220.692H193.408V227.812C193.408 228.007 193.438 228.16 193.498 228.269C193.557 228.375 193.64 228.45 193.746 228.493C193.856 228.536 193.982 228.557 194.124 228.557C194.223 228.557 194.323 228.549 194.422 228.532C194.522 228.513 194.598 228.498 194.651 228.488L194.984 230.064C194.878 230.097 194.729 230.135 194.537 230.178C194.344 230.224 194.111 230.253 193.836 230.263C193.325 230.282 192.878 230.215 192.493 230.059C192.112 229.903 191.816 229.661 191.603 229.333C191.391 229.005 191.287 228.59 191.29 228.09V220.692ZM199.593 230.307C198.821 230.307 198.153 230.143 197.589 229.815C197.029 229.484 196.597 229.023 196.292 228.433C195.987 227.84 195.834 227.152 195.834 226.37C195.834 225.581 195.987 224.892 196.292 224.302C196.597 223.708 197.029 223.248 197.589 222.92C198.153 222.588 198.821 222.422 199.593 222.422C200.365 222.422 201.031 222.588 201.591 222.92C202.155 223.248 202.589 223.708 202.894 224.302C203.199 224.892 203.351 225.581 203.351 226.37C203.351 227.152 203.199 227.84 202.894 228.433C202.589 229.023 202.155 229.484 201.591 229.815C201.031 230.143 200.365 230.307 199.593 230.307ZM199.603 228.667C199.954 228.667 200.247 228.567 200.483 228.368C200.718 228.166 200.895 227.891 201.015 227.543C201.137 227.195 201.199 226.799 201.199 226.355C201.199 225.911 201.137 225.515 201.015 225.167C200.895 224.819 200.718 224.544 200.483 224.341C200.247 224.139 199.954 224.038 199.603 224.038C199.248 224.038 198.95 224.139 198.708 224.341C198.469 224.544 198.289 224.819 198.166 225.167C198.047 225.515 197.987 225.911 197.987 226.355C197.987 226.799 198.047 227.195 198.166 227.543C198.289 227.891 198.469 228.166 198.708 228.368C198.95 228.567 199.248 228.667 199.603 228.667ZM204.728 230.158V222.522H206.782V223.854H206.861C207 223.38 207.234 223.022 207.562 222.78C207.89 222.535 208.268 222.412 208.696 222.412C208.802 222.412 208.916 222.419 209.039 222.432C209.161 222.446 209.269 222.464 209.362 222.487V224.366C209.263 224.336 209.125 224.31 208.949 224.287C208.774 224.264 208.613 224.252 208.467 224.252C208.156 224.252 207.877 224.32 207.632 224.456C207.39 224.588 207.198 224.774 207.055 225.013C206.916 225.251 206.846 225.526 206.846 225.838V230.158H204.728ZM211.997 233.022C211.728 233.022 211.477 233 211.241 232.957C211.009 232.917 210.817 232.866 210.665 232.803L211.142 231.222C211.39 231.298 211.614 231.34 211.813 231.346C212.015 231.353 212.189 231.307 212.335 231.207C212.484 231.108 212.605 230.939 212.698 230.7L212.822 230.377L210.083 222.522H212.31L213.891 228.13H213.971L215.567 222.522H217.809L214.841 230.983C214.698 231.394 214.504 231.752 214.259 232.057C214.017 232.366 213.71 232.603 213.339 232.768C212.968 232.937 212.521 233.022 211.997 233.022Z" fill="white"/>
<g clip-path="url(#clip2_2_1285)">
<path d="M240.318 222.69L234.343 228.665M240.318 222.69L236.003 222.822M240.318 222.69L240.186 227.005" stroke="white" stroke-width="1.26748" stroke-linecap="round" stroke-linejoin="round"/>
</g>
<rect x="-3.55664" y="1.46777" width="392.69" height="6" transform="rotate(4 -3.55664 1.46777)" fill="white"/>
</g>
<defs>
<linearGradient id="paint0_linear_2_1285" x1="284.456" y1="-49.0384" x2="100.544" y2="328.038" gradientUnits="userSpaceOnUse">
<stop stop-color="#26ABFA" stop-opacity="0.8"/>
<stop offset="0.525" stop-color="#7612FA" stop-opacity="0.8"/>
</linearGradient>
<clipPath id="clip0_2_1285">
<rect width="385" height="279" fill="white" transform="translate(0.443359 0.158203)"/>
</clipPath>
<clipPath id="clip1_2_1285">
<rect width="154" height="22" fill="white" transform="translate(40.4434 36.1582)"/>
</clipPath>
<clipPath id="clip2_2_1285">
<rect width="8" height="8" fill="white" transform="translate(233.503 221.658)"/>
</clipPath>
</defs>
</svg>
