<svg width="41" height="41" viewBox="0 0 41 41" fill="none" xmlns="http://www.w3.org/2000/svg">
<mask id="mask0_2_1206" style="mask-type:alpha" maskUnits="userSpaceOnUse" x="0" y="0" width="41" height="41">
<g clip-path="url(#clip0_2_1206)">
<path d="M20.9434 40.9678C24.8435 40.9678 28.0979 40.8204 30.7327 40.6169C36.1303 40.1999 40.1755 36.1548 40.5925 30.7572C40.796 28.1225 40.9434 24.8682 40.9434 20.9683C40.9434 17.0684 40.796 13.8142 40.5925 11.1794C40.1755 5.78179 36.1303 1.7366 30.7327 1.31966C28.0979 1.11613 24.8435 0.96875 20.9434 0.96875C16.8618 0.96875 13.4874 1.13017 10.7903 1.34843C5.58837 1.76938 1.69832 5.60881 1.29653 10.8122C1.09184 13.4632 0.94336 16.8169 0.943359 20.9683C0.943359 25.1197 1.09183 28.4734 1.29653 31.1243C1.69831 36.3277 5.58837 40.1672 10.7902 40.5881C13.4874 40.8064 16.8618 40.9678 20.9434 40.9678Z" fill="black"/>
</g>
</mask>
<g mask="url(#mask0_2_1206)">
<rect width="40" height="40" transform="translate(0.943359 0.96875)" fill="#F8F8FC"/>
<g clip-path="url(#clip1_2_1206)">
<path d="M24.8643 20.9683C24.8643 18.802 23.1082 17.0459 20.9419 17.0459C18.7757 17.0459 17.0195 18.802 17.0195 20.9683C17.0195 23.1346 18.7757 24.8907 20.9419 24.8907C23.1082 24.8907 24.8643 23.1346 24.8643 20.9683Z" stroke="#24223E" stroke-width="2" stroke-linecap="round" stroke-linejoin="round"/>
<path d="M18.7664 30.1021C19.4631 30.2855 20.1921 30.3831 20.9428 30.3831C21.7689 30.3831 22.5689 30.2652 23.3283 30.0444L23.7686 30.8478C24.2626 31.7493 25.2362 32.1316 26.092 31.6111L27.125 30.9828C27.9807 30.4623 28.1382 29.392 27.6441 28.4905L27.2049 27.6889C28.3143 26.5431 29.1417 25.0953 29.567 23.4718H30.485C31.4731 23.4718 32.2742 22.6279 32.2742 21.5868V20.3302C32.2742 19.2892 31.4731 18.4453 30.485 18.4453H29.567C29.1417 16.8217 28.3143 15.374 27.2049 14.2282L27.6441 13.4266C28.1382 12.525 27.9807 11.4547 27.1249 10.9342L26.092 10.3059C25.2362 9.78541 24.2777 10.1769 23.7836 11.0784L23.2419 11.8481C22.5082 11.6431 21.7376 11.5339 20.9428 11.5339C20.1166 11.5339 19.3167 11.6518 18.5572 11.8726L18.102 11.0784C17.6078 10.1769 16.6492 9.78541 15.7935 10.3059L14.7605 10.9342C13.9048 11.4547 13.7323 12.5342 14.2263 13.4357L14.6806 14.2282C13.5712 15.374 12.7438 16.8217 12.3185 18.4453H11.4005C10.4124 18.4453 9.61133 19.2892 9.61133 20.3302V21.5868C9.61133 22.6279 10.4124 23.4718 11.4005 23.4718H12.3185C12.7438 25.0953 13.5712 26.5431 14.6806 27.6889L14.2414 28.4905C13.7473 29.392 13.9048 30.4623 14.7605 30.9828L15.7935 31.6111C16.6493 32.1316 17.7435 31.8227 18.2376 30.9211L18.7664 30.1021Z" stroke="#24223E" stroke-width="2" stroke-linecap="round" stroke-linejoin="round"/>
<path fill-rule="evenodd" clip-rule="evenodd" d="M20.9428 30.3831C20.1921 30.3831 19.4631 30.2855 18.7664 30.1021L18.2376 30.9211C17.7435 31.8227 16.6493 32.1316 15.7935 31.6111L14.7605 30.9828C13.9048 30.4623 13.7473 29.392 14.2414 28.4904L14.6806 27.6889C13.5712 26.543 12.7438 25.0953 12.3185 23.4717H11.4005C10.4124 23.4717 9.61133 22.6278 9.61133 21.5868V20.3302C9.61133 19.2892 10.4124 18.4453 11.4005 18.4453H12.3185C12.7438 16.8217 13.5712 15.374 14.6806 14.2282L14.2263 13.4357C13.7323 12.5342 13.9048 11.4547 14.7605 10.9342L15.7935 10.3059C16.6492 9.78541 17.6078 10.1769 18.102 11.0784L18.5572 11.8726C19.3167 11.6518 20.1166 11.5339 20.9428 11.5339C21.7376 11.5339 22.5082 11.6431 23.2419 11.8481L23.7836 11.0784C24.2777 10.1769 25.2362 9.78541 26.092 10.3059L27.1249 10.9342C27.9807 11.4547 28.1382 12.525 27.6441 13.4266L27.2049 14.2282C28.3143 15.374 29.1417 16.8217 29.567 18.4453H30.485C31.4731 18.4453 32.2742 19.2892 32.2742 20.3302V21.5868C32.2742 22.6278 31.4731 23.4717 30.485 23.4717H29.567C29.1417 25.0953 28.3143 26.543 27.2049 27.6889L27.6441 28.4904C28.1382 29.392 27.9807 30.4623 27.125 30.9828L26.092 31.6111C25.2362 32.1316 24.2626 31.7493 23.7686 30.8477L23.3283 30.0444C22.5689 30.2652 21.7689 30.3831 20.9428 30.3831ZM20.942 17.0457C18.7757 17.0457 17.0195 18.8018 17.0195 20.9682C17.0195 23.1344 18.7757 24.8906 20.942 24.8906C23.1083 24.8906 24.8644 23.1344 24.8644 20.9682C24.8644 18.8018 23.1083 17.0457 20.942 17.0457Z" fill="#242236" fill-opacity="0.09"/>
</g>
</g>
<defs>
<clipPath id="clip0_2_1206">
<rect width="40" height="40" fill="white" transform="translate(0.943359 0.96875)"/>
</clipPath>
<clipPath id="clip1_2_1206">
<rect width="26" height="24" fill="white" transform="translate(7.94336 8.96875)"/>
</clipPath>
</defs>
</svg>
