<svg width="41" height="41" viewBox="0 0 41 41" fill="none" xmlns="http://www.w3.org/2000/svg">
<mask id="mask0_2_1228" style="mask-type:alpha" maskUnits="userSpaceOnUse" x="0" y="0" width="41" height="41">
<g clip-path="url(#clip0_2_1228)">
<path d="M20.9434 40.9678C24.8435 40.9678 28.0979 40.8204 30.7327 40.6169C36.1303 40.1999 40.1755 36.1548 40.5925 30.7572C40.796 28.1225 40.9434 24.8682 40.9434 20.9683C40.9434 17.0684 40.796 13.8142 40.5925 11.1794C40.1755 5.78179 36.1303 1.7366 30.7327 1.31966C28.0979 1.11613 24.8435 0.96875 20.9434 0.96875C16.8618 0.96875 13.4874 1.13017 10.7903 1.34843C5.58837 1.76938 1.69832 5.60881 1.29653 10.8122C1.09184 13.4632 0.94336 16.8169 0.943359 20.9683C0.943359 25.1197 1.09183 28.4734 1.29653 31.1243C1.69831 36.3277 5.58837 40.1672 10.7902 40.5881C13.4874 40.8064 16.8618 40.9678 20.9434 40.9678Z" fill="black"/>
</g>
</mask>
<g mask="url(#mask0_2_1228)">
<rect width="40" height="40" transform="translate(0.943359 0.96875)" fill="#F8F8FC"/>
<g clip-path="url(#clip1_2_1228)">
<path d="M31.7377 20.7065C31.7377 18.8132 31.673 17.2036 31.5797 15.8672C31.3599 12.7151 28.9991 10.3544 25.847 10.1345C24.5106 10.0413 22.9009 9.97656 21.0075 9.97656C19.1142 9.97656 17.5045 10.0413 16.168 10.1345C13.0159 10.3544 10.6552 12.7151 10.4353 15.8672C10.3421 17.2036 10.2773 18.8132 10.2773 20.7065C10.2773 22.7014 10.3492 24.3814 10.4506 25.7587C10.6741 28.7966 12.915 31.064 15.9537 31.2759C17.3098 31.3705 18.9816 31.4364 21.0075 31.4364C23.0334 31.4364 24.7053 31.3705 26.0614 31.2759C29.1001 31.064 31.341 28.7966 31.5645 25.7587C31.6658 24.3814 31.7377 22.7014 31.7377 20.7065Z" stroke="#24223E" stroke-width="2" stroke-linecap="round" stroke-linejoin="round"/>
<path d="M31.3258 15.9688L26.7162 20.9469C26.3686 21.3223 25.8709 21.522 25.3603 21.4911L20.2667 21.1825C19.6985 21.1481 19.1505 21.399 18.8054 21.8518L16.4659 24.9225C16.2025 25.2682 15.8172 25.5004 15.3886 25.5718L11.1035 26.2859" stroke="#24223E" stroke-width="2" stroke-linecap="round" stroke-linejoin="round"/>
<path d="M26.1689 21.3258L31.7403 15.9609L31.3276 28.7542L27.8197 31.2303L14.8197 31.4367L11.9308 29.9923L10.4863 26.2781L16.0578 25.4527L19.7721 21.1195L26.1689 21.3258Z" fill="#24223E" fill-opacity="0.1"/>
</g>
</g>
<defs>
<clipPath id="clip0_2_1228">
<rect width="40" height="40" fill="white" transform="translate(0.943359 0.96875)"/>
</clipPath>
<clipPath id="clip1_2_1228">
<rect width="24" height="24" fill="white" transform="translate(8.94336 8.96875)"/>
</clipPath>
</defs>
</svg>
