<svg width="83" height="42" viewBox="0 0 83 42" fill="none" xmlns="http://www.w3.org/2000/svg">
<g clip-path="url(#clip0_2_1122)">
<path d="M41.5623 2.27686C46.6072 2.27686 50.0314 2.41356 52.2343 2.55675C54.2379 2.68699 55.7602 4.25057 55.9271 6.25154C56.0886 8.18769 56.2505 10.6386 56.2537 12.712C56.2571 14.9264 56.0794 17.5715 55.9126 19.5602C55.7607 21.3709 54.4848 22.8471 52.6856 23.1002C50.6297 23.3894 47.4321 23.6932 42.8931 23.7428C42.4705 23.7475 42.5874 23.7499 42.1415 23.7499C42.1415 23.7499 40.3317 25.8634 37.9036 27.988C35.1273 30.4172 33.1002 31.661 33.1002 31.661C33.1002 31.661 33.3829 29.6118 33.3829 27.4229C33.3829 25.956 33.256 24.6237 33.1722 23.9045C33.1346 23.5819 32.8598 23.3449 32.5351 23.3449C31.7601 23.2664 31.0822 23.183 30.4966 23.1007C28.6952 22.8475 27.4136 21.3692 27.2572 19.5569C27.0857 17.5686 26.9014 14.9252 26.898 12.712C26.8948 10.6374 27.0505 8.1848 27.2074 6.24812C27.3694 4.24879 28.8861 2.68719 30.8878 2.55697C33.0902 2.41369 36.5148 2.27686 41.5623 2.27686Z" fill="#24223E" fill-opacity="0.1"/>
<path d="M42.1415 23.7499C42.5874 23.7499 42.4705 23.7475 42.8931 23.7428M42.1415 23.7499L42.8931 23.7428M42.1415 23.7499C42.1415 23.7499 40.3317 25.8634 37.9036 27.988C35.1273 30.4172 33.1002 31.661 33.1002 31.661C33.1002 31.661 33.3829 29.6118 33.3829 27.4229C33.3829 25.956 33.256 24.6237 33.1722 23.9045C33.1346 23.5819 32.8598 23.3449 32.5351 23.3449C31.7601 23.2664 31.0822 23.183 30.4966 23.1007C28.6952 22.8475 27.4136 21.3692 27.2572 19.5569C27.0857 17.5686 26.9014 14.9252 26.898 12.712C26.8948 10.6374 27.0505 8.1848 27.2074 6.24812C27.3694 4.24879 28.8861 2.68719 30.8878 2.55697C33.0902 2.41369 36.5148 2.27686 41.5623 2.27686C46.6072 2.27686 50.0314 2.41356 52.2343 2.55675C54.2379 2.68699 55.7602 4.25057 55.9271 6.25154C56.0886 8.18769 56.2505 10.6386 56.2537 12.712C56.2571 14.9264 56.0794 17.5715 55.9126 19.5602C55.7607 21.3709 54.4848 22.8471 52.6856 23.1002C50.6297 23.3894 47.4321 23.6932 42.8931 23.7428" stroke="#514B81" stroke-width="2" stroke-linecap="round" stroke-linejoin="round"/>
<path d="M34.7959 15.2734H42.7071" stroke="#514B81" stroke-width="2" stroke-linecap="round" stroke-linejoin="round"/>
<path d="M34.7959 9.62256H48.3578" stroke="#514B81" stroke-width="2" stroke-linecap="round" stroke-linejoin="round"/>
</g>
<defs>
<clipPath id="clip0_2_1122">
<rect width="32" height="32" fill="white" transform="translate(25.3936 0.96875)"/>
</clipPath>
</defs>
</svg>
