<svg width="64" height="42" viewBox="0 0 64 42" fill="none" xmlns="http://www.w3.org/2000/svg">
<g clip-path="url(#clip0_2_1131)">
<path d="M46.1941 21.5797C46.3847 19.9477 46.5345 17.7782 46.5345 14.991C46.5345 12.2292 46.3874 10.0004 46.1993 8.27952C45.8914 5.46291 43.689 3.43608 40.8661 3.19205C38.683 3.00331 35.6905 2.8418 31.8424 2.8418C27.9944 2.8418 25.0019 3.00331 22.8188 3.19205C19.9959 3.43608 17.7935 5.46291 17.4856 8.27952C17.2975 10.0004 17.1504 12.2292 17.1504 14.991C17.1504 17.7782 17.3003 19.9477 17.4908 21.5797C17.792 24.1587 19.7962 25.9722 22.3821 26.2071C24.5421 26.4034 27.6344 26.5751 31.8424 26.5751C36.0505 26.5751 39.1428 26.4034 41.3028 26.2071C43.8887 25.9722 45.8929 24.1587 46.1941 21.5797Z" fill="#24223E" fill-opacity="0.1" stroke="#514B81" stroke-width="2" stroke-linecap="round" stroke-linejoin="round"/>
<path d="M39.7539 20.9247V20.9247C39.7539 21.2367 40.0069 21.4897 40.319 21.4897H40.319C40.6311 21.4897 40.8841 21.2367 40.8841 20.9247V20.9247C40.8841 20.6126 40.6311 20.3596 40.319 20.3596H40.319C40.0069 20.3596 39.7539 20.6126 39.7539 20.9247Z" fill="#514B81" stroke="#514B81" stroke-width="2" stroke-linecap="round" stroke-linejoin="round"/>
<path d="M41.449 31.0959C41.449 31.0959 38.5368 30.5308 31.8427 30.5308C25.1486 30.5308 22.2363 31.0959 22.2363 31.0959" stroke="#514B81" stroke-width="2" stroke-linecap="round" stroke-linejoin="round"/>
</g>
<defs>
<clipPath id="clip0_2_1131">
<rect width="32" height="32" fill="white" transform="translate(16.0332 0.96875)"/>
</clipPath>
</defs>
</svg>
