<svg width="73" height="42" viewBox="0 0 73 42" fill="none" xmlns="http://www.w3.org/2000/svg">
<g clip-path="url(#clip0_2_1149)">
<path d="M49.0836 2.46191L51.3439 5.56984L44.2804 24.2174L37.4995 21.6746L45.4106 2.74445L49.0836 2.46191Z" fill="#24223E" fill-opacity="0.1"/>
<path d="M37.477 22.3668L36.9928 23.6065C36.7632 24.1946 36.6585 24.8217 36.6944 25.452C36.8008 27.3178 37.0736 31.284 37.477 31.4374C37.878 31.5899 40.8443 28.8997 42.2491 27.5958C42.7354 27.1444 43.1079 26.588 43.3493 25.9699L43.9239 24.4984M37.477 22.3668L44.4438 4.52721C45.1437 2.73498 47.132 1.77807 48.9304 2.46191C50.6807 3.12744 51.4911 5.12142 50.81 6.86564L43.9239 24.4984M37.477 22.3668C37.477 22.3668 38.9107 22.1508 40.8885 22.8047C42.8662 23.4587 43.9239 24.4984 43.9239 24.4984" stroke="#514B81" stroke-width="2" stroke-linecap="round" stroke-linejoin="round"/>
<path d="M23.9348 7.26514C23.9348 7.26514 22.8047 9.50882 22.8047 16.8714C22.8047 24.2341 23.9348 26.4778 23.9348 26.4778" stroke="#514B81" stroke-width="2" stroke-linecap="round" stroke-linejoin="round"/>
<path d="M26.7612 4.43974C26.7612 4.43974 28.1739 3.59212 32.8358 3.30958C37.4977 3.02704 40.0406 3.59212 40.0406 3.59212" stroke="#514B81" stroke-width="2" stroke-linecap="round" stroke-linejoin="round"/>
<path d="M26.7617 29.3032H32.6951" stroke="#514B81" stroke-width="2" stroke-linecap="round" stroke-linejoin="round"/>
<path d="M21.6753 4.72206C21.6753 6.12644 22.8138 7.26492 24.2182 7.26492C25.6225 7.26492 26.761 6.12644 26.761 4.72206C26.761 3.31768 25.6225 2.1792 24.2182 2.1792C22.8138 2.1792 21.6753 3.31768 21.6753 4.72206Z" stroke="#514B81" stroke-width="2" stroke-linecap="round" stroke-linejoin="round"/>
<path d="M21.6753 29.0204C21.6753 30.4248 22.8138 31.5632 24.2182 31.5632C25.6225 31.5632 26.761 30.4248 26.761 29.0204C26.761 27.616 25.6225 26.4775 24.2182 26.4775C22.8138 26.4775 21.6753 27.616 21.6753 29.0204Z" stroke="#514B81" stroke-width="2" stroke-linecap="round" stroke-linejoin="round"/>
</g>
<defs>
<clipPath id="clip0_2_1149">
<rect width="33" height="32" fill="white" transform="translate(19.8237 0.96875)"/>
</clipPath>
</defs>
</svg>
