<svg width="61" height="29" viewBox="0 0 61 29" fill="none" xmlns="http://www.w3.org/2000/svg">
<g clip-path="url(#clip0_2_1368)">
<path d="M47.1622 0.0380859H14.9958C7.3845 0.0380859 1.21436 6.20821 1.21436 13.8194C1.21436 21.4307 7.3845 27.6008 14.9958 27.6008H47.1622C54.7734 27.6008 60.9436 21.4307 60.9436 13.8194C60.9436 6.20821 54.7734 0.0380859 47.1622 0.0380859Z" fill="#4AB9FD"/>
<path d="M46.9221 24.0426C52.6699 24.0426 57.3294 19.4647 57.3294 13.8177C57.3294 8.17062 52.6699 3.59277 46.9221 3.59277C41.1742 3.59277 36.5146 8.17062 36.5146 13.8177C36.5146 19.4647 41.1742 24.0426 46.9221 24.0426Z" fill="white"/>
</g>
<defs>
<clipPath id="clip0_2_1368">
<rect width="60" height="28" fill="white" transform="translate(0.943359 0.0380859)"/>
</clipPath>
</defs>
</svg>
