<svg width="386" height="284" viewBox="0 0 386 284" fill="none" xmlns="http://www.w3.org/2000/svg">
<mask id="mask0_2_1300" style="mask-type:alpha" maskUnits="userSpaceOnUse" x="0" y="0" width="386" height="284">
<g clip-path="url(#clip0_2_1300)">
<path d="M-4.62891 3.70508L416.307 32.927V328.158H-4.62891V3.70508Z" fill="black"/>
</g>
</mask>
<g mask="url(#mask0_2_1300)">
<rect width="385" height="283" transform="translate(0.443359 0.158203)" fill="url(#paint0_linear_2_1300)"/>
<path d="M60.7283 52.3992C59.5901 55.9222 57.5978 58.9801 52.4343 59.1823C44.7515 59.1823 42.4141 52.8044 42.4141 49.3817C42.4141 40.5742 49.5082 38.4473 52.3539 38.4473C55.5852 38.4473 60.1592 39.9264 60.1592 43.7325C60.1592 45.0686 59.3052 46.365 57.9233 46.365C56.5821 46.365 55.5852 45.4745 55.5852 44.0365C55.5852 42.1133 57.1708 41.8497 57.1708 41.3232C57.1708 39.987 54.0409 39.4403 52.9433 39.4403C48.1662 39.4403 46.9257 42.9026 46.9257 49.3825C46.9257 52.3587 47.6783 54.6265 47.9625 55.3148C48.715 56.955 50.239 57.9877 52.8208 58.1293C55.728 58.2918 58.4924 55.9626 59.6916 52.3992H60.7283ZM66.8691 48.7953C66.8691 52.9459 66.9104 58.1907 71.931 58.1907C76.9517 58.1907 76.9915 52.9459 76.9915 48.7946C76.9915 44.6851 76.9517 39.4403 71.931 39.4403C66.9104 39.4403 66.8691 44.6844 66.8691 48.7953ZM81.525 48.7953C81.525 54.7883 77.1547 59.1823 71.9513 59.1823C66.7473 59.1823 62.3574 54.7681 62.3574 48.7953C62.3574 42.8218 66.727 38.448 71.931 38.448C77.1344 38.448 81.525 42.8015 81.525 48.7953ZM85.0412 40.0874H82.3174V38.9535H83.3541C84.2894 38.9745 85.2036 38.934 86.1381 38.8524C87.0734 38.7925 88.0086 38.6502 88.9236 38.448V43.692H89.0251C90.4069 40.5742 92.3383 38.448 95.9561 38.448C97.7454 38.448 101.871 38.8524 101.871 43.388V57.3804H104.554V58.5142H95.408V57.3804H97.989V44.0163C97.989 40.4124 96.8507 39.865 94.8592 39.865C91.485 39.865 88.904 44.4619 88.904 48.167V57.3601H91.5865V58.494H82.3174V57.3601H85.0412V40.0874ZM116.283 38.9543V40.0882H119.311L114.291 54.2827H114.189L109.371 40.0874H112.014V38.9535H103.07V40.0874H105.448L112.095 59.1816H113.803L120.652 40.0874H123.031V38.9535L116.283 38.9543ZM136.383 45.8183V44.1377C136.383 40.5742 134.29 39.4403 131.81 39.4403C128.822 39.4403 127.48 42.2137 127.379 42.5582C127.074 43.6112 126.891 44.7248 126.891 45.8183H136.383ZM140.855 52.3992C139.859 56.9954 136.485 59.1823 132.115 59.1823C127.053 59.1823 122.175 55.1328 122.175 49.6251C122.175 43.7939 126.057 38.448 131.952 38.448C137.014 38.448 140.835 41.8699 140.896 47.2562H126.83V49.2806C126.83 54.1809 127.48 58.1293 132.888 58.1293C135.713 58.1293 139.046 55.6593 139.737 52.3992H140.855ZM144.678 40.0874H141.954V38.9535H142.99C143.925 38.9745 144.84 38.934 145.775 38.8524C146.71 38.7925 147.645 38.6502 148.56 38.448V43.692H148.662C150.044 40.5742 151.975 38.448 155.613 38.448C157.402 38.448 161.528 38.8524 161.528 43.388V57.3804H164.212V58.5142H155.064V57.3804H157.646V44.0163C157.646 40.4124 156.508 39.865 154.515 39.865C151.141 39.865 148.56 44.4619 148.56 48.167V57.3601H151.243V58.494H141.954V57.3601H144.678V40.0874ZM178.908 45.8183V44.1377C178.908 40.5742 176.815 39.4403 174.335 39.4403C171.347 39.4403 170.005 42.2137 169.924 42.5582C169.619 43.6112 169.436 44.7248 169.436 45.8183H178.908ZM183.38 52.3992C182.384 56.9954 179.01 59.1823 174.64 59.1823C169.579 59.1823 164.72 55.1328 164.72 49.6251C164.72 43.7939 168.583 38.448 174.498 38.448C179.559 38.448 183.38 41.8699 183.441 47.2562H169.375V49.2806C169.375 54.1809 170.025 58.1293 175.432 58.1293C178.258 58.1293 181.591 55.6593 182.282 52.3992H183.38Z" fill="white"/>
<path d="M49.2031 105.822L48.0996 110.158H45.4434L47.2988 105.822H49.2031ZM45.1406 105.822L44.0664 110.158H41.3809L43.2266 105.822H45.1406ZM61.9473 119.66C60.9251 120.155 59.5905 120.402 57.9434 120.402C55.7949 120.402 54.1055 119.771 52.875 118.508C51.6445 117.245 51.0293 115.562 51.0293 113.459C51.0293 111.219 51.7194 109.403 53.0996 108.01C54.4863 106.617 56.2832 105.92 58.4902 105.92C59.8574 105.92 61.0098 106.092 61.9473 106.438V109.475C61.0098 108.915 59.9421 108.635 58.7441 108.635C57.429 108.635 56.3678 109.048 55.5605 109.875C54.7533 110.702 54.3496 111.822 54.3496 113.234C54.3496 114.589 54.7305 115.669 55.4922 116.477C56.2539 117.277 57.2793 117.678 58.5684 117.678C59.7988 117.678 60.9251 117.378 61.9473 116.779V119.66ZM67.1719 120.158H64.0859V105.354H67.1719V120.158ZM71.332 108.576C70.8112 108.576 70.3848 108.423 70.0527 108.117C69.7207 107.805 69.5547 107.424 69.5547 106.975C69.5547 106.512 69.7207 106.135 70.0527 105.842C70.3848 105.549 70.8112 105.402 71.332 105.402C71.8594 105.402 72.2858 105.549 72.6113 105.842C72.9434 106.135 73.1094 106.512 73.1094 106.975C73.1094 107.443 72.9434 107.827 72.6113 108.127C72.2858 108.426 71.8594 108.576 71.332 108.576ZM72.8555 120.158H69.7695V110.158H72.8555V120.158ZM83.0312 119.797C82.3346 120.201 81.3288 120.402 80.0137 120.402C78.4772 120.402 77.2337 119.937 76.2832 119.006C75.3327 118.075 74.8574 116.874 74.8574 115.402C74.8574 113.703 75.3652 112.365 76.3809 111.389C77.403 110.406 78.7669 109.914 80.4727 109.914C81.651 109.914 82.5039 110.07 83.0312 110.383V113C82.3867 112.518 81.6673 112.277 80.873 112.277C79.9876 112.277 79.2845 112.538 78.7637 113.059C78.2493 113.573 77.9922 114.286 77.9922 115.197C77.9922 116.083 78.2396 116.779 78.7344 117.287C79.2292 117.788 79.9095 118.039 80.7754 118.039C81.5436 118.039 82.2956 117.798 83.0312 117.316V119.797ZM95.082 120.158H91.3809L88.1875 115.197H88.1484V120.158H85.0625V105.354H88.1484V114.777H88.1875L91.166 110.158H94.8281L91.2441 114.855L95.082 120.158ZM107.973 114.094C107.973 118.299 106.013 120.402 102.094 120.402C98.2917 120.402 96.3906 118.348 96.3906 114.24V106.154H99.5547V114.279C99.5547 116.545 100.44 117.678 102.211 117.678C103.949 117.678 104.818 116.584 104.818 114.396V106.154H107.973V114.094ZM113.852 118.996H113.812V124.758H110.727V110.158H113.812V111.662H113.852C114.613 110.497 115.684 109.914 117.064 109.914C118.36 109.914 119.359 110.36 120.062 111.252C120.772 112.137 121.127 113.345 121.127 114.875C121.127 116.542 120.714 117.88 119.887 118.889C119.066 119.898 117.973 120.402 116.605 120.402C115.401 120.402 114.483 119.934 113.852 118.996ZM113.764 114.895V115.695C113.764 116.385 113.946 116.949 114.311 117.385C114.675 117.821 115.154 118.039 115.746 118.039C116.449 118.039 116.993 117.769 117.377 117.229C117.768 116.682 117.963 115.91 117.963 114.914C117.963 113.156 117.279 112.277 115.912 112.277C115.281 112.277 114.763 112.518 114.359 113C113.962 113.475 113.764 114.107 113.764 114.895ZM130.219 108.576C129.698 108.576 129.271 108.423 128.939 108.117C128.607 107.805 128.441 107.424 128.441 106.975C128.441 106.512 128.607 106.135 128.939 105.842C129.271 105.549 129.698 105.402 130.219 105.402C130.746 105.402 131.173 105.549 131.498 105.842C131.83 106.135 131.996 106.512 131.996 106.975C131.996 107.443 131.83 107.827 131.498 108.127C131.173 108.426 130.746 108.576 130.219 108.576ZM131.742 120.158H128.656V110.158H131.742V120.158ZM133.686 119.895V117.395C134.193 117.701 134.698 117.928 135.199 118.078C135.707 118.228 136.186 118.303 136.635 118.303C137.182 118.303 137.611 118.228 137.924 118.078C138.243 117.928 138.402 117.701 138.402 117.395C138.402 117.199 138.331 117.036 138.188 116.906C138.044 116.776 137.859 116.662 137.631 116.564C137.41 116.467 137.165 116.379 136.898 116.301C136.632 116.223 136.374 116.135 136.127 116.037C135.73 115.887 135.378 115.728 135.072 115.559C134.773 115.383 134.519 115.181 134.311 114.953C134.109 114.725 133.952 114.462 133.842 114.162C133.738 113.863 133.686 113.508 133.686 113.098C133.686 112.538 133.806 112.056 134.047 111.652C134.294 111.249 134.62 110.92 135.023 110.666C135.434 110.406 135.899 110.217 136.42 110.1C136.947 109.976 137.494 109.914 138.061 109.914C138.503 109.914 138.952 109.95 139.408 110.021C139.864 110.087 140.313 110.184 140.756 110.314V112.697C140.365 112.469 139.945 112.3 139.496 112.189C139.053 112.072 138.617 112.014 138.188 112.014C137.986 112.014 137.794 112.033 137.611 112.072C137.436 112.105 137.279 112.157 137.143 112.229C137.006 112.294 136.898 112.382 136.82 112.492C136.742 112.596 136.703 112.717 136.703 112.854C136.703 113.036 136.762 113.192 136.879 113.322C136.996 113.452 137.149 113.566 137.338 113.664C137.527 113.755 137.735 113.84 137.963 113.918C138.197 113.99 138.428 114.064 138.656 114.143C139.066 114.286 139.438 114.442 139.77 114.611C140.102 114.781 140.385 114.979 140.619 115.207C140.86 115.435 141.042 115.702 141.166 116.008C141.296 116.314 141.361 116.678 141.361 117.102C141.361 117.694 141.231 118.202 140.971 118.625C140.717 119.042 140.375 119.383 139.945 119.65C139.522 119.911 139.031 120.1 138.471 120.217C137.917 120.34 137.341 120.402 136.742 120.402C135.642 120.402 134.623 120.233 133.686 119.895ZM158.275 120.158H155.199V114.475C155.199 113.01 154.665 112.277 153.598 112.277C153.051 112.277 152.608 112.482 152.27 112.893C151.931 113.303 151.762 113.824 151.762 114.455V120.158H148.676V105.354H151.762V111.643H151.801C152.556 110.49 153.581 109.914 154.877 109.914C157.143 109.914 158.275 111.281 158.275 114.016V120.158ZM165.492 120.402C163.826 120.402 162.514 119.937 161.557 119.006C160.606 118.068 160.131 116.799 160.131 115.197C160.131 113.544 160.626 112.251 161.615 111.32C162.605 110.383 163.943 109.914 165.629 109.914C167.289 109.914 168.591 110.383 169.535 111.32C170.479 112.251 170.951 113.485 170.951 115.021C170.951 116.682 170.463 117.993 169.486 118.957C168.516 119.921 167.185 120.402 165.492 120.402ZM165.57 112.277C164.841 112.277 164.275 112.528 163.871 113.029C163.467 113.531 163.266 114.24 163.266 115.158C163.266 117.079 164.04 118.039 165.59 118.039C167.068 118.039 167.807 117.053 167.807 115.08C167.807 113.212 167.061 112.277 165.57 112.277ZM187.436 110.158L184.555 120.158H181.312L179.838 114.299C179.74 113.908 179.685 113.482 179.672 113.02H179.613C179.568 113.527 179.503 113.941 179.418 114.26L177.836 120.158H174.633L171.811 110.158H174.955L176.332 116.682C176.397 116.988 176.446 117.359 176.479 117.795H176.537C176.57 117.339 176.628 116.955 176.713 116.643L178.432 110.158H181.371L182.914 116.682C182.953 116.844 182.999 117.222 183.051 117.814H183.119C183.152 117.437 183.204 117.059 183.275 116.682L184.574 110.158H187.436ZM199.203 120.402C197.536 120.402 196.225 119.937 195.268 119.006C194.317 118.068 193.842 116.799 193.842 115.197C193.842 113.544 194.337 112.251 195.326 111.32C196.316 110.383 197.654 109.914 199.34 109.914C201 109.914 202.302 110.383 203.246 111.32C204.19 112.251 204.662 113.485 204.662 115.021C204.662 116.682 204.174 117.993 203.197 118.957C202.227 119.921 200.896 120.402 199.203 120.402ZM199.281 112.277C198.552 112.277 197.986 112.528 197.582 113.029C197.178 113.531 196.977 114.24 196.977 115.158C196.977 117.079 197.751 118.039 199.301 118.039C200.779 118.039 201.518 117.053 201.518 115.08C201.518 113.212 200.772 112.277 199.281 112.277ZM216.166 120.158H213.09V118.635H213.041C212.279 119.813 211.26 120.402 209.984 120.402C207.667 120.402 206.508 118.999 206.508 116.193V110.158H209.584V115.92C209.584 117.333 210.144 118.039 211.264 118.039C211.817 118.039 212.26 117.847 212.592 117.463C212.924 117.072 213.09 116.545 213.09 115.881V110.158H216.166V120.158ZM225.297 112.941C224.926 112.74 224.493 112.639 223.998 112.639C223.327 112.639 222.803 112.886 222.426 113.381C222.048 113.869 221.859 114.536 221.859 115.383V120.158H218.773V110.158H221.859V112.014H221.898C222.387 110.66 223.266 109.982 224.535 109.982C224.861 109.982 225.115 110.021 225.297 110.1V112.941ZM238.314 120.041C237.859 120.282 237.172 120.402 236.254 120.402C234.079 120.402 232.992 119.273 232.992 117.014V112.434H231.371V110.158H232.992V108L236.068 107.121V110.158H238.314V112.434H236.068V116.477C236.068 117.518 236.482 118.039 237.309 118.039C237.634 118.039 237.969 117.945 238.314 117.756V120.041ZM248.969 116.037H242.445C242.549 117.489 243.464 118.215 245.189 118.215C246.29 118.215 247.257 117.954 248.09 117.434V119.66C247.165 120.155 245.964 120.402 244.486 120.402C242.872 120.402 241.618 119.956 240.727 119.064C239.835 118.166 239.389 116.916 239.389 115.314C239.389 113.654 239.87 112.339 240.834 111.369C241.798 110.399 242.982 109.914 244.389 109.914C245.847 109.914 246.973 110.347 247.768 111.213C248.568 112.079 248.969 113.254 248.969 114.738V116.037ZM246.107 114.143C246.107 112.71 245.528 111.994 244.369 111.994C243.874 111.994 243.445 112.199 243.08 112.609C242.722 113.02 242.504 113.531 242.426 114.143H246.107ZM259.125 120.158H256.205V118.723H256.166C255.495 119.842 254.503 120.402 253.188 120.402C252.217 120.402 251.452 120.129 250.893 119.582C250.339 119.029 250.062 118.293 250.062 117.375C250.062 115.435 251.212 114.315 253.51 114.016L256.225 113.654C256.225 112.561 255.632 112.014 254.447 112.014C253.256 112.014 252.123 112.368 251.049 113.078V110.754C251.479 110.533 252.064 110.337 252.807 110.168C253.555 109.999 254.236 109.914 254.848 109.914C257.699 109.914 259.125 111.337 259.125 114.182V120.158ZM256.225 116.096V115.422L254.408 115.656C253.406 115.786 252.904 116.239 252.904 117.014C252.904 117.365 253.025 117.655 253.266 117.883C253.513 118.104 253.845 118.215 254.262 118.215C254.841 118.215 255.313 118.016 255.678 117.619C256.042 117.215 256.225 116.708 256.225 116.096ZM277.445 120.158H274.369V114.455C274.369 113.003 273.835 112.277 272.768 112.277C272.26 112.277 271.846 112.495 271.527 112.932C271.208 113.368 271.049 113.911 271.049 114.562V120.158H267.963V114.396C267.963 112.984 267.439 112.277 266.391 112.277C265.863 112.277 265.44 112.486 265.121 112.902C264.809 113.319 264.652 113.885 264.652 114.602V120.158H261.566V110.158H264.652V111.721H264.691C265.01 111.187 265.456 110.754 266.029 110.422C266.609 110.083 267.24 109.914 267.924 109.914C269.337 109.914 270.303 110.536 270.824 111.779C271.586 110.536 272.706 109.914 274.184 109.914C276.358 109.914 277.445 111.255 277.445 113.938V120.158ZM279.232 119.895V117.395C279.74 117.701 280.245 117.928 280.746 118.078C281.254 118.228 281.732 118.303 282.182 118.303C282.729 118.303 283.158 118.228 283.471 118.078C283.79 117.928 283.949 117.701 283.949 117.395C283.949 117.199 283.878 117.036 283.734 116.906C283.591 116.776 283.406 116.662 283.178 116.564C282.956 116.467 282.712 116.379 282.445 116.301C282.178 116.223 281.921 116.135 281.674 116.037C281.277 115.887 280.925 115.728 280.619 115.559C280.32 115.383 280.066 115.181 279.857 114.953C279.656 114.725 279.499 114.462 279.389 114.162C279.285 113.863 279.232 113.508 279.232 113.098C279.232 112.538 279.353 112.056 279.594 111.652C279.841 111.249 280.167 110.92 280.57 110.666C280.98 110.406 281.446 110.217 281.967 110.1C282.494 109.976 283.041 109.914 283.607 109.914C284.05 109.914 284.499 109.95 284.955 110.021C285.411 110.087 285.86 110.184 286.303 110.314V112.697C285.912 112.469 285.492 112.3 285.043 112.189C284.6 112.072 284.164 112.014 283.734 112.014C283.533 112.014 283.34 112.033 283.158 112.072C282.982 112.105 282.826 112.157 282.689 112.229C282.553 112.294 282.445 112.382 282.367 112.492C282.289 112.596 282.25 112.717 282.25 112.854C282.25 113.036 282.309 113.192 282.426 113.322C282.543 113.452 282.696 113.566 282.885 113.664C283.074 113.755 283.282 113.84 283.51 113.918C283.744 113.99 283.975 114.064 284.203 114.143C284.613 114.286 284.984 114.442 285.316 114.611C285.648 114.781 285.932 114.979 286.166 115.207C286.407 115.435 286.589 115.702 286.713 116.008C286.843 116.314 286.908 116.678 286.908 117.102C286.908 117.694 286.778 118.202 286.518 118.625C286.264 119.042 285.922 119.383 285.492 119.65C285.069 119.911 284.577 120.1 284.018 120.217C283.464 120.34 282.888 120.402 282.289 120.402C281.189 120.402 280.17 120.233 279.232 119.895ZM49.3203 146.797C48.6237 147.201 47.6178 147.402 46.3027 147.402C44.7663 147.402 43.5228 146.937 42.5723 146.006C41.6217 145.075 41.1465 143.874 41.1465 142.402C41.1465 140.703 41.6543 139.365 42.6699 138.389C43.6921 137.406 45.056 136.914 46.7617 136.914C47.9401 136.914 48.793 137.07 49.3203 137.383V140C48.6758 139.518 47.9564 139.277 47.1621 139.277C46.2767 139.277 45.5736 139.538 45.0527 140.059C44.5384 140.573 44.2812 141.286 44.2812 142.197C44.2812 143.083 44.5286 143.779 45.0234 144.287C45.5182 144.788 46.1986 145.039 47.0645 145.039C47.8327 145.039 48.5846 144.798 49.3203 144.316V146.797ZM60.3359 143.037H53.8125C53.9167 144.489 54.8314 145.215 56.5566 145.215C57.6569 145.215 58.6237 144.954 59.457 144.434V146.66C58.5326 147.155 57.3314 147.402 55.8535 147.402C54.2389 147.402 52.9857 146.956 52.0938 146.064C51.2018 145.166 50.7559 143.916 50.7559 142.314C50.7559 140.654 51.2376 139.339 52.2012 138.369C53.1647 137.399 54.3496 136.914 55.7559 136.914C57.2142 136.914 58.3405 137.347 59.1348 138.213C59.9355 139.079 60.3359 140.254 60.3359 141.738V143.037ZM57.4746 141.143C57.4746 139.71 56.8952 138.994 55.7363 138.994C55.2415 138.994 54.8118 139.199 54.4473 139.609C54.0892 140.02 53.8711 140.531 53.793 141.143H57.4746ZM71.8301 147.158H68.7539V141.602C68.7539 140.052 68.2005 139.277 67.0938 139.277C66.5599 139.277 66.1204 139.482 65.7754 139.893C65.4303 140.303 65.2578 140.824 65.2578 141.455V147.158H62.1719V137.158H65.2578V138.74H65.2969C66.0326 137.523 67.1035 136.914 68.5098 136.914C70.7233 136.914 71.8301 138.288 71.8301 141.035V147.158ZM80.3262 147.041C79.8704 147.282 79.1836 147.402 78.2656 147.402C76.0911 147.402 75.0039 146.273 75.0039 144.014V139.434H73.3828V137.158H75.0039V135L78.0801 134.121V137.158H80.3262V139.434H78.0801V143.477C78.0801 144.518 78.4935 145.039 79.3203 145.039C79.6458 145.039 79.9811 144.945 80.3262 144.756V147.041ZM88.5977 139.941C88.2266 139.74 87.7936 139.639 87.2988 139.639C86.6283 139.639 86.1042 139.886 85.7266 140.381C85.349 140.869 85.1602 141.536 85.1602 142.383V147.158H82.0742V137.158H85.1602V139.014H85.1992C85.6875 137.66 86.5664 136.982 87.8359 136.982C88.1615 136.982 88.4154 137.021 88.5977 137.1V139.941ZM98.3633 147.158H95.4434V145.723H95.4043C94.7337 146.842 93.7409 147.402 92.4258 147.402C91.4557 147.402 90.6908 147.129 90.1309 146.582C89.5775 146.029 89.3008 145.293 89.3008 144.375C89.3008 142.435 90.4499 141.315 92.748 141.016L95.4629 140.654C95.4629 139.561 94.8704 139.014 93.6855 139.014C92.4941 139.014 91.3613 139.368 90.2871 140.078V137.754C90.7168 137.533 91.3027 137.337 92.0449 137.168C92.7936 136.999 93.474 136.914 94.0859 136.914C96.9375 136.914 98.3633 138.337 98.3633 141.182V147.158ZM95.4629 143.096V142.422L93.6465 142.656C92.6439 142.786 92.1426 143.239 92.1426 144.014C92.1426 144.365 92.263 144.655 92.5039 144.883C92.7513 145.104 93.0833 145.215 93.5 145.215C94.0794 145.215 94.5514 145.016 94.916 144.619C95.2806 144.215 95.4629 143.708 95.4629 143.096ZM103.891 147.158H100.805V132.354H103.891V147.158ZM108.051 135.576C107.53 135.576 107.104 135.423 106.771 135.117C106.439 134.805 106.273 134.424 106.273 133.975C106.273 133.512 106.439 133.135 106.771 132.842C107.104 132.549 107.53 132.402 108.051 132.402C108.578 132.402 109.005 132.549 109.33 132.842C109.662 133.135 109.828 133.512 109.828 133.975C109.828 134.443 109.662 134.827 109.33 135.127C109.005 135.426 108.578 135.576 108.051 135.576ZM109.574 147.158H106.488V137.158H109.574V147.158ZM120.092 147.158H111.117V145.879L116.137 139.434H111.615V137.158H120.053V138.682L115.297 144.883H120.092V147.158ZM130.746 143.037H124.223C124.327 144.489 125.242 145.215 126.967 145.215C128.067 145.215 129.034 144.954 129.867 144.434V146.66C128.943 147.155 127.742 147.402 126.264 147.402C124.649 147.402 123.396 146.956 122.504 146.064C121.612 145.166 121.166 143.916 121.166 142.314C121.166 140.654 121.648 139.339 122.611 138.369C123.575 137.399 124.76 136.914 126.166 136.914C127.624 136.914 128.751 137.347 129.545 138.213C130.346 139.079 130.746 140.254 130.746 141.738V143.037ZM127.885 141.143C127.885 139.71 127.305 138.994 126.146 138.994C125.652 138.994 125.222 139.199 124.857 139.609C124.499 140.02 124.281 140.531 124.203 141.143H127.885ZM152.592 137.158L149.711 147.158H146.469L144.994 141.299C144.896 140.908 144.841 140.482 144.828 140.02H144.77C144.724 140.527 144.659 140.941 144.574 141.26L142.992 147.158H139.789L136.967 137.158H140.111L141.488 143.682C141.553 143.988 141.602 144.359 141.635 144.795H141.693C141.726 144.339 141.785 143.955 141.869 143.643L143.588 137.158H146.527L148.07 143.682C148.109 143.844 148.155 144.222 148.207 144.814H148.275C148.308 144.437 148.36 144.059 148.432 143.682L149.73 137.158H152.592ZM158.734 147.402C157.068 147.402 155.756 146.937 154.799 146.006C153.848 145.068 153.373 143.799 153.373 142.197C153.373 140.544 153.868 139.251 154.857 138.32C155.847 137.383 157.185 136.914 158.871 136.914C160.531 136.914 161.833 137.383 162.777 138.32C163.721 139.251 164.193 140.485 164.193 142.021C164.193 143.682 163.705 144.993 162.729 145.957C161.758 146.921 160.427 147.402 158.734 147.402ZM158.812 139.277C158.083 139.277 157.517 139.528 157.113 140.029C156.71 140.531 156.508 141.24 156.508 142.158C156.508 144.079 157.283 145.039 158.832 145.039C160.31 145.039 161.049 144.053 161.049 142.08C161.049 140.212 160.303 139.277 158.812 139.277ZM172.719 139.941C172.348 139.74 171.915 139.639 171.42 139.639C170.749 139.639 170.225 139.886 169.848 140.381C169.47 140.869 169.281 141.536 169.281 142.383V147.158H166.195V137.158H169.281V139.014H169.32C169.809 137.66 170.688 136.982 171.957 136.982C172.283 136.982 172.536 137.021 172.719 137.1V139.941ZM184.184 147.158H180.482L177.289 142.197H177.25V147.158H174.164V132.354H177.25V141.777H177.289L180.268 137.158H183.93L180.346 141.855L184.184 147.158ZM189.076 144.697L187.641 149.639H185.238L186.234 144.697H189.076ZM196.459 146.895V144.395C196.967 144.701 197.471 144.928 197.973 145.078C198.48 145.228 198.959 145.303 199.408 145.303C199.955 145.303 200.385 145.228 200.697 145.078C201.016 144.928 201.176 144.701 201.176 144.395C201.176 144.199 201.104 144.036 200.961 143.906C200.818 143.776 200.632 143.662 200.404 143.564C200.183 143.467 199.939 143.379 199.672 143.301C199.405 143.223 199.148 143.135 198.9 143.037C198.503 142.887 198.152 142.728 197.846 142.559C197.546 142.383 197.292 142.181 197.084 141.953C196.882 141.725 196.726 141.462 196.615 141.162C196.511 140.863 196.459 140.508 196.459 140.098C196.459 139.538 196.579 139.056 196.82 138.652C197.068 138.249 197.393 137.92 197.797 137.666C198.207 137.406 198.673 137.217 199.193 137.1C199.721 136.976 200.268 136.914 200.834 136.914C201.277 136.914 201.726 136.95 202.182 137.021C202.637 137.087 203.087 137.184 203.529 137.314V139.697C203.139 139.469 202.719 139.3 202.27 139.189C201.827 139.072 201.391 139.014 200.961 139.014C200.759 139.014 200.567 139.033 200.385 139.072C200.209 139.105 200.053 139.157 199.916 139.229C199.779 139.294 199.672 139.382 199.594 139.492C199.516 139.596 199.477 139.717 199.477 139.854C199.477 140.036 199.535 140.192 199.652 140.322C199.77 140.452 199.923 140.566 200.111 140.664C200.3 140.755 200.508 140.84 200.736 140.918C200.971 140.99 201.202 141.064 201.43 141.143C201.84 141.286 202.211 141.442 202.543 141.611C202.875 141.781 203.158 141.979 203.393 142.207C203.633 142.435 203.816 142.702 203.939 143.008C204.07 143.314 204.135 143.678 204.135 144.102C204.135 144.694 204.005 145.202 203.744 145.625C203.49 146.042 203.148 146.383 202.719 146.65C202.296 146.911 201.804 147.1 201.244 147.217C200.691 147.34 200.115 147.402 199.516 147.402C198.415 147.402 197.396 147.233 196.459 146.895ZM211.967 147.041C211.511 147.282 210.824 147.402 209.906 147.402C207.732 147.402 206.645 146.273 206.645 144.014V139.434H205.023V137.158H206.645V135L209.721 134.121V137.158H211.967V139.434H209.721V143.477C209.721 144.518 210.134 145.039 210.961 145.039C211.286 145.039 211.622 144.945 211.967 144.756V147.041ZM222.035 147.158H219.115V145.723H219.076C218.406 146.842 217.413 147.402 216.098 147.402C215.128 147.402 214.363 147.129 213.803 146.582C213.249 146.029 212.973 145.293 212.973 144.375C212.973 142.435 214.122 141.315 216.42 141.016L219.135 140.654C219.135 139.561 218.542 139.014 217.357 139.014C216.166 139.014 215.033 139.368 213.959 140.078V137.754C214.389 137.533 214.975 137.337 215.717 137.168C216.465 136.999 217.146 136.914 217.758 136.914C220.609 136.914 222.035 138.337 222.035 141.182V147.158ZM219.135 143.096V142.422L217.318 142.656C216.316 142.786 215.814 143.239 215.814 144.014C215.814 144.365 215.935 144.655 216.176 144.883C216.423 145.104 216.755 145.215 217.172 145.215C217.751 145.215 218.223 145.016 218.588 144.619C218.952 144.215 219.135 143.708 219.135 143.096ZM233.998 137.158L229.936 147.959C228.959 150.557 227.488 151.855 225.521 151.855C224.773 151.855 224.158 151.771 223.676 151.602V149.141C224.086 149.382 224.532 149.502 225.014 149.502C225.808 149.502 226.361 149.128 226.674 148.379L227.201 147.139L223.139 137.158H226.557L228.422 143.242C228.539 143.62 228.63 144.066 228.695 144.58H228.734C228.793 144.202 228.9 143.763 229.057 143.262L230.941 137.158H233.998ZM245.531 147.402C243.865 147.402 242.553 146.937 241.596 146.006C240.645 145.068 240.17 143.799 240.17 142.197C240.17 140.544 240.665 139.251 241.654 138.32C242.644 137.383 243.982 136.914 245.668 136.914C247.328 136.914 248.63 137.383 249.574 138.32C250.518 139.251 250.99 140.485 250.99 142.021C250.99 143.682 250.502 144.993 249.525 145.957C248.555 146.921 247.224 147.402 245.531 147.402ZM245.609 139.277C244.88 139.277 244.314 139.528 243.91 140.029C243.507 140.531 243.305 141.24 243.305 142.158C243.305 144.079 244.079 145.039 245.629 145.039C247.107 145.039 247.846 144.053 247.846 142.08C247.846 140.212 247.1 139.277 245.609 139.277ZM262.65 147.158H259.574V141.602C259.574 140.052 259.021 139.277 257.914 139.277C257.38 139.277 256.941 139.482 256.596 139.893C256.251 140.303 256.078 140.824 256.078 141.455V147.158H252.992V137.158H256.078V138.74H256.117C256.853 137.523 257.924 136.914 259.33 136.914C261.544 136.914 262.65 138.288 262.65 141.035V147.158ZM276.674 147.041C276.218 147.282 275.531 147.402 274.613 147.402C272.439 147.402 271.352 146.273 271.352 144.014V139.434H269.73V137.158H271.352V135L274.428 134.121V137.158H276.674V139.434H274.428V143.477C274.428 144.518 274.841 145.039 275.668 145.039C275.993 145.039 276.329 144.945 276.674 144.756V147.041ZM284.945 139.941C284.574 139.74 284.141 139.639 283.646 139.639C282.976 139.639 282.452 139.886 282.074 140.381C281.697 140.869 281.508 141.536 281.508 142.383V147.158H278.422V137.158H281.508V139.014H281.547C282.035 137.66 282.914 136.982 284.184 136.982C284.509 136.982 284.763 137.021 284.945 137.1V139.941ZM294.711 147.158H291.791V145.723H291.752C291.081 146.842 290.089 147.402 288.773 147.402C287.803 147.402 287.038 147.129 286.479 146.582C285.925 146.029 285.648 145.293 285.648 144.375C285.648 142.435 286.798 141.315 289.096 141.016L291.811 140.654C291.811 139.561 291.218 139.014 290.033 139.014C288.842 139.014 287.709 139.368 286.635 140.078V137.754C287.064 137.533 287.65 137.337 288.393 137.168C289.141 136.999 289.822 136.914 290.434 136.914C293.285 136.914 294.711 138.337 294.711 141.182V147.158ZM291.811 143.096V142.422L289.994 142.656C288.992 142.786 288.49 143.239 288.49 144.014C288.49 144.365 288.611 144.655 288.852 144.883C289.099 145.104 289.431 145.215 289.848 145.215C290.427 145.215 290.899 145.016 291.264 144.619C291.628 144.215 291.811 143.708 291.811 143.096ZM304.73 146.797C304.034 147.201 303.028 147.402 301.713 147.402C300.176 147.402 298.933 146.937 297.982 146.006C297.032 145.075 296.557 143.874 296.557 142.402C296.557 140.703 297.064 139.365 298.08 138.389C299.102 137.406 300.466 136.914 302.172 136.914C303.35 136.914 304.203 137.07 304.73 137.383V140C304.086 139.518 303.367 139.277 302.572 139.277C301.687 139.277 300.984 139.538 300.463 140.059C299.949 140.573 299.691 141.286 299.691 142.197C299.691 143.083 299.939 143.779 300.434 144.287C300.928 144.788 301.609 145.039 302.475 145.039C303.243 145.039 303.995 144.798 304.73 144.316V146.797ZM316.781 147.158H313.08L309.887 142.197H309.848V147.158H306.762V132.354H309.848V141.777H309.887L312.865 137.158H316.527L312.943 141.855L316.781 147.158ZM321.674 144.697L320.238 149.639H317.836L318.832 144.697H321.674ZM50.0625 174.158H47.1426V172.723H47.1035C46.4329 173.842 45.4401 174.402 44.125 174.402C43.1549 174.402 42.39 174.129 41.8301 173.582C41.2767 173.029 41 172.293 41 171.375C41 169.435 42.1491 168.315 44.4473 168.016L47.1621 167.654C47.1621 166.561 46.5697 166.014 45.3848 166.014C44.1934 166.014 43.0605 166.368 41.9863 167.078V164.754C42.416 164.533 43.002 164.337 43.7441 164.168C44.4928 163.999 45.1732 163.914 45.7852 163.914C48.6367 163.914 50.0625 165.337 50.0625 168.182V174.158ZM47.1621 170.096V169.422L45.3457 169.656C44.3431 169.786 43.8418 170.239 43.8418 171.014C43.8418 171.365 43.9622 171.655 44.2031 171.883C44.4505 172.104 44.7826 172.215 45.1992 172.215C45.7786 172.215 46.2507 172.016 46.6152 171.619C46.9798 171.215 47.1621 170.708 47.1621 170.096ZM62.1621 174.158H59.0859V168.602C59.0859 167.052 58.5326 166.277 57.4258 166.277C56.8919 166.277 56.4525 166.482 56.1074 166.893C55.7624 167.303 55.5898 167.824 55.5898 168.455V174.158H52.5039V164.158H55.5898V165.74H55.6289C56.3646 164.523 57.4355 163.914 58.8418 163.914C61.0553 163.914 62.1621 165.288 62.1621 168.035V174.158ZM74.3984 174.158H71.3125V172.781H71.2734C70.5703 173.862 69.5384 174.402 68.1777 174.402C66.9277 174.402 65.9219 173.963 65.1602 173.084C64.3984 172.199 64.0176 170.965 64.0176 169.383C64.0176 167.729 64.4375 166.404 65.2773 165.408C66.1172 164.412 67.2174 163.914 68.5781 163.914C69.8672 163.914 70.7656 164.376 71.2734 165.301H71.3125V159.354H74.3984V174.158ZM71.3711 169.295V168.543C71.3711 167.892 71.1823 167.352 70.8047 166.922C70.4271 166.492 69.9355 166.277 69.3301 166.277C68.6465 166.277 68.1126 166.548 67.7285 167.088C67.3444 167.622 67.1523 168.357 67.1523 169.295C67.1523 170.174 67.3379 170.851 67.709 171.326C68.0801 171.801 68.5944 172.039 69.252 172.039C69.877 172.039 70.3848 171.788 70.7754 171.287C71.1725 170.786 71.3711 170.122 71.3711 169.295ZM91.5078 170.037H84.9844C85.0885 171.489 86.0033 172.215 87.7285 172.215C88.8288 172.215 89.7956 171.954 90.6289 171.434V173.66C89.7044 174.155 88.5033 174.402 87.0254 174.402C85.4108 174.402 84.1576 173.956 83.2656 173.064C82.3737 172.166 81.9277 170.916 81.9277 169.314C81.9277 167.654 82.4095 166.339 83.373 165.369C84.3366 164.399 85.5215 163.914 86.9277 163.914C88.3861 163.914 89.5124 164.347 90.3066 165.213C91.1074 166.079 91.5078 167.254 91.5078 168.738V170.037ZM88.6465 168.143C88.6465 166.71 88.0671 165.994 86.9082 165.994C86.4134 165.994 85.9837 166.199 85.6191 166.609C85.2611 167.02 85.043 167.531 84.9648 168.143H88.6465ZM101.664 174.158H98.7441V172.723H98.7051C98.0345 173.842 97.0417 174.402 95.7266 174.402C94.7565 174.402 93.9915 174.129 93.4316 173.582C92.8783 173.029 92.6016 172.293 92.6016 171.375C92.6016 169.435 93.7507 168.315 96.0488 168.016L98.7637 167.654C98.7637 166.561 98.1712 166.014 96.9863 166.014C95.7949 166.014 94.6621 166.368 93.5879 167.078V164.754C94.0176 164.533 94.6035 164.337 95.3457 164.168C96.0944 163.999 96.7747 163.914 97.3867 163.914C100.238 163.914 101.664 165.337 101.664 168.182V174.158ZM98.7637 170.096V169.422L96.9473 169.656C95.9447 169.786 95.4434 170.239 95.4434 171.014C95.4434 171.365 95.5638 171.655 95.8047 171.883C96.0521 172.104 96.3841 172.215 96.8008 172.215C97.3802 172.215 97.8522 172.016 98.2168 171.619C98.5814 171.215 98.7637 170.708 98.7637 170.096ZM103.451 173.895V171.395C103.959 171.701 104.464 171.928 104.965 172.078C105.473 172.228 105.951 172.303 106.4 172.303C106.947 172.303 107.377 172.228 107.689 172.078C108.008 171.928 108.168 171.701 108.168 171.395C108.168 171.199 108.096 171.036 107.953 170.906C107.81 170.776 107.624 170.662 107.396 170.564C107.175 170.467 106.931 170.379 106.664 170.301C106.397 170.223 106.14 170.135 105.893 170.037C105.495 169.887 105.144 169.728 104.838 169.559C104.538 169.383 104.285 169.181 104.076 168.953C103.874 168.725 103.718 168.462 103.607 168.162C103.503 167.863 103.451 167.508 103.451 167.098C103.451 166.538 103.572 166.056 103.812 165.652C104.06 165.249 104.385 164.92 104.789 164.666C105.199 164.406 105.665 164.217 106.186 164.1C106.713 163.976 107.26 163.914 107.826 163.914C108.269 163.914 108.718 163.95 109.174 164.021C109.63 164.087 110.079 164.184 110.521 164.314V166.697C110.131 166.469 109.711 166.3 109.262 166.189C108.819 166.072 108.383 166.014 107.953 166.014C107.751 166.014 107.559 166.033 107.377 166.072C107.201 166.105 107.045 166.157 106.908 166.229C106.771 166.294 106.664 166.382 106.586 166.492C106.508 166.596 106.469 166.717 106.469 166.854C106.469 167.036 106.527 167.192 106.645 167.322C106.762 167.452 106.915 167.566 107.104 167.664C107.292 167.755 107.501 167.84 107.729 167.918C107.963 167.99 108.194 168.064 108.422 168.143C108.832 168.286 109.203 168.442 109.535 168.611C109.867 168.781 110.15 168.979 110.385 169.207C110.626 169.435 110.808 169.702 110.932 170.008C111.062 170.314 111.127 170.678 111.127 171.102C111.127 171.694 110.997 172.202 110.736 172.625C110.482 173.042 110.141 173.383 109.711 173.65C109.288 173.911 108.796 174.1 108.236 174.217C107.683 174.34 107.107 174.402 106.508 174.402C105.408 174.402 104.389 174.233 103.451 173.895ZM114.477 162.576C113.956 162.576 113.529 162.423 113.197 162.117C112.865 161.805 112.699 161.424 112.699 160.975C112.699 160.512 112.865 160.135 113.197 159.842C113.529 159.549 113.956 159.402 114.477 159.402C115.004 159.402 115.43 159.549 115.756 159.842C116.088 160.135 116.254 160.512 116.254 160.975C116.254 161.443 116.088 161.827 115.756 162.127C115.43 162.426 115.004 162.576 114.477 162.576ZM116 174.158H112.914V164.158H116V174.158ZM121.684 174.158H118.598V159.354H121.684V174.158ZM133.803 164.158L129.74 174.959C128.764 177.557 127.292 178.855 125.326 178.855C124.577 178.855 123.962 178.771 123.48 178.602V176.141C123.891 176.382 124.337 176.502 124.818 176.502C125.613 176.502 126.166 176.128 126.479 175.379L127.006 174.139L122.943 164.158H126.361L128.227 170.242C128.344 170.62 128.435 171.066 128.5 171.58H128.539C128.598 171.202 128.705 170.763 128.861 170.262L130.746 164.158H133.803ZM148.148 173.797C147.452 174.201 146.446 174.402 145.131 174.402C143.594 174.402 142.351 173.937 141.4 173.006C140.45 172.075 139.975 170.874 139.975 169.402C139.975 167.703 140.482 166.365 141.498 165.389C142.52 164.406 143.884 163.914 145.59 163.914C146.768 163.914 147.621 164.07 148.148 164.383V167C147.504 166.518 146.785 166.277 145.99 166.277C145.105 166.277 144.402 166.538 143.881 167.059C143.367 167.573 143.109 168.286 143.109 169.197C143.109 170.083 143.357 170.779 143.852 171.287C144.346 171.788 145.027 172.039 145.893 172.039C146.661 172.039 147.413 171.798 148.148 171.316V173.797ZM154.945 174.402C153.279 174.402 151.967 173.937 151.01 173.006C150.059 172.068 149.584 170.799 149.584 169.197C149.584 167.544 150.079 166.251 151.068 165.32C152.058 164.383 153.396 163.914 155.082 163.914C156.742 163.914 158.044 164.383 158.988 165.32C159.932 166.251 160.404 167.485 160.404 169.021C160.404 170.682 159.916 171.993 158.939 172.957C157.969 173.921 156.638 174.402 154.945 174.402ZM155.023 166.277C154.294 166.277 153.728 166.528 153.324 167.029C152.921 167.531 152.719 168.24 152.719 169.158C152.719 171.079 153.493 172.039 155.043 172.039C156.521 172.039 157.26 171.053 157.26 169.08C157.26 167.212 156.514 166.277 155.023 166.277ZM165.492 174.158H162.406V159.354H165.492V174.158ZM171.176 174.158H168.09V159.354H171.176V174.158ZM182.094 174.158H179.174V172.723H179.135C178.464 173.842 177.471 174.402 176.156 174.402C175.186 174.402 174.421 174.129 173.861 173.582C173.308 173.029 173.031 172.293 173.031 171.375C173.031 169.435 174.18 168.315 176.479 168.016L179.193 167.654C179.193 166.561 178.601 166.014 177.416 166.014C176.225 166.014 175.092 166.368 174.018 167.078V164.754C174.447 164.533 175.033 164.337 175.775 164.168C176.524 163.999 177.204 163.914 177.816 163.914C180.668 163.914 182.094 165.337 182.094 168.182V174.158ZM179.193 170.096V169.422L177.377 169.656C176.374 169.786 175.873 170.239 175.873 171.014C175.873 171.365 175.993 171.655 176.234 171.883C176.482 172.104 176.814 172.215 177.23 172.215C177.81 172.215 178.282 172.016 178.646 171.619C179.011 171.215 179.193 170.708 179.193 170.096ZM187.66 172.996H187.621V174.158H184.535V159.354H187.621V165.662H187.66C188.422 164.497 189.506 163.914 190.912 163.914C192.201 163.914 193.194 164.357 193.891 165.242C194.587 166.128 194.936 167.339 194.936 168.875C194.936 170.542 194.529 171.88 193.715 172.889C192.901 173.898 191.814 174.402 190.453 174.402C189.223 174.402 188.292 173.934 187.66 172.996ZM187.572 168.777V169.803C187.572 170.447 187.758 170.981 188.129 171.404C188.5 171.827 188.975 172.039 189.555 172.039C190.258 172.039 190.801 171.769 191.186 171.229C191.576 170.682 191.771 169.91 191.771 168.914C191.771 168.087 191.592 167.443 191.234 166.98C190.883 166.512 190.378 166.277 189.721 166.277C189.102 166.277 188.588 166.508 188.178 166.971C187.774 167.433 187.572 168.035 187.572 168.777ZM201.703 174.402C200.036 174.402 198.725 173.937 197.768 173.006C196.817 172.068 196.342 170.799 196.342 169.197C196.342 167.544 196.837 166.251 197.826 165.32C198.816 164.383 200.154 163.914 201.84 163.914C203.5 163.914 204.802 164.383 205.746 165.32C206.69 166.251 207.162 167.485 207.162 169.021C207.162 170.682 206.674 171.993 205.697 172.957C204.727 173.921 203.396 174.402 201.703 174.402ZM201.781 166.277C201.052 166.277 200.486 166.528 200.082 167.029C199.678 167.531 199.477 168.24 199.477 169.158C199.477 171.079 200.251 172.039 201.801 172.039C203.279 172.039 204.018 171.053 204.018 169.08C204.018 167.212 203.272 166.277 201.781 166.277ZM215.688 166.941C215.316 166.74 214.883 166.639 214.389 166.639C213.718 166.639 213.194 166.886 212.816 167.381C212.439 167.869 212.25 168.536 212.25 169.383V174.158H209.164V164.158H212.25V166.014H212.289C212.777 164.66 213.656 163.982 214.926 163.982C215.251 163.982 215.505 164.021 215.688 164.1V166.941ZM225.453 174.158H222.533V172.723H222.494C221.824 173.842 220.831 174.402 219.516 174.402C218.546 174.402 217.781 174.129 217.221 173.582C216.667 173.029 216.391 172.293 216.391 171.375C216.391 169.435 217.54 168.315 219.838 168.016L222.553 167.654C222.553 166.561 221.96 166.014 220.775 166.014C219.584 166.014 218.451 166.368 217.377 167.078V164.754C217.807 164.533 218.393 164.337 219.135 164.168C219.883 163.999 220.564 163.914 221.176 163.914C224.027 163.914 225.453 165.337 225.453 168.182V174.158ZM222.553 170.096V169.422L220.736 169.656C219.734 169.786 219.232 170.239 219.232 171.014C219.232 171.365 219.353 171.655 219.594 171.883C219.841 172.104 220.173 172.215 220.59 172.215C221.169 172.215 221.641 172.016 222.006 171.619C222.37 171.215 222.553 170.708 222.553 170.096ZM233.939 174.041C233.484 174.282 232.797 174.402 231.879 174.402C229.704 174.402 228.617 173.273 228.617 171.014V166.434H226.996V164.158H228.617V162L231.693 161.121V164.158H233.939V166.434H231.693V170.477C231.693 171.518 232.107 172.039 232.934 172.039C233.259 172.039 233.594 171.945 233.939 171.756V174.041ZM244.594 170.037H238.07C238.174 171.489 239.089 172.215 240.814 172.215C241.915 172.215 242.882 171.954 243.715 171.434V173.66C242.79 174.155 241.589 174.402 240.111 174.402C238.497 174.402 237.243 173.956 236.352 173.064C235.46 172.166 235.014 170.916 235.014 169.314C235.014 167.654 235.495 166.339 236.459 165.369C237.423 164.399 238.607 163.914 240.014 163.914C241.472 163.914 242.598 164.347 243.393 165.213C244.193 166.079 244.594 167.254 244.594 168.738V170.037ZM241.732 168.143C241.732 166.71 241.153 165.994 239.994 165.994C239.499 165.994 239.07 166.199 238.705 166.609C238.347 167.02 238.129 167.531 238.051 168.143H241.732ZM247.807 174.402C247.299 174.402 246.876 174.246 246.537 173.934C246.199 173.621 246.029 173.237 246.029 172.781C246.029 172.312 246.202 171.928 246.547 171.629C246.898 171.329 247.335 171.18 247.855 171.18C248.383 171.18 248.812 171.333 249.145 171.639C249.483 171.938 249.652 172.319 249.652 172.781C249.652 173.257 249.48 173.647 249.135 173.953C248.796 174.253 248.354 174.402 247.807 174.402ZM257.699 159.822L255.844 164.158H253.92L255.023 159.822H257.699ZM253.646 159.822L251.762 164.158H249.867L250.98 159.822H253.646Z" fill="white"/>
<rect x="40.4434" y="210.158" width="305" height="41" rx="14" fill="white" fill-opacity="0.1"/>
<path d="M145.268 234.158V223.976H149.285C150.054 223.976 150.71 224.114 151.254 224.389C151.801 224.661 152.217 225.047 152.502 225.547C152.79 226.045 152.934 226.63 152.934 227.302C152.934 227.979 152.789 228.56 152.497 229.047C152.205 229.531 151.783 229.903 151.229 230.161C150.679 230.42 150.013 230.549 149.231 230.549H146.541V228.819H148.883C149.294 228.819 149.635 228.762 149.907 228.65C150.179 228.537 150.381 228.368 150.513 228.143C150.649 227.917 150.717 227.637 150.717 227.302C150.717 226.964 150.649 226.679 150.513 226.447C150.381 226.215 150.177 226.04 149.902 225.92C149.63 225.798 149.287 225.736 148.873 225.736H147.421V234.158H145.268ZM150.767 229.525L153.297 234.158H150.921L148.445 229.525H150.767ZM157.773 234.307C156.988 234.307 156.311 234.148 155.745 233.83C155.181 233.509 154.747 233.055 154.442 232.468C154.137 231.878 153.985 231.18 153.985 230.375C153.985 229.589 154.137 228.9 154.442 228.307C154.747 227.713 155.176 227.251 155.73 226.92C156.287 226.588 156.939 226.422 157.689 226.422C158.192 226.422 158.661 226.504 159.095 226.666C159.533 226.825 159.914 227.065 160.239 227.387C160.567 227.708 160.822 228.113 161.005 228.6C161.187 229.084 161.278 229.651 161.278 230.3V230.882H154.83V229.569H159.284C159.284 229.265 159.218 228.994 159.086 228.759C158.953 228.524 158.769 228.34 158.534 228.207C158.302 228.071 158.032 228.003 157.723 228.003C157.402 228.003 157.117 228.078 156.868 228.227C156.623 228.373 156.431 228.57 156.292 228.819C156.152 229.064 156.081 229.337 156.078 229.639V230.887C156.078 231.265 156.147 231.591 156.287 231.866C156.429 232.141 156.63 232.354 156.888 232.503C157.147 232.652 157.453 232.726 157.808 232.726C158.043 232.726 158.259 232.693 158.454 232.627C158.65 232.561 158.817 232.461 158.956 232.329C159.095 232.196 159.202 232.034 159.274 231.841L161.233 231.971C161.134 232.441 160.93 232.852 160.622 233.204C160.317 233.552 159.922 233.823 159.439 234.019C158.958 234.211 158.403 234.307 157.773 234.307ZM164.838 234.302C164.35 234.302 163.916 234.218 163.535 234.049C163.154 233.876 162.852 233.623 162.63 233.288C162.412 232.95 162.302 232.529 162.302 232.025C162.302 231.601 162.38 231.245 162.536 230.956C162.692 230.668 162.904 230.436 163.172 230.26C163.441 230.085 163.746 229.952 164.087 229.863C164.432 229.773 164.793 229.71 165.171 229.674C165.615 229.627 165.973 229.584 166.245 229.545C166.516 229.501 166.714 229.439 166.836 229.356C166.959 229.273 167.02 229.15 167.02 228.988V228.958C167.02 228.643 166.921 228.399 166.722 228.227C166.526 228.055 166.248 227.969 165.887 227.969C165.506 227.969 165.202 228.053 164.977 228.222C164.751 228.388 164.602 228.597 164.529 228.849L162.571 228.689C162.67 228.225 162.866 227.824 163.157 227.486C163.449 227.145 163.825 226.883 164.286 226.701C164.75 226.515 165.287 226.422 165.897 226.422C166.321 226.422 166.727 226.472 167.115 226.572C167.506 226.671 167.852 226.825 168.154 227.034C168.459 227.243 168.699 227.511 168.875 227.839C169.05 228.164 169.138 228.554 169.138 229.008V234.158H167.13V233.099H167.07C166.947 233.338 166.783 233.548 166.578 233.731C166.372 233.91 166.125 234.05 165.837 234.153C165.549 234.253 165.216 234.302 164.838 234.302ZM165.444 232.841C165.756 232.841 166.031 232.779 166.269 232.657C166.508 232.531 166.695 232.362 166.831 232.15C166.967 231.938 167.035 231.697 167.035 231.429V230.618C166.969 230.662 166.878 230.701 166.762 230.738C166.649 230.771 166.521 230.802 166.379 230.832C166.236 230.859 166.094 230.884 165.951 230.907C165.809 230.927 165.68 230.945 165.564 230.961C165.315 230.998 165.098 231.056 164.912 231.135C164.727 231.215 164.582 231.323 164.48 231.459C164.377 231.591 164.326 231.757 164.326 231.956C164.326 232.244 164.43 232.465 164.639 232.617C164.851 232.766 165.119 232.841 165.444 232.841ZM173.595 234.282C173.015 234.282 172.49 234.133 172.019 233.835C171.552 233.533 171.181 233.091 170.905 232.508C170.634 231.921 170.498 231.202 170.498 230.35C170.498 229.475 170.639 228.747 170.92 228.167C171.202 227.584 171.577 227.148 172.044 226.86C172.515 226.568 173.03 226.422 173.59 226.422C174.018 226.422 174.374 226.495 174.659 226.641C174.947 226.784 175.179 226.963 175.355 227.178C175.534 227.39 175.67 227.599 175.763 227.805H175.827V223.976H177.94V234.158H175.852V232.935H175.763C175.663 233.147 175.522 233.358 175.34 233.567C175.161 233.772 174.928 233.943 174.639 234.079C174.354 234.215 174.006 234.282 173.595 234.282ZM174.266 232.597C174.608 232.597 174.896 232.504 175.131 232.319C175.37 232.13 175.552 231.866 175.678 231.528C175.807 231.19 175.872 230.794 175.872 230.34C175.872 229.886 175.809 229.492 175.683 229.157C175.557 228.822 175.375 228.564 175.136 228.381C174.898 228.199 174.608 228.108 174.266 228.108C173.918 228.108 173.625 228.202 173.386 228.391C173.148 228.58 172.967 228.842 172.844 229.177C172.722 229.511 172.66 229.899 172.66 230.34C172.66 230.784 172.722 231.177 172.844 231.518C172.97 231.856 173.151 232.122 173.386 232.314C173.625 232.503 173.918 232.597 174.266 232.597ZM189.276 228.699L187.337 228.819C187.303 228.653 187.232 228.504 187.123 228.371C187.013 228.235 186.869 228.128 186.69 228.048C186.515 227.965 186.304 227.924 186.059 227.924C185.731 227.924 185.454 227.993 185.229 228.133C185.003 228.269 184.891 228.451 184.891 228.68C184.891 228.862 184.963 229.016 185.109 229.142C185.255 229.268 185.505 229.369 185.86 229.445L187.242 229.724C187.985 229.876 188.538 230.121 188.903 230.459C189.267 230.797 189.45 231.242 189.45 231.792C189.45 232.292 189.302 232.731 189.007 233.109C188.715 233.487 188.314 233.782 187.804 233.994C187.297 234.203 186.712 234.307 186.049 234.307C185.038 234.307 184.233 234.097 183.633 233.676C183.036 233.252 182.687 232.675 182.584 231.946L184.667 231.836C184.73 232.145 184.882 232.38 185.124 232.542C185.366 232.702 185.676 232.781 186.054 232.781C186.425 232.781 186.723 232.71 186.949 232.567C187.178 232.421 187.294 232.234 187.297 232.006C187.294 231.813 187.212 231.656 187.053 231.533C186.894 231.407 186.649 231.311 186.317 231.245L184.995 230.981C184.249 230.832 183.694 230.574 183.33 230.206C182.968 229.838 182.788 229.369 182.788 228.799C182.788 228.308 182.92 227.886 183.185 227.531C183.454 227.176 183.83 226.903 184.314 226.711C184.801 226.519 185.371 226.422 186.024 226.422C186.989 226.422 187.748 226.626 188.301 227.034C188.858 227.442 189.183 227.997 189.276 228.699ZM194.845 226.522V228.113H190.246V226.522H194.845ZM191.29 224.692H193.408V231.812C193.408 232.007 193.438 232.16 193.498 232.269C193.557 232.375 193.64 232.45 193.746 232.493C193.856 232.536 193.982 232.557 194.124 232.557C194.223 232.557 194.323 232.549 194.422 232.532C194.522 232.513 194.598 232.498 194.651 232.488L194.984 234.064C194.878 234.097 194.729 234.135 194.537 234.178C194.344 234.224 194.111 234.253 193.836 234.263C193.325 234.282 192.878 234.215 192.493 234.059C192.112 233.903 191.816 233.661 191.603 233.333C191.391 233.005 191.287 232.59 191.29 232.09V224.692ZM199.593 234.307C198.821 234.307 198.153 234.143 197.589 233.815C197.029 233.484 196.597 233.023 196.292 232.433C195.987 231.84 195.834 231.152 195.834 230.37C195.834 229.581 195.987 228.892 196.292 228.302C196.597 227.708 197.029 227.248 197.589 226.92C198.153 226.588 198.821 226.422 199.593 226.422C200.365 226.422 201.031 226.588 201.591 226.92C202.155 227.248 202.589 227.708 202.894 228.302C203.199 228.892 203.351 229.581 203.351 230.37C203.351 231.152 203.199 231.84 202.894 232.433C202.589 233.023 202.155 233.484 201.591 233.815C201.031 234.143 200.365 234.307 199.593 234.307ZM199.603 232.667C199.954 232.667 200.247 232.567 200.483 232.368C200.718 232.166 200.895 231.891 201.015 231.543C201.137 231.195 201.199 230.799 201.199 230.355C201.199 229.911 201.137 229.515 201.015 229.167C200.895 228.819 200.718 228.544 200.483 228.341C200.247 228.139 199.954 228.038 199.603 228.038C199.248 228.038 198.95 228.139 198.708 228.341C198.469 228.544 198.289 228.819 198.166 229.167C198.047 229.515 197.987 229.911 197.987 230.355C197.987 230.799 198.047 231.195 198.166 231.543C198.289 231.891 198.469 232.166 198.708 232.368C198.95 232.567 199.248 232.667 199.603 232.667ZM204.728 234.158V226.522H206.782V227.854H206.861C207 227.38 207.234 227.022 207.562 226.78C207.89 226.535 208.268 226.412 208.696 226.412C208.802 226.412 208.916 226.419 209.039 226.432C209.161 226.446 209.269 226.464 209.362 226.487V228.366C209.263 228.336 209.125 228.31 208.949 228.287C208.774 228.264 208.613 228.252 208.467 228.252C208.156 228.252 207.877 228.32 207.632 228.456C207.39 228.588 207.198 228.774 207.055 229.013C206.916 229.251 206.846 229.526 206.846 229.838V234.158H204.728ZM211.997 237.022C211.728 237.022 211.477 237 211.241 236.957C211.009 236.917 210.817 236.866 210.665 236.803L211.142 235.222C211.39 235.298 211.614 235.34 211.813 235.346C212.015 235.353 212.189 235.307 212.335 235.207C212.484 235.108 212.605 234.939 212.698 234.7L212.822 234.377L210.083 226.522H212.31L213.891 232.13H213.971L215.567 226.522H217.809L214.841 234.983C214.698 235.394 214.504 235.752 214.259 236.057C214.017 236.366 213.71 236.603 213.339 236.768C212.968 236.937 212.521 237.022 211.997 237.022Z" fill="white"/>
<g clip-path="url(#clip1_2_1300)">
<path d="M240.318 226.69L234.343 232.665M240.318 226.69L236.003 226.822M240.318 226.69L240.186 231.005" stroke="white" stroke-width="1.26748" stroke-linecap="round" stroke-linejoin="round"/>
</g>
<rect x="-3.55664" y="1.46777" width="392.69" height="6" transform="rotate(4 -3.55664 1.46777)" fill="white"/>
</g>
<defs>
<linearGradient id="paint0_linear_2_1300" x1="285.244" y1="-48.6541" x2="99.7557" y2="331.654" gradientUnits="userSpaceOnUse">
<stop stop-color="#26ABFA" stop-opacity="0.8"/>
<stop offset="0.525" stop-color="#7612FA" stop-opacity="0.8"/>
</linearGradient>
<clipPath id="clip0_2_1300">
<rect width="385" height="283" fill="white" transform="translate(0.443359 0.158203)"/>
</clipPath>
<clipPath id="clip1_2_1300">
<rect width="8" height="8" fill="white" transform="translate(233.503 225.658)"/>
</clipPath>
</defs>
</svg>
