<svg width="40" height="42" viewBox="0 0 40 42" fill="none" xmlns="http://www.w3.org/2000/svg">
<g clip-path="url(#clip0_2_1110)">
<path d="M33.1412 28.6012C33.8099 26.8004 34.6894 23.4033 34.6894 17.9925C34.6894 16.3654 34.4033 12.3907 34.4033 12.3907C34.4033 12.3907 29.2529 11.2461 19.8105 11.2461C10.3682 11.2461 4.93167 12.3907 4.93167 12.3907L4.93164 17.9925C4.93164 23.5099 5.84616 26.902 6.51913 28.6512C6.90815 29.6623 7.70534 30.4195 8.7455 30.7226C10.4493 31.2191 13.7945 31.8477 19.8105 31.8477C25.6669 31.8477 28.9924 31.2793 30.7365 30.8121C31.8659 30.5096 32.7343 29.6973 33.1412 28.6012Z" fill="#514B81" fill-opacity="0.1" stroke="#292D34"/>
<path d="M16.377 23.8359H22.672" stroke="#292D34" stroke-width="2" stroke-linecap="round" stroke-linejoin="round"/>
<path d="M16.377 18.6855H27.2501" stroke="#292D34" stroke-width="2" stroke-linecap="round" stroke-linejoin="round"/>
<path d="M12.3711 18.1133C12.055 18.1133 11.7988 18.3695 11.7988 18.6855C11.7988 19.0016 12.055 19.2578 12.3711 19.2578C12.6871 19.2578 12.9434 19.0016 12.9434 18.6855C12.9434 18.3695 12.6871 18.1133 12.3711 18.1133Z" fill="#514B81" stroke="#292D34" stroke-width="2" stroke-linecap="round" stroke-linejoin="round"/>
<path d="M12.3711 23.2637C12.055 23.2637 11.7988 23.5199 11.7988 23.8359C11.7988 24.152 12.055 24.4082 12.3711 24.4082C12.6871 24.4082 12.9434 24.152 12.9434 23.8359C12.9434 23.5199 12.6871 23.2637 12.3711 23.2637Z" fill="#514B81" stroke="#292D34" stroke-width="2" stroke-linecap="round" stroke-linejoin="round"/>
<path d="M34.4805 12.3906C34.4235 11.602 34.3583 10.8778 34.2895 10.2191C33.9784 7.24364 31.705 5.01652 28.7257 4.74516C26.5355 4.54567 23.5779 4.37891 19.8105 4.37891C16.0431 4.37891 13.0856 4.54567 10.8954 4.74516C7.91609 5.01652 5.6427 7.24364 5.33161 10.2191C5.26274 10.8778 5.19754 11.602 5.14055 12.3906M34.4805 12.3906C34.6043 14.1034 34.6894 16.1194 34.6894 18.4254C34.6894 21.7813 34.5092 24.4248 34.2917 26.3929C33.9854 29.1659 31.8843 31.2064 29.1067 31.4686C26.9351 31.6737 23.8907 31.8476 19.8105 31.8476C15.7304 31.8476 12.686 31.6737 10.5143 31.4686C7.73682 31.2064 5.63569 29.1659 5.32933 26.3929C5.11189 24.4248 4.93164 21.7813 4.93164 18.4254C4.93164 16.1194 5.01675 14.1034 5.14055 12.3906M34.4805 12.3906C34.4805 12.3906 28.9731 11.246 19.8105 11.246C10.648 11.246 5.14055 12.3906 5.14055 12.3906" stroke="#292D34" stroke-width="2" stroke-linecap="round" stroke-linejoin="round"/>
<path d="M11.8428 2.08984C11.8428 2.08984 11.7988 2.99592 11.7988 7.24023M27.7782 2.08984C27.7782 2.08984 27.8222 2.99592 27.8222 7.24023" stroke="#292D34" stroke-width="2" stroke-linecap="round" stroke-linejoin="round"/>
</g>
<defs>
<clipPath id="clip0_2_1110">
<rect width="32" height="32" fill="white" transform="translate(3.75342 0.96875)"/>
</clipPath>
</defs>
</svg>
