<svg width="33" height="33" viewBox="0 0 33 33" fill="none" xmlns="http://www.w3.org/2000/svg">
<g clip-path="url(#clip0_2_1350)">
<path d="M14.0391 3.82552V18.4361L23.9295 26.8237C23.9295 26.8237 31.1468 19.5502 26.8699 11.4014C22.3257 2.74325 14.0391 3.82552 14.0391 3.82552Z" fill="white" fill-opacity="0.09"/>
<path d="M1.74316 16.9243C1.74316 9.69041 7.60739 3.82617 14.8413 3.82617C22.0752 3.82617 27.9394 9.6904 27.9394 16.9243V17.2436C27.9394 24.4775 22.0752 30.3418 14.8413 30.3418C7.60739 30.3418 1.74316 24.4775 1.74316 17.2436V16.9243Z" fill="white" fill-opacity="0.09" stroke="white" stroke-width="2" stroke-linecap="round" stroke-linejoin="round"/>
<path d="M14.0391 18.4365L17.7814 21.6834" stroke="white" stroke-width="2" stroke-linecap="round" stroke-linejoin="round"/>
<path d="M14.0391 18.4363V10.3193" stroke="white" stroke-width="2" stroke-linecap="round" stroke-linejoin="round"/>
<path d="M22.5942 2.20235C22.5942 2.20235 26.4956 1.82218 28.2077 3.55518C29.9199 5.28818 29.5444 9.23711 29.5444 9.23711" stroke="white" stroke-width="2" stroke-linecap="round" stroke-linejoin="round"/>
</g>
<defs>
<clipPath id="clip0_2_1350">
<rect width="32" height="32" fill="white" transform="translate(0.273438 0.0380859)"/>
</clipPath>
</defs>
</svg>
