<svg width="60" height="29" viewBox="0 0 60 29" fill="none" xmlns="http://www.w3.org/2000/svg">
<g clip-path="url(#clip0_2_1375)">
<path d="M45.3659 0.0380859H14.9538C7.34251 0.0380859 1.17236 6.20821 1.17236 13.8194C1.17236 21.4307 7.34251 27.6008 14.9538 27.6008H45.3659C52.9771 27.6008 59.1473 21.4307 59.1473 13.8194C59.1473 6.20821 52.9771 0.0380859 45.3659 0.0380859Z" fill="#020202" fill-opacity="0.2"/>
<path d="M14.7877 24.0426C20.3667 24.0426 24.8894 19.4647 24.8894 13.8177C24.8894 8.17062 20.3667 3.59277 14.7877 3.59277C9.20872 3.59277 4.68604 8.17062 4.68604 13.8177C4.68604 19.4647 9.20872 24.0426 14.7877 24.0426Z" fill="white"/>
</g>
<defs>
<clipPath id="clip0_2_1375">
<rect width="59" height="28" fill="white" transform="translate(0.943359 0.0380859)"/>
</clipPath>
</defs>
</svg>
