<svg width="60" height="29" viewBox="0 0 60 29" fill="none" xmlns="http://www.w3.org/2000/svg">
<g clip-path="url(#clip0_2_1357)">
<path d="M45.3659 0.538086H14.9538C7.34251 0.538086 1.17236 6.70821 1.17236 14.3194C1.17236 21.9307 7.34251 28.1008 14.9538 28.1008H45.3659C52.9771 28.1008 59.1473 21.9307 59.1473 14.3194C59.1473 6.70821 52.9771 0.538086 45.3659 0.538086Z" fill="#020202" fill-opacity="0.2"/>
<path d="M14.7877 24.5426C20.3667 24.5426 24.8894 19.9647 24.8894 14.3177C24.8894 8.67062 20.3667 4.09277 14.7877 4.09277C9.20872 4.09277 4.68604 8.67062 4.68604 14.3177C4.68604 19.9647 9.20872 24.5426 14.7877 24.5426Z" fill="white"/>
</g>
<defs>
<clipPath id="clip0_2_1357">
<rect width="59" height="28" fill="white" transform="translate(0.943359 0.538086)"/>
</clipPath>
</defs>
</svg>
