<svg width="32" height="32" viewBox="0 0 32 32" fill="none" xmlns="http://www.w3.org/2000/svg">
<g clip-path="url(#clip0_2_1372)">
<path d="M21.2512 5.937L17.4312 2.07043C16.591 1.22001 15.2288 1.22001 14.3887 2.07043L10.6183 5.88677C10.6183 5.88677 16.8695 8.59335 13.0497 12.4945C9.21331 16.4126 6.52155 10.0335 6.52155 10.0335L2.75122 13.8498C1.91105 14.7002 1.91105 16.079 2.75122 16.9294L6.57123 20.796C6.57123 20.796 0.293839 23.4611 4.20067 27.381C8.09066 31.284 10.7064 24.9816 10.7064 24.9816L14.5264 28.8482C15.3666 29.6986 16.7287 29.6986 17.5689 28.8481L21.3393 25.0318C21.3393 25.0318 15.088 22.3252 18.9079 18.4241C22.7443 14.506 25.436 20.8851 25.436 20.8851L29.2064 17.0688C30.0465 16.2184 30.0465 14.8396 29.2064 13.9892L25.3864 10.1226C25.3864 10.1226 31.6637 7.45746 27.7569 3.53755C23.8669 -0.365463 21.2512 5.937 21.2512 5.937Z" fill="white" fill-opacity="0.09" stroke="white" stroke-width="2" stroke-linecap="round" stroke-linejoin="round"/>
</g>
<defs>
<clipPath id="clip0_2_1372">
<rect width="31" height="31" fill="white" transform="translate(0.273438 0.0380859)"/>
</clipPath>
</defs>
</svg>
