<svg width="147" height="47" viewBox="0 0 147 47" fill="none" xmlns="http://www.w3.org/2000/svg">
<g clip-path="url(#clip0_2_1737)">
<path fill-rule="evenodd" clip-rule="evenodd" d="M6.55859 27.2778L11.5731 23.4272C14.2372 26.9126 17.0677 28.5192 20.2184 28.5192C23.3521 28.5192 26.1026 26.9316 28.6467 23.4736L33.7328 27.2314C30.062 32.2179 25.5003 34.8525 20.2184 34.8525C14.9533 34.8525 10.3474 32.2347 6.55859 27.2778Z" fill="url(#paint0_linear_2_1737)"/>
<path fill-rule="evenodd" clip-rule="evenodd" d="M19.9354 10.5412L11.01 18.2509L6.88428 13.4545L19.9543 2.16431L32.9212 13.4629L28.7765 18.2425L19.9354 10.5412Z" fill="url(#paint1_linear_2_1737)"/>
<path d="M52.6974 30.0953C49.65 30.0953 47.1101 29.1052 45.0504 27.1249C42.9907 25.1173 41.9756 22.5438 41.9756 19.4025C41.9756 16.2358 43.0181 13.6328 45.0778 11.5956C47.167 9.5309 49.7069 8.51334 52.7269 8.51334C56.4525 8.51334 59.7527 10.1242 61.6734 12.6427L58.3142 16.1788C56.7052 14.4519 54.9551 13.5758 53.066 13.5758C51.457 13.5758 50.1302 14.112 49.0287 15.2162C47.9567 16.3203 47.4218 17.7073 47.4218 19.375C47.4218 20.9879 47.9567 22.3454 49.0287 23.4495C50.1302 24.524 51.457 25.0603 53.0365 25.0603C55.0962 25.0603 56.9032 24.1546 58.3985 22.3728L61.8987 25.74C60.9384 27.013 59.641 28.0602 58.032 28.8793C56.423 29.7005 54.6455 30.0953 52.6974 30.0953ZM67.8188 8.2009V29.7849H62.8527V8.2009H67.8188ZM72.5258 12.782C70.862 12.782 69.6489 11.566 69.6489 9.89823C69.6489 8.28534 70.9189 7.06934 72.5258 7.06934C74.1348 7.06934 75.3773 8.28534 75.3773 9.89823C75.3773 11.566 74.1348 12.7842 72.5258 12.7842V12.782ZM75.0383 14.169V29.7849H70.0428V14.169H75.0383ZM84.5997 30.1248C82.144 30.1248 80.1686 29.3606 78.6185 27.8322C77.0938 26.3058 76.3314 24.353 76.3314 21.9485C76.3314 19.5439 77.0938 17.5933 78.6459 16.0648C80.1981 14.5364 82.2009 13.7743 84.6839 13.7743C87.9293 13.7743 90.7809 15.3576 92.1056 18.3279L88.1273 20.4222C87.3375 19.0922 86.2361 18.4124 84.7976 18.4124C83.753 18.4124 82.9064 18.7523 82.2283 19.432C81.9065 19.7657 81.6536 20.1597 81.4841 20.5916C81.3147 21.0234 81.2319 21.4845 81.2405 21.9485C81.2405 24.0132 82.7358 25.5416 84.7408 25.5416C86.1792 25.5416 87.506 24.7499 88.0704 23.5339L92.0508 25.9089C90.6945 28.5119 87.9019 30.1248 84.5997 30.1248ZM109.372 29.7849H103.444L98.8428 23.5888L98.1099 24.2686V29.7849H93.146V8.2009H98.112V18.6953L102.795 14.169H108.863L102.176 20.4496L109.372 29.7849ZM109.705 21.6656V8.87856H115.01V21.5812C115.01 23.9287 116.365 25.0603 118.313 25.0603C120.231 25.0603 121.585 23.8717 121.585 21.5812V8.87856H126.92V21.6656C126.92 27.8322 122.657 30.1523 118.313 30.1523C113.995 30.1523 109.705 27.8322 109.705 21.6656ZM138.71 13.7743C140.94 13.7743 142.747 14.5659 144.185 16.1493C145.624 17.7052 146.329 19.6579 146.329 21.9485C146.329 24.2412 145.596 26.1918 144.158 27.8047C142.717 29.388 140.912 30.1818 138.739 30.1818C137.016 30.1818 135.521 29.616 134.308 28.4845V36.2069H129.312V14.169H134.224V15.613C135.437 14.3949 136.932 13.7743 138.71 13.7743ZM141.249 22.0055C141.249 19.9683 139.784 18.4124 137.751 18.4124C135.719 18.4124 134.224 19.9683 134.224 22.0055C134.224 22.9956 134.561 23.8443 135.211 24.5515C135.887 25.2587 136.734 25.5986 137.751 25.5986C138.766 25.5986 139.613 25.2587 140.262 24.5515C140.909 23.8638 141.264 22.9508 141.252 22.0055H141.249Z" fill="black"/>
</g>
<defs>
<linearGradient id="paint0_linear_2_1737" x1="6.55859" y1="31.1976" x2="33.7328" y2="31.1976" gradientUnits="userSpaceOnUse">
<stop stop-color="#8930FD"/>
<stop offset="1" stop-color="#49CCF9"/>
</linearGradient>
<linearGradient id="paint1_linear_2_1737" x1="6.88428" y1="13.1048" x2="32.9212" y2="13.1048" gradientUnits="userSpaceOnUse">
<stop stop-color="#FF02F0"/>
<stop offset="1" stop-color="#FFC800"/>
</linearGradient>
<clipPath id="clip0_2_1737">
<rect width="146" height="38" fill="white" transform="translate(0.943359 0.0185547)"/>
</clipPath>
</defs>
</svg>
