<svg width="147" height="39" viewBox="0 0 147 39" fill="none" xmlns="http://www.w3.org/2000/svg">
<g clip-path="url(#clip0_2_1676)">
<path fill-rule="evenodd" clip-rule="evenodd" d="M6.55859 27.7969L11.5731 23.9463C14.2372 27.4317 17.0677 29.0383 20.2184 29.0383C23.3521 29.0383 26.1026 27.4507 28.6467 23.9927L33.7328 27.7505C30.062 32.737 25.5003 35.3716 20.2184 35.3716C14.9533 35.3716 10.3474 32.7538 6.55859 27.7969Z" fill="url(#paint0_linear_2_1676)"/>
<path fill-rule="evenodd" clip-rule="evenodd" d="M19.9354 11.0605L11.01 18.7702L6.88428 13.9738L19.9543 2.68359L32.9212 13.9822L28.7765 18.7618L19.9354 11.0605Z" fill="url(#paint1_linear_2_1676)"/>
<path d="M52.6974 30.6148C49.65 30.6148 47.1101 29.6247 45.0504 27.6444C42.9907 25.6368 41.9756 23.0633 41.9756 19.922C41.9756 16.7553 43.0181 14.1523 45.0778 12.1151C47.167 10.0504 49.7069 9.03287 52.7269 9.03287C56.4525 9.03287 59.7527 10.6437 61.6734 13.1622L58.3142 16.6983C56.7052 14.9714 54.9551 14.0953 53.066 14.0953C51.457 14.0953 50.1302 14.6315 49.0287 15.7357C47.9567 16.8398 47.4218 18.2268 47.4218 19.8945C47.4218 21.5074 47.9567 22.8649 49.0287 23.969C50.1302 25.0435 51.457 25.5798 53.0365 25.5798C55.0962 25.5798 56.9032 24.6741 58.3985 22.8923L61.8987 26.2595C60.9384 27.5325 59.641 28.5797 58.032 29.3988C56.423 30.22 54.6455 30.6148 52.6974 30.6148ZM67.8188 8.72043V30.3044H62.8527V8.72043H67.8188ZM72.5258 13.3015C70.862 13.3015 69.6489 12.0855 69.6489 10.4178C69.6489 8.80487 70.9189 7.58887 72.5258 7.58887C74.1348 7.58887 75.3773 8.80487 75.3773 10.4178C75.3773 12.0855 74.1348 13.3037 72.5258 13.3037V13.3015ZM75.0383 14.6885V30.3044H70.0428V14.6885H75.0383ZM84.5997 30.6443C82.144 30.6443 80.1686 29.8801 78.6185 28.3517C77.0938 26.8253 76.3314 24.8725 76.3314 22.468C76.3314 20.0634 77.0938 18.1128 78.6459 16.5843C80.1981 15.0559 82.2009 14.2938 84.6839 14.2938C87.9293 14.2938 90.7809 15.8771 92.1056 18.8474L88.1273 20.9417C87.3375 19.6117 86.2361 18.9319 84.7976 18.9319C83.753 18.9319 82.9064 19.2718 82.2283 19.9515C81.9065 20.2852 81.6536 20.6792 81.4841 21.1111C81.3147 21.5429 81.2319 22.004 81.2405 22.468C81.2405 24.5327 82.7358 26.0611 84.7408 26.0611C86.1792 26.0611 87.506 25.2694 88.0704 24.0534L92.0508 26.4284C90.6945 29.0314 87.9019 30.6443 84.5997 30.6443ZM109.372 30.3044H103.444L98.8428 24.1083L98.1099 24.7881V30.3044H93.146V8.72043H98.112V19.2148L102.795 14.6885H108.863L102.176 20.9691L109.372 30.3044ZM109.705 22.1851V9.39809H115.01V22.1007C115.01 24.4482 116.365 25.5798 118.313 25.5798C120.231 25.5798 121.585 24.3912 121.585 22.1007V9.39809H126.92V22.1851C126.92 28.3517 122.657 30.6718 118.313 30.6718C113.995 30.6718 109.705 28.3517 109.705 22.1851ZM138.71 14.2938C140.94 14.2938 142.747 15.0854 144.185 16.6688C145.624 18.2247 146.329 20.1774 146.329 22.468C146.329 24.7607 145.596 26.7113 144.158 28.3242C142.717 29.9075 140.912 30.7013 138.739 30.7013C137.016 30.7013 135.521 30.1355 134.308 29.004V36.7264H129.312V14.6885H134.224V16.1325C135.437 14.9144 136.932 14.2938 138.71 14.2938ZM141.249 22.525C141.249 20.4878 139.784 18.9319 137.751 18.9319C135.719 18.9319 134.224 20.4878 134.224 22.525C134.224 23.5151 134.561 24.3638 135.211 25.071C135.887 25.7782 136.734 26.1181 137.751 26.1181C138.766 26.1181 139.613 25.7782 140.262 25.071C140.909 24.3833 141.264 23.4703 141.252 22.525H141.249Z" fill="white"/>
</g>
<defs>
<linearGradient id="paint0_linear_2_1676" x1="6.55859" y1="31.7167" x2="33.7328" y2="31.7167" gradientUnits="userSpaceOnUse">
<stop stop-color="#8930FD"/>
<stop offset="1" stop-color="#49CCF9"/>
</linearGradient>
<linearGradient id="paint1_linear_2_1676" x1="6.88428" y1="13.6241" x2="32.9212" y2="13.6241" gradientUnits="userSpaceOnUse">
<stop stop-color="#FF02F0"/>
<stop offset="1" stop-color="#FFC800"/>
</linearGradient>
<clipPath id="clip0_2_1676">
<rect width="146" height="38" fill="white" transform="translate(0.943359 0.538086)"/>
</clipPath>
</defs>
</svg>
