<svg width="125" height="17" viewBox="0 0 125 17" fill="none" xmlns="http://www.w3.org/2000/svg">
<g clip-path="url(#clip0_2_976)">
<mask id="mask0_2_976" style="mask-type:luminance" maskUnits="userSpaceOnUse" x="0" y="1" width="125" height="16">
<path d="M124.814 1.39746H0.943359V16.3975H124.814V1.39746Z" fill="white"/>
</mask>
<g mask="url(#mask0_2_976)">
<path d="M81.169 15.8199H77.7816V1.99561L88.6759 2.00458C88.6759 2.00458 90.6705 1.93018 91.9394 3.18374C91.9394 3.18374 93.2345 4.26523 93.2345 6.9086V15.8178H89.8559V6.67833C89.8559 6.67833 89.8975 5.74612 89.5799 5.41898C89.5799 5.41898 89.2991 5.06364 88.7652 5.06364H81.1607L81.1678 15.815L81.169 15.8199ZM95.5889 15.8175V2.87462V2.00593H109.183V5.07809L98.9556 5.0773V7.42608H106.06V10.3926H98.9556V12.7494H109.246V15.8223H95.5809L95.5889 15.8175ZM71.8787 15.8175V2.87462V2.00593H75.2518V15.8223H71.8787V15.8175ZM114.038 15.8175V5.07412H110.854V2.00196H123.519V5.07412H117.414V15.8175H114.04H114.038ZM60.7382 15.8175V5.07412H57.5541V2.00196H70.2191V5.07412H64.1137V15.8175H60.7406H60.7382ZM50.5665 7.41655C51.3907 7.4102 51.8839 7.41735 52.0824 7.29649C52.0824 7.29649 52.4287 7.10497 52.4327 6.69397L52.4335 5.79035C52.4335 5.37745 52.0832 5.18783 52.0832 5.18783C51.8202 5.0449 51.3745 5.07174 50.3164 5.07071H43.7449V7.41632H50.7174L50.5665 7.41655ZM52.3841 15.8175V11.1025C52.3841 10.6786 52.0298 10.501 52.0298 10.501C51.87 10.4018 51.3915 10.3839 50.6871 10.3839H50.8508H43.7449V15.8168H40.3718V2.87382V2.00514H50.9008C52.7192 2.0107 53.9746 2.27813 54.8393 3.1176C55.6889 3.98311 55.8017 5.11541 55.8064 6.29378V7.2776C55.8174 8.27889 55.2913 9.19204 54.6638 9.72405L54.7899 9.78662C55.046 9.91065 55.186 10.0864 55.186 10.0864C55.6633 10.6958 55.6575 11.2203 55.6564 11.865V15.8202H52.3842L52.3841 15.8175ZM1.37463 2.00117V2.87065V15.8136H4.74774V10.3855H14.9671V7.41735H4.74774V5.07015H16.6267V1.99799H1.37305L1.37463 2.00117Z" fill="#231F20"/>
<path d="M122.378 13.3742V14.0085H122.969C123.129 14.0085 123.284 13.9649 123.307 13.7276C123.341 13.413 123.114 13.3742 122.969 13.3742H122.378ZM122.141 13.1658H122.964C123.25 13.1658 123.526 13.2194 123.549 13.6352C123.559 13.8735 123.487 13.9599 123.307 14.0958C123.497 14.2169 123.502 14.2457 123.53 14.5652C123.549 14.8074 123.516 14.8462 123.618 15.0059H123.337L123.298 14.7737C123.259 14.5553 123.366 14.2169 122.984 14.2169H122.378V15.006H122.141V13.1658ZM122.76 12.6576C121.947 12.6576 121.284 13.3206 121.29 14.1393C121.29 14.9524 121.948 15.6154 122.766 15.6115C123.58 15.6115 124.243 14.9524 124.243 14.1345C124.243 13.3206 123.579 12.6576 122.76 12.6576ZM122.766 15.8036C121.842 15.8036 121.095 15.0582 121.095 14.1345C121.091 13.2142 121.842 12.4639 122.766 12.4639C123.686 12.4639 124.437 13.2142 124.437 14.1345C124.437 15.0588 123.686 15.8004 122.766 15.8036Z" fill="#231F20"/>
<path d="M35.7327 15.955C36.8285 15.5827 37.6813 14.3208 37.8861 12.7343V12.2758H32.2683V15.9554L35.7327 15.955ZM37.8869 5.52916V5.11427C37.6716 3.45869 36.7554 2.15407 35.5874 1.84757H32.2691V5.52876L37.8869 5.52916ZM18.1152 12.2762V12.7307C18.3187 14.3188 19.1713 15.583 20.2703 15.9554H23.7164V12.2758L18.1152 12.2762ZM20.414 1.85035C19.2475 2.15701 18.3288 3.46226 18.1152 5.12023V5.53218H23.7164V1.85099L20.414 1.85035ZM37.8909 7.06405H32.273V10.7452H37.8909V7.06405ZM25.2497 15.9573H30.7453V12.2777H25.2497V15.9573ZM30.7453 1.84717H25.2497V5.52837H30.7453V1.84717ZM18.12 10.7405H23.7212V7.05928H18.12V10.7405Z" fill="#EE2E24"/>
</g>
</g>
<defs>
<clipPath id="clip0_2_976">
<rect width="124" height="16" fill="white" transform="translate(0.943359 0.46875)"/>
</clipPath>
</defs>
</svg>
