<svg width="109" height="34" viewBox="0 0 109 34" fill="none" xmlns="http://www.w3.org/2000/svg">
<g clip-path="url(#clip0_2_1049)">
<mask id="mask0_2_1049" style="mask-type:luminance" maskUnits="userSpaceOnUse" x="1" y="1" width="108" height="33">
<path d="M108.529 1.39746H1.83594V33.3975H108.529V1.39746Z" fill="white"/>
</mask>
<g mask="url(#mask0_2_1049)">
<path d="M17.8358 1.39746C8.99952 1.39746 1.83594 8.56085 1.83594 17.3972C1.83594 26.2344 8.99952 33.3975 17.8358 33.3975C26.6725 33.3975 33.8357 26.2344 33.8357 17.3972C33.8357 8.56142 26.6731 1.39746 17.8358 1.39746ZM25.1733 24.4736C24.8859 24.945 24.2719 25.0927 23.802 24.8055C20.0449 22.5092 15.3157 21.9904 9.74636 23.2627C9.20968 23.3857 8.67471 23.0493 8.55244 22.5128C8.42959 21.9761 8.76451 21.4411 9.30253 21.3189C15.3973 19.9255 20.6253 20.5252 24.8426 23.1022C25.3126 23.3907 25.4618 24.0036 25.1733 24.4736ZM27.1316 20.1177C26.7698 20.7048 26.0021 20.889 25.4157 20.5284C21.1159 17.8853 14.5593 17.1198 9.47239 18.6639C8.81266 18.8632 8.11587 18.4914 7.91563 17.8328C7.71693 17.1731 8.08893 16.4776 8.74751 16.277C14.5582 14.5139 21.7818 15.3679 26.7207 18.4029C27.3072 18.764 27.4927 19.5319 27.1316 20.1177ZM27.2998 15.5812C22.1423 12.5183 13.6352 12.2367 8.71177 13.7309C7.92117 13.9707 7.08509 13.5244 6.8455 12.7338C6.60591 11.9428 7.05185 11.1073 7.84302 10.8669C13.4948 9.15122 22.8901 9.48271 28.8271 13.0072C29.5382 13.4292 29.7715 14.3477 29.35 15.0578C28.9297 15.769 28.0086 16.0034 27.2998 15.5812ZM45.3664 16.1681C42.6038 15.5093 42.112 15.047 42.112 14.0754C42.112 13.1576 42.9762 12.5399 44.2613 12.5399C45.507 12.5399 46.7422 13.0089 48.0372 13.9745C48.0764 14.0038 48.1255 14.0154 48.1738 14.0078C48.2221 14.0005 48.2649 13.974 48.2932 13.934L49.6421 12.0326C49.6975 11.9543 49.6824 11.8463 49.6077 11.7865C48.0664 10.5498 46.3308 9.94851 44.3022 9.94851C41.3194 9.94851 39.2359 11.7386 39.2359 14.2997C39.2359 17.0462 41.0331 18.0187 44.139 18.7694C46.7825 19.3783 47.2287 19.8884 47.2287 20.8003C47.2287 21.8108 46.3265 22.439 44.8746 22.439C43.2621 22.439 41.9468 21.8959 40.4754 20.6217C40.439 20.5902 40.3889 20.5758 40.3427 20.5785C40.2939 20.5825 40.2494 20.6051 40.2185 20.6423L38.7061 22.4423C38.6426 22.517 38.6506 22.6286 38.724 22.6932C40.4359 24.2214 42.5414 25.0287 44.8135 25.0287C48.0277 25.0287 50.1047 23.2725 50.1047 20.5543C50.1104 18.2596 48.7367 16.9891 45.3721 16.1706L45.3664 16.1681ZM57.3764 13.4436C55.9832 13.4436 54.8404 13.9923 53.8981 15.1167V13.8511C53.8981 13.7512 53.8171 13.6698 53.7174 13.6698H51.2437C51.1438 13.6698 51.063 13.7512 51.063 13.8511V27.9135C51.063 28.0134 51.1438 28.0948 51.2437 28.0948H53.7174C53.8171 28.0948 53.8981 28.0134 53.8981 27.9135V23.4746C54.8406 24.5323 55.9836 25.0491 57.3764 25.0491C59.965 25.0491 62.5856 23.0564 62.5856 19.247C62.5895 15.4367 59.9681 13.4434 57.3792 13.4434L57.3764 13.4436ZM59.7092 19.247C59.7092 21.1868 58.5143 22.5405 56.8034 22.5405C55.1119 22.5405 53.836 21.1253 53.836 19.247C53.836 17.3689 55.1119 15.9535 56.8034 15.9535C58.4866 15.9533 59.7092 17.3383 59.7092 19.247ZM69.3023 13.4436C65.9685 13.4436 63.3567 16.0107 63.3567 19.2885C63.3567 22.5306 65.9506 25.0707 69.2614 25.0707C72.6071 25.0707 75.2269 22.5122 75.2269 19.247C75.2269 15.9931 72.6249 13.4436 69.3023 13.4436ZM69.3023 22.5598C67.5291 22.5598 66.1922 21.1351 66.1922 19.2461C66.1922 17.349 67.4829 15.9724 69.2614 15.9724C71.0461 15.9724 72.3919 17.3972 72.3919 19.2875C72.3919 21.1842 71.0925 22.5598 69.3023 22.5598ZM82.346 13.6698H79.6239V10.8868C79.6239 10.7871 79.5433 10.7057 79.4434 10.7057H76.9701C76.87 10.7057 76.7888 10.7871 76.7888 10.8868V13.6698H75.5995C75.4999 13.6698 75.4193 13.7512 75.4193 13.8511V15.977C75.4193 16.0768 75.4999 16.1583 75.5995 16.1583H76.7888V21.6591C76.7888 23.8821 77.8952 25.0092 80.0773 25.0092C80.9646 25.0092 81.7007 24.826 82.3945 24.4326C82.4508 24.401 82.4858 24.3403 82.4858 24.2757V22.2512C82.4858 22.1888 82.4533 22.1297 82.3998 22.0971C82.346 22.0632 82.2789 22.0615 82.2237 22.0888C81.7472 22.3286 81.2865 22.4392 80.7716 22.4392C79.978 22.4392 79.6239 22.0789 79.6239 21.2713V16.1593H82.346C82.4459 16.1593 82.5263 16.0779 82.5263 15.978V13.8523C82.5301 13.7523 82.4499 13.671 82.3486 13.671L82.346 13.6698ZM91.8302 13.6807V13.3389C91.8302 12.3333 92.2157 11.8849 93.0805 11.8849C93.5961 11.8849 94.0104 11.9873 94.4742 12.1421C94.5314 12.16 94.591 12.1511 94.6374 12.1169C94.6852 12.0826 94.7121 12.0278 94.7121 11.9697V9.88527C94.7121 9.80559 94.6609 9.73509 94.5841 9.71159C94.094 9.5658 93.467 9.41621 92.5281 9.41621C90.2434 9.41621 89.0357 10.7028 89.0357 13.1356V13.6591H87.8473C87.7476 13.6591 87.6658 13.7405 87.6658 13.8402V15.977C87.6658 16.0768 87.7476 16.1583 87.8473 16.1583H89.0357V24.6431C89.0357 24.743 89.1164 24.8244 89.2161 24.8244H91.6897C91.7897 24.8244 91.8711 24.743 91.8711 24.6431V16.1589H94.1806L97.7184 24.6416C97.3168 25.5329 96.9219 25.7102 96.3827 25.7102C95.9469 25.7102 95.488 25.5801 95.0188 25.3233C94.9746 25.299 94.9223 25.295 94.8747 25.3097C94.8275 25.3263 94.7878 25.3615 94.7677 25.4073L93.9293 27.2467C93.8894 27.3336 93.9236 27.4356 94.0073 27.4807C94.8825 27.9547 95.6726 28.1571 96.6491 28.1571C98.4756 28.1571 99.4852 27.3063 100.375 25.0174L104.667 13.9283C104.688 13.8725 104.682 13.8094 104.648 13.76C104.614 13.7109 104.559 13.6813 104.499 13.6813H101.924C101.847 13.6813 101.778 13.7303 101.752 13.8028L99.1141 21.3378L96.2247 13.7978C96.1984 13.7277 96.1307 13.6812 96.0559 13.6812L91.8302 13.6807ZM86.3315 13.6698H83.8578C83.7579 13.6698 83.6765 13.7512 83.6765 13.8511V24.6431C83.6765 24.743 83.7579 24.8244 83.8578 24.8244H86.3315C86.4312 24.8244 86.5128 24.743 86.5128 24.6431V13.8519C86.5128 13.828 86.5082 13.8044 86.4991 13.7824C86.4899 13.7603 86.4766 13.7403 86.4597 13.7235C86.4428 13.7066 86.4228 13.6933 86.4008 13.6842C86.3787 13.6751 86.3553 13.6697 86.3315 13.6698ZM85.1087 8.75593C84.1287 8.75593 83.3335 9.54919 83.3335 10.5292C83.3335 11.5097 84.1289 12.3039 85.1087 12.3039C86.0883 12.3039 86.8827 11.5097 86.8827 10.5292C86.8827 9.54939 86.0869 8.75593 85.1087 8.75593ZM106.779 17.1396C105.8 17.1396 105.038 16.3534 105.038 15.3987C105.038 14.444 105.81 13.6488 106.788 13.6488C107.767 13.6488 108.529 14.4348 108.529 15.3887C108.529 16.3435 107.757 17.1396 106.779 17.1396ZM106.789 13.8219C105.897 13.8219 105.222 14.5307 105.222 15.3987C105.222 16.2663 105.892 16.9656 106.78 16.9656C107.671 16.9656 108.347 16.2573 108.347 15.3887C108.347 14.5212 107.676 13.8219 106.789 13.8219ZM107.175 15.5678L107.667 16.2571H107.252L106.809 15.6247H106.427V16.2571H106.08V14.4298H106.895C107.319 14.4298 107.598 14.6471 107.598 15.0128C107.6 15.3123 107.425 15.4954 107.175 15.5678ZM106.88 14.7434H106.427V15.3213H106.88C107.107 15.3213 107.242 15.2107 107.242 15.0321C107.242 14.8441 107.105 14.7434 106.88 14.7434Z" fill="#2EBD59"/>
</g>
</g>
<defs>
<clipPath id="clip0_2_1049">
<rect width="108" height="33" fill="white" transform="translate(0.943359 0.96875)"/>
</clipPath>
</defs>
</svg>
