<svg width="133" height="24" viewBox="0 0 133 24" fill="none" xmlns="http://www.w3.org/2000/svg">
<g clip-path="url(#clip0_2_988)">
<mask id="mask0_2_988" style="mask-type:luminance" maskUnits="userSpaceOnUse" x="1" y="1" width="132" height="23">
<path d="M132.879 1.39746H1.75879V23.3975H132.879V1.39746Z" fill="white"/>
</mask>
<g mask="url(#mask0_2_988)">
<path d="M53.2549 3.63726C53.2549 3.11678 53.4639 2.61763 53.8359 2.2496C54.2079 1.88156 54.7125 1.6748 55.2386 1.6748C55.7647 1.6748 56.2693 1.88156 56.6413 2.2496C57.0133 2.61763 57.2223 3.11678 57.2223 3.63726C57.2031 4.14505 56.9857 4.62574 56.6158 4.97829C56.2459 5.33084 55.7523 5.52781 55.2386 5.52781C54.725 5.52781 54.2313 5.33084 53.8614 4.97829C53.4915 4.62574 53.2741 4.14505 53.2549 3.63726Z" fill="#273B7D"/>
<path d="M84.5518 16.7252C84.5518 15.636 85.4386 14.7559 86.5313 14.7559C87.0589 14.7559 87.5649 14.9633 87.9379 15.3323C88.3109 15.7014 88.5205 16.2019 88.5205 16.7238C88.5205 17.2458 88.3109 17.7463 87.9379 18.1154C87.5649 18.4844 87.0589 18.6918 86.5313 18.6918C85.44 18.6918 84.5518 17.8103 84.5518 16.7238" fill="#499FDD"/>
<path d="M20.6993 15.8738C18.9919 15.8738 17.8039 14.5318 17.8039 12.6131C17.8039 10.6957 18.9919 9.35506 20.7007 9.35506C22.4177 9.35506 23.6182 10.6957 23.6182 12.6131C23.6182 14.5618 22.444 15.8738 20.6993 15.8738ZM20.6993 6.48929C17.0856 6.48929 14.4624 9.06534 14.4624 12.6131C14.4624 16.1621 17.087 18.7368 20.6993 18.7368C24.3282 18.7368 26.9611 16.1621 26.9611 12.6144C26.9611 9.06534 24.3282 6.48929 20.7007 6.48929H20.6993ZM49.4128 12.9206C49.287 12.6799 49.128 12.4578 48.9404 12.2605L48.8298 12.1471L48.9459 12.0377C49.1117 11.8642 49.2815 11.6592 49.4445 11.4214L52.6355 6.73118H48.7622L46.3654 10.4005C46.2301 10.5973 45.9566 10.6957 45.5463 10.6957H45.0007V3.75881C45.0007 2.37171 44.1263 2.18311 43.1828 2.18311H41.5665L41.5706 18.5564H45.002V13.6449H45.3239C45.7148 13.6449 45.98 13.6899 46.103 13.9004L47.9955 17.4344C48.5245 18.3938 49.0508 18.5564 50.0427 18.5564H52.6715L50.7127 15.3531L49.4142 12.9206H49.4128ZM66.0696 6.46196C64.3235 6.46196 63.2101 7.22999 62.5857 7.87912L62.3785 8.08685L62.3039 7.80396C62.1216 7.10836 61.5027 6.72708 60.573 6.72708H59.0355L59.0452 18.5523H62.453V13.1023C62.453 12.5693 62.5221 12.1074 62.6658 11.6851C63.0443 10.4073 64.1024 9.61335 65.4244 9.61335C66.4881 9.61335 66.9039 10.1696 66.9039 11.6045V16.7552C66.9039 17.9797 67.4771 18.5523 68.7162 18.5523H70.338L70.3325 11.0305C70.3325 8.04311 68.8586 6.46332 66.0696 6.46332V6.46196ZM55.2795 6.73118H53.6647L53.6757 15.8752V18.5564H55.3983L55.4591 18.5592L56.2631 18.5564H57.0616V18.5523H57.067L57.074 8.52826C57.074 7.31882 56.4897 6.73254 55.281 6.73254L55.2795 6.73118ZM34.0835 15.8738C32.3761 15.8738 31.1868 14.5318 31.1868 12.6131C31.1868 10.6957 32.3762 9.35506 34.085 9.35506C35.7979 9.35506 37.0025 10.6957 37.0025 12.6131C37.0025 14.5618 35.8283 15.8738 34.085 15.8738H34.0835ZM34.0835 6.48929C30.4671 6.48929 27.8424 9.06534 27.8424 12.6131C27.8424 16.1621 30.4671 18.7368 34.085 18.7368C37.7083 18.7368 40.3467 16.1621 40.3467 12.6144C40.3467 9.06534 37.7083 6.48929 34.085 6.48929" fill="#273B7D"/>
<path d="M107.126 15.8742C105.418 15.8742 104.228 14.5322 104.228 12.6135C104.228 10.6962 105.418 9.35552 107.126 9.35552C108.841 9.35552 110.045 10.6962 110.045 12.6135C110.045 14.5623 108.871 15.8742 107.126 15.8742ZM107.126 6.48975C103.509 6.48975 100.886 9.0658 100.886 12.6135C100.886 16.1626 103.509 18.7373 107.126 18.7373C110.751 18.7373 113.388 16.1626 113.388 12.6149C113.388 9.0658 110.749 6.48975 107.126 6.48975Z" fill="#499FDD"/>
<path d="M77.5173 15.3536C75.6538 15.3536 74.9908 13.7465 74.9908 12.2391C74.9908 11.5749 75.1606 9.41162 77.3391 9.41162C78.4207 9.41162 79.8615 9.71774 79.8615 12.3498C79.8615 14.8329 78.5865 15.3536 77.5173 15.3536ZM81.6311 6.70028C80.9846 6.70028 80.4873 6.95583 80.2373 7.42185L80.1433 7.60224L79.9859 7.46558C79.4361 6.99546 78.4498 6.43652 76.8487 6.43652C73.6619 6.43652 71.5166 8.80485 71.5166 12.3266C71.5166 15.8469 73.7365 18.3068 76.9123 18.3068C77.9967 18.3068 78.8545 18.0554 79.5341 17.547L79.7966 17.3516V17.6795C79.7966 19.2593 78.7647 20.1312 76.8929 20.1312C75.9826 20.1312 75.1552 19.9126 74.5998 19.713C73.8788 19.4971 73.4533 19.6762 73.1618 20.3936L72.8911 21.0551L72.5084 22.0226L72.7446 22.147C73.9437 22.7756 75.5033 23.1514 76.9123 23.1514C79.8132 23.1514 83.2031 21.6823 83.2031 17.547L83.2155 6.70028H81.6311Z" fill="#273B7D"/>
<path d="M8.01034 15.7388L5.23652 15.7361V12.4562C5.23652 11.7538 5.51142 11.3903 6.11785 11.3056H8.01034C9.35995 11.3056 10.233 12.1474 10.2343 13.5099C10.233 14.9093 9.38206 15.7375 8.01034 15.7375V15.7388ZM5.23652 6.88871V6.02502C5.23652 5.26928 5.55978 4.90987 6.26843 4.8634H7.68852C8.90552 4.8634 9.63489 5.5836 9.63489 6.79032C9.63489 7.70867 9.1348 8.78147 7.7327 8.78147H5.23652V6.88871ZM11.5522 10.1631L11.0507 9.88432L11.4887 9.51397C11.9984 9.08076 12.8507 8.10637 12.8507 6.42544C12.8507 3.85075 10.8339 2.18896 7.71061 2.18896H3.74047C3.29375 2.20507 2.87044 2.3906 2.55823 2.7071C2.24602 3.0236 2.06886 3.44681 2.06348 3.88901V18.498H7.78101C11.2524 18.498 13.493 16.6285 13.493 13.7327C13.493 12.1734 12.7692 10.8409 11.5522 10.1631Z" fill="#273B7D"/>
<path d="M128.608 6.50195C127.905 6.50451 127.211 6.6634 126.578 6.96688C125.945 7.27036 125.389 7.71068 124.951 8.2553L124.705 8.56416L124.511 8.2184C123.879 7.08002 122.793 6.50195 121.283 6.50195C119.699 6.50195 118.636 7.37658 118.143 7.89589L117.82 8.24164L117.695 7.78656C117.516 7.13059 116.926 6.77117 116.034 6.77117H114.601L114.587 18.5513H117.841V13.3514C117.841 12.895 117.899 12.4454 118.013 11.9739C118.324 10.7166 119.178 9.36499 120.613 9.50028C121.497 9.58501 121.931 10.2615 121.931 11.568V18.5513H125.207V13.3514C125.207 12.7815 125.261 12.3552 125.391 11.9288C125.654 10.7289 126.546 9.49891 127.93 9.49891C128.933 9.49891 129.303 10.0592 129.303 11.568V16.8294C129.303 18.0184 129.839 18.5513 131.042 18.5513H132.573L132.576 11.0309C132.576 8.02571 131.239 6.50195 128.608 6.50195ZM98.9996 14.4611C98.9899 14.4734 97.5906 15.9329 95.7464 15.9329C94.0667 15.9329 92.3704 14.9134 92.3704 12.638C92.3704 10.6728 93.6854 9.29939 95.5696 9.29939C96.1802 9.29939 96.8765 9.51531 96.9856 9.8802L97.0008 9.94169C97.0704 10.1929 97.2218 10.4144 97.4316 10.5718C97.6414 10.7292 97.8978 10.8137 98.1611 10.8122L99.9431 10.815V9.27342C99.9431 7.23991 97.3281 6.50195 95.5696 6.50195C91.8067 6.50195 89.0771 9.09303 89.0771 12.6626C89.0771 16.2295 91.7764 18.8178 95.5006 18.8178C98.7303 18.8178 100.487 16.7174 100.504 16.6969L100.598 16.5821L99.1861 14.2657L98.9996 14.4611Z" fill="#499FDD"/>
</g>
</g>
<defs>
<clipPath id="clip0_2_988">
<rect width="132" height="23" fill="white" transform="translate(0.943359 0.96875)"/>
</clipPath>
</defs>
</svg>
