<svg width="82" height="15" viewBox="0 0 82 15" fill="none" xmlns="http://www.w3.org/2000/svg">
<g clip-path="url(#clip0_2_796)">
<path d="M0.393555 4.91907H6.86343H10.7925V1.66943L0.393555 4.91907Z" fill="#FF9D28"/>
<path d="M10.7925 1.97583V14.0187L14.0422 0.370117L10.7925 1.97583Z" fill="#68C5ED"/>
<path d="M10.7922 4.91992H6.24268L10.7922 14.019V4.91992Z" fill="#044D80"/>
<path d="M0.393555 4.91992L6.89284 6.8697L6.01401 4.91992H0.393555Z" fill="#E54747"/>
<path d="M35.3966 5.58621H29.5305L27.7247 0.370605L25.9082 5.58621L20.042 5.57622L24.7862 8.8035L22.9698 14.0192L27.714 10.7919L32.4582 14.0192L30.6524 8.8035L35.3966 5.58621Z" fill="#00B67A"/>
<path d="M30.2789 9.91252L30.0711 8.90088L28.5728 10.607L30.2789 9.91252Z" fill="#005128"/>
<path d="M50.628 10.0558C51.1234 10.9155 51.6133 11.7655 52.1028 12.6145C49.9351 14.2741 46.5626 14.4747 44.066 12.5635C41.1929 10.3625 40.7207 6.60681 42.2589 3.90336C44.028 0.793813 47.3387 0.106117 49.4703 0.610379C49.4126 0.735615 48.136 3.38418 48.136 3.38418C48.136 3.38418 48.035 3.39081 47.9779 3.39191C47.3479 3.41862 46.8786 3.56522 46.3756 3.82527C45.8238 4.11322 45.3509 4.53195 44.9983 5.04486C44.6456 5.55777 44.424 6.14924 44.3527 6.76759C44.2783 7.39468 44.3651 8.03039 44.6047 8.61465C44.8072 9.1086 45.0938 9.54728 45.478 9.91765C46.0673 10.4864 46.7687 10.8386 47.5816 10.9551C48.3514 11.0656 49.0918 10.9562 49.7856 10.6076C50.0458 10.477 50.2672 10.3328 50.5259 10.135C50.5589 10.1137 50.5882 10.0866 50.628 10.0558Z" fill="#FF492C"/>
<path d="M50.6329 2.51569C50.5071 2.39193 50.3905 2.27774 50.2745 2.16282C50.2053 2.09431 50.1386 2.02303 50.0677 1.95618C50.0423 1.93205 50.0124 1.89909 50.0124 1.89909C50.0124 1.89909 50.0366 1.84789 50.0469 1.82689C50.1826 1.5545 50.3953 1.35541 50.6476 1.19703C50.9267 1.02055 51.2517 0.930755 51.5818 0.938997C52.0041 0.947285 52.3967 1.05245 52.728 1.33571C52.9726 1.54474 53.098 1.80995 53.1201 2.12654C53.157 2.66064 52.936 3.06968 52.4971 3.35514C52.2392 3.52311 51.9611 3.65295 51.6823 3.80673C51.5285 3.89164 51.397 3.96622 51.2467 4.11982C51.1145 4.27398 51.1081 4.41929 51.1081 4.41929L53.1058 4.41671V5.30644H50.0222V5.22043C50.0104 4.78321 50.0614 4.37177 50.2616 3.9747C50.4458 3.61041 50.732 3.34373 51.0758 3.13838C51.3407 2.98017 51.6195 2.84554 51.8849 2.68808C52.0486 2.59102 52.1643 2.44865 52.1634 2.2422C52.1634 2.06503 52.0344 1.90756 51.8503 1.85839C51.416 1.74125 50.974 1.92819 50.7441 2.32563C50.7106 2.38364 50.6764 2.44129 50.6329 2.51569ZM54.497 9.10975L52.8135 6.20243H49.482L47.7876 9.13977H51.1436L52.7997 12.0333L54.497 9.10975Z" fill="#FF492C"/>
<path d="M80.5445 6.80183L75.1522 1.4096C74.9658 1.23652 74.6862 1.23652 74.5132 1.4096L73.448 2.47473L77.7751 6.80183C77.9482 6.97491 77.9482 7.26783 77.7751 7.44091L73.3149 11.9012L74.38 12.9663C74.5664 13.1394 74.846 13.1394 75.0191 12.9663L80.5311 7.45422C80.7175 7.26782 80.7175 6.98823 80.5445 6.80183Z" fill="#009C9C"/>
<path d="M71.3584 1.81084L70.9723 1.42473C70.7859 1.25165 70.5063 1.25165 70.3332 1.42473L69.2681 2.48986L69.9738 3.19551L71.3584 4.58018L72.7431 3.19551L71.3584 1.81084Z" fill="#40E3E3"/>
<path d="M71.2383 9.82422L69.8535 11.2089L69.1479 11.9146L70.2131 12.9797C70.3995 13.1528 70.679 13.1528 70.8521 12.9797L71.2383 12.5936L72.6229 11.2089L71.2383 9.82422Z" fill="#40E3E3"/>
<path d="M73.6082 6.80406C73.7813 6.99046 73.7813 7.27006 73.6082 7.44315L71.2383 9.81306L72.623 11.1978L76.3776 7.44315C76.5507 7.27006 76.5507 6.97715 76.3776 6.80406L72.7561 3.18262L71.3582 4.56729L73.6082 6.80406Z" fill="#1ABAB8"/>
<path d="M64.8076 6.93497L68.5622 3.18039L67.1775 1.79571L66.7781 1.4096C66.5917 1.23652 66.3121 1.23652 66.139 1.4096L60.6269 6.93497C60.4538 7.10805 60.4538 7.40097 60.6269 7.57405L66.0192 12.9663C66.2056 13.1394 66.4851 13.1394 66.6582 12.9663L67.0577 12.5802L68.4423 11.1955L64.8209 7.57405C64.6345 7.40097 64.6345 7.12137 64.8076 6.93497Z" fill="#87F0F0"/>
<path d="M68.988 6.93365L70.639 5.2827L69.2543 3.89803L68.5486 3.19238L64.8207 6.94697C64.6476 7.12005 64.6476 7.41296 64.8207 7.58604L68.4288 11.1942L69.1345 10.4886L70.5191 9.10386L68.988 7.57273C68.8149 7.41296 68.8149 7.12005 68.988 6.93365Z" fill="#40E3E3"/>
<path d="M68.9879 7.57372L70.5191 9.10484L72.17 7.45389C72.3431 7.28081 72.3431 6.9879 72.17 6.81481L70.6389 5.28369L68.9879 6.93464C68.8282 7.12104 68.8282 7.40064 68.9879 7.57372Z" fill="#17CFCF"/>
</g>
<defs>
<clipPath id="clip0_2_796">
<rect width="81" height="14" fill="white" transform="translate(0.393555 0.0185547)"/>
</clipPath>
</defs>
</svg>
