<svg width="86" height="15" viewBox="0 0 86 15" fill="none" xmlns="http://www.w3.org/2000/svg">
<g clip-path="url(#clip0_2_789)">
<path d="M14.5569 5.67736C14.6687 5.56641 14.7805 5.42131 14.7805 5.26768C14.7805 5.01162 14.5053 4.9092 14.299 4.87506L9.98288 4.25199L8.04836 0.368497C7.97098 0.206329 7.82481 0.0185547 7.62706 0.0185547C7.42931 0.0185547 7.28315 0.206329 7.20577 0.368497L5.27124 4.25199L0.955114 4.87506C0.740167 4.9092 0.473633 5.01162 0.473633 5.26768C0.473633 5.42131 0.585405 5.56641 0.68858 5.67736L3.8182 8.69881L3.07879 12.9664C3.07782 12.9732 3.07685 12.9798 3.0759 12.9863C3.06836 13.0378 3.06159 13.0841 3.06159 13.1371C3.06159 13.3591 3.17336 13.5639 3.4227 13.5639C3.54307 13.5639 3.65484 13.5212 3.76662 13.4615L7.62706 11.4472L11.4875 13.4615C11.5907 13.5212 11.711 13.5639 11.8314 13.5639C12.0807 13.5639 12.1839 13.3591 12.1839 13.1371C12.1839 13.0774 12.1839 13.0262 12.1753 12.9664L11.4359 8.69881L14.5569 5.67736Z" fill="#FFC800"/>
<path d="M32.1653 5.67736C32.277 5.56641 32.3888 5.42131 32.3888 5.26768C32.3888 5.01162 32.1137 4.9092 31.9073 4.87506L27.5912 4.25199L25.6567 0.368497C25.5793 0.206329 25.4331 0.0185547 25.2354 0.0185547C25.0376 0.0185547 24.8915 0.206329 24.8141 0.368497L22.8796 4.25199L18.5634 4.87506C18.3485 4.9092 18.082 5.01162 18.082 5.26768C18.082 5.42131 18.1937 5.56641 18.2969 5.67736L21.4265 8.69881L20.6871 12.9664C20.6861 12.9732 20.6852 12.9798 20.6842 12.9863C20.6767 13.0378 20.6699 13.0841 20.6699 13.1371C20.6699 13.3591 20.7817 13.5639 21.031 13.5639C21.1514 13.5639 21.2632 13.5212 21.3749 13.4615L25.2354 11.4472L29.0958 13.4615C29.199 13.5212 29.3194 13.5639 29.4397 13.5639C29.6891 13.5639 29.7923 13.3591 29.7923 13.1371C29.7923 13.0774 29.7923 13.0262 29.7837 12.9664L29.0442 8.69881L32.1653 5.67736Z" fill="#FFC800"/>
<path d="M49.7737 5.67736C49.8855 5.56641 49.9973 5.42131 49.9973 5.26768C49.9973 5.01162 49.7221 4.9092 49.5158 4.87506L45.1997 4.25199L43.2651 0.368497C43.1878 0.206329 43.0416 0.0185547 42.8438 0.0185547C42.6461 0.0185547 42.4999 0.206329 42.4225 0.368497L40.488 4.25199L36.1719 4.87506C35.9569 4.9092 35.6904 5.01162 35.6904 5.26768C35.6904 5.42131 35.8022 5.56641 35.9054 5.67736L39.035 8.69881L38.2956 12.9664C38.2946 12.9732 38.2936 12.9798 38.2927 12.9863C38.2851 13.0378 38.2784 13.0841 38.2784 13.1371C38.2784 13.3591 38.3901 13.5639 38.6395 13.5639C38.7598 13.5639 38.8716 13.5212 38.9834 13.4615L42.8438 11.4472L46.7043 13.4615C46.8075 13.5212 46.9278 13.5639 47.0482 13.5639C47.2975 13.5639 47.4007 13.3591 47.4007 13.1371C47.4007 13.0774 47.4007 13.0262 47.3921 12.9664L46.6527 8.69881L49.7737 5.67736Z" fill="#FFC800"/>
<path d="M67.3821 5.67736C67.4938 5.56641 67.6056 5.42131 67.6056 5.26768C67.6056 5.01162 67.3305 4.9092 67.1241 4.87506L62.808 4.25199L60.8735 0.368497C60.7961 0.206329 60.6499 0.0185547 60.4522 0.0185547C60.2544 0.0185547 60.1083 0.206329 60.0309 0.368497L58.0964 4.25199L53.7802 4.87506C53.5653 4.9092 53.2988 5.01162 53.2988 5.26768C53.2988 5.42131 53.4105 5.56641 53.5137 5.67736L56.6433 8.69881L55.9039 12.9664C55.9029 12.9732 55.902 12.9798 55.901 12.9863C55.8935 13.0378 55.8867 13.0841 55.8867 13.1371C55.8867 13.3591 55.9985 13.5639 56.2478 13.5639C56.3682 13.5639 56.48 13.5212 56.5917 13.4615L60.4522 11.4472L64.3126 13.4615C64.4158 13.5212 64.5362 13.5639 64.6566 13.5639C64.9059 13.5639 65.0091 13.3591 65.0091 13.1371C65.0091 13.0774 65.0091 13.0262 65.0005 12.9664L64.261 8.69881L67.3821 5.67736Z" fill="#FFC800"/>
<path d="M84.9905 5.67736C85.1023 5.56641 85.2141 5.42131 85.2141 5.26768C85.2141 5.01162 84.9389 4.9092 84.7326 4.87506L80.4165 4.25199L78.4819 0.368497C78.4046 0.206329 78.2584 0.0185547 78.0606 0.0185547C77.8629 0.0185547 77.7167 0.206329 77.6393 0.368497L75.7048 4.25199L71.3887 4.87506C71.1737 4.9092 70.9072 5.01162 70.9072 5.26768C70.9072 5.42131 71.019 5.56641 71.1222 5.67736L74.2518 8.69881L73.5124 12.9664C73.5114 12.9732 73.5104 12.9798 73.5095 12.9863C73.5019 13.0378 73.4952 13.0841 73.4952 13.1371C73.4952 13.3591 73.6069 13.5639 73.8563 13.5639C73.9767 13.5639 74.0884 13.5212 74.2002 13.4615L78.0606 11.4472L81.9211 13.4615C82.0243 13.5212 82.1446 13.5639 82.265 13.5639C82.5143 13.5639 82.6175 13.3591 82.6175 13.1371C82.6175 13.0774 82.6175 13.0262 82.6089 12.9664L81.8695 8.69881L84.9905 5.67736Z" fill="#FFC800"/>
</g>
<defs>
<clipPath id="clip0_2_789">
<rect width="85" height="14" fill="white" transform="translate(0.473633 0.0185547)"/>
</clipPath>
</defs>
</svg>
