<svg width="81" height="23" viewBox="0 0 81 23" fill="none" xmlns="http://www.w3.org/2000/svg">
<g clip-path="url(#clip0_2_1042)">
<mask id="mask0_2_1042" style="mask-type:luminance" maskUnits="userSpaceOnUse" x="1" y="1" width="80" height="22">
<path d="M80.8359 1.39746H1.19971V22.3975H80.8359V1.39746Z" fill="white"/>
</mask>
<g mask="url(#mask0_2_1042)">
<path d="M10.141 5.87001V21.961H7.661V5.87001H1.19971V3.50799H16.6086V5.87001H10.141ZM19.5572 21.961V3.50799H22.0371V21.961H19.5572ZM39.5371 16.7334C39.5371 19.8636 37.4429 21.9579 32.6901 21.9579H26.401V3.50799H32.5116C36.9679 3.50799 38.9474 5.513 38.9474 8.40735C38.9474 10.2944 37.8541 11.6874 35.7853 12.4715C38.2557 13.0708 39.5371 14.6646 39.5371 16.7334ZM32.7188 5.80945H28.9096V11.5949H32.3331C34.9884 11.5949 36.4388 10.4155 36.4388 8.61455C36.4388 6.81354 35.1382 5.80945 32.7188 5.80945ZM32.5403 13.8709H28.9288V19.6564H32.926C35.6706 19.6564 37.0317 18.681 37.0317 16.762C37.0317 14.6391 35.1382 13.8709 32.5403 13.8709ZM55.896 6.89005C54.4201 5.85088 52.6574 5.29624 50.85 5.30899C46.8336 5.30899 44.1241 8.0854 44.1241 12.6628C44.1241 17.2402 46.8336 20.16 50.8978 20.16C52.7881 20.1282 54.6177 19.4938 56.1223 18.3527L56.5335 20.8645C54.809 21.8782 52.8391 22.4073 50.8372 22.4009C45.4183 22.4009 41.5963 18.6523 41.5963 12.7775C41.5963 6.9028 45.4757 3.0681 50.8468 3.0681C52.8964 3.05535 54.911 3.58449 56.6897 4.60453L55.896 6.89005ZM71.8946 4.36864C71.6173 4.20289 71.3336 4.04988 71.0403 3.916C68.6273 8.54123 64.2667 14.0398 58.4493 17.1701C58.7712 17.9032 59.1952 18.5854 59.7052 19.2038C64.6906 15.7643 69.3063 10.0522 71.8946 4.36864Z" fill="#3E8EDE"/>
<path d="M70.8196 3.81058C69.5542 3.27187 68.1898 2.99773 66.8128 3.01048C61.3939 3.01048 57.5592 7.19582 57.5592 12.7072C57.556 13.5902 57.6516 14.47 57.8429 15.3306C63.3893 13.0706 68.3237 8.08517 70.8196 3.81058ZM72.1234 4.49591C69.2768 11.4959 65.8023 16.4463 61.3779 20.7049C62.9877 21.7887 64.8939 22.3529 66.8319 22.3179C72.2509 22.3179 76.0856 18.1038 76.0856 12.5893C76.0664 8.93945 74.5555 6.10247 72.1234 4.49591ZM76.0664 3.88708C76.0091 2.57059 77.0291 1.45812 78.3456 1.40074C79.6621 1.34337 80.7745 2.3634 80.8319 3.67988C80.8351 3.75001 80.8351 3.81695 80.8319 3.88708C80.8893 5.20356 79.8693 6.31604 78.5528 6.37342C77.2363 6.43079 76.1238 5.41076 76.0664 4.09427C76.0633 4.02415 76.0633 3.95402 76.0664 3.88708ZM80.561 3.88708C80.561 2.7236 79.6174 1.77688 78.454 1.77688C77.2905 1.77688 76.3438 2.72041 76.3438 3.88389V3.88708C76.347 5.05056 77.2937 5.99409 78.4603 5.9909C79.6238 5.98772 80.5674 5.041 80.5642 3.87433V3.88708H80.561ZM77.5232 2.62478H78.6197C79.1521 2.62478 79.5505 2.88617 79.5505 3.393C79.5633 3.74045 79.3306 4.05283 78.9895 4.13253L79.6366 5.03462H79.0756L78.4922 4.17715H77.9949V5.03462H77.5423V2.61203L77.5232 2.62478ZM78.5783 3.83289C78.8078 3.87433 79.0246 3.72132 79.066 3.49181C79.0692 3.47269 79.0724 3.45356 79.0724 3.43444C79.0724 3.2113 78.8907 3.02642 78.6675 3.02642C78.6388 3.02642 78.6102 3.02961 78.5815 3.03599H77.9981V3.81695H78.5847L78.5783 3.83289Z" fill="#3E8EDE"/>
</g>
</g>
<defs>
<clipPath id="clip0_2_1042">
<rect width="80" height="22" fill="white" transform="translate(0.943359 0.46875)"/>
</clipPath>
</defs>
</svg>
