<svg width="65" height="27" viewBox="0 0 65 27" fill="none" xmlns="http://www.w3.org/2000/svg">
<g clip-path="url(#clip0_2_1000)">
<mask id="mask0_2_1000" style="mask-type:luminance" maskUnits="userSpaceOnUse" x="1" y="1" width="64" height="26">
<path d="M64.1994 1.39746H1.87842V26.3975H64.1994V1.39746Z" fill="white"/>
</mask>
<g mask="url(#mask0_2_1000)">
<path d="M1.87842 24.6567H13.9957V26.3913H1.87842V24.6567Z" fill="#1F70C1"/>
<path d="M1.87842 21.3296H13.9957V23.0703H1.87842V21.3296Z" fill="#1F70C1"/>
<path d="M5.33545 18.0088H10.533V19.7495H5.33545V18.0088Z" fill="#1F70C1"/>
<path d="M5.33545 14.6875H10.533V16.4283H5.33545V14.6875Z" fill="#1F70C1"/>
<path d="M5.33545 11.3667H10.533V13.1074H5.33545V11.3667Z" fill="#1F70C1"/>
<path d="M5.33545 8.03906H10.533V9.77981H5.33545V8.03906Z" fill="#1F70C1"/>
<path d="M13.9957 4.71826H1.87842V6.45901H13.9957V4.71826Z" fill="#1F70C1"/>
<path d="M13.9957 1.39746H1.87842V3.13821H13.9957V1.39746Z" fill="#1F70C1"/>
<path d="M15.7236 23.0703H34.3594C34.6742 22.5333 34.9088 21.9469 35.0508 21.3296H15.7236V23.0703Z" fill="#1F70C1"/>
<path d="M32.9087 14.6875H19.1865V16.4283H34.3593C33.9642 15.7615 33.4765 15.1752 32.9087 14.6875Z" fill="#1F70C1"/>
<path d="M19.1865 11.3667V13.1074H32.9087C33.4889 12.6197 33.9765 12.0333 34.3593 11.3667H19.1865Z" fill="#1F70C1"/>
<path d="M34.3595 4.71826H15.7236V6.45901H35.0508C34.8903 5.84172 34.6557 5.25534 34.3595 4.71826Z" fill="#1F70C1"/>
<path d="M28.631 1.39746H15.7236V3.13821H33.0816C31.9212 2.0641 30.3471 1.39746 28.631 1.39746Z" fill="#1F70C1"/>
<path d="M24.3778 8.03955H19.1865V9.7803H24.3778V8.03955Z" fill="#1F70C1"/>
<path d="M29.5757 9.77981H35.0078C35.1621 9.22428 35.2423 8.63784 35.2423 8.03906H29.5757V9.77981Z" fill="#1F70C1"/>
<path d="M19.1865 18.0088H24.3778V19.7495H19.1865V18.0088Z" fill="#1F70C1"/>
<path d="M29.5757 18.0088V19.7495H35.2423C35.2423 19.1507 35.1621 18.5643 35.0078 18.0088H29.5757Z" fill="#1F70C1"/>
<path d="M15.7236 26.379L28.631 26.3975C30.3594 26.3975 31.9212 25.7308 33.0878 24.6567H15.7236V26.379Z" fill="#1F70C1"/>
<path d="M36.5015 24.6567H45.1558V26.3913H36.5015V24.6567Z" fill="#1F70C1"/>
<path d="M36.5015 21.3296H45.1558V23.0703H36.5015V21.3296Z" fill="#1F70C1"/>
<path d="M39.959 18.0088H45.1565V19.7495H39.959V18.0088Z" fill="#1F70C1"/>
<path d="M39.959 14.6875H45.1565V16.4283H39.959V14.6875Z" fill="#1F70C1"/>
<path d="M47.5633 4.71826H36.5015V6.45901H48.162L47.5633 4.71826Z" fill="#1F70C1"/>
<path d="M46.4151 1.39746H36.5015V3.13821H47.0139L46.4151 1.39746Z" fill="#1F70C1"/>
<path d="M55.5391 24.6567H64.1996V26.3913H55.5391V24.6567Z" fill="#1F70C1"/>
<path d="M55.5391 21.3296H64.1996V23.0702H55.5391V21.3296Z" fill="#1F70C1"/>
<path d="M55.5391 18.0088H60.7366V19.7495H55.5391V18.0088Z" fill="#1F70C1"/>
<path d="M55.5391 14.6875H60.7366V16.4283H55.5391V14.6875Z" fill="#1F70C1"/>
<path d="M55.5392 13.1074H60.7367V11.3667H55.5392H50.8356L50.3479 12.7741L49.8602 11.3667H45.1565H39.959V13.1074H45.1565V11.5086L45.7059 13.1074H54.9899L55.5392 11.5086V13.1074Z" fill="#1F70C1"/>
<path d="M60.7366 8.03906H51.9835L51.3848 9.77981H60.7366V8.03906Z" fill="#1F70C1"/>
<path d="M54.2863 1.39746L53.6875 3.13821H64.1999V1.39746H54.2863Z" fill="#1F70C1"/>
<path d="M50.3488 26.379L50.9475 24.6567H49.75L50.3488 26.379Z" fill="#1F70C1"/>
<path d="M49.199 23.0703H51.4953L52.1126 21.3296H48.5879L49.199 23.0703Z" fill="#1F70C1"/>
<path d="M48.033 19.7495H52.6626L53.2737 18.0088H47.4219L48.033 19.7495Z" fill="#1F70C1"/>
<path d="M46.8717 16.4283H53.8285L54.4212 14.6875H46.2729L46.8717 16.4283Z" fill="#1F70C1"/>
<path d="M39.959 9.77981H49.3108L48.7121 8.03906H39.959V9.77981Z" fill="#1F70C1"/>
<path d="M52.5391 6.45901H64.1996V4.71826H53.1317L52.5391 6.45901Z" fill="#1F70C1"/>
</g>
</g>
<defs>
<clipPath id="clip0_2_1000">
<rect width="64" height="26" fill="white" transform="translate(0.943359 0.46875)"/>
</clipPath>
</defs>
</svg>
