<svg width="1921" height="361" viewBox="0 0 1921 361" fill="none" xmlns="http://www.w3.org/2000/svg">
<g clip-path="url(#clip0_2_969)">
<g clip-path="url(#clip1_2_969)">
<path d="M-24.48 360.263V67.3719C-24.3441 67.3462 -24.1802 67.3153 -23.9884 67.2794C-23.3303 67.156 -22.3431 66.973 -21.0277 66.734C-18.3969 66.2563 -14.4536 65.5553 -9.20571 64.6631C1.29016 62.8786 17.0046 60.3291 37.8745 57.2693C79.6141 51.1499 141.975 42.9901 224.453 34.8301C389.408 18.5099 634.829 2.18896 956.673 2.18896C1278.51 2.18896 1523.93 18.5099 1688.89 34.8301C1771.37 42.9901 1833.73 51.1499 1875.47 57.2693C1896.35 60.3291 1912.05 62.8786 1922.55 64.6631C1927.79 65.5553 1931.75 66.2563 1934.37 66.734C1935.69 66.973 1936.68 67.156 1937.34 67.2794C1937.52 67.3153 1937.69 67.3462 1937.83 67.3719V360.263L1936.8 360.114C1935.65 359.95 1933.94 359.704 1931.71 359.385C1927.23 358.745 1920.62 357.808 1912.06 356.616C1894.94 354.229 1870.07 350.82 1839.03 346.73C1776.94 338.55 1690.16 327.642 1591.4 316.735C1393.88 294.921 1148.41 273.104 956.673 273.104C764.937 273.104 519.468 294.921 321.949 316.735C223.185 327.642 136.405 338.55 74.3146 346.73C43.2695 350.82 18.3969 354.229 1.28516 356.616C-7.27059 357.808 -13.8862 358.745 -18.3629 359.385C-20.6013 359.704 -22.305 359.95 -23.4491 360.114C-23.8682 360.175 -24.2123 360.224 -24.48 360.263Z" fill="url(#paint0_linear_2_969)" stroke="url(#paint1_linear_2_969)" stroke-width="1.22034"/>
</g>
</g>
<defs>
<linearGradient id="paint0_linear_2_969" x1="956.673" y1="99.5449" x2="956.673" y2="334.088" gradientUnits="userSpaceOnUse">
<stop stop-color="#FAFAFF"/>
<stop offset="1" stop-color="#FAFAFF" stop-opacity="0"/>
</linearGradient>
<linearGradient id="paint1_linear_2_969" x1="956.062" y1="-185.133" x2="956.062" y2="186.46" gradientUnits="userSpaceOnUse">
<stop stop-color="#CECEEA" stop-opacity="0.62"/>
<stop offset="1" stop-color="#CECEEA" stop-opacity="0"/>
</linearGradient>
<clipPath id="clip0_2_969">
<rect width="1920" height="360" fill="white" transform="translate(0.943359 0.96875)"/>
</clipPath>
<clipPath id="clip1_2_969">
<rect width="1952.54" height="360" fill="white" transform="translate(-15.3276 0.96875)"/>
</clipPath>
</defs>
</svg>
