<svg width="91" height="26" viewBox="0 0 91 26" fill="none" xmlns="http://www.w3.org/2000/svg">
<g clip-path="url(#clip0_2_1055)">
<mask id="mask0_2_1055" style="mask-type:luminance" maskUnits="userSpaceOnUse" x="1" y="1" width="90" height="25">
<path d="M90.333 1.39746H1.52832V25.3975H90.333V1.39746Z" fill="white"/>
</mask>
<g mask="url(#mask0_2_1055)">
<path d="M13.7393 23.8505C12.4034 24.0851 11.044 24.1554 9.63774 24.3427L5.34857 11.7803V24.8819C4.01269 25.0225 2.79396 25.21 1.52832 25.3975V1.39746H5.09092L9.96581 15.0149V1.39746H13.7393V23.8505ZM21.1221 10.1865C22.5753 10.1865 24.8019 10.1162 26.1378 10.1162V13.8661C24.4736 13.8661 22.5284 13.8661 21.1221 13.9365V19.5147C23.3253 19.3741 25.5284 19.1864 27.7549 19.1161V22.7253L17.372 23.5457V1.39746H27.7549V5.14746H21.1221V10.1865ZM41.7002 5.14755H37.8096V22.3975C36.544 22.3975 35.2783 22.3975 34.0598 22.4443V5.14755H30.1692V1.39746H41.7004L41.7002 5.14755ZM47.7939 9.92878H52.9268V13.6787H47.7939V22.1866H44.114V1.39746H54.5908V5.14746H47.7939V9.92878ZM60.6845 18.9053C62.8174 18.952 64.9735 19.1164 67.0596 19.2333V22.9365C63.7081 22.7254 60.3565 22.5148 56.9346 22.4443V1.39746H60.6845V18.9053ZM70.2236 23.1943C71.4189 23.2648 72.6845 23.3351 73.9033 23.4755V1.39746H70.2236V23.1943ZM90.3331 1.39746L85.5752 12.8116L90.3331 25.3975C88.9267 25.21 87.5205 24.9521 86.1142 24.7177L83.419 17.7804L80.6771 24.1554C79.3174 23.9208 78.0049 23.8505 76.6458 23.663L81.4739 12.6708L77.1144 1.39746H81.1454L83.6064 7.70216L86.2315 1.39746H90.3331Z" fill="#D81F26"/>
</g>
</g>
<defs>
<clipPath id="clip0_2_1055">
<rect width="90" height="25" fill="white" transform="translate(0.943359 0.96875)"/>
</clipPath>
</defs>
</svg>
