<svg width="138" height="34" viewBox="0 0 138 34" fill="none" xmlns="http://www.w3.org/2000/svg">
<path d="M101.084 8.85155C101.084 9.07344 101.042 9.29317 100.959 9.4982C100.877 9.70322 100.756 9.88953 100.603 10.0465C100.45 10.2034 100.268 10.3279 100.068 10.4128C99.8687 10.4978 99.6546 10.5415 99.4383 10.5415C99.2221 10.5415 99.0079 10.4978 98.8081 10.4128C98.6083 10.3279 98.4268 10.2034 98.2739 10.0465C98.1211 9.88953 97.9998 9.70322 97.9171 9.4982C97.8344 9.29317 97.7919 9.07344 97.792 8.85155C97.7919 8.62966 97.8344 8.40993 97.9171 8.2049C97.9998 7.99988 98.1211 7.81357 98.2739 7.65664C98.4268 7.4997 98.6083 7.37521 98.8081 7.29027C99.0079 7.20533 99.2221 7.16162 99.4383 7.16162C99.6546 7.16162 99.8687 7.20533 100.068 7.29027C100.268 7.37521 100.45 7.4997 100.603 7.65664C100.756 7.81357 100.877 7.99988 100.959 8.2049C101.042 8.40993 101.084 8.62966 101.084 8.85155Z" fill="#999B9E"/>
<path d="M130.359 16.2705H126.169V20.5468H130.359V16.2705Z" fill="#999B9E"/>
<path d="M47.2519 16.2705H43.0615V20.5468H47.2519V16.2705Z" fill="#999B9E"/>
<path d="M34.6816 16.2705H30.4912V20.5468H34.6816V16.2705Z" fill="#999B9E"/>
<path d="M22.3047 16.2705H18.1143V20.5468H22.3047V16.2705Z" fill="#999B9E"/>
<path d="M9.48439 16.2705H5.29395V20.5468H9.48439V16.2705Z" fill="#999B9E"/>
<path d="M15.359 7.73501H15.8562C19.0674 7.73501 20.5641 9.45286 21.1895 14.0341L22.1839 13.9901L22.0512 6.72168H5.71084L5.5498 13.9901L6.50667 14.0341C6.6724 12.3162 6.87116 11.3911 7.30251 10.4659C8.06505 8.74782 9.65646 7.73501 11.6124 7.73501H12.3086V23.5487C12.3086 25.2226 12.2092 25.7513 11.8117 26.1478C11.48 26.4561 10.8168 26.5882 10.054 26.5882H9.29145V27.6453H18.3761V26.5882H17.6089C16.851 26.5882 16.1832 26.4558 15.8564 26.1478C15.4587 25.7513 15.3593 25.2224 15.3593 23.5487L15.359 7.73501Z" fill="#ED008C"/>
<path d="M58.5816 27.6454L63.8759 9.17233V23.6688C63.8759 25.2508 63.7859 25.8068 63.4269 26.1916C63.1574 26.4908 62.5327 26.6193 61.8402 26.6193H61.5709V27.6454H69.0545V26.6193H68.665C67.9766 26.6193 67.3481 26.491 67.0788 26.1916C66.7192 25.8068 66.6295 25.2508 66.6295 23.6688V11.3106C66.6295 9.7283 66.7192 9.12966 67.0788 8.74488C67.378 8.48836 67.9766 8.31717 68.665 8.31717H69.0545V7.3335H63.2474L58.8769 22.2574L54.6006 7.3335H48.8234V8.31717H49.362C50.9487 8.31717 51.2479 8.65929 51.2479 10.712V22.4713C51.2479 24.3528 51.1581 25.1226 50.8886 25.6786C50.5894 26.2345 49.9564 26.6193 49.3021 26.6193H48.8232V27.6454H54.9893V26.6193H54.6004C53.8222 26.6193 53.1934 26.3199 52.8299 25.7212C52.4751 25.1226 52.3853 24.5666 52.3853 22.4713V9.17259L57.6492 27.6456L58.5816 27.6454Z" fill="#999B9E"/>
<path d="M75.4907 13.1914C71.779 13.1914 69.3545 16.0992 69.3545 20.675C69.3545 25.0795 71.779 28.073 75.3971 28.073C79.0484 28.073 81.4732 25.0795 81.4732 20.6323C81.4732 16.2275 79.0485 13.1914 75.4907 13.1914ZM75.3711 14.1748C76.4445 14.1748 77.3722 14.859 77.8811 16.0137C78.3601 17.0827 78.5695 18.5367 78.5695 20.6321C78.5695 24.9508 77.5218 27.0888 75.3968 27.0888C73.2757 27.0888 72.2535 24.9505 72.2535 20.5891C72.2535 18.5364 72.4671 17.0827 72.9461 16.0137C73.4211 14.902 74.3832 14.1748 75.3711 14.1748Z" fill="#999B9E"/>
<path d="M86.4471 7.11963L82.1963 7.33348V8.27424H82.4016C83.659 8.27424 83.9327 8.70194 83.9327 10.7117V24.6093C83.9327 26.4052 83.8728 26.8759 83.6335 27.6455H84.6213C85.3651 26.4053 85.549 26.1917 85.8485 26.1917C85.9939 26.1917 86.1391 26.2343 86.3532 26.4482C87.8239 27.6455 88.4525 27.902 89.7996 27.902C93.0279 27.902 95.3629 24.7802 95.3629 20.333C95.3629 16.1423 93.2033 13.32 89.9749 13.32C88.2987 13.32 87.0757 14.1325 86.4471 15.5863V7.11963ZM89.5516 14.389C91.4719 14.389 92.4595 16.4417 92.4595 20.4612C92.4595 24.6946 91.4417 26.8755 89.496 26.8755C87.3408 26.8755 86.2073 24.6517 86.2073 20.5895C86.2073 18.5368 86.477 17.1259 87.1056 16.0567C87.6699 15.0306 88.6322 14.389 89.5516 14.389Z" fill="#999B9E"/>
<path d="M100.899 13.4058L96.5332 13.6623V14.603H96.8625C98.1152 14.603 98.385 15.0307 98.385 16.9978V24.2246C98.385 26.192 98.1155 26.6624 96.8625 26.6624H96.3877V27.6455H102.905V26.6624H102.434C101.173 26.6624 100.899 26.2344 100.899 24.2246L100.899 13.4058Z" fill="#999B9E"/>
<path d="M108.473 7.11963L104.107 7.33348V8.27424H104.432C105.69 8.27424 105.959 8.70194 105.959 10.7117V24.2243C105.959 26.2343 105.69 26.662 104.432 26.662H103.958V27.6451H110.479V26.662H110C108.738 26.662 108.473 26.2341 108.473 24.2243V7.11963Z" fill="#999B9E"/>
<path d="M122.388 20.5465C122.242 16.0136 120.087 13.1914 116.829 13.1914C113.681 13.1914 111.411 16.2702 111.411 20.5465C111.411 25.1219 113.651 28.0727 117.124 28.0727C119.369 28.0727 120.925 26.8752 122.212 24.2239L121.315 23.7535C120.267 25.9771 119.219 26.8752 117.603 26.8752C115.238 26.8752 114.225 24.9939 114.194 20.5465H122.388ZM114.224 19.4772C114.25 16.2702 115.293 14.2604 116.974 14.2604C118.65 14.2604 119.638 16.2275 119.608 19.4772H114.224Z" fill="#999B9E"/>
<path d="M131.932 12.8433C132.185 12.8433 132.432 12.9081 132.673 13.0379C132.914 13.1677 133.101 13.3534 133.236 13.5949C133.37 13.8363 133.437 14.0881 133.437 14.3504C133.437 14.61 133.371 14.8595 133.238 15.0989C133.106 15.3385 132.92 15.5245 132.682 15.6569C132.443 15.7893 132.193 15.8557 131.932 15.8557C131.671 15.8557 131.421 15.7896 131.182 15.6569C130.943 15.5245 130.757 15.3388 130.624 15.0989C130.491 14.8595 130.424 14.61 130.424 14.3504C130.424 14.0881 130.492 13.8363 130.627 13.5949C130.762 13.3534 130.95 13.1674 131.191 13.0379C131.433 12.9081 131.679 12.8433 131.932 12.8433ZM131.932 13.0941C131.721 13.0941 131.515 13.1482 131.315 13.2567C131.115 13.3652 130.958 13.5197 130.845 13.7211C130.732 13.9224 130.676 14.1324 130.676 14.3501C130.676 14.5668 130.731 14.7745 130.843 14.9732C130.953 15.172 131.109 15.3268 131.308 15.4379C131.508 15.549 131.716 15.6044 131.932 15.6044C132.149 15.6044 132.357 15.549 132.556 15.4379C132.756 15.327 132.91 15.1722 133.021 14.9732C133.131 14.7745 133.186 14.5668 133.186 14.3501C133.186 14.1324 133.13 13.9224 133.018 13.7211C132.905 13.5199 132.749 13.3652 132.548 13.2567C132.348 13.1482 132.142 13.0941 131.932 13.0941ZM131.271 15.1813V13.5605H131.829C132.02 13.5605 132.158 13.5756 132.243 13.6055C132.329 13.6355 132.396 13.6878 132.447 13.7624C132.498 13.8368 132.523 13.9162 132.523 14C132.523 14.1183 132.481 14.2216 132.396 14.3093C132.311 14.397 132.199 14.4464 132.059 14.4571C132.116 14.481 132.162 14.5096 132.196 14.5429C132.262 14.6067 132.342 14.7138 132.436 14.8642L132.634 15.1816H132.313L132.169 14.9259C132.056 14.7258 131.965 14.6004 131.897 14.5494C131.849 14.5117 131.779 14.493 131.687 14.493H131.533V15.1816L131.271 15.1813ZM131.533 14.2703H131.852C132.004 14.2703 132.108 14.2476 132.164 14.2021C132.219 14.1566 132.247 14.0965 132.247 14.0215C132.247 13.9734 132.233 13.9302 132.207 13.8922C132.18 13.8543 132.143 13.8256 132.095 13.8069C132.048 13.7882 131.96 13.7791 131.832 13.7791H131.533V14.2703Z" fill="#999B9E"/>
</svg>
