<svg width="106" height="28" viewBox="0 0 106 28" fill="none" xmlns="http://www.w3.org/2000/svg">
<g clip-path="url(#clip0_2_984)">
<path d="M23.6857 16.7773C21.9561 16.7773 20.6171 15.4383 20.6171 13.6529C20.6171 11.9232 21.9561 10.5842 23.6857 10.5842C25.4153 10.5842 26.7544 11.9232 26.7544 13.6529C26.7544 15.3825 25.3596 16.7773 23.6857 16.7773ZM29.2651 10.4726V8.35248H25.5269C24.9132 8.07351 24.2995 8.01772 23.6857 8.01772C20.4497 8.01772 17.939 10.4727 17.939 13.7087C17.939 16.9447 20.4497 19.3438 23.6299 19.3438C26.8102 19.3438 29.3209 16.8889 29.3209 13.7087C29.3209 12.5928 28.9862 11.5885 28.4282 10.8074L29.2651 10.4726ZM11.2437 16.7773C9.51402 16.7773 8.17497 15.4383 8.17497 13.6529C8.17497 11.9232 9.51402 10.5842 11.2437 10.5842C12.9733 10.5842 14.3123 11.9232 14.3123 13.6529C14.3123 15.3825 13.0291 16.7773 11.2437 16.7773ZM11.2437 8.01772C8.00759 8.01772 5.55265 10.4726 5.55265 13.6529C5.55265 16.8331 8.06338 19.3438 11.2437 19.3438C14.4239 19.3438 16.9347 16.8889 16.9347 13.7087C16.9347 10.5284 14.4797 8.01772 11.2437 8.01772ZM1.81445 19.0649H4.43677V3.88896H1.81445V19.0649ZM30.4368 19.0649H33.0591V8.35248H30.4368V19.0649ZM23.6857 22.8032C21.9561 22.8032 20.6171 21.464 20.6171 19.7344H17.939C17.939 22.9705 20.4497 25.3696 23.6299 25.3696C26.8102 25.3696 29.3767 22.9147 29.3767 19.7344H26.7544C26.6986 21.5198 25.3596 22.8032 23.6857 22.8032ZM42.9347 12.5928C43.3252 11.1979 44.3295 10.4169 45.7244 10.4169C47.1192 10.4169 48.1793 11.1979 48.4583 12.5928H42.9347ZM45.8359 8.01772C42.5999 8.01772 40.2008 10.4727 40.2008 13.7087C40.2008 16.9447 42.3767 19.2323 45.8359 19.2323C47.6771 19.2323 49.4068 18.5069 50.69 17.2237L48.8488 15.3825C47.9561 16.2752 47.0076 16.7773 45.8917 16.7773C44.3853 16.7773 43.3252 15.8846 42.9905 14.6014H51.3038V13.9876C51.3038 10.4726 49.0162 8.01772 45.8359 8.01772ZM69.381 8.01772C68.0419 8.01772 66.9261 8.46407 66.145 9.35677V3.83317H63.5226V19.0091H66.145V13.2065C66.145 11.6443 67.0934 10.64 68.7115 10.64C70.2179 10.64 71.0548 11.5885 71.0548 13.2065V19.0091H73.6771V12.7602C73.7887 9.80313 71.8917 8.01772 69.381 8.01772ZM57.8316 10.64C58.9475 10.64 59.8402 11.1979 60.5656 12.0348L62.4068 10.1937C61.3467 8.85463 59.7844 8.07351 57.8316 8.07351C54.5956 8.07351 52.1407 10.5284 52.1407 13.7087C52.1407 16.8889 54.6514 19.3438 57.8316 19.3438C59.6729 19.3438 61.3467 18.4511 62.4068 17.2237L60.5656 15.3825C59.8402 16.1636 58.8917 16.7773 57.8316 16.7773C56.102 16.7773 54.8746 15.4383 54.8746 13.7087C54.763 11.979 56.1578 10.64 57.8316 10.64ZM38.4153 5.06064H35.793V8.35248H34.3982V10.6958H35.793V19.0091H38.4153V10.6958H39.9218V8.35248H38.4153V5.06064ZM31.8317 3.5542C30.8832 3.5542 30.102 4.33532 30.102 5.3954C30.102 6.3439 30.8832 7.12501 31.8317 7.12501C32.8917 7.12501 33.6729 6.3439 33.6729 5.3954C33.5613 4.33532 32.7802 3.5542 31.8317 3.5542Z" fill="black"/>
<path fill-rule="evenodd" clip-rule="evenodd" d="M91.3537 1.39746V6.80948C87.1133 6.80948 83.7657 10.1571 83.7657 14.3975C83.7657 18.5262 87.1133 21.9855 91.3537 21.9855V27.3975C84.1563 27.3975 78.2979 21.5949 78.2979 14.3975C78.2979 7.20003 84.1563 1.39746 91.3537 1.39746Z" fill="#00B8FD"/>
<path fill-rule="evenodd" clip-rule="evenodd" d="M105.758 9.4126H94.0977V14.713H100.402V21.0177H105.758V9.4126Z" fill="#00B8FD"/>
</g>
<defs>
<clipPath id="clip0_2_984">
<rect width="105" height="27" fill="white" transform="translate(0.943359 0.96875)"/>
</clipPath>
</defs>
</svg>
