<svg width="108" height="22" viewBox="0 0 108 22" fill="none" xmlns="http://www.w3.org/2000/svg">
<g clip-path="url(#clip0_2_1745)">
<g clip-path="url(#clip1_2_1745)">
<g clip-path="url(#clip2_2_1745)">
<mask id="mask0_2_1745" style="mask-type:luminance" maskUnits="userSpaceOnUse" x="0" y="0" width="107" height="22">
<path d="M106.879 0.0185547H0.828613V21.0186H106.879V0.0185547Z" fill="white"/>
</mask>
<g mask="url(#mask0_2_1745)">
<path d="M0.828613 15.2893L3.85469 12.9478C5.46242 15.0672 7.17056 16.0441 9.07185 16.0441C10.963 16.0441 12.6228 15.0787 14.1581 12.9759L17.2274 15.261C15.0122 18.2932 12.2593 19.8953 9.07185 19.8953C5.89453 19.8953 3.11501 18.3035 0.828613 15.2893Z" fill="url(#paint0_linear_2_1745)"/>
<path d="M9.062 5.11241L3.67578 9.80062L1.18604 6.88398L9.0734 0.0185547L16.8985 6.88908L14.3973 9.79548L9.062 5.11241Z" fill="url(#paint1_linear_2_1745)"/>
<path fill-rule="evenodd" clip-rule="evenodd" d="M39.062 4.72265C39.062 5.7368 39.7941 6.47621 40.7981 6.47621V6.47753C41.7691 6.47753 42.5189 5.7368 42.5189 4.72265C42.5189 3.74187 41.7691 3.00244 40.7981 3.00244C39.8284 3.00244 39.062 3.74187 39.062 4.72265ZM37.9579 3.6904V16.8153H34.961V3.6904H37.9579ZM28.8315 17.0048C26.9927 17.0047 25.4602 16.4026 24.2174 15.1986C22.9744 13.9778 22.3618 12.4129 22.3618 10.5027C22.3618 8.57711 22.9909 6.99428 24.2339 5.75544C25.4947 4.49997 27.0274 3.88121 28.8499 3.88121C31.0982 3.88121 33.0898 4.8607 34.2488 6.39221L32.2204 8.54246C31.2494 7.49235 30.1933 6.95958 29.0533 6.95958C28.0823 6.95958 27.2816 7.28566 26.6169 7.95708C25.97 8.62845 25.6472 9.47186 25.6472 10.486C25.6472 11.4668 25.97 12.2922 26.6169 12.9636C27.2816 13.6171 28.0823 13.9431 29.0355 13.9431C30.2784 13.9431 31.3689 13.3924 32.2713 12.3089L34.3836 14.3565C33.804 15.1306 33.0211 15.7673 32.0501 16.2654C31.0793 16.7647 30.0069 17.0047 28.8315 17.0048ZM42.3141 7.31936V16.8151H39.2995V7.31936H42.3141ZM44.4752 15.6278C45.4106 16.5572 46.6027 17.0219 48.0846 17.0219C50.0775 17.0219 51.7627 16.0411 52.5812 14.4583L50.1791 13.0141C49.8385 13.7536 49.0379 14.2349 48.1698 14.2349C46.9599 14.2349 46.0575 13.3055 46.0575 12.05C46.0469 11.4802 46.2614 10.9296 46.6536 10.5198C47.0628 10.1064 47.5737 9.89979 48.2041 9.89979C49.0721 9.89979 49.7368 10.3131 50.2134 11.1219L52.6142 9.84839C51.8148 8.04218 50.094 7.07939 48.1355 7.07939C46.637 7.07939 45.4284 7.54286 44.4917 8.47226C43.5551 9.40167 43.095 10.5879 43.095 12.05C43.095 13.5122 43.5551 14.6997 44.4752 15.6278ZM63.0338 16.8153H59.4564L56.6792 13.0475L56.2371 13.4609V16.8153H53.2415V3.6904H56.2382V10.0718L59.0648 7.31952H62.7267L58.6915 11.1386L63.0338 16.8153ZM63.2349 4.10269V11.8783C63.2349 15.6281 65.8236 17.0389 68.4292 17.0389C71.0511 17.0389 73.6236 15.6281 73.6236 11.8783V4.10269H70.4042V11.8269C70.4042 13.2198 69.5868 13.9425 68.4292 13.9425C67.2537 13.9425 66.4363 13.2544 66.4363 11.8269V4.10269H63.2349ZM80.7384 7.07939C82.0845 7.07939 83.1749 7.56081 84.0427 8.52361C84.9105 9.46971 85.3363 10.6572 85.3363 12.05C85.3363 13.4442 84.8943 14.6304 84.0264 15.6111C83.157 16.5739 82.0676 17.0566 80.7562 17.0566C79.7167 17.0566 78.8142 16.7126 78.0819 16.0244V20.7204H75.0673V7.31947H78.0314V8.19753C78.7633 7.45681 79.6658 7.07939 80.7384 7.07939ZM80.1598 9.90016C81.3867 9.90016 82.2708 10.8463 82.2708 12.0851H82.2724C82.2797 12.6599 82.0655 13.2151 81.6749 13.6332C81.2833 14.0633 80.7725 14.2699 80.1598 14.2699C79.5461 14.2699 79.0353 14.0633 78.6273 13.6332C78.2346 13.2032 78.0314 12.6871 78.0314 12.0851C78.0314 10.8463 78.9334 9.90016 80.1598 9.90016Z" fill="black"/>
<path fill-rule="evenodd" clip-rule="evenodd" d="M87.0977 16.242C88.1046 16.8514 89.1908 17.2091 90.423 17.2091C92.5955 17.2091 94.0922 16.0035 94.0922 14.2549C94.0922 13.1288 93.4564 12.122 92.1712 11.8305V11.7776C93.0191 11.4728 93.7877 10.7177 93.7877 9.63141C93.7877 8.16094 92.3571 7.08789 90.5952 7.08789C89.31 7.08789 88.1309 7.60454 87.3229 8.31991L88.4753 10.0951C89.2307 9.59167 89.7074 9.40624 90.2508 9.40624C90.8467 9.40624 91.3102 9.69767 91.3102 10.2143C91.3102 10.678 90.8997 11.0357 90.118 11.0357H89.1509V13.2348H90.423C91.1118 13.2348 91.5355 13.5793 91.5355 14.0562C91.5355 14.5728 91.085 14.9437 90.2508 14.9437C89.7473 14.9437 89.0055 14.798 88.091 14.2813L87.0977 16.242ZM102.321 17.2091C99.6976 17.2091 98.2534 15.1292 98.2534 12.1485C98.2534 9.16778 99.6976 7.08789 102.321 7.08789C104.957 7.08789 106.401 9.16778 106.401 12.1485C106.401 15.1292 104.957 17.2091 102.321 17.2091ZM102.334 14.8908C103.447 14.8908 103.963 13.7249 103.963 12.1485C103.963 10.5985 103.434 9.40624 102.334 9.40624C101.234 9.40624 100.691 10.5985 100.691 12.1485C100.691 13.7249 101.208 14.8908 102.334 14.8908ZM96.2279 17.2621C95.5129 17.2621 94.9296 16.7189 94.9296 15.9903C94.9296 15.2882 95.5129 14.745 96.2279 14.745C96.9036 14.745 97.4732 15.2882 97.4732 15.9903C97.4732 16.7189 96.9036 17.2621 96.2279 17.2621Z" fill="black"/>
</g>
</g>
</g>
</g>
<defs>
<linearGradient id="paint0_linear_2_1745" x1="0.828613" y1="21.1466" x2="17.2274" y2="21.1466" gradientUnits="userSpaceOnUse">
<stop stop-color="#7612FA"/>
<stop offset="1" stop-color="#40DDFF"/>
</linearGradient>
<linearGradient id="paint1_linear_2_1745" x1="1.18604" y1="11.5624" x2="16.8985" y2="11.5624" gradientUnits="userSpaceOnUse">
<stop stop-color="#FA12E3"/>
<stop offset="1" stop-color="#FFD700"/>
</linearGradient>
<clipPath id="clip0_2_1745">
<rect width="107" height="21" fill="white" transform="translate(0.353516 0.0185547)"/>
</clipPath>
<clipPath id="clip1_2_1745">
<rect width="107" height="21" fill="white" transform="translate(0.353516 0.0185547)"/>
</clipPath>
<clipPath id="clip2_2_1745">
<rect width="107" height="21" fill="white" transform="translate(0.353516 0.0185547)"/>
</clipPath>
</defs>
</svg>
