<svg width="315" height="209" viewBox="0 0 315 209" fill="none" xmlns="http://www.w3.org/2000/svg">
<g clip-path="url(#clip0_2_1465)">
<g clip-path="url(#clip1_2_1465)">
<g clip-path="url(#clip2_2_1465)">
<g opacity="0.6" filter="url(#filter0_f_2_1465)">
<g filter="url(#filter1_d_2_1465)">
<path d="M45.9405 195.695C58.7669 195.695 69.1648 185.297 69.1648 172.47C69.1648 159.644 58.7669 149.246 45.9405 149.246C33.1142 149.246 22.7163 159.644 22.7163 172.47C22.7163 185.297 33.1142 195.695 45.9405 195.695Z" fill="white"/>
</g>
<mask id="mask0_2_1465" style="mask-type:luminance" maskUnits="userSpaceOnUse" x="32" y="159" width="26" height="26">
<path d="M32.1782 159.568H57.1226V184.513H32.1782V159.568Z" fill="white"/>
</mask>
<g mask="url(#mask0_2_1465)">
<path d="M54.8551 162.241H44.1309C44.1307 162.877 44.2559 163.507 44.4991 164.094C44.7423 164.681 45.0989 165.215 45.5484 165.665C45.9979 166.114 46.5316 166.471 47.119 166.714C47.7063 166.958 48.3359 167.083 48.9717 167.083H50.9477V168.99C50.9484 170.273 51.4583 171.503 52.3655 172.41C53.2726 173.318 54.5028 173.828 55.7858 173.829V163.171C55.7858 162.657 55.3696 162.241 54.8551 162.241Z" fill="#2684FF"/>
<path d="M49.5489 167.585H38.8237C38.8245 168.868 39.3344 170.098 40.2415 171.006C41.1486 171.913 42.3788 172.423 43.6618 172.424H45.6378V174.337C45.6395 175.62 46.1504 176.85 47.0582 177.757C47.966 178.663 49.1966 179.172 50.4796 179.172V168.516C50.4796 168.002 50.0625 167.585 49.5489 167.585Z" fill="url(#paint0_linear_2_1465)"/>
<path d="M44.2393 172.927H33.5142C33.5142 173.563 33.6394 174.192 33.8827 174.779C34.1261 175.367 34.4827 175.901 34.9323 176.35C35.3819 176.8 35.9157 177.156 36.5031 177.399C37.0905 177.643 37.7201 177.768 38.3559 177.768H40.3374V179.675C40.3381 180.957 40.8473 182.187 41.7533 183.094C42.6593 184.001 43.888 184.511 45.17 184.513V173.857C45.17 173.343 44.7529 172.927 44.2393 172.927Z" fill="url(#paint1_linear_2_1465)"/>
</g>
<g filter="url(#filter2_d_2_1465)">
<path d="M280.033 143.442C292.86 143.442 303.258 133.044 303.258 120.217C303.258 107.391 292.86 96.9932 280.033 96.9932C267.207 96.9932 256.809 107.391 256.809 120.217C256.809 133.044 267.207 143.442 280.033 143.442Z" fill="white"/>
</g>
<path fill-rule="evenodd" clip-rule="evenodd" d="M287.157 120.611C286.431 120.602 285.71 120.737 285.036 121.008C284.363 121.28 283.75 121.682 283.233 122.193C282.716 122.703 282.306 123.311 282.026 123.981C281.746 124.651 281.602 125.37 281.602 126.096C281.602 126.822 281.746 127.541 282.027 128.211C282.307 128.881 282.717 129.489 283.234 129.999C283.751 130.509 284.364 130.911 285.037 131.183C285.711 131.454 286.432 131.589 287.158 131.58C288.6 131.561 289.977 130.975 290.99 129.948C292.003 128.922 292.571 127.537 292.571 126.095C292.571 124.653 292.003 123.268 290.989 122.242C289.976 121.216 288.599 120.63 287.157 120.611ZM272.909 120.612C271.455 120.612 270.06 121.19 269.032 122.218C268.003 123.247 267.425 124.642 267.425 126.096C267.425 127.551 268.003 128.946 269.032 129.974C270.06 131.003 271.455 131.581 272.909 131.581C274.364 131.581 275.759 131.003 276.787 129.974C277.816 128.946 278.394 127.551 278.394 126.096C278.394 124.642 277.816 123.247 276.787 122.218C275.759 121.19 274.364 120.612 272.909 120.612ZM285.517 113.757C285.517 114.477 285.375 115.19 285.099 115.856C284.824 116.521 284.42 117.125 283.911 117.635C283.402 118.144 282.797 118.548 282.132 118.823C281.466 119.099 280.753 119.241 280.033 119.241C279.313 119.241 278.6 119.099 277.935 118.823C277.269 118.548 276.665 118.144 276.156 117.635C275.646 117.125 275.242 116.521 274.967 115.856C274.691 115.19 274.549 114.477 274.549 113.757C274.549 112.303 275.127 110.908 276.156 109.88C277.184 108.851 278.579 108.273 280.033 108.273C281.488 108.273 282.882 108.851 283.911 109.88C284.939 110.908 285.517 112.303 285.517 113.757Z" fill="#F06A6A"/>
<g filter="url(#filter3_d_2_1465)">
<path d="M282.481 70.1145C295.307 70.1145 305.705 59.7166 305.705 46.8902C305.705 34.0639 295.307 23.666 282.481 23.666C269.654 23.666 259.256 34.0639 259.256 46.8902C259.256 59.7166 269.654 70.1145 282.481 70.1145Z" fill="white"/>
</g>
<path d="M273.541 53.6907C272.99 53.6917 272.448 53.5463 271.971 53.2696C271.494 52.9928 271.099 52.5945 270.827 52.1153C270.558 51.6394 270.425 51.0994 270.44 50.5533C270.455 50.0071 270.618 49.4753 270.911 49.0147L276.502 40.2364C276.788 39.7651 277.195 39.3781 277.68 39.1147C278.164 38.8513 278.71 38.7208 279.262 38.7366C279.813 38.7498 280.351 38.9091 280.82 39.1984C281.289 39.4877 281.673 39.8965 281.933 40.383C282.188 40.8658 282.308 41.409 282.278 41.9544C282.248 42.4999 282.071 43.0269 281.764 43.4791L276.177 52.2574C275.894 52.6989 275.504 53.0617 275.043 53.3123C274.582 53.5628 274.066 53.693 273.541 53.6907Z" fill="#F62B54"/>
<path d="M283.13 53.6894C282.58 53.6912 282.039 53.5465 281.562 53.2704C281.086 52.9942 280.692 52.5964 280.42 52.1177C280.152 51.6431 280.018 51.1045 280.033 50.5596C280.048 50.0147 280.212 49.4843 280.506 49.0253L286.085 40.267C286.367 39.7888 286.772 39.3947 287.258 39.1254C287.743 38.8561 288.292 38.7214 288.847 38.7354C289.402 38.7461 289.945 38.9054 290.417 39.1967C290.89 39.488 291.277 39.9006 291.536 40.3918C291.79 40.8789 291.906 41.4265 291.87 41.9748C291.835 42.5231 291.65 43.0512 291.335 43.5015L285.755 52.2598C285.473 52.6995 285.085 53.0611 284.626 53.311C284.167 53.5608 283.653 53.691 283.13 53.6894Z" fill="#FFCC00"/>
<path d="M292.505 53.7637C294.094 53.7637 295.382 52.5016 295.382 50.9454C295.382 49.39 294.094 48.1279 292.505 48.1279C290.915 48.1279 289.626 49.39 289.626 50.9454C289.626 52.5025 290.915 53.7637 292.505 53.7637Z" fill="#00CA72"/>
<g filter="url(#filter4_d_2_1465)">
<path d="M218.4 190.534C226.713 190.534 233.452 183.795 233.452 175.482C233.452 167.169 226.713 160.43 218.4 160.43C210.087 160.43 203.348 167.169 203.348 175.482C203.348 183.795 210.087 190.534 218.4 190.534Z" fill="white"/>
</g>
<path d="M224.68 167.678H212.119C211.277 167.678 210.594 168.36 210.594 169.202V181.763C210.594 182.605 211.277 183.287 212.119 183.287H224.68C225.522 183.287 226.205 182.605 226.205 181.763V169.202C226.205 168.36 225.522 167.678 224.68 167.678Z" fill="url(#paint2_linear_2_1465)"/>
<path d="M223.444 169.706H220.147C219.952 169.706 219.766 169.783 219.629 169.92C219.492 170.058 219.414 170.244 219.414 170.438V175.804C219.414 176.209 219.742 176.536 220.147 176.536H223.444C223.54 176.536 223.635 176.517 223.724 176.48C223.813 176.444 223.893 176.39 223.961 176.322C224.029 176.254 224.083 176.173 224.12 176.084C224.156 175.996 224.175 175.9 224.175 175.804V170.438C224.175 170.342 224.156 170.247 224.12 170.158C224.083 170.069 224.029 169.989 223.961 169.921C223.893 169.853 223.813 169.799 223.724 169.762C223.635 169.725 223.54 169.706 223.444 169.706ZM216.653 169.706H213.355C213.259 169.706 213.164 169.725 213.075 169.762C212.986 169.799 212.905 169.853 212.837 169.92C212.77 169.988 212.716 170.069 212.679 170.158C212.642 170.247 212.623 170.342 212.623 170.438V179.706C212.623 180.111 212.951 180.439 213.355 180.439H216.653C217.057 180.439 217.385 180.111 217.385 179.706V170.438C217.385 170.244 217.307 170.058 217.17 169.92C217.033 169.783 216.847 169.706 216.653 169.706Z" fill="white"/>
<g filter="url(#filter5_d_2_1465)">
<path d="M128.945 190.534C137.259 190.534 143.998 183.795 143.998 175.482C143.998 167.169 137.259 160.43 128.945 160.43C120.632 160.43 113.893 167.169 113.893 175.482C113.893 183.795 120.632 190.534 128.945 190.534Z" fill="white"/>
</g>
<path d="M124.469 175.419C124.469 175.419 125.219 174.246 126.241 174.246C127.786 174.2 129.058 177.202 129.286 177.624C131.012 173.496 133.875 170 136.192 167.678H121.879V184.733C121.879 185.389 121.811 185.999 121.697 186.633C123.56 186.304 125.4 185.835 127.172 185.178C131.512 183.512 133.216 181.753 133.216 181.753L133.33 181.636L133.398 181.777C133.67 182.481 134.079 183.114 134.488 183.747C135.079 184.521 135.397 184.591 135.625 184.521C135.874 184.451 136.011 184.005 136.079 183.325C136.146 182.621 136.192 181.097 136.192 179.196V168.991C132.035 174.505 128.922 182.762 128.922 182.762C128.922 182.762 126.854 175.395 124.469 175.419Z" fill="#003059"/>
<g filter="url(#filter6_d_2_1465)">
<path d="M110.147 51.5461C122.973 51.5461 133.371 41.1483 133.371 28.3219C133.371 15.4955 122.973 5.09766 110.147 5.09766C97.3202 5.09766 86.9224 15.4955 86.9224 28.3219C86.9224 41.1483 97.3202 51.5461 110.147 51.5461Z" fill="white"/>
</g>
<path d="M109.151 17.4221L99.2091 21.5353C99.0867 21.5862 98.9823 21.6724 98.9091 21.7829C98.8359 21.8934 98.7974 22.0232 98.7984 22.1558C98.7993 22.2883 98.8398 22.4175 98.9146 22.527C98.9894 22.6364 99.0951 22.721 99.2182 22.7701L109.201 26.7285C110.078 27.0764 111.055 27.0764 111.932 26.7285L121.915 22.7701C122.039 22.7214 122.145 22.6369 122.22 22.5274C122.295 22.4179 122.336 22.2885 122.337 22.1558C122.338 22.023 122.299 21.893 122.225 21.7825C122.152 21.6719 122.047 21.5858 121.924 21.5353L111.983 17.4212C111.076 17.0458 110.057 17.0458 109.15 17.4212" fill="#FCB400"/>
<path d="M111.454 28.8897V38.779C111.454 39.2498 111.928 39.5712 112.365 39.3982L123.489 35.081C123.613 35.0318 123.72 34.9465 123.794 34.836C123.869 34.7256 123.909 34.5952 123.909 34.4618V24.5725C123.909 24.4638 123.883 24.3567 123.832 24.2606C123.781 24.1646 123.707 24.0824 123.617 24.0213C123.527 23.9602 123.424 23.9221 123.316 23.9102C123.208 23.8984 123.098 23.9132 122.997 23.9533L111.873 28.2705C111.749 28.3197 111.643 28.405 111.568 28.5155C111.493 28.6259 111.453 28.7563 111.454 28.8897Z" fill="#18BFFF"/>
<path d="M108.855 29.4L105.554 30.9935L105.218 31.1556L98.2495 34.4948C97.8078 34.7079 97.2441 34.3856 97.2441 33.8957V24.6138C97.2441 24.4362 97.3352 24.2823 97.4572 24.1676C97.5075 24.1174 97.5645 24.0745 97.6266 24.0401C97.7179 23.9882 97.8195 23.9571 97.9243 23.9493C98.029 23.9414 98.1341 23.9569 98.2322 23.9946L108.8 28.1816C109.337 28.3946 109.379 29.1468 108.855 29.4Z" fill="#F82B60"/>
<path d="M108.856 29.4002L105.554 30.9937L97.4575 24.1669C97.5075 24.1173 97.5642 24.075 97.626 24.0412C97.7173 23.989 97.819 23.9576 97.9239 23.9494C98.0288 23.9412 98.1342 23.9564 98.2325 23.9939L108.8 28.1818C109.337 28.3948 109.379 29.147 108.856 29.4002Z" fill="black" fill-opacity="0.25"/>
<g filter="url(#filter7_d_2_1465)">
<path d="M208.938 37.4281C217.251 37.4281 223.991 30.6889 223.991 22.3756C223.991 14.0624 217.251 7.32324 208.938 7.32324C200.625 7.32324 193.886 14.0624 193.886 22.3756C193.886 30.6889 200.625 37.4281 208.938 37.4281Z" fill="white"/>
</g>
<path fill-rule="evenodd" clip-rule="evenodd" d="M204.163 16.8903C204.664 17.2964 204.851 17.2654 205.79 17.2026L214.647 16.6708C214.834 16.6708 214.678 16.4841 214.616 16.4523L213.145 15.3896C212.863 15.171 212.488 14.9197 211.768 14.9825L203.192 15.6081C202.88 15.6391 202.817 15.7957 202.942 15.9205L204.163 16.8903ZM204.695 18.9546V28.2729C204.695 28.7737 204.945 28.9613 205.508 28.9294L215.241 28.3667C215.805 28.3357 215.868 27.9915 215.868 27.5836V18.329C215.868 17.9229 215.711 17.7043 215.367 17.7353L205.195 18.329C204.82 18.3609 204.695 18.5476 204.695 18.9546ZM214.303 19.4545C214.365 19.7359 214.303 20.0173 214.021 20.0492L213.552 20.142V27.0217C213.145 27.2403 212.77 27.3659 212.457 27.3659C211.956 27.3659 211.83 27.2093 211.455 26.7403L208.387 21.925V26.5837L209.358 26.8032C209.358 26.8032 209.358 27.3659 208.575 27.3659L206.416 27.4907C206.353 27.3659 206.416 27.0536 206.635 26.9908L207.199 26.835V20.6729L206.416 20.6101C206.354 20.3287 206.509 19.9226 206.948 19.8907L209.264 19.735L212.457 24.6132V20.2996L211.643 20.2058C211.58 19.8616 211.83 19.6121 212.143 19.5811L214.303 19.4545ZM202.472 14.764L211.392 14.1074C212.488 14.0127 212.77 14.0756 213.458 14.5764L216.306 16.577C216.776 16.9212 216.932 17.015 216.932 17.3902V28.3676C216.932 29.0551 216.681 29.4622 215.805 29.5241L205.446 30.1506C204.788 30.1815 204.475 30.0877 204.131 29.6497L202.034 26.9288C201.659 26.428 201.502 26.0537 201.502 25.6157V15.8576C201.502 15.2958 201.753 14.8259 202.472 14.764Z" fill="black"/>
<g filter="url(#filter8_d_2_1465)">
<path d="M81.6364 130.324C89.9496 130.324 96.6888 123.584 96.6888 115.271C96.6888 106.958 89.9496 100.219 81.6364 100.219C73.3232 100.219 66.584 106.958 66.584 115.271C66.584 123.584 73.3232 130.324 81.6364 130.324Z" fill="white"/>
</g>
<path d="M77.3338 106.63H86.4963C87.4252 106.63 88.3159 106.999 88.9728 107.656C89.6297 108.313 89.999 109.203 89.9995 110.132V119.296C89.999 120.224 89.6297 121.115 88.9728 121.772C88.3159 122.429 87.4252 122.798 86.4963 122.798H77.3338C76.4051 122.797 75.5145 122.428 74.8578 121.771C74.2012 121.115 73.832 120.224 73.8315 119.296V110.132C73.832 109.203 74.2012 108.313 74.8578 107.656C75.5145 107 76.4051 106.63 77.3338 106.63Z" fill="#FFD02F"/>
<path d="M85.0657 108.648H83.2909L84.7697 111.246L81.5161 108.648H79.7404L81.3677 111.826L77.9656 108.648H76.1899L77.9656 112.692L76.1899 120.778H77.9656L81.3677 112.112L79.7404 120.778H81.5161L84.7697 111.539L83.2909 120.778H85.0666L88.3202 110.668L85.0657 108.648Z" fill="#050038"/>
<g filter="url(#filter9_d_2_1465)">
<path d="M32.1783 95.9182C45.0047 95.9182 55.4026 85.5203 55.4026 72.694C55.4026 59.8676 45.0047 49.4697 32.1783 49.4697C19.3519 49.4697 8.9541 59.8676 8.9541 72.694C8.9541 85.5203 19.3519 95.9182 32.1783 95.9182Z" fill="white"/>
</g>
<path d="M24.8714 70.7228C26.2037 70.7228 26.832 70.9459 27.7972 71.8246L32.9741 76.5352C33.127 76.6745 33.158 76.7301 33.189 76.8138C33.2012 76.8448 33.2062 76.8781 33.2035 76.9113C33.2035 76.9386 33.2035 76.9805 33.189 77.0087C33.158 77.0925 33.127 77.148 32.9741 77.2874L29.4354 80.5209C29.2824 80.6603 29.2214 80.6885 29.1295 80.7158C29.0985 80.7304 29.053 80.7304 29.022 80.7304C28.992 80.7304 28.9455 80.7304 28.9155 80.7158C28.8235 80.6885 28.7616 80.6603 28.6086 80.5209L18.5755 71.3921C18.2841 71.128 18.3915 70.7228 18.8823 70.7228H24.8714ZM39.484 64.9668C38.1518 64.9668 37.5235 65.1899 36.5591 66.0686L31.3814 70.7792C31.2284 70.9185 31.1975 70.9741 31.1674 71.0579C31.1519 71.0852 31.1519 71.1271 31.1519 71.1553C31.1519 71.1826 31.1519 71.2245 31.1674 71.2527C31.1975 71.3365 31.2284 71.3921 31.3814 71.5314L34.92 74.7513C35.073 74.8906 35.134 74.9189 35.226 74.9462C35.257 74.9598 35.3025 74.9598 35.3335 74.9598C35.3644 74.9598 35.4099 74.9598 35.4409 74.9462C35.532 74.9189 35.5939 74.8906 35.7469 74.7513L45.78 65.6224C46.0714 65.3574 45.9639 64.9531 45.4731 64.9531H39.484V64.9668Z" fill="#08CF65"/>
</g>
<g filter="url(#filter10_d_2_1465)">
<path d="M172.073 159.477C204.845 159.477 231.413 132.909 231.413 100.137C231.413 67.3643 204.845 40.7969 172.073 40.7969C139.3 40.7969 112.733 67.3643 112.733 100.137C112.733 132.909 139.3 159.477 172.073 159.477Z" fill="white"/>
</g>
<path d="M140.613 119.437L152.263 110.459C158.452 118.585 165.029 122.331 172.348 122.331C179.628 122.331 186.019 118.63 191.93 110.567L203.746 119.328C195.217 130.954 184.619 137.096 172.348 137.096C160.116 137.096 149.415 130.993 140.613 119.437Z" fill="url(#paint3_linear_2_1465)"/>
<path d="M172.31 80.4255L151.574 98.4L141.989 87.2177L172.354 60.8965L202.479 87.2377L192.851 98.3809L172.31 80.4255Z" fill="url(#paint4_linear_2_1465)"/>
</g>
</g>
</g>
<defs>
<filter id="filter0_f_2_1465" x="4.40104" y="0.5446" width="305.857" height="199.703" filterUnits="userSpaceOnUse" color-interpolation-filters="sRGB">
<feFlood flood-opacity="0" result="BackgroundImageFix"/>
<feBlend mode="normal" in="SourceGraphic" in2="BackgroundImageFix" result="shape"/>
<feGaussianBlur stdDeviation="2.27653" result="effect1_foregroundBlur_2_1465"/>
</filter>
<filter id="filter1_d_2_1465" x="14.5044" y="145.14" width="62.872" height="62.872" filterUnits="userSpaceOnUse" color-interpolation-filters="sRGB">
<feFlood flood-opacity="0" result="BackgroundImageFix"/>
<feColorMatrix in="SourceAlpha" type="matrix" values="0 0 0 0 0 0 0 0 0 0 0 0 0 0 0 0 0 0 127 0" result="hardAlpha"/>
<feOffset dy="4.10595"/>
<feGaussianBlur stdDeviation="4.10595"/>
<feComposite in2="hardAlpha" operator="out"/>
<feColorMatrix type="matrix" values="0 0 0 0 0.343614 0 0 0 0 0.154931 0 0 0 0 0.808333 0 0 0 0.18 0"/>
<feBlend mode="normal" in2="BackgroundImageFix" result="effect1_dropShadow_2_1465"/>
<feBlend mode="normal" in="SourceGraphic" in2="effect1_dropShadow_2_1465" result="shape"/>
</filter>
<filter id="filter2_d_2_1465" x="248.597" y="92.8872" width="62.872" height="62.872" filterUnits="userSpaceOnUse" color-interpolation-filters="sRGB">
<feFlood flood-opacity="0" result="BackgroundImageFix"/>
<feColorMatrix in="SourceAlpha" type="matrix" values="0 0 0 0 0 0 0 0 0 0 0 0 0 0 0 0 0 0 127 0" result="hardAlpha"/>
<feOffset dy="4.10595"/>
<feGaussianBlur stdDeviation="4.10595"/>
<feComposite in2="hardAlpha" operator="out"/>
<feColorMatrix type="matrix" values="0 0 0 0 0.343614 0 0 0 0 0.154931 0 0 0 0 0.808333 0 0 0 0.18 0"/>
<feBlend mode="normal" in2="BackgroundImageFix" result="effect1_dropShadow_2_1465"/>
<feBlend mode="normal" in="SourceGraphic" in2="effect1_dropShadow_2_1465" result="shape"/>
</filter>
<filter id="filter3_d_2_1465" x="251.044" y="19.5601" width="62.872" height="62.872" filterUnits="userSpaceOnUse" color-interpolation-filters="sRGB">
<feFlood flood-opacity="0" result="BackgroundImageFix"/>
<feColorMatrix in="SourceAlpha" type="matrix" values="0 0 0 0 0 0 0 0 0 0 0 0 0 0 0 0 0 0 127 0" result="hardAlpha"/>
<feOffset dy="4.10595"/>
<feGaussianBlur stdDeviation="4.10595"/>
<feComposite in2="hardAlpha" operator="out"/>
<feColorMatrix type="matrix" values="0 0 0 0 0.343614 0 0 0 0 0.154931 0 0 0 0 0.808333 0 0 0 0.18 0"/>
<feBlend mode="normal" in2="BackgroundImageFix" result="effect1_dropShadow_2_1465"/>
<feBlend mode="normal" in="SourceGraphic" in2="effect1_dropShadow_2_1465" result="shape"/>
</filter>
<filter id="filter4_d_2_1465" x="195.136" y="156.324" width="46.5288" height="46.5283" filterUnits="userSpaceOnUse" color-interpolation-filters="sRGB">
<feFlood flood-opacity="0" result="BackgroundImageFix"/>
<feColorMatrix in="SourceAlpha" type="matrix" values="0 0 0 0 0 0 0 0 0 0 0 0 0 0 0 0 0 0 127 0" result="hardAlpha"/>
<feOffset dy="4.10595"/>
<feGaussianBlur stdDeviation="4.10595"/>
<feComposite in2="hardAlpha" operator="out"/>
<feColorMatrix type="matrix" values="0 0 0 0 0.343614 0 0 0 0 0.154931 0 0 0 0 0.808333 0 0 0 0.18 0"/>
<feBlend mode="normal" in2="BackgroundImageFix" result="effect1_dropShadow_2_1465"/>
<feBlend mode="normal" in="SourceGraphic" in2="effect1_dropShadow_2_1465" result="shape"/>
</filter>
<filter id="filter5_d_2_1465" x="105.681" y="156.324" width="46.5288" height="46.5283" filterUnits="userSpaceOnUse" color-interpolation-filters="sRGB">
<feFlood flood-opacity="0" result="BackgroundImageFix"/>
<feColorMatrix in="SourceAlpha" type="matrix" values="0 0 0 0 0 0 0 0 0 0 0 0 0 0 0 0 0 0 127 0" result="hardAlpha"/>
<feOffset dy="4.10595"/>
<feGaussianBlur stdDeviation="4.10595"/>
<feComposite in2="hardAlpha" operator="out"/>
<feColorMatrix type="matrix" values="0 0 0 0 0.343614 0 0 0 0 0.154931 0 0 0 0 0.808333 0 0 0 0.18 0"/>
<feBlend mode="normal" in2="BackgroundImageFix" result="effect1_dropShadow_2_1465"/>
<feBlend mode="normal" in="SourceGraphic" in2="effect1_dropShadow_2_1465" result="shape"/>
</filter>
<filter id="filter6_d_2_1465" x="78.7105" y="0.99171" width="62.872" height="62.872" filterUnits="userSpaceOnUse" color-interpolation-filters="sRGB">
<feFlood flood-opacity="0" result="BackgroundImageFix"/>
<feColorMatrix in="SourceAlpha" type="matrix" values="0 0 0 0 0 0 0 0 0 0 0 0 0 0 0 0 0 0 127 0" result="hardAlpha"/>
<feOffset dy="4.10595"/>
<feGaussianBlur stdDeviation="4.10595"/>
<feComposite in2="hardAlpha" operator="out"/>
<feColorMatrix type="matrix" values="0 0 0 0 0.343614 0 0 0 0 0.154931 0 0 0 0 0.808333 0 0 0 0.18 0"/>
<feBlend mode="normal" in2="BackgroundImageFix" result="effect1_dropShadow_2_1465"/>
<feBlend mode="normal" in="SourceGraphic" in2="effect1_dropShadow_2_1465" result="shape"/>
</filter>
<filter id="filter7_d_2_1465" x="185.674" y="3.2173" width="46.5288" height="46.5283" filterUnits="userSpaceOnUse" color-interpolation-filters="sRGB">
<feFlood flood-opacity="0" result="BackgroundImageFix"/>
<feColorMatrix in="SourceAlpha" type="matrix" values="0 0 0 0 0 0 0 0 0 0 0 0 0 0 0 0 0 0 127 0" result="hardAlpha"/>
<feOffset dy="4.10595"/>
<feGaussianBlur stdDeviation="4.10595"/>
<feComposite in2="hardAlpha" operator="out"/>
<feColorMatrix type="matrix" values="0 0 0 0 0.343614 0 0 0 0 0.154931 0 0 0 0 0.808333 0 0 0 0.18 0"/>
<feBlend mode="normal" in2="BackgroundImageFix" result="effect1_dropShadow_2_1465"/>
<feBlend mode="normal" in="SourceGraphic" in2="effect1_dropShadow_2_1465" result="shape"/>
</filter>
<filter id="filter8_d_2_1465" x="58.3721" y="96.1128" width="46.5288" height="46.5283" filterUnits="userSpaceOnUse" color-interpolation-filters="sRGB">
<feFlood flood-opacity="0" result="BackgroundImageFix"/>
<feColorMatrix in="SourceAlpha" type="matrix" values="0 0 0 0 0 0 0 0 0 0 0 0 0 0 0 0 0 0 127 0" result="hardAlpha"/>
<feOffset dy="4.10595"/>
<feGaussianBlur stdDeviation="4.10595"/>
<feComposite in2="hardAlpha" operator="out"/>
<feColorMatrix type="matrix" values="0 0 0 0 0.343614 0 0 0 0 0.154931 0 0 0 0 0.808333 0 0 0 0.18 0"/>
<feBlend mode="normal" in2="BackgroundImageFix" result="effect1_dropShadow_2_1465"/>
<feBlend mode="normal" in="SourceGraphic" in2="effect1_dropShadow_2_1465" result="shape"/>
</filter>
<filter id="filter9_d_2_1465" x="0.742208" y="45.3638" width="62.872" height="62.872" filterUnits="userSpaceOnUse" color-interpolation-filters="sRGB">
<feFlood flood-opacity="0" result="BackgroundImageFix"/>
<feColorMatrix in="SourceAlpha" type="matrix" values="0 0 0 0 0 0 0 0 0 0 0 0 0 0 0 0 0 0 127 0" result="hardAlpha"/>
<feOffset dy="4.10595"/>
<feGaussianBlur stdDeviation="4.10595"/>
<feComposite in2="hardAlpha" operator="out"/>
<feColorMatrix type="matrix" values="0 0 0 0 0.343614 0 0 0 0 0.154931 0 0 0 0 0.808333 0 0 0 0.18 0"/>
<feBlend mode="normal" in2="BackgroundImageFix" result="effect1_dropShadow_2_1465"/>
<feBlend mode="normal" in="SourceGraphic" in2="effect1_dropShadow_2_1465" result="shape"/>
</filter>
<filter id="filter10_d_2_1465" x="100.088" y="34.4745" width="143.97" height="143.969" filterUnits="userSpaceOnUse" color-interpolation-filters="sRGB">
<feFlood flood-opacity="0" result="BackgroundImageFix"/>
<feColorMatrix in="SourceAlpha" type="matrix" values="0 0 0 0 0 0 0 0 0 0 0 0 0 0 0 0 0 0 127 0" result="hardAlpha"/>
<feOffset dy="6.32237"/>
<feGaussianBlur stdDeviation="6.32237"/>
<feComposite in2="hardAlpha" operator="out"/>
<feColorMatrix type="matrix" values="0 0 0 0 0.343614 0 0 0 0 0.154931 0 0 0 0 0.808333 0 0 0 0.18 0"/>
<feBlend mode="normal" in2="BackgroundImageFix" result="effect1_dropShadow_2_1465"/>
<feBlend mode="normal" in="SourceGraphic" in2="effect1_dropShadow_2_1465" result="shape"/>
</filter>
<linearGradient id="paint0_linear_2_1465" x1="2956.17" y1="172.92" x2="1799.15" y2="1525.07" gradientUnits="userSpaceOnUse">
<stop offset="0.18" stop-color="#0052CC"/>
<stop offset="1" stop-color="#2684FF"/>
</linearGradient>
<linearGradient id="paint1_linear_2_1465" x1="3029.27" y1="188.003" x2="1690.89" y2="1662.78" gradientUnits="userSpaceOnUse">
<stop offset="0.18" stop-color="#0052CC"/>
<stop offset="1" stop-color="#2684FF"/>
</linearGradient>
<linearGradient id="paint2_linear_2_1465" x1="991.1" y1="167.678" x2="991.1" y2="1728.68" gradientUnits="userSpaceOnUse">
<stop stop-color="#0091E6"/>
<stop offset="1" stop-color="#0079BF"/>
</linearGradient>
<linearGradient id="paint3_linear_2_1465" x1="140.613" y1="128.575" x2="203.746" y2="128.575" gradientUnits="userSpaceOnUse">
<stop stop-color="#8930FD"/>
<stop offset="1" stop-color="#49CCF9"/>
</linearGradient>
<linearGradient id="paint4_linear_2_1465" x1="141.989" y1="86.4027" x2="202.479" y2="86.4027" gradientUnits="userSpaceOnUse">
<stop stop-color="#FF02F0"/>
<stop offset="1" stop-color="#FFC800"/>
</linearGradient>
<clipPath id="clip0_2_1465">
<rect width="314.17" height="208.53" fill="white" transform="translate(0.113281 0.0380859)"/>
</clipPath>
<clipPath id="clip1_2_1465">
<rect width="314.17" height="208.53" fill="white" transform="translate(0.113281 0.0380859)"/>
</clipPath>
<clipPath id="clip2_2_1465">
<rect width="314.161" height="208.53" fill="white" transform="translate(0.117676 0.0380859)"/>
</clipPath>
</defs>
</svg>
