<svg width="100" height="142" viewBox="0 0 100 142" fill="none" xmlns="http://www.w3.org/2000/svg">
<g clip-path="url(#clip0_2_1569)">
<g clip-path="url(#clip1_2_1569)">
<g clip-path="url(#clip2_2_1569)">
<path d="M-29.6567 105.528L-5.84674 87.2881C6.80326 103.798 20.2433 111.408 35.2033 111.408C50.0833 111.408 63.1433 103.888 75.2233 87.5081L99.3733 105.308C81.9433 128.928 60.2833 141.408 35.2033 141.408C10.2033 141.408 -11.6667 129.008 -29.6567 105.528Z" fill="url(#paint0_linear_2_1569)"/>
<path d="M35.1233 26.2484L-7.25668 62.7684L-26.8467 40.0484L35.2133 -13.4316L96.7833 40.0884L77.1033 62.7284L35.1233 26.2484Z" fill="url(#paint1_linear_2_1569)"/>
</g>
</g>
</g>
<defs>
<linearGradient id="paint0_linear_2_1569" x1="-29.6567" y1="3767.99" x2="99.3733" y2="3767.99" gradientUnits="userSpaceOnUse">
<stop stop-color="#8930FD"/>
<stop offset="1" stop-color="#49CCF9"/>
</linearGradient>
<linearGradient id="paint1_linear_2_1569" x1="-26.8467" y1="5168.93" x2="96.7833" y2="5168.93" gradientUnits="userSpaceOnUse">
<stop stop-color="#FF02F0"/>
<stop offset="1" stop-color="#FFC800"/>
</linearGradient>
<clipPath id="clip0_2_1569">
<rect width="130" height="155" fill="white" transform="translate(-30.0566 -13.5918)"/>
</clipPath>
<clipPath id="clip1_2_1569">
<rect width="130" height="155" fill="white" transform="translate(-30.0566 -13.5918)"/>
</clipPath>
<clipPath id="clip2_2_1569">
<rect width="130" height="155" fill="white" transform="translate(-30.0566 -13.5918)"/>
</clipPath>
</defs>
</svg>
