<svg width="316" height="219" viewBox="0 0 316 219" fill="none" xmlns="http://www.w3.org/2000/svg">
<g clip-path="url(#clip0_2_1393)">
<g clip-path="url(#clip1_2_1393)">
<g clip-path="url(#clip2_2_1393)">
<path d="M104.278 125.783C104.278 113.943 113.875 104.346 125.715 104.346C137.554 104.346 147.152 113.943 147.152 125.783" stroke="white" stroke-width="0.456632" stroke-dasharray="1.83 1.83"/>
<g filter="url(#filter0_d_2_1393)">
<path d="M46.9034 205.397C59.767 205.397 70.195 194.969 70.195 182.105C70.195 169.241 59.767 158.813 46.9034 158.813C34.0398 158.813 23.6118 169.241 23.6118 182.105C23.6118 194.969 34.0398 205.397 46.9034 205.397Z" fill="white"/>
</g>
<mask id="mask0_2_1393" style="mask-type:luminance" maskUnits="userSpaceOnUse" x="33" y="169" width="26" height="26">
<path d="M58.1175 169.165H33.1006V194.182H58.1175V169.165Z" fill="white"/>
</mask>
<g mask="url(#mask0_2_1393)">
<path d="M55.8443 171.846H45.0879C45.0879 173.133 45.5995 174.368 46.51 175.279C47.4206 176.189 48.6557 176.702 49.9434 176.702H51.9249V178.614C51.9267 181.293 54.0982 183.465 56.7774 183.467V172.778C56.7774 172.263 56.3598 171.846 55.8443 171.846Z" fill="#2684FF"/>
<path d="M50.5219 177.205H39.7656C39.7673 179.885 41.9387 182.056 44.6181 182.058H46.5995V183.977C46.6029 186.656 48.7759 188.826 51.4551 188.826V178.138C51.4551 177.623 51.0372 177.205 50.5219 177.205Z" fill="url(#paint0_linear_2_1393)"/>
<path d="M45.1968 182.562H34.4404C34.4404 185.243 36.6145 187.416 39.2961 187.416H41.2837V189.33C41.2854 192.007 43.4532 194.177 46.13 194.182V183.494C46.13 182.979 45.7122 182.562 45.1968 182.562Z" fill="url(#paint1_linear_2_1393)"/>
</g>
<g filter="url(#filter1_d_2_1393)">
<path d="M281.678 152.991C294.541 152.991 304.969 142.563 304.969 129.7C304.969 116.836 294.541 106.408 281.678 106.408C268.814 106.408 258.386 116.836 258.386 129.7C258.386 142.563 268.814 152.991 281.678 152.991Z" fill="white"/>
</g>
<path fill-rule="evenodd" clip-rule="evenodd" d="M288.822 130.095C285.785 130.095 283.323 132.559 283.323 135.596C283.323 138.634 285.785 141.096 288.822 141.096C291.86 141.096 294.322 138.634 294.322 135.596C294.322 132.559 291.86 130.095 288.822 130.095ZM274.533 130.096C271.497 130.096 269.034 132.559 269.034 135.596C269.034 138.634 271.497 141.096 274.533 141.096C277.571 141.096 280.034 138.634 280.034 135.596C280.034 132.559 277.571 130.096 274.533 130.096ZM287.178 123.221C287.178 126.259 284.715 128.721 281.678 128.721C278.64 128.721 276.178 126.259 276.178 123.221C276.178 120.184 278.64 117.722 281.678 117.722C284.715 117.722 287.178 120.184 287.178 123.221Z" fill="#F06A6A"/>
<g filter="url(#filter2_d_2_1393)">
<path d="M282.877 79.4953C295.74 79.4953 306.168 69.0673 306.168 56.2037C306.168 43.3401 295.74 32.9121 282.877 32.9121C270.013 32.9121 259.585 43.3401 259.585 56.2037C259.585 69.0673 270.013 79.4953 282.877 79.4953Z" fill="white"/>
</g>
<path d="M273.911 63.0234C273.358 63.0246 272.814 62.879 272.337 62.6015C271.858 62.3238 271.462 61.9243 271.189 61.4435C270.919 60.9663 270.785 60.4246 270.801 59.8768C270.815 59.329 270.98 58.7956 271.275 58.3338L276.881 49.5296C277.168 49.0565 277.575 48.6679 278.061 48.4037C278.548 48.1395 279.095 48.0091 279.648 48.0259C280.201 48.0391 280.74 48.1989 281.211 48.4891C281.681 48.7791 282.067 49.1891 282.327 49.6769C282.849 50.6652 282.784 51.8542 282.158 52.7819L276.555 61.5861C276.271 62.0288 275.88 62.3927 275.418 62.644C274.955 62.8952 274.437 63.0258 273.911 63.0234Z" fill="#F62B54"/>
<path d="M283.528 63.0231C282.397 63.0231 281.357 62.4184 280.81 61.4468C280.542 60.9708 280.408 60.4306 280.423 59.8842C280.438 59.3379 280.602 58.8059 280.896 58.3453L286.492 49.5614C286.775 49.0815 287.18 48.6861 287.668 48.416C288.155 48.1459 288.705 48.0111 289.262 48.0254C290.402 48.0504 291.436 48.6883 291.958 49.686C292.477 50.6839 292.401 51.88 291.757 52.8053L286.162 61.5893C285.879 62.0302 285.489 62.3926 285.029 62.6432C284.568 62.8937 284.052 63.0244 283.528 63.0231Z" fill="#FFCC00"/>
<path d="M292.93 63.0969C294.524 63.0969 295.817 61.8318 295.817 60.2711C295.817 58.7105 294.524 57.4453 292.93 57.4453C291.336 57.4453 290.043 58.7105 290.043 60.2711C290.043 61.8318 291.336 63.0969 292.93 63.0969Z" fill="#00CA72"/>
<g filter="url(#filter3_d_2_1393)">
<path d="M219.865 200.222C228.203 200.222 234.961 193.463 234.961 185.126C234.961 176.788 228.203 170.029 219.865 170.029C211.527 170.029 204.769 176.788 204.769 185.126C204.769 193.463 211.527 200.222 219.865 200.222Z" fill="white"/>
</g>
<path d="M226.164 177.298H213.565C212.722 177.298 212.037 177.982 212.037 178.827V191.424C212.037 192.269 212.722 192.953 213.565 192.953H226.164C227.008 192.953 227.693 192.269 227.693 191.424V178.827C227.693 177.982 227.008 177.298 226.164 177.298Z" fill="url(#paint2_linear_2_1393)"/>
<path d="M224.924 179.333H221.617C221.212 179.333 220.883 179.662 220.883 180.067V185.449C220.883 185.855 221.212 186.182 221.617 186.182H224.924C225.329 186.182 225.657 185.855 225.657 185.449V180.067C225.657 179.662 225.329 179.333 224.924 179.333Z" fill="white"/>
<path d="M218.112 179.333H214.806C214.4 179.333 214.071 179.662 214.071 180.067V189.362C214.071 189.768 214.4 190.097 214.806 190.097H218.112C218.518 190.097 218.847 189.768 218.847 189.362V180.067C218.847 179.662 218.518 179.333 218.112 179.333Z" fill="white"/>
<g filter="url(#filter4_d_2_1393)">
<path d="M130.15 200.222C138.487 200.222 145.246 193.463 145.246 185.126C145.246 176.788 138.487 170.029 130.15 170.029C121.812 170.029 115.053 176.788 115.053 185.126C115.053 193.463 121.812 200.222 130.15 200.222Z" fill="white"/>
</g>
<path d="M125.66 185.061C125.66 185.061 126.413 183.885 127.438 183.885C128.987 183.839 130.263 186.85 130.492 187.273C132.223 183.133 135.094 179.627 137.418 177.298H123.063C123.063 178.733 123.063 193.202 123.063 194.402C123.063 195.061 122.995 195.673 122.88 196.308C124.749 195.979 126.595 195.508 128.372 194.849C132.724 193.179 134.433 191.414 134.433 191.414L134.547 191.296L134.616 191.438C134.889 192.144 135.299 192.779 135.709 193.414C136.302 194.19 136.62 194.261 136.849 194.19C137.099 194.12 137.236 193.673 137.304 192.99C137.372 192.285 137.418 190.756 137.418 188.85V178.615C133.249 184.145 130.126 192.426 130.126 192.426C130.126 192.426 128.053 185.038 125.66 185.061Z" fill="#003059"/>
<g filter="url(#filter5_d_2_1393)">
<path d="M126.822 54.4357C139.685 54.4357 150.113 44.0077 150.113 31.1441C150.113 18.2805 139.685 7.85254 126.822 7.85254C113.958 7.85254 103.53 18.2805 103.53 31.1441C103.53 44.0077 113.958 54.4357 126.822 54.4357Z" fill="white"/>
</g>
<path d="M125.824 20.2111L115.853 24.3367C115.298 24.5661 115.305 25.3538 115.862 25.575L125.874 29.5452C126.753 29.8941 127.733 29.8941 128.613 29.5452L138.625 25.5748C139.183 25.3538 139.189 24.5663 138.634 24.3369L128.664 20.211C127.754 19.8346 126.732 19.8346 125.823 20.211" fill="#FCB400"/>
<path d="M128.132 31.7137V41.6322C128.132 42.1038 128.608 42.4269 129.047 42.2531L140.203 37.9228C140.327 37.8734 140.434 37.7879 140.509 37.6771C140.584 37.5664 140.624 37.4356 140.624 37.3017V27.3834C140.624 26.9117 140.148 26.5887 139.71 26.7625L128.553 31.0928C128.429 31.1422 128.322 31.2278 128.247 31.3385C128.173 31.4492 128.132 31.5798 128.132 31.7137Z" fill="#18BFFF"/>
<path d="M125.527 32.2255L122.216 33.8241L121.879 33.9866L114.89 37.3356C114.447 37.5493 113.882 37.2264 113.882 36.7342V27.4251C113.882 27.247 113.973 27.0933 114.096 26.9776C114.146 26.9276 114.203 26.8849 114.265 26.8506C114.432 26.7505 114.67 26.7237 114.873 26.8038L125.471 31.0033C126.01 31.217 126.052 31.9717 125.527 32.2255Z" fill="#F82B60"/>
<path d="M125.527 32.2255L122.216 33.8241L114.096 26.9775C114.146 26.9275 114.203 26.8848 114.265 26.8506C114.432 26.7505 114.67 26.7237 114.873 26.8038L125.471 31.0033C126.01 31.217 126.052 31.9717 125.527 32.2255Z" fill="black" fill-opacity="0.25"/>
<g filter="url(#filter6_d_2_1393)">
<path d="M209.462 41.1899C217.8 41.1899 224.559 34.431 224.559 26.0935C224.559 17.756 217.8 10.9971 209.462 10.9971C201.125 10.9971 194.366 17.756 194.366 26.0935C194.366 34.431 201.125 41.1899 209.462 41.1899Z" fill="white"/>
</g>
<path fill-rule="evenodd" clip-rule="evenodd" d="M204.673 20.5918C205.175 20.9995 205.363 20.9683 206.305 20.9055L215.187 20.3721C215.375 20.3721 215.219 20.1842 215.156 20.153L213.681 19.0865C213.398 18.8671 213.022 18.6158 212.301 18.6787L203.699 19.306C203.386 19.337 203.323 19.4939 203.448 19.6196L204.673 20.5918ZM205.206 22.6618V32.0075C205.206 32.5098 205.457 32.6976 206.022 32.6666L215.784 32.1017C216.349 32.0707 216.412 31.7252 216.412 31.3171V22.0342C216.412 21.6269 216.255 21.4072 215.91 21.4386L205.709 22.0342C205.332 22.0659 205.206 22.2542 205.206 22.6618ZM214.843 23.1632C214.905 23.4456 214.843 23.7279 214.56 23.7597L214.09 23.8534V30.753C213.681 30.9725 213.305 31.098 212.991 31.098C212.489 31.098 212.363 30.941 211.986 30.4708L208.91 25.6411V30.314L209.883 30.5337C209.883 30.5337 209.883 31.098 209.098 31.098L206.932 31.2235C206.869 31.098 206.932 30.7846 207.152 30.7218L207.718 30.5652V24.3868L206.932 24.3238C206.87 24.0414 207.026 23.6339 207.467 23.6023L209.789 23.4457L212.991 28.3383V24.0102L212.174 23.9165C212.111 23.5711 212.363 23.3203 212.677 23.2893L214.843 23.1632ZM202.977 18.4592L211.923 17.8005C213.022 17.7062 213.305 17.7693 213.996 18.2709L216.851 20.2781C217.323 20.6232 217.48 20.7172 217.48 21.0934V32.1017C217.48 32.7916 217.228 33.1997 216.349 33.262L205.96 33.8894C205.3 33.9209 204.986 33.8269 204.641 33.3875L202.538 30.659C202.161 30.1567 202.004 29.781 202.004 29.3415V19.5565C202.004 18.9924 202.256 18.5217 202.977 18.4592Z" fill="black"/>
<g filter="url(#filter7_d_2_1393)">
<path d="M82.7034 139.836C91.0409 139.836 97.7998 133.078 97.7998 124.74C97.7998 116.402 91.0409 109.644 82.7034 109.644C74.3658 109.644 67.6069 116.402 67.6069 124.74C67.6069 133.078 74.3658 139.836 82.7034 139.836Z" fill="white"/>
</g>
<path d="M78.3881 116.073H87.5775C89.5161 116.073 91.0901 117.648 91.0901 119.586V128.776C91.0901 130.714 89.5161 132.288 87.5775 132.288H78.3881C76.4494 132.288 74.8755 130.714 74.8755 128.776V119.586C74.8755 117.648 76.4494 116.073 78.3881 116.073Z" fill="#FFD02F"/>
<path d="M86.1428 118.098H84.3625L85.8453 120.703L82.5822 118.098H80.8018L82.4334 121.284L79.0215 118.098H77.2412L79.0215 122.153L77.2412 130.262H79.0215L82.4334 121.572L80.8018 130.262H82.5822L85.8453 120.996L84.3625 130.262H86.1428L89.4059 120.123L86.1428 118.098Z" fill="#050038"/>
<g filter="url(#filter8_d_2_1393)">
<path d="M33.1007 105.329C45.9643 105.329 56.3923 94.9013 56.3923 82.0377C56.3923 69.1741 45.9643 58.7461 33.1007 58.7461C20.2371 58.7461 9.80908 69.1741 9.80908 82.0377C9.80908 94.9013 20.2371 105.329 33.1007 105.329Z" fill="white"/>
</g>
<path d="M25.7729 80.0615C27.1094 80.0615 27.7392 80.2852 28.7071 81.1657L33.8995 85.8902C34.0531 86.0301 34.0838 86.086 34.1146 86.1698C34.1299 86.1978 34.1299 86.2398 34.1299 86.2677C34.1299 86.2956 34.1299 86.3376 34.1146 86.3655C34.0838 86.4494 34.0531 86.5053 33.8995 86.6451L30.3508 89.888C30.1972 90.0277 30.1357 90.0556 30.0436 90.0837C30.0128 90.0977 29.9668 90.0977 29.936 90.0977C29.9053 90.0977 29.8592 90.0977 29.8285 90.0837C29.7364 90.0556 29.6749 90.0277 29.5213 89.888L19.4591 80.7324C19.1672 80.4668 19.2748 80.0615 19.7664 80.0615H25.7729Z" fill="#08CF65"/>
<path d="M40.4283 74.2884C39.0918 74.2884 38.4619 74.512 37.4942 75.3926L32.3017 80.1172C32.1481 80.2569 32.1174 80.3129 32.0866 80.3967C32.0713 80.4247 32.0713 80.4666 32.0713 80.4946C32.0713 80.5225 32.0713 80.5644 32.0866 80.5925C32.1174 80.6763 32.1481 80.7322 32.3017 80.872L35.8504 84.1009C36.004 84.2407 36.0654 84.2686 36.1576 84.2966C36.1884 84.3105 36.2344 84.3105 36.2652 84.3105C36.2959 84.3105 36.342 84.3105 36.3727 84.2966C36.4649 84.2686 36.5263 84.2407 36.6799 84.1009L46.7422 74.9454C47.034 74.6798 46.9265 74.2744 46.4348 74.2744H40.4283V74.2884Z" fill="#08CF65"/>
<g filter="url(#filter9_d_2_1393)">
<path d="M168.105 153.639C192.165 153.639 211.669 134.134 211.669 110.075C211.669 86.015 192.165 66.5107 168.105 66.5107C144.045 66.5107 124.541 86.015 124.541 110.075C124.541 134.134 144.045 153.639 168.105 153.639Z" fill="white"/>
</g>
<path d="M145.077 123.757L153.63 117.166C158.174 123.131 163.002 125.881 168.375 125.881C173.721 125.881 178.411 123.164 182.751 117.245L191.425 123.678C185.165 132.212 177.384 136.721 168.375 136.721C159.395 136.721 151.539 132.24 145.077 123.757Z" fill="url(#paint3_linear_2_1393)"/>
<path d="M168.348 95.118L153.125 108.314L146.088 100.104L168.38 80.7803L190.496 100.118L183.427 108.299L168.348 95.118Z" fill="url(#paint4_linear_2_1393)"/>
<path fill-rule="evenodd" clip-rule="evenodd" d="M126.692 0.495118C126.388 0.495258 126.084 0.499864 125.781 0.50887L125.788 0.737085L125.801 1.19352L125.808 1.42173C126.104 1.41292 126.402 1.40845 126.699 1.40838C126.998 1.40845 127.295 1.41292 127.592 1.42173L127.598 1.19352L127.612 0.737085L127.618 0.50887C127.316 0.499864 127.012 0.495258 126.707 0.495118C126.702 0.495116 126.698 0.495118 126.692 0.495118ZM123.937 0.618862C123.32 0.674224 122.708 0.747892 122.103 0.839323L122.137 1.06508L122.205 1.5166L122.239 1.74236C122.826 1.65366 123.42 1.58218 124.018 1.52847L123.998 1.30106L123.957 0.846264L123.937 0.618862ZM120.284 1.17059C119.678 1.29993 119.08 1.44717 118.488 1.61173L118.549 1.8317L118.672 2.27162L118.733 2.49158C119.306 2.33196 119.887 2.18916 120.475 2.0637L120.427 1.84043L120.331 1.39388L120.284 1.17059ZM116.723 2.16116C116.139 2.36272 115.563 2.58148 114.996 2.81682L115.083 3.02772L115.258 3.44952L115.346 3.66042C115.895 3.43215 116.454 3.21998 117.021 3.02447L116.947 2.80864L116.798 2.37699L116.723 2.16116ZM113.311 3.57634C112.756 3.84709 112.209 4.13412 111.674 4.43682L111.787 4.63558L112.011 5.03311L112.124 5.23187C112.643 4.93822 113.172 4.65978 113.711 4.39715L113.61 4.19195L113.41 3.78155L113.311 3.57634ZM110.093 5.39447C109.576 5.72985 109.069 6.08044 108.574 6.4456L108.709 6.6294L108.98 6.99698L109.115 7.18077C109.596 6.82646 110.088 6.48632 110.59 6.16094L110.466 5.96932L110.218 5.58609L110.093 5.39447ZM107.119 7.58634C106.646 7.98122 106.185 8.39012 105.736 8.8124L105.893 8.97862L106.206 9.31103L106.363 9.47725C106.797 9.06751 107.245 8.67075 107.704 8.2876L107.558 8.11229L107.266 7.76166L107.119 7.58634ZM104.429 10.1192C104.007 10.5676 103.598 11.0288 103.204 11.5021L103.379 11.6483L103.73 11.941L103.905 12.0872C104.288 11.6279 104.685 11.1804 105.094 10.7453L104.928 10.5888L104.596 10.2757L104.429 10.1192ZM102.063 12.9561C101.698 13.4517 101.347 13.9585 101.012 14.4762L101.204 14.6003L101.586 14.8486L101.778 14.9727C102.103 14.4705 102.444 13.9787 102.798 13.498L102.614 13.3625L102.247 13.0917L102.063 12.9561ZM100.054 16.057C99.7517 16.5926 99.464 17.1382 99.1937 17.6931L99.3991 17.7932L99.8092 17.9934L100.015 18.0935C100.277 17.5552 100.555 17.0259 100.849 16.5064L100.65 16.394L100.253 16.1694L100.054 16.057ZM98.4338 19.3782C98.1991 19.9457 97.9799 20.5218 97.7781 21.106L97.9945 21.1804L98.4256 21.3294L98.642 21.4039C98.8375 20.8373 99.0494 20.2785 99.2777 19.728L99.0667 19.6406L98.6448 19.4656L98.4338 19.3782ZM97.2292 22.8708C97.0648 23.4623 96.9169 24.061 96.7881 24.6663L97.011 24.714L97.4575 24.8094L97.6813 24.8572C97.8064 24.27 97.9489 23.6893 98.1087 23.1157L97.8886 23.0545L97.4493 22.932L97.2292 22.8708ZM96.4566 26.4854C96.3653 27.0911 96.2913 27.7026 96.2365 28.3193L96.4639 28.3398L96.9187 28.3806L97.1461 28.401C97.1991 27.8025 97.2712 27.2093 97.3598 26.6217L97.1342 26.5876L96.6822 26.5195L96.4566 26.4854ZM96.126 30.1634C96.1169 30.471 96.1123 30.7797 96.1123 31.0894C96.1123 31.3992 96.1169 31.7079 96.126 32.0155L96.3543 32.0087L96.811 31.9951L97.0393 31.9884C97.0301 31.6898 97.0256 31.3902 97.0256 31.0894C97.0256 30.7887 97.0301 30.4891 97.0393 30.1905L96.811 30.1838L96.3543 30.1702L96.126 30.1634ZM96.2365 33.8596C96.2913 34.4763 96.3653 35.0878 96.4566 35.6935L96.6822 35.6594L97.1342 35.5913L97.3598 35.5572C97.2712 34.9696 97.1991 34.3764 97.1461 33.7779L96.9187 33.7984L96.4639 33.8392L96.2365 33.8596ZM96.7881 37.5126C96.9169 38.1179 97.0648 38.7166 97.2292 39.3081L97.4493 39.2469L97.8886 39.1244L98.1087 39.0632C97.9489 38.4896 97.8064 37.9089 97.6813 37.3217L97.4575 37.3695L97.011 37.4648L96.7881 37.5126ZM97.7781 41.0729C97.9799 41.6571 98.1991 42.2332 98.4338 42.8007L98.6448 42.7133L99.0667 42.5383L99.2777 42.4509C99.0494 41.9004 98.8375 41.3416 98.642 40.775L98.4256 40.8495L97.9945 40.9984L97.7781 41.0729ZM99.1937 44.4857C99.464 45.0407 99.7517 45.5863 100.054 46.1219L100.253 46.0095L100.65 45.7849L100.849 45.6725C100.555 45.153 100.277 44.6237 100.015 44.0854L99.8092 44.1855L99.3991 44.3856L99.1937 44.4857ZM101.012 47.7027C101.347 48.2204 101.698 48.7272 102.063 49.2228L102.247 49.0872L102.614 48.8163L102.798 48.6809C102.444 48.2002 102.103 47.7084 101.778 47.2062L101.586 47.3303L101.204 47.5786L101.012 47.7027ZM103.204 50.6768C103.598 51.1501 104.007 51.6113 104.429 52.0597L104.596 51.9032L104.928 51.5901L105.094 51.4336C104.685 50.9985 104.288 50.551 103.905 50.0917L103.73 50.2379L103.379 50.5305L103.204 50.6768ZM105.736 53.3665C106.185 53.7888 106.646 54.1977 107.119 54.5926L107.266 54.4172L107.558 54.0666L107.704 53.8913C107.245 53.5081 106.797 53.1113 106.363 52.7016L106.206 52.8679L105.893 53.2003L105.736 53.3665ZM108.574 55.7333C109.069 56.0984 109.576 56.449 110.093 56.7844L110.218 56.5928L110.466 56.2096L110.59 56.018C110.088 55.6926 109.596 55.3524 109.115 54.9981L108.98 55.1819L108.709 55.5495L108.574 55.7333ZM111.674 57.742C112.209 58.0448 112.756 58.3318 113.311 58.6025L113.41 58.3973L113.61 57.987L113.711 57.7818C113.172 57.5191 112.643 57.2407 112.124 56.947L112.011 57.1458L111.787 57.5433L111.674 57.742ZM114.996 59.3621C115.563 59.5974 116.139 59.8161 116.723 60.0177L116.798 59.8019L116.947 59.3703L117.021 59.1544C116.454 58.959 115.895 58.7467 115.346 58.5185L115.258 58.7294L115.083 59.1512L114.996 59.3621ZM118.488 60.5671C119.08 60.7317 119.678 60.879 120.284 61.0083L120.331 60.785L120.427 60.3384L120.475 60.1152C119.887 59.9898 119.306 59.8469 118.733 59.6873L118.672 59.9073L118.549 60.3472L118.488 60.5671ZM122.103 61.3396C122.708 61.431 123.32 61.5047 123.937 61.56L123.957 61.3326L123.998 60.8778L124.018 60.6504C123.42 60.5967 122.826 60.5252 122.239 60.4365L122.205 60.6623L122.137 61.1138L122.103 61.3396ZM125.781 61.67C126.088 61.6792 126.397 61.6838 126.707 61.6838V61.4555V60.9988V60.7705C126.406 60.7705 126.107 60.766 125.808 60.7572L125.801 60.9854L125.788 61.4419L125.781 61.67ZM131.161 1.74236C130.572 1.65366 129.98 1.58218 129.381 1.52847L129.402 1.30106L129.442 0.846264L129.463 0.618862C130.079 0.674224 130.691 0.747892 131.297 0.839323L131.263 1.06508L131.194 1.5166L131.161 1.74236ZM134.667 2.49158C134.092 2.33196 133.512 2.18915 132.925 2.0637L132.973 1.84043L133.068 1.39388L133.116 1.17059C133.72 1.29993 134.32 1.44717 134.911 1.61173L134.85 1.8317L134.728 2.27162L134.667 2.49158ZM138.054 3.66042C137.503 3.43215 136.944 3.21998 136.378 3.02447L136.452 2.80864L136.602 2.37699L136.676 2.16116C137.26 2.36272 137.837 2.58148 138.404 2.81681L138.316 3.02772L138.142 3.44952L138.054 3.66042ZM141.276 5.23187C140.756 4.93822 140.227 4.65978 139.689 4.39715L139.788 4.19195L139.988 3.78155L140.089 3.57634C140.644 3.84709 141.189 4.13412 141.725 4.43682L141.613 4.63558L141.388 5.03311L141.276 5.23187ZM144.284 7.18076C143.803 6.82646 143.312 6.48632 142.809 6.16094L142.934 5.96932L143.182 5.58609L143.306 5.39447C143.823 5.72984 144.33 6.08044 144.826 6.4456L144.691 6.62939L144.419 6.99698L144.284 7.18076ZM147.037 9.47725C146.601 9.06751 146.154 8.67075 145.694 8.2876L145.841 8.11229L146.134 7.76166L146.28 7.58634C146.753 7.98122 147.214 8.39012 147.662 8.8124L147.506 8.97861L147.193 9.31103L147.037 9.47725ZM149.494 12.0872C149.111 11.6279 148.714 11.1804 148.304 10.7453L148.471 10.5888L148.803 10.2757L148.969 10.1192C149.392 10.5676 149.8 11.0288 150.196 11.5021L150.02 11.6483L149.67 11.941L149.494 12.0872ZM151.621 14.9727C151.295 14.4705 150.956 13.9787 150.601 13.498L150.785 13.3625L151.153 13.0917L151.336 12.9561C151.702 13.4517 152.052 13.9585 152.388 14.4762L152.196 14.6003L151.812 14.8486L151.621 14.9727ZM153.385 18.0935C153.122 17.5552 152.843 17.0259 152.55 16.5064L152.748 16.394L153.147 16.1694L153.345 16.057C153.648 16.5926 153.935 17.1382 154.206 17.6931L154 17.7932L153.59 17.9934L153.385 18.0935ZM154.758 21.4039C154.562 20.8373 154.35 20.2785 154.122 19.728L154.332 19.6406L154.754 19.4656L154.965 19.3782C155.2 19.9457 155.42 20.5218 155.621 21.106L155.405 21.1804L154.973 21.3294L154.758 21.4039ZM155.718 24.8572C155.593 24.27 155.45 23.6893 155.29 23.1157L155.51 23.0545L155.95 22.932L156.17 22.8708C156.335 23.4623 156.482 24.061 156.611 24.6663L156.388 24.714L155.941 24.8094L155.718 24.8572ZM156.253 28.401C156.2 27.8025 156.128 27.2093 156.04 26.6217L156.265 26.5876L156.716 26.5195L156.943 26.4854C157.034 27.0911 157.107 27.7026 157.163 28.3193L156.936 28.3397L156.481 28.3806L156.253 28.401ZM156.373 31.0894C156.373 30.7887 156.369 30.4891 156.36 30.1905L156.589 30.1838L157.045 30.1702L157.273 30.1634C157.282 30.471 157.286 30.7797 157.286 31.0894H157.058H156.601H156.373Z" fill="url(#paint5_linear_2_1393)"/>
<path fill-rule="evenodd" clip-rule="evenodd" d="M17.1292 182.248C17.1204 182.547 17.1159 182.847 17.1159 183.147C17.1159 183.448 17.1204 183.747 17.1292 184.046L16.901 184.053L16.4446 184.067L16.2164 184.073C16.2072 183.765 16.2026 183.457 16.2026 183.147C16.2026 182.837 16.2072 182.529 16.2163 182.221L16.4446 182.227L16.901 182.241L17.1292 182.248ZM17.4499 178.679C17.3612 179.267 17.2897 179.86 17.236 180.458L17.0086 180.438L16.5538 180.397L16.3264 180.377C16.3817 179.76 16.4554 179.149 16.5468 178.543L16.7726 178.577L17.2241 178.646L17.4499 178.679ZM18.1991 175.173C18.0395 175.747 17.8966 176.328 17.7712 176.915L17.548 176.867L17.1014 176.772L16.8781 176.724C17.0074 176.119 17.1547 175.519 17.3193 174.929L17.5392 174.99L17.9791 175.112L18.1991 175.173ZM19.3679 171.786C19.1397 172.336 18.9274 172.895 18.732 173.462L18.5161 173.387L18.0845 173.238L17.8687 173.163C18.0703 172.58 18.289 172.003 18.5243 171.435L18.7352 171.523L19.157 171.698L19.3679 171.786ZM20.9394 168.564C20.6458 169.084 20.3673 169.613 20.1046 170.151L19.8994 170.051L19.489 169.851L19.2839 169.75C19.5546 169.196 19.8416 168.65 20.1443 168.115L20.3431 168.227L20.7406 168.452L20.9394 168.564ZM22.8883 165.556C22.5339 166.036 22.1938 166.528 21.8684 167.031L21.6768 166.906L21.2936 166.658L21.102 166.534C21.4374 166.016 21.788 165.509 22.1531 165.014L22.3369 165.149L22.7045 165.421L22.8883 165.556ZM25.1848 162.803C24.775 163.238 24.3783 163.685 23.9951 164.145L23.8198 163.999L23.4692 163.706L23.2939 163.559C23.6887 163.086 24.0976 162.625 24.5199 162.177L24.6861 162.334L25.0186 162.646L25.1848 162.803ZM27.7947 160.346C27.3354 160.728 26.8879 161.126 26.4528 161.535L26.2963 161.368L25.9832 161.036L25.8267 160.87C26.2751 160.448 26.7363 160.039 27.2097 159.644L27.3559 159.82L27.6484 160.17L27.7947 160.346ZM30.6802 158.219C30.178 158.544 29.6862 158.884 29.2055 159.239L29.0701 159.054L28.7992 158.687L28.6637 158.504C29.1592 158.138 29.6661 157.788 30.1837 157.452L30.3078 157.643L30.5561 158.027L30.6802 158.219ZM33.801 156.455C33.2627 156.717 32.7334 156.996 32.2139 157.29L32.1016 157.091L31.8769 156.693L31.7645 156.494C32.3001 156.192 32.8457 155.904 33.4007 155.634L33.5008 155.84L33.7009 156.25L33.801 156.455ZM37.1113 155.082C36.5448 155.278 35.986 155.49 35.4355 155.718L35.3481 155.507L35.1731 155.085L35.0857 154.874C35.6532 154.64 36.2293 154.42 36.8135 154.219L36.888 154.435L37.0369 154.866L37.1113 155.082ZM40.5647 154.122C39.9775 154.247 39.3968 154.389 38.8232 154.549L38.7619 154.329L38.6395 153.89L38.5783 153.67C39.1698 153.504 39.7685 153.357 40.3738 153.229L40.4215 153.451L40.5169 153.898L40.5647 154.122ZM44.1085 153.586C43.51 153.64 42.9168 153.712 42.3292 153.8L42.2951 153.574L42.227 153.123L42.1928 152.897C42.7986 152.806 43.4101 152.732 44.0269 152.676L44.0472 152.903L44.088 153.358L44.1085 153.586ZM46.797 153.466C46.4962 153.466 46.1966 153.471 45.898 153.48L45.8913 153.251L45.8777 152.795L45.8709 152.566C46.1785 152.557 46.4872 152.553 46.797 152.553V152.781V153.238V153.466ZM16.3264 185.917C16.3817 186.534 16.4554 187.145 16.5468 187.751L16.7726 187.717L17.2241 187.649L17.4499 187.615C17.3612 187.028 17.2897 186.434 17.236 185.836L17.0086 185.856L16.5538 185.897L16.3264 185.917ZM16.8781 189.57C17.0074 190.176 17.1547 190.775 17.3193 191.366L17.5392 191.304L17.9791 191.182L18.1991 191.121C18.0395 190.547 17.8966 189.966 17.7713 189.379L17.548 189.427L17.1014 189.523L16.8781 189.57ZM17.8687 193.131C18.0703 193.714 18.289 194.291 18.5243 194.859L18.7352 194.771L19.157 194.596L19.3679 194.508C19.1397 193.958 18.9274 193.399 18.732 192.832L18.5161 192.907L18.0845 193.056L17.8687 193.131ZM19.2839 196.544C19.5546 197.098 19.8416 197.644 20.1444 198.179L20.3431 198.067L20.7406 197.842L20.9394 197.73C20.6458 197.21 20.3673 196.682 20.1046 196.143L19.8994 196.243L19.4891 196.443L19.2839 196.544ZM21.102 199.76C21.4374 200.278 21.788 200.785 22.1531 201.28L22.3369 201.145L22.7045 200.874L22.8883 200.738C22.534 200.258 22.1938 199.766 21.8684 199.263L21.6768 199.388L21.2936 199.636L21.102 199.76ZM23.2939 202.735C23.6887 203.208 24.0976 203.669 24.5199 204.117L24.6861 203.96L25.0186 203.648L25.1848 203.491C24.775 203.056 24.3783 202.609 23.9951 202.149L23.8198 202.295L23.4692 202.588L23.2939 202.735ZM25.8267 205.424C26.2751 205.846 26.7363 206.255 27.2097 206.65L27.3559 206.475L27.6484 206.124L27.7947 205.949C27.3354 205.566 26.8879 205.169 26.4528 204.759L26.2963 204.926L25.9832 205.258L25.8267 205.424ZM28.6637 207.791C29.1592 208.156 29.6661 208.507 30.1837 208.842L30.3078 208.651L30.5561 208.267L30.6802 208.076C30.178 207.75 29.6862 207.41 29.2055 207.055L29.0701 207.24L28.7992 207.607L28.6637 207.791ZM31.7646 209.8C32.3001 210.102 32.8457 210.39 33.4007 210.66L33.5008 210.455L33.7009 210.044L33.801 209.839C33.2627 209.577 32.7334 209.298 32.2139 209.004L32.1016 209.203L31.8769 209.601L31.7646 209.8ZM35.0857 211.42C35.6532 211.655 36.2293 211.874 36.8135 212.076L36.888 211.859L37.0369 211.428L37.1113 211.212C36.5449 211.016 35.986 210.804 35.4355 210.576L35.3481 210.787L35.1731 211.209L35.0857 211.42ZM38.5783 212.624C39.1698 212.79 39.7685 212.937 40.3738 213.066L40.4216 212.843L40.5169 212.396L40.5647 212.172C39.9775 212.047 39.3968 211.905 38.8232 211.745L38.762 211.965L38.6395 212.404L38.5783 212.624ZM42.1929 213.397C42.7986 213.488 43.4101 213.562 44.0269 213.618L44.0472 213.391L44.088 212.936L44.1085 212.708C43.51 212.655 42.9168 212.582 42.3292 212.494L42.2951 212.72L42.227 213.172L42.1929 213.397ZM45.8709 213.728C46.1785 213.737 46.4872 213.741 46.797 213.741C47.1067 213.741 47.4154 213.737 47.723 213.728L47.7163 213.499L47.7026 213.043L47.6959 212.814C47.3973 212.824 47.0977 212.828 46.797 212.828C46.4962 212.828 46.1966 212.824 45.898 212.814L45.8913 213.043L45.8777 213.499L45.8709 213.728ZM49.5671 213.618C50.1838 213.562 50.7953 213.488 51.401 213.397L51.3669 213.172L51.2988 212.72L51.2647 212.494C50.6771 212.582 50.0839 212.655 49.4854 212.708L49.5058 212.936L49.5467 213.391L49.5671 213.618ZM53.2201 213.066C53.8254 212.937 54.4241 212.79 55.0156 212.624L54.9544 212.404L54.832 211.965L54.7708 211.745C54.1971 211.905 53.6164 212.047 53.0293 212.172L53.077 212.396L53.1724 212.843L53.2201 213.066ZM56.7804 212.076C57.3646 211.874 57.9407 211.655 58.5082 211.42L58.4208 211.209L58.2458 210.787L58.1584 210.576C57.6079 210.804 57.0491 211.016 56.4825 211.212L56.557 211.428L56.706 211.859L56.7804 212.076ZM60.1933 210.66C60.7483 210.39 61.2938 210.102 61.8294 209.8L61.717 209.601L61.4924 209.203L61.3801 209.004C60.8605 209.298 60.3313 209.577 59.7929 209.839L59.893 210.044L60.0932 210.455L60.1933 210.66ZM63.4102 208.842C63.9279 208.507 64.4347 208.156 64.9303 207.791L64.7947 207.607L64.5239 207.24L64.3884 207.055C63.9077 207.41 63.4159 207.75 62.9137 208.076L63.0378 208.267L63.2861 208.651L63.4102 208.842ZM66.3843 206.65C66.8576 206.255 67.3188 205.846 67.7672 205.424L67.6107 205.258L67.2976 204.926L67.1411 204.759C66.706 205.169 66.2585 205.566 65.7992 205.949L65.9455 206.124L66.2381 206.475L66.3843 206.65ZM69.074 204.117C69.4963 203.669 69.9052 203.208 70.3001 202.735L70.1247 202.588L69.7741 202.295L69.5988 202.149C69.2157 202.609 68.8189 203.056 68.4092 203.491L68.5754 203.648L68.9078 203.96L69.074 204.117ZM71.4408 201.28C71.806 200.785 72.1566 200.278 72.4919 199.76L72.3003 199.636L71.9171 199.388L71.7255 199.263C71.4001 199.766 71.0599 200.258 70.7057 200.738L70.8894 200.874L71.257 201.145L71.4408 201.28ZM73.4496 198.179C73.7523 197.644 74.0393 197.098 74.31 196.544L74.1048 196.443L73.6945 196.243L73.4893 196.143C73.2266 196.682 72.9482 197.21 72.6546 197.73L72.8533 197.842L73.2508 198.067L73.4496 198.179ZM75.0696 194.859C75.3049 194.291 75.5237 193.714 75.7252 193.131L75.5094 193.056L75.0777 192.907L74.8619 192.832C74.6664 193.399 74.4542 193.958 74.226 194.508L74.4369 194.596L74.8587 194.771L75.0696 194.859ZM76.2747 191.366C76.4392 190.775 76.5864 190.176 76.7158 189.57L76.4926 189.523L76.046 189.427L75.8227 189.379C75.6973 189.966 75.5545 190.547 75.3948 191.121L75.6148 191.182L76.0547 191.304L76.2747 191.366ZM77.0471 187.751C77.1385 187.145 77.2122 186.534 77.2675 185.917L77.0401 185.897L76.5853 185.856L76.3579 185.836C76.3042 186.434 76.2327 187.028 76.1441 187.615L76.3698 187.649L76.8213 187.717L77.0471 187.751ZM77.3775 184.073C77.3867 183.765 77.3913 183.457 77.3913 183.147H77.163H76.7063H76.478C76.478 183.448 76.4736 183.747 76.4647 184.046L76.6929 184.053L77.1494 184.067L77.3775 184.073Z" fill="url(#paint6_linear_2_1393)"/>
<path d="M76.9341 183.147C76.9341 166.503 90.4272 153.01 107.072 153.01" stroke="white" stroke-width="0.456632" stroke-dasharray="1.83 1.83"/>
<path d="M137.209 122.872C137.209 139.516 123.716 153.01 107.072 153.01" stroke="white" stroke-width="0.456632" stroke-dasharray="1.83 1.83"/>
<path fill-rule="evenodd" clip-rule="evenodd" d="M7.07563 65.448C7.0662 65.4626 7.05679 65.4772 7.0474 65.4918L7.2395 65.6152L7.62368 65.862L7.81577 65.9854C7.9772 65.7341 8.1429 65.4844 8.31288 65.2364L8.2468 65.1911C8.25748 65.1751 8.26818 65.1592 8.27888 65.1432L8.08936 65.0159L7.71033 64.7613L7.52081 64.634C7.34921 64.8893 7.18085 65.1481 7.01582 65.4103L7.07563 65.448ZM10.4515 62.2937C10.0634 62.7438 9.68682 63.2078 9.32257 63.6856L9.14099 63.5472L8.77785 63.2704L8.59628 63.1319C8.97169 62.6395 9.35981 62.1612 9.75987 61.6974L9.93276 61.8464L10.2786 62.1447L10.4515 62.2937ZM12.9534 59.7258C12.5126 60.1263 12.0824 60.5416 11.6635 60.9717L11.4999 60.8123L11.1729 60.4937L11.0093 60.3343C11.4412 59.891 11.8848 59.4628 12.3391 59.0499L12.4927 59.2189L12.7998 59.5568L12.9534 59.7258ZM15.7472 57.4816C15.2607 57.8259 14.7835 58.1857 14.3162 58.561L14.1732 58.383L13.8873 58.0271L13.7443 57.8491C14.2261 57.4621 14.7182 57.0911 15.2196 56.7362L15.3515 56.9225L15.6153 57.2953L15.7472 57.4816ZM18.7933 55.5924C18.2681 55.8756 17.7505 56.1751 17.2414 56.4909L17.121 56.2969L16.8804 55.9087L16.76 55.7148C17.2849 55.3893 17.8184 55.0805 18.3599 54.7885L18.4683 54.9894L18.685 55.3914L18.7933 55.5924ZM22.0454 54.0847C21.4894 54.3028 20.9396 54.5377 20.3966 54.7894L20.3006 54.5823L20.1085 54.168L20.0125 53.9608C20.5721 53.7015 21.1389 53.4593 21.7118 53.2345L21.7952 53.447L21.962 53.8722L22.0454 54.0847ZM25.4553 52.9785C24.8768 53.1285 24.3026 53.2958 23.7336 53.4804L23.6632 53.2632L23.5223 52.8288L23.4519 52.6117C24.0382 52.4214 24.6299 52.249 25.2262 52.0945L25.2834 52.3155L25.398 52.7575L25.4553 52.9785ZM28.9733 52.289C28.3806 52.3686 27.7904 52.466 27.2039 52.5809L27.16 52.3569L27.0721 51.9087L27.0282 51.6847C27.6327 51.5663 28.2408 51.4659 28.8517 51.3839L28.8821 51.6102L28.943 52.0627L28.9733 52.289ZM32.5483 52.0265C31.9499 52.0343 31.3525 52.0602 30.7569 52.1039L30.7402 51.8762L30.7068 51.4208L30.69 51.1931C31.3038 51.148 31.9196 51.1213 32.5364 51.1133L32.5393 51.3416L32.5452 51.7982L32.5483 52.0265ZM36.129 52.1964C35.5334 52.1318 34.9372 52.0855 34.3411 52.0572L34.3519 51.8292L34.3735 51.3731L34.3844 51.145C34.9988 51.1741 35.6134 51.2219 36.2274 51.2884L36.2028 51.5155L36.1535 51.9694L36.129 52.1964ZM39.6618 52.7983C39.0781 52.6618 38.4921 52.5437 37.9046 52.4436L37.943 52.2186L38.0197 51.7685L38.0581 51.5433C38.6637 51.6465 39.2678 51.7683 39.8695 51.9089L39.8176 52.1313L39.7136 52.5759L39.6618 52.7983ZM43.096 53.8249C42.5322 53.6182 41.9647 53.4297 41.3942 53.2592L41.4596 53.0405L41.5904 52.6029L41.6558 52.3842C42.244 52.56 42.8291 52.7543 43.4102 52.9673L43.3317 53.1817L43.1745 53.6104L43.096 53.8249ZM46.3802 55.2598C45.8452 54.9864 45.305 54.7309 44.7605 54.4929L44.8519 54.2837L45.0348 53.8653L45.1262 53.6561C45.6875 53.9014 46.2443 54.1648 46.7957 54.4465L46.6918 54.6498L46.4841 55.0565L46.3802 55.2598ZM48.7194 56.5904C48.4649 56.4302 48.2089 56.2743 47.9515 56.1228L48.0673 55.9261L48.299 55.5326L48.4148 55.3358C48.6801 55.4919 48.9438 55.6525 49.2059 55.8175L49.0843 56.0108L48.8411 56.3972L48.7194 56.5904ZM6.09578 67.0752C5.79284 67.6152 5.50796 68.1614 5.241 68.7127L5.44649 68.8122L5.85748 69.0111L6.06298 69.1107C6.32195 68.5758 6.59834 68.046 6.89229 67.522L6.69316 67.4103L6.29491 67.1869L6.09578 67.0752ZM4.48604 70.4005C4.25059 70.9729 4.03364 71.55 3.83506 72.1309L4.0511 72.2048L4.48318 72.3525L4.69923 72.4264C4.89183 71.8629 5.10226 71.3032 5.33065 70.7479L5.1195 70.6611L4.6972 70.4873L4.48604 70.4005ZM3.29072 73.8974C3.1268 74.4932 2.98159 75.0921 2.85494 75.6933L3.07835 75.7403L3.52517 75.8345L3.74858 75.8815C3.87143 75.2984 4.01227 74.7176 4.17126 74.1397L3.95113 74.0791L3.51085 73.9579L3.29072 73.8974ZM2.52903 77.5126C2.43864 78.1235 2.36702 78.7359 2.31401 79.3487L2.54148 79.3684L2.99641 79.4077L3.22388 79.4275C3.27531 78.8328 3.34478 78.2389 3.43246 77.6463L3.20661 77.6129L2.75489 77.5461L2.52903 77.5126ZM2.21045 81.1941C2.19449 81.8107 2.19718 82.427 2.21836 83.0421L2.44654 83.0342L2.90291 83.0185L3.13109 83.0107C3.11054 82.4138 3.10793 81.8159 3.1234 81.2177L2.89516 81.2118L2.43868 81.2L2.21045 81.1941ZM2.33748 84.8864C2.39568 85.5 2.47231 86.1116 2.56718 86.7202L2.79277 86.6851L3.24395 86.6148L3.46954 86.5796C3.37748 85.989 3.30314 85.3956 3.24666 84.8002L3.01937 84.8218L2.56477 84.8649L2.33748 84.8864ZM2.90651 88.5369C3.03773 89.1387 3.18705 89.7368 3.35429 90.33L3.57404 90.2681L4.01355 90.1442L4.2333 90.0822C4.07103 89.5065 3.92614 88.9263 3.79881 88.3424L3.57574 88.391L3.12958 88.4882L2.90651 88.5369ZM3.90897 92.0932C4.11128 92.6741 4.33124 93.2504 4.56869 93.8193L4.77941 93.7316L5.20084 93.5554L5.41157 93.4677C5.18119 92.9152 4.96778 92.3572 4.77149 91.7928L4.55586 91.8677L4.1246 92.0174L3.90897 92.0932ZM5.33142 95.5025C5.60211 96.055 5.88994 96.6002 6.19475 97.1372L6.39331 97.0249L6.79044 96.7993L6.98901 96.687C6.69334 96.1655 6.41412 95.6367 6.15152 95.1006L5.9465 95.2011L5.53645 95.402L5.33142 95.5025ZM7.15544 98.7162C7.49056 99.2313 7.84218 99.7373 8.21012 100.234L8.39356 100.098L8.76042 99.8259L8.94385 99.6898C8.58697 99.2085 8.24592 98.7181 7.92086 98.2185L7.72951 98.3427L7.34679 98.592L7.15544 98.7162ZM9.35541 101.684C9.75031 102.155 10.161 102.615 10.5872 103.063L10.7528 102.906L11.0838 102.592L11.2494 102.435C10.836 101.999 10.4377 101.553 10.0547 101.097L9.87986 101.244L9.53023 101.538L9.35541 101.684ZM11.9006 104.365C12.3485 104.783 12.8113 105.189 13.2888 105.584L13.4341 105.408L13.7249 105.055L13.8703 104.879C13.407 104.497 12.958 104.103 12.5234 103.697L12.3677 103.864L12.0563 104.198L11.9006 104.365ZM14.7477 106.716C14.9963 106.898 15.2484 107.076 15.5039 107.252C15.7595 107.427 16.0167 107.597 16.2756 107.764L16.399 107.571L16.6459 107.188L16.7693 106.995C16.5179 106.833 16.2682 106.668 16.0202 106.498C15.7721 106.328 15.5274 106.155 15.2862 105.979L15.1516 106.163L14.8824 106.532L14.7477 106.716ZM17.8591 108.716C18.3991 109.018 18.9452 109.303 19.4965 109.57L19.596 109.365L19.795 108.953L19.8945 108.748C19.3596 108.489 18.8299 108.212 18.3058 107.918L18.1941 108.117L17.9707 108.516L17.8591 108.716ZM21.1843 110.325C21.7568 110.56 22.3339 110.778 22.9148 110.976L22.9887 110.759L23.1363 110.327L23.2102 110.112C22.6467 109.919 22.087 109.708 21.5317 109.48L21.4449 109.692L21.2712 110.114L21.1843 110.325ZM24.6812 111.52C25.277 111.685 25.876 111.83 26.4772 111.956L26.5242 111.733L26.6183 111.285L26.6654 111.063C26.0823 110.939 25.5013 110.799 24.9235 110.64L24.863 110.86L24.7418 111.3L24.6812 111.52ZM28.2965 112.282C28.9073 112.372 29.5197 112.443 30.1326 112.496L30.1522 112.269L30.1916 111.814L30.2113 111.587C29.6167 111.536 29.0227 111.466 28.4302 111.379L28.3967 111.604L28.3299 112.056L28.2965 112.282ZM31.9779 112.601C32.5946 112.616 33.2108 112.613 33.8259 112.592L33.8181 112.364L33.8024 111.908L33.7945 111.68C33.1977 111.7 32.5998 111.703 32.0015 111.687L31.9956 111.916L31.9839 112.372L31.9779 112.601ZM35.6703 112.474C36.2839 112.415 36.8955 112.338 37.5041 112.243L37.4689 112.018L37.3986 111.567L37.3634 111.341C36.7728 111.433 36.1794 111.507 35.584 111.564L35.6056 111.791L35.6487 112.246L35.6703 112.474ZM39.3207 111.905C39.9226 111.773 40.5206 111.624 41.1138 111.456L41.0519 111.237L40.928 110.798L40.8661 110.578C40.2904 110.74 39.7102 110.885 39.1261 111.012L39.1748 111.235L39.2721 111.681L39.3207 111.905ZM42.8767 110.902C43.458 110.7 44.0337 110.48 44.6031 110.243L44.5151 110.032L44.3393 109.61L44.2515 109.4C43.6991 109.63 43.1406 109.843 42.5766 110.04L42.6516 110.255L42.8017 110.686L42.8767 110.902ZM46.2866 109.48C46.839 109.209 47.3842 108.921 47.9212 108.616L47.8085 108.418L47.5831 108.021L47.4704 107.821C46.9495 108.117 46.4206 108.397 45.8847 108.66L45.9852 108.864L46.1861 109.274L46.2866 109.48ZM49.5003 107.655C50.0152 107.32 50.5213 106.968 51.0177 106.6L50.8818 106.418L50.61 106.051L50.474 105.867C49.9924 106.224 49.5015 106.565 49.0021 106.89L49.1266 107.082L49.3757 107.464L49.5003 107.655ZM52.4685 105.455C52.9386 105.061 53.3985 104.65 53.8474 104.224L53.6901 104.058L53.3757 103.727L53.2185 103.561C52.7831 103.975 52.337 104.373 51.8811 104.757L52.028 104.931L52.3217 105.281L52.4685 105.455ZM55.1489 102.911C55.5667 102.462 55.9731 101.999 56.3674 101.522L56.1913 101.377L55.8392 101.086L55.6631 100.941C55.2806 101.404 54.8863 101.853 54.481 102.287L54.648 102.443L54.9818 102.755L55.1489 102.911ZM57.5004 100.063C57.6818 99.8149 57.8602 99.5628 58.0353 99.3071L57.8469 99.1783L57.4702 98.9199L57.2819 98.7911C57.1119 99.0386 56.9388 99.2834 56.7627 99.5245L56.9472 99.6596L57.3161 99.9281L57.5004 100.063Z" fill="url(#paint7_linear_2_1393)"/>
<path fill-rule="evenodd" clip-rule="evenodd" d="M311.359 130.307C311.359 130.312 311.359 130.316 311.359 130.321H311.587H311.828L312.03 130.327L312.258 130.334C312.258 130.33 312.258 130.325 312.258 130.321H312.272C312.272 130.168 312.271 130.017 312.269 129.864C312.271 129.713 312.272 129.56 312.272 129.408H312.258C312.258 129.404 312.258 129.399 312.258 129.395L312.03 129.402L311.828 129.408H311.587H311.359C311.359 129.412 311.359 129.417 311.359 129.422H311.345C311.35 129.569 311.353 129.717 311.355 129.864C311.353 130.012 311.35 130.159 311.345 130.307H311.359ZM311.025 125.853C311.113 126.441 311.185 127.034 311.239 127.632L311.467 127.612L311.921 127.571L312.149 127.551C312.093 126.935 312.019 126.323 311.928 125.717L311.702 125.751L311.251 125.819L311.025 125.853ZM310.276 122.347C310.436 122.921 310.578 123.502 310.704 124.089L310.927 124.041L311.373 123.945L311.596 123.898C311.468 123.292 311.321 122.694 311.155 122.102L310.936 122.164L310.496 122.286L310.276 122.347ZM309.107 118.96C309.335 119.511 309.547 120.069 309.742 120.636L309.959 120.561L310.39 120.412L310.606 120.338C310.405 119.754 310.186 119.177 309.951 118.61L309.74 118.697L309.318 118.872L309.107 118.96ZM307.535 115.738C307.829 116.258 308.108 116.787 308.37 117.325L308.575 117.225L308.986 117.025L309.191 116.925C308.92 116.37 308.633 115.825 308.331 115.289L308.131 115.401L307.734 115.626L307.535 115.738ZM305.586 112.73C305.94 113.21 306.281 113.702 306.606 114.205L306.798 114.08L307.182 113.832L307.373 113.708C307.037 113.19 306.687 112.683 306.321 112.188L306.138 112.323L305.771 112.594L305.586 112.73ZM303.29 109.977C303.7 110.412 304.097 110.859 304.479 111.319L304.655 111.172L305.005 110.88L305.181 110.734C304.786 110.26 304.377 109.799 303.955 109.351L303.789 109.508L303.456 109.821L303.29 109.977ZM300.68 107.519C301.139 107.902 301.587 108.299 302.022 108.709L302.179 108.542L302.492 108.21L302.648 108.044C302.2 107.622 301.739 107.213 301.266 106.818L301.119 106.993L300.826 107.344L300.68 107.519ZM297.794 105.392C298.296 105.718 298.789 106.058 299.269 106.413L299.405 106.229L299.676 105.861L299.812 105.677C299.316 105.312 298.809 104.961 298.291 104.626L298.167 104.818L297.918 105.201L297.794 105.392ZM294.674 103.629C295.212 103.891 295.741 104.17 296.261 104.464L296.373 104.265L296.598 103.867L296.71 103.668C296.175 103.366 295.629 103.079 295.074 102.808L294.974 103.013L294.774 103.423L294.674 103.629ZM291.364 102.256C291.93 102.452 292.489 102.664 293.04 102.892L293.126 102.681L293.302 102.259L293.39 102.048C292.821 101.813 292.245 101.594 291.662 101.393L291.587 101.609L291.438 102.041L291.364 102.256ZM287.91 101.296C288.497 101.421 289.078 101.564 289.652 101.723L289.713 101.503L289.835 101.064L289.896 100.843C289.305 100.679 288.706 100.531 288.101 100.402L288.053 100.625L287.958 101.072L287.91 101.296ZM284.366 100.76C284.965 100.814 285.558 100.885 286.146 100.974L286.179 100.749L286.248 100.296L286.282 100.071C285.676 99.9795 285.065 99.9056 284.448 99.8508L284.428 100.078L284.387 100.533L284.366 100.76ZM281.678 100.64C281.978 100.64 282.278 100.644 282.576 100.654L282.584 100.425L282.597 99.9686L282.604 99.7403C282.296 99.7311 281.987 99.7266 281.678 99.7266V99.9549V100.412V100.64ZM312.149 132.178C312.093 132.795 312.019 133.406 311.928 134.012L311.702 133.978L311.251 133.91L311.025 133.875C311.113 133.288 311.185 132.694 311.239 132.096L311.467 132.116L311.921 132.157L312.149 132.178ZM311.596 135.831C311.468 136.436 311.321 137.035 311.155 137.626L310.936 137.565L310.496 137.443L310.276 137.381C310.436 136.808 310.578 136.227 310.704 135.64L310.927 135.688L311.373 135.783L311.596 135.831ZM310.606 139.391C310.405 139.976 310.186 140.551 309.951 141.119L309.74 141.032L309.318 140.856L309.107 140.77C309.335 140.219 309.547 139.66 309.742 139.094L309.959 139.168L310.39 139.317L310.606 139.391ZM309.191 142.804C308.92 143.36 308.633 143.905 308.331 144.44L308.131 144.328L307.734 144.103L307.535 143.991C307.829 143.471 308.108 142.942 308.37 142.403L308.575 142.504L308.986 142.704L309.191 142.804ZM307.373 146.021C307.037 146.539 306.687 147.045 306.321 147.541L306.138 147.405L305.771 147.135L305.586 146.999C305.94 146.519 306.281 146.027 306.606 145.525L306.798 145.649L307.182 145.897L307.373 146.021ZM305.181 148.995C304.786 149.468 304.377 149.93 303.955 150.378L303.789 150.222L303.456 149.909L303.29 149.752C303.7 149.317 304.097 148.869 304.479 148.41L304.655 148.556L305.005 148.849L305.181 148.995ZM302.648 151.685C302.2 152.107 301.739 152.516 301.266 152.911L301.119 152.736L300.826 152.385L300.68 152.21C301.139 151.826 301.587 151.43 302.022 151.02L302.179 151.186L302.492 151.519L302.648 151.685ZM299.812 154.052C299.316 154.416 298.809 154.767 298.291 155.103L298.167 154.911L297.918 154.528L297.794 154.336C298.296 154.011 298.789 153.671 299.269 153.317L299.405 153.5L299.676 153.868L299.812 154.052ZM296.71 156.06C296.175 156.364 295.629 156.65 295.074 156.921L294.974 156.716L294.774 156.305L294.674 156.101C295.212 155.837 295.741 155.559 296.261 155.266L296.373 155.464L296.598 155.862L296.71 156.06ZM293.39 157.68C292.821 157.916 292.245 158.134 291.662 158.336L291.587 158.121L291.438 157.689L291.364 157.473C291.93 157.278 292.489 157.065 293.04 156.837L293.126 157.048L293.302 157.469L293.39 157.68ZM289.896 158.886C289.305 159.05 288.706 159.197 288.101 159.327L288.053 159.103L287.958 158.657L287.91 158.434C288.497 158.308 289.078 158.165 289.652 158.006L289.713 158.226L289.835 158.666L289.896 158.886ZM286.282 159.658C285.676 159.749 285.065 159.823 284.448 159.879L284.428 159.651L284.387 159.196L284.366 158.969C284.965 158.915 285.558 158.844 286.146 158.755L286.179 158.981L286.248 159.432L286.282 159.658ZM282.604 159.988C282.296 159.997 281.987 160.002 281.678 160.002C281.368 160.002 281.06 159.997 280.752 159.988L280.758 159.76L280.772 159.304L280.779 159.076C281.078 159.084 281.377 159.089 281.678 159.089C281.978 159.089 282.278 159.084 282.576 159.076L282.584 159.304L282.597 159.76L282.604 159.988ZM278.908 159.879C278.291 159.823 277.68 159.749 277.074 159.658L277.108 159.432L277.176 158.981L277.21 158.755C277.797 158.844 278.391 158.915 278.989 158.969L278.969 159.196L278.928 159.651L278.908 159.879ZM275.255 159.327C274.649 159.197 274.051 159.05 273.459 158.886L273.521 158.666L273.643 158.226L273.704 158.006C274.278 158.165 274.858 158.308 275.446 158.434L275.398 158.657L275.302 159.103L275.255 159.327ZM271.694 158.336C271.11 158.134 270.534 157.916 269.967 157.68L270.054 157.469L270.229 157.048L270.317 156.837C270.867 157.065 271.426 157.278 271.993 157.473L271.918 157.689L271.769 158.121L271.694 158.336ZM268.281 156.921C267.727 156.65 267.181 156.364 266.646 156.06L266.758 155.862L266.982 155.464L267.095 155.266C267.614 155.559 268.143 155.837 268.682 156.101L268.582 156.305L268.382 156.716L268.281 156.921ZM265.065 155.103C264.547 154.767 264.04 154.416 263.545 154.052L263.68 153.868L263.951 153.5L264.087 153.317C264.567 153.671 265.059 154.011 265.561 154.336L265.437 154.528L265.189 154.911L265.065 155.103ZM262.09 152.911C261.617 152.516 261.156 152.107 260.707 151.685L260.865 151.519L261.177 151.186L261.334 151.02C261.769 151.43 262.216 151.826 262.676 152.21L262.529 152.385L262.237 152.736L262.09 152.911ZM259.401 150.378C258.979 149.93 258.57 149.468 258.175 148.995L258.35 148.849L258.701 148.556L258.876 148.41C259.259 148.869 259.656 149.317 260.065 149.752L259.899 149.909L259.567 150.222L259.401 150.378ZM257.034 147.541C256.669 147.045 256.318 146.539 255.983 146.021L256.175 145.897L256.558 145.649L256.749 145.525C257.074 146.027 257.415 146.519 257.769 146.999L257.585 147.135L257.218 147.405L257.034 147.541ZM255.025 144.44C254.723 143.905 254.435 143.36 254.165 142.804L254.37 142.704L254.78 142.504L254.986 142.403C255.248 142.942 255.527 143.471 255.821 143.991L255.621 144.103L255.224 144.328L255.025 144.44ZM253.405 141.119C253.17 140.551 252.951 139.976 252.749 139.391L252.966 139.317L253.397 139.168L253.613 139.094C253.809 139.66 254.021 140.219 254.249 140.77L254.038 140.856L253.616 141.032L253.405 141.119ZM252.2 137.626C252.036 137.035 251.888 136.436 251.759 135.831L251.982 135.783L252.429 135.688L252.652 135.64C252.778 136.227 252.92 136.808 253.08 137.381L252.86 137.443L252.421 137.565L252.2 137.626ZM251.428 134.012C251.336 133.406 251.262 132.795 251.208 132.178L251.435 132.157L251.89 132.116L252.117 132.096C252.17 132.694 252.242 133.288 252.331 133.875L252.105 133.91L251.653 133.978L251.428 134.012ZM251.097 130.334C251.088 130.026 251.083 129.717 251.083 129.408H251.312H251.768H251.997C251.997 129.709 252.001 130.009 252.01 130.307L251.782 130.314L251.325 130.327L251.097 130.334Z" fill="url(#paint8_linear_2_1393)"/>
<path d="M251.54 130.35C251.54 113.704 238.046 100.212 221.402 100.212C204.757 100.212 192.178 112.791 192.178 129.436" stroke="white" stroke-width="0.456632" stroke-dasharray="1.83 1.83"/>
<path fill-rule="evenodd" clip-rule="evenodd" d="M308.662 41.1145C308.74 41.2461 308.818 41.3783 308.895 41.5114L309.093 41.3973L309.488 41.169L309.686 41.0548C309.531 40.7866 309.372 40.5216 309.211 40.2597L309.017 40.3797L308.864 40.4743C308.772 40.3364 308.68 40.1992 308.586 40.0624L308.398 40.1914L308.022 40.4495L307.833 40.5785C308.002 40.8267 308.169 41.0764 308.33 41.3277L308.522 41.2042L308.662 41.1145ZM306.372 37.8093C306.742 38.2737 307.101 38.7518 307.447 39.2433L307.633 39.1118L308.007 38.8491L308.193 38.7177C307.837 38.2113 307.468 37.7186 307.085 37.2397L306.907 37.3821L306.55 37.6669L306.372 37.8093ZM303.97 35.1476C304.395 35.5645 304.809 35.9961 305.211 36.4417L305.38 36.2889L305.72 35.9829L305.889 35.8299C305.474 35.3704 305.048 34.9255 304.61 34.4956L304.45 34.6586L304.13 34.9845L303.97 35.1476ZM301.264 32.7982C301.737 33.1607 302.2 33.5387 302.653 33.9315L302.802 33.7591L303.102 33.4144L303.252 33.2419C302.785 32.8368 302.307 32.4472 301.82 32.0734L301.681 32.2546L301.403 32.617L301.264 32.7982ZM298.293 30.7939C298.806 31.097 299.312 31.4161 299.809 31.7511L299.936 31.5618L300.191 31.1833L300.319 30.9939C299.808 30.6486 299.286 30.3197 298.756 30.0072L298.64 30.2039L298.409 30.5972L298.293 30.7939ZM295.1 29.163C295.648 29.4022 296.188 29.658 296.721 29.9303L296.825 29.727L297.032 29.3203L297.136 29.117C296.587 28.8364 296.03 28.5727 295.466 28.3262L295.375 28.5354L295.192 28.9538L295.1 29.163ZM291.735 27.9274C292.307 28.0993 292.875 28.2885 293.436 28.4946L293.515 28.2803L293.672 27.8517L293.751 27.6373C293.173 27.4249 292.587 27.2299 291.997 27.0528L291.932 27.2714L291.801 27.7087L291.735 27.9274ZM288.246 27.1039C288.835 27.2061 289.421 27.3259 290.003 27.4633L290.055 27.2411L290.16 26.7966L290.213 26.5744C289.613 26.4329 289.009 26.3094 288.402 26.2041L288.363 26.429L288.285 26.879L288.246 27.1039ZM284.684 26.7049C285.281 26.7356 285.877 26.7843 286.47 26.8507L286.496 26.6239L286.547 26.1701L286.573 25.9431C285.961 25.8746 285.346 25.8245 284.731 25.7929L284.719 26.0209L284.695 26.4769L284.684 26.7049ZM281.099 26.7379C281.697 26.6961 282.294 26.6726 282.891 26.6672L282.889 26.4389L282.885 25.9822L282.882 25.7539C282.268 25.7596 281.651 25.7838 281.036 25.8268L281.051 26.0546L281.083 26.5101L281.099 26.7379ZM277.546 27.2043C278.134 27.0903 278.724 26.9946 279.315 26.917L279.286 26.6906L279.226 26.2379L279.196 26.0115C278.587 26.0915 277.979 26.1901 277.372 26.3076L277.415 26.5318L277.502 26.9801L277.546 27.2043ZM274.075 28.0988C274.646 27.9139 275.221 27.7472 275.797 27.5986L275.74 27.3775L275.626 26.9353L275.569 26.7142C274.974 26.8674 274.382 27.0393 273.793 27.2299L273.864 27.4472L274.004 27.8816L274.075 28.0988ZM270.739 29.4072C271.284 29.1545 271.833 28.9197 272.386 28.7028L272.303 28.4902L272.136 28.0651L272.053 27.8526C271.482 28.0762 270.916 28.3183 270.354 28.5786L270.45 28.7858L270.642 29.2001L270.739 29.4072ZM268.349 30.6474C268.611 30.4971 268.872 30.3511 269.135 30.2095L269.027 30.0085L268.811 29.6064L268.702 29.4054C268.432 29.5513 268.161 29.7017 267.893 29.8566L268.007 30.0543L268.235 30.4497L268.349 30.6474ZM310.05 42.4174C310.353 42.9575 310.638 43.5035 310.905 44.0549L310.699 44.1544L310.288 44.3534L310.083 44.4529C309.823 43.9181 309.548 43.3882 309.254 42.8642L309.453 42.7525L309.851 42.5291L310.05 42.4174ZM311.66 45.7428C311.895 46.3152 312.112 46.8923 312.31 47.4732L312.095 47.547L311.663 47.6948L311.446 47.7686C311.254 47.2052 311.044 46.6454 310.815 46.0902L311.026 46.0033L311.448 45.8296L311.66 45.7428ZM312.855 49.2397C313.019 49.8355 313.164 50.4344 313.291 51.0355L313.067 51.0826L312.621 51.1767L312.397 51.2238C312.275 50.6407 312.133 50.0598 311.974 49.4819L312.194 49.4213L312.635 49.3002L312.855 49.2397ZM313.617 52.8549C313.707 53.4658 313.779 54.078 313.832 54.6909L313.604 54.7107L313.15 54.75L312.922 54.7697C312.87 54.1751 312.801 53.5811 312.713 52.9885L312.94 52.9551L313.391 52.8882L313.617 52.8549ZM313.935 56.5363C313.951 57.1529 313.949 57.7692 313.928 58.3844L313.699 58.3765L313.243 58.3608L313.014 58.3529C313.035 57.7561 313.038 57.1581 313.023 56.5599L313.251 56.554L313.707 56.5422L313.935 56.5363ZM313.808 60.2286C313.751 60.8423 313.674 61.4538 313.579 62.0624L313.353 62.0273L312.902 61.957L312.677 61.9218C312.768 61.3313 312.843 60.7378 312.899 60.1424L313.127 60.1639L313.581 60.2071L313.808 60.2286ZM313.239 63.8791C313.108 64.4809 312.959 65.0789 312.792 65.6722L312.571 65.6103L312.132 65.4863L311.912 65.4244C312.075 64.8488 312.22 64.2685 312.347 63.6846L312.57 63.7333L313.016 63.8305L313.239 63.8791ZM312.237 67.4352C312.034 68.0165 311.814 68.5922 311.577 69.1614L311.366 69.0736L310.945 68.8978L310.734 68.8098C310.964 68.2576 311.178 67.699 311.374 67.135L311.59 67.21L312.021 67.3601L312.237 67.4352ZM310.814 70.845C310.544 71.3975 310.255 71.9426 309.951 72.4797L309.752 72.367L309.355 72.1416L309.157 72.0289C309.453 71.5079 309.731 70.9791 309.994 70.4431L310.199 70.5436L310.609 70.7446L310.814 70.845ZM308.991 74.0587C308.655 74.5736 308.304 75.0797 307.936 75.5762L307.752 75.4402L307.385 75.1683L307.201 75.0323C307.559 74.5509 307.9 74.06 308.225 73.5605L308.416 73.685L308.799 73.9341L308.991 74.0587ZM306.791 77.027C306.395 77.497 305.985 77.9569 305.559 78.4057L305.393 78.2486L305.062 77.9341L304.896 77.7769C305.31 77.3415 305.708 76.8955 306.091 76.4396L306.266 76.5864L306.615 76.8801L306.791 77.027ZM304.245 79.7072C303.797 80.1251 303.335 80.5315 302.857 80.9258L302.712 80.7497L302.421 80.3977L302.275 80.2216C302.738 79.839 303.188 79.4447 303.622 79.0394L303.778 79.2063L304.089 79.5403L304.245 79.7072ZM301.398 82.0589C301.149 82.2403 300.897 82.4185 300.642 82.5937C300.387 82.7688 300.129 82.9395 299.87 83.1058L299.747 82.9137L299.5 82.5295L299.377 82.3374C299.628 82.176 299.877 82.0103 300.126 81.8403C300.374 81.6703 300.619 81.4972 300.86 81.3212L300.994 81.5055L301.263 81.8744L301.398 82.0589ZM298.287 84.0574C297.746 84.3603 297.2 84.6453 296.65 84.9122L296.55 84.7066L296.351 84.2957L296.251 84.0902C296.786 83.8313 297.316 83.5548 297.84 83.2608L297.952 83.46L298.175 83.8583L298.287 84.0574ZM294.961 85.6671C294.389 85.9025 293.812 86.1195 293.231 86.3181L293.157 86.1021L293.009 85.67L292.935 85.4539C293.499 85.2613 294.059 85.0509 294.614 84.8225L294.701 85.0337L294.874 85.456L294.961 85.6671ZM291.464 86.8625C290.869 87.0264 290.27 87.1716 289.669 87.2982L289.621 87.0748L289.527 86.6279L289.481 86.4046C290.063 86.2817 290.644 86.1409 291.222 85.9819L291.282 86.202L291.404 86.6423L291.464 86.8625ZM287.849 87.6241C287.238 87.7145 286.626 87.7861 286.013 87.8391L285.994 87.6117L285.954 87.1567L285.934 86.9293C286.529 86.8778 287.123 86.8084 287.715 86.7207L287.749 86.9466L287.816 87.3983L287.849 87.6241ZM284.168 87.9427C283.552 87.9587 282.935 87.956 282.32 87.9348L282.328 87.7066L282.343 87.2502L282.352 87.0221C282.948 87.0427 283.546 87.0452 284.144 87.0298L284.15 87.258L284.162 87.7145L284.168 87.9427ZM280.476 87.8156C279.862 87.7575 279.25 87.6808 278.642 87.586L278.677 87.3604L278.747 86.9092L278.783 86.6837C279.373 86.7757 279.966 86.8501 280.562 86.9065L280.541 87.1338L280.497 87.5884L280.476 87.8156ZM276.825 87.2467C276.224 87.1154 275.625 86.9661 275.032 86.7989L275.094 86.5791L275.218 86.1396L275.279 85.9199C275.856 86.0822 276.435 86.227 277.02 86.3543L276.971 86.5774L276.874 87.0236L276.825 87.2467ZM273.269 86.2442C272.687 86.0419 272.112 85.8219 271.543 85.5845L271.631 85.3738L271.806 84.9523L271.895 84.7416C272.446 84.972 273.005 85.1854 273.569 85.3817L273.494 85.5973L273.344 86.0286L273.269 86.2442ZM269.859 84.8218C269.307 84.5511 268.761 84.2632 268.224 83.9584L268.338 83.7598L268.562 83.3628L268.675 83.1641C269.196 83.4598 269.725 83.739 270.261 84.0017L270.16 84.2067L269.96 84.6168L269.859 84.8218ZM266.645 82.9977C266.13 82.6626 265.624 82.3109 265.128 81.943L265.264 81.7596L265.536 81.3928L265.672 81.2093C266.153 81.5662 266.644 81.9072 267.144 82.2323L267.019 82.4236L266.77 82.8064L266.645 82.9977ZM263.677 80.7978C263.207 80.4029 262.747 79.9922 262.298 79.566L262.455 79.4005L262.77 79.0693L262.927 78.9037C263.363 79.3172 263.809 79.7155 264.264 80.0985L264.117 80.2733L263.824 80.623L263.677 80.7978ZM260.997 78.2527C260.579 77.8046 260.173 77.3419 259.778 76.8644L259.955 76.719L260.306 76.4283L260.483 76.2829C260.865 76.7462 261.26 77.1952 261.664 77.6297L261.498 77.7855L261.164 78.097L260.997 78.2527ZM258.645 75.4054C258.464 75.1568 258.285 74.9047 258.111 74.6492L258.299 74.5202L258.675 74.2621L258.864 74.133C259.034 74.3811 259.207 74.6257 259.383 74.867L259.199 75.0016L258.83 75.2708L258.645 75.4054Z" fill="url(#paint9_linear_2_1393)"/>
<path d="M104.229 125.35C104.229 137.189 94.6301 146.788 82.7912 146.788C70.9518 146.788 61.354 137.189 61.354 125.35" stroke="url(#paint10_linear_2_1393)" stroke-width="0.456632" stroke-dasharray="1.83 1.83"/>
<path d="M198.344 185.625C198.344 197.465 207.942 207.063 219.781 207.063C231.621 207.063 241.218 197.465 241.218 185.625" stroke="url(#paint11_linear_2_1393)" stroke-width="0.456632" stroke-dasharray="1.83 1.83"/>
<path d="M150.805 186.538C150.805 198.378 141.207 207.976 129.368 207.976C117.529 207.976 107.931 198.378 107.931 186.538" stroke="url(#paint12_linear_2_1393)" stroke-width="0.456632" stroke-dasharray="1.83 1.83"/>
<path d="M188.298 25.3229C188.298 13.4835 197.896 3.88574 209.735 3.88574C221.575 3.88574 231.172 13.4835 231.172 25.3229" stroke="url(#paint13_linear_2_1393)" stroke-width="0.456632" stroke-dasharray="1.83 1.83"/>
<path d="M150.854 186.971C150.854 160.94 171.957 139.836 197.99 139.836" stroke="white" stroke-width="0.456632" stroke-dasharray="1.83 1.83"/>
<path d="M197.99 186.971C197.99 160.94 176.887 139.836 150.855 139.836" stroke="white" stroke-width="0.456632" stroke-dasharray="1.83 1.83"/>
<path d="M143.135 83.6C173.62 83.6 185.145 53.4623 188.298 24.6963" stroke="white" stroke-width="0.456632" stroke-dasharray="1.83 1.83"/>
<path d="M125.793 61.2266C142.438 61.2266 155.931 74.7197 155.931 91.3643" stroke="white" stroke-width="0.456632" stroke-dasharray="1.83 1.83"/>
<path d="M57.1431 99.8019C74.7576 74.0951 109.876 67.5352 135.583 85.1498" stroke="white" stroke-width="0.456632" stroke-dasharray="1.83 1.83"/>
<path d="M180.226 66.8741C204.616 47.4774 239.864 51.2127 258.954 75.2172" stroke="white" stroke-width="0.456632" stroke-dasharray="1.83 1.83"/>
</g>
</g>
</g>
<defs>
<filter id="filter0_d_2_1393" x="15.3753" y="154.695" width="63.056" height="63.056" filterUnits="userSpaceOnUse" color-interpolation-filters="sRGB">
<feFlood flood-opacity="0" result="BackgroundImageFix"/>
<feColorMatrix in="SourceAlpha" type="matrix" values="0 0 0 0 0 0 0 0 0 0 0 0 0 0 0 0 0 0 127 0" result="hardAlpha"/>
<feOffset dy="4.11825"/>
<feGaussianBlur stdDeviation="4.11825"/>
<feComposite in2="hardAlpha" operator="out"/>
<feColorMatrix type="matrix" values="0 0 0 0 0.343614 0 0 0 0 0.154931 0 0 0 0 0.808333 0 0 0 0.18 0"/>
<feBlend mode="normal" in2="BackgroundImageFix" result="effect1_dropShadow_2_1393"/>
<feBlend mode="normal" in="SourceGraphic" in2="effect1_dropShadow_2_1393" result="shape"/>
</filter>
<filter id="filter1_d_2_1393" x="250.15" y="102.29" width="63.056" height="63.056" filterUnits="userSpaceOnUse" color-interpolation-filters="sRGB">
<feFlood flood-opacity="0" result="BackgroundImageFix"/>
<feColorMatrix in="SourceAlpha" type="matrix" values="0 0 0 0 0 0 0 0 0 0 0 0 0 0 0 0 0 0 127 0" result="hardAlpha"/>
<feOffset dy="4.11825"/>
<feGaussianBlur stdDeviation="4.11825"/>
<feComposite in2="hardAlpha" operator="out"/>
<feColorMatrix type="matrix" values="0 0 0 0 0.343614 0 0 0 0 0.154931 0 0 0 0 0.808333 0 0 0 0.18 0"/>
<feBlend mode="normal" in2="BackgroundImageFix" result="effect1_dropShadow_2_1393"/>
<feBlend mode="normal" in="SourceGraphic" in2="effect1_dropShadow_2_1393" result="shape"/>
</filter>
<filter id="filter2_d_2_1393" x="251.348" y="28.7939" width="63.056" height="63.056" filterUnits="userSpaceOnUse" color-interpolation-filters="sRGB">
<feFlood flood-opacity="0" result="BackgroundImageFix"/>
<feColorMatrix in="SourceAlpha" type="matrix" values="0 0 0 0 0 0 0 0 0 0 0 0 0 0 0 0 0 0 127 0" result="hardAlpha"/>
<feOffset dy="4.11825"/>
<feGaussianBlur stdDeviation="4.11825"/>
<feComposite in2="hardAlpha" operator="out"/>
<feColorMatrix type="matrix" values="0 0 0 0 0.343614 0 0 0 0 0.154931 0 0 0 0 0.808333 0 0 0 0.18 0"/>
<feBlend mode="normal" in2="BackgroundImageFix" result="effect1_dropShadow_2_1393"/>
<feBlend mode="normal" in="SourceGraphic" in2="effect1_dropShadow_2_1393" result="shape"/>
</filter>
<filter id="filter3_d_2_1393" x="196.532" y="165.911" width="46.6659" height="46.6654" filterUnits="userSpaceOnUse" color-interpolation-filters="sRGB">
<feFlood flood-opacity="0" result="BackgroundImageFix"/>
<feColorMatrix in="SourceAlpha" type="matrix" values="0 0 0 0 0 0 0 0 0 0 0 0 0 0 0 0 0 0 127 0" result="hardAlpha"/>
<feOffset dy="4.11825"/>
<feGaussianBlur stdDeviation="4.11825"/>
<feComposite in2="hardAlpha" operator="out"/>
<feColorMatrix type="matrix" values="0 0 0 0 0.343614 0 0 0 0 0.154931 0 0 0 0 0.808333 0 0 0 0.18 0"/>
<feBlend mode="normal" in2="BackgroundImageFix" result="effect1_dropShadow_2_1393"/>
<feBlend mode="normal" in="SourceGraphic" in2="effect1_dropShadow_2_1393" result="shape"/>
</filter>
<filter id="filter4_d_2_1393" x="106.817" y="165.911" width="46.6659" height="46.6654" filterUnits="userSpaceOnUse" color-interpolation-filters="sRGB">
<feFlood flood-opacity="0" result="BackgroundImageFix"/>
<feColorMatrix in="SourceAlpha" type="matrix" values="0 0 0 0 0 0 0 0 0 0 0 0 0 0 0 0 0 0 127 0" result="hardAlpha"/>
<feOffset dy="4.11825"/>
<feGaussianBlur stdDeviation="4.11825"/>
<feComposite in2="hardAlpha" operator="out"/>
<feColorMatrix type="matrix" values="0 0 0 0 0.343614 0 0 0 0 0.154931 0 0 0 0 0.808333 0 0 0 0.18 0"/>
<feBlend mode="normal" in2="BackgroundImageFix" result="effect1_dropShadow_2_1393"/>
<feBlend mode="normal" in="SourceGraphic" in2="effect1_dropShadow_2_1393" result="shape"/>
</filter>
<filter id="filter5_d_2_1393" x="95.2938" y="3.73429" width="63.056" height="63.056" filterUnits="userSpaceOnUse" color-interpolation-filters="sRGB">
<feFlood flood-opacity="0" result="BackgroundImageFix"/>
<feColorMatrix in="SourceAlpha" type="matrix" values="0 0 0 0 0 0 0 0 0 0 0 0 0 0 0 0 0 0 127 0" result="hardAlpha"/>
<feOffset dy="4.11825"/>
<feGaussianBlur stdDeviation="4.11825"/>
<feComposite in2="hardAlpha" operator="out"/>
<feColorMatrix type="matrix" values="0 0 0 0 0.343614 0 0 0 0 0.154931 0 0 0 0 0.808333 0 0 0 0.18 0"/>
<feBlend mode="normal" in2="BackgroundImageFix" result="effect1_dropShadow_2_1393"/>
<feBlend mode="normal" in="SourceGraphic" in2="effect1_dropShadow_2_1393" result="shape"/>
</filter>
<filter id="filter6_d_2_1393" x="186.129" y="6.87882" width="46.6659" height="46.6654" filterUnits="userSpaceOnUse" color-interpolation-filters="sRGB">
<feFlood flood-opacity="0" result="BackgroundImageFix"/>
<feColorMatrix in="SourceAlpha" type="matrix" values="0 0 0 0 0 0 0 0 0 0 0 0 0 0 0 0 0 0 127 0" result="hardAlpha"/>
<feOffset dy="4.11825"/>
<feGaussianBlur stdDeviation="4.11825"/>
<feComposite in2="hardAlpha" operator="out"/>
<feColorMatrix type="matrix" values="0 0 0 0 0.343614 0 0 0 0 0.154931 0 0 0 0 0.808333 0 0 0 0.18 0"/>
<feBlend mode="normal" in2="BackgroundImageFix" result="effect1_dropShadow_2_1393"/>
<feBlend mode="normal" in="SourceGraphic" in2="effect1_dropShadow_2_1393" result="shape"/>
</filter>
<filter id="filter7_d_2_1393" x="59.3704" y="105.525" width="46.6659" height="46.6654" filterUnits="userSpaceOnUse" color-interpolation-filters="sRGB">
<feFlood flood-opacity="0" result="BackgroundImageFix"/>
<feColorMatrix in="SourceAlpha" type="matrix" values="0 0 0 0 0 0 0 0 0 0 0 0 0 0 0 0 0 0 127 0" result="hardAlpha"/>
<feOffset dy="4.11825"/>
<feGaussianBlur stdDeviation="4.11825"/>
<feComposite in2="hardAlpha" operator="out"/>
<feColorMatrix type="matrix" values="0 0 0 0 0.343614 0 0 0 0 0.154931 0 0 0 0 0.808333 0 0 0 0.18 0"/>
<feBlend mode="normal" in2="BackgroundImageFix" result="effect1_dropShadow_2_1393"/>
<feBlend mode="normal" in="SourceGraphic" in2="effect1_dropShadow_2_1393" result="shape"/>
</filter>
<filter id="filter8_d_2_1393" x="1.57258" y="54.6278" width="63.056" height="63.056" filterUnits="userSpaceOnUse" color-interpolation-filters="sRGB">
<feFlood flood-opacity="0" result="BackgroundImageFix"/>
<feColorMatrix in="SourceAlpha" type="matrix" values="0 0 0 0 0 0 0 0 0 0 0 0 0 0 0 0 0 0 127 0" result="hardAlpha"/>
<feOffset dy="4.11825"/>
<feGaussianBlur stdDeviation="4.11825"/>
<feComposite in2="hardAlpha" operator="out"/>
<feColorMatrix type="matrix" values="0 0 0 0 0.343614 0 0 0 0 0.154931 0 0 0 0 0.808333 0 0 0 0.18 0"/>
<feBlend mode="normal" in2="BackgroundImageFix" result="effect1_dropShadow_2_1393"/>
<feBlend mode="normal" in="SourceGraphic" in2="effect1_dropShadow_2_1393" result="shape"/>
</filter>
<filter id="filter9_d_2_1393" x="115.172" y="61.8264" width="105.865" height="105.865" filterUnits="userSpaceOnUse" color-interpolation-filters="sRGB">
<feFlood flood-opacity="0" result="BackgroundImageFix"/>
<feColorMatrix in="SourceAlpha" type="matrix" values="0 0 0 0 0 0 0 0 0 0 0 0 0 0 0 0 0 0 127 0" result="hardAlpha"/>
<feOffset dy="4.68429"/>
<feGaussianBlur stdDeviation="4.68429"/>
<feComposite in2="hardAlpha" operator="out"/>
<feColorMatrix type="matrix" values="0 0 0 0 0.343614 0 0 0 0 0.154931 0 0 0 0 0.808333 0 0 0 0.18 0"/>
<feBlend mode="normal" in2="BackgroundImageFix" result="effect1_dropShadow_2_1393"/>
<feBlend mode="normal" in="SourceGraphic" in2="effect1_dropShadow_2_1393" result="shape"/>
</filter>
<linearGradient id="paint0_linear_2_1393" x1="2965.61" y1="182.556" x2="1805.22" y2="1538.64" gradientUnits="userSpaceOnUse">
<stop offset="0.18" stop-color="#0052CC"/>
<stop offset="1" stop-color="#2684FF"/>
</linearGradient>
<linearGradient id="paint1_linear_2_1393" x1="3038.92" y1="197.681" x2="1696.64" y2="1676.75" gradientUnits="userSpaceOnUse">
<stop offset="0.18" stop-color="#0052CC"/>
<stop offset="1" stop-color="#2684FF"/>
</linearGradient>
<linearGradient id="paint2_linear_2_1393" x1="994.815" y1="177.298" x2="994.815" y2="1742.85" gradientUnits="userSpaceOnUse">
<stop stop-color="#0091E6"/>
<stop offset="1" stop-color="#0079BF"/>
</linearGradient>
<linearGradient id="paint3_linear_2_1393" x1="145.077" y1="130.466" x2="191.425" y2="130.466" gradientUnits="userSpaceOnUse">
<stop stop-color="#8930FD"/>
<stop offset="1" stop-color="#49CCF9"/>
</linearGradient>
<linearGradient id="paint4_linear_2_1393" x1="146.088" y1="99.5053" x2="190.496" y2="99.5053" gradientUnits="userSpaceOnUse">
<stop stop-color="#FF02F0"/>
<stop offset="1" stop-color="#FFC800"/>
</linearGradient>
<linearGradient id="paint5_linear_2_1393" x1="126.25" y1="10.9958" x2="157.292" y2="9.36738" gradientUnits="userSpaceOnUse">
<stop stop-color="white"/>
<stop offset="0.984848" stop-color="white" stop-opacity="0"/>
</linearGradient>
<linearGradient id="paint6_linear_2_1393" x1="28.2918" y1="188.397" x2="29.4247" y2="153.813" gradientUnits="userSpaceOnUse">
<stop stop-color="white"/>
<stop offset="0.984848" stop-color="white" stop-opacity="0"/>
</linearGradient>
<linearGradient id="paint7_linear_2_1393" x1="30.1176" y1="81.8621" x2="41.1134" y2="50.8161" gradientUnits="userSpaceOnUse">
<stop stop-color="white"/>
<stop offset="0.984848" stop-color="white" stop-opacity="0"/>
</linearGradient>
<linearGradient id="paint8_linear_2_1393" x1="244.594" y1="129.864" x2="259.77" y2="89.7867" gradientUnits="userSpaceOnUse">
<stop stop-color="white"/>
<stop offset="0.984848" stop-color="white" stop-opacity="0"/>
</linearGradient>
<linearGradient id="paint9_linear_2_1393" x1="288.8" y1="61.682" x2="266.923" y2="29.4379" gradientUnits="userSpaceOnUse">
<stop stop-color="white"/>
<stop offset="0.984848" stop-color="white" stop-opacity="0"/>
</linearGradient>
<linearGradient id="paint10_linear_2_1393" x1="82.7912" y1="149.061" x2="61.354" y2="120.153" gradientUnits="userSpaceOnUse">
<stop stop-color="white"/>
<stop offset="0.984848" stop-color="white" stop-opacity="0"/>
</linearGradient>
<linearGradient id="paint11_linear_2_1393" x1="219.781" y1="209.336" x2="241.218" y2="180.429" gradientUnits="userSpaceOnUse">
<stop stop-color="white"/>
<stop offset="0.984848" stop-color="white" stop-opacity="0"/>
</linearGradient>
<linearGradient id="paint12_linear_2_1393" x1="129.368" y1="210.249" x2="107.931" y2="181.342" gradientUnits="userSpaceOnUse">
<stop stop-color="white"/>
<stop offset="0.984848" stop-color="white" stop-opacity="0"/>
</linearGradient>
<linearGradient id="paint13_linear_2_1393" x1="209.735" y1="1.61211" x2="231.172" y2="30.5198" gradientUnits="userSpaceOnUse">
<stop stop-color="white"/>
<stop offset="0.984848" stop-color="white" stop-opacity="0"/>
</linearGradient>
<clipPath id="clip0_2_1393">
<rect width="314.17" height="218.27" fill="white" transform="translate(0.943359 0.0380859)"/>
</clipPath>
<clipPath id="clip1_2_1393">
<rect width="314.17" height="218.27" fill="white" transform="translate(0.943359 0.0380859)"/>
</clipPath>
<clipPath id="clip2_2_1393">
<rect width="314.163" height="218.27" fill="white" transform="translate(0.946777 0.0380859)"/>
</clipPath>
</defs>
</svg>
