<svg width="32" height="32" viewBox="0 0 32 32" fill="none" xmlns="http://www.w3.org/2000/svg">
<g clip-path="url(#clip0_2_1361)">
<path d="M28.0983 26.1036C28.7228 24.3998 29.5433 21.1885 29.5433 16.0756C29.5433 14.5371 29.276 10.7785 29.276 10.7785C29.276 10.7785 24.4644 9.69629 15.6432 9.69629C6.82203 9.69629 1.74318 10.7785 1.74318 10.7785L1.74316 16.0756C1.74316 21.2893 2.59632 24.496 3.22488 26.151C3.58866 27.1089 4.33897 27.8293 5.32209 28.1179C6.91873 28.5866 10.0418 29.1771 15.6432 29.1771C21.0953 29.1771 24.1993 28.6434 25.8333 28.2025C26.901 27.9145 27.7177 27.1419 28.0983 26.1036Z" fill="#4AB9FD" fill-opacity="0.1"/>
<path d="M29.5433 16.4845C29.5433 19.6566 29.375 22.1557 29.172 24.0165C28.8858 26.6394 26.9028 28.5745 24.2761 28.8232C22.2508 29.0149 19.4226 29.1766 15.6432 29.1766C11.8638 29.1766 9.03566 29.0149 7.01039 28.8232C4.38364 28.5745 2.40062 26.6394 2.11444 24.0165C1.91142 22.1557 1.74316 19.6566 1.74316 16.4845C1.74316 14.304 1.82267 12.3976 1.93832 10.778C1.99151 10.0331 2.05235 9.34892 2.11661 8.72657C2.40722 5.9123 4.55094 3.80095 7.36845 3.54353C9.40907 3.35709 12.1545 3.20215 15.6432 3.20215C19.132 3.20215 21.8774 3.35709 23.918 3.54353C26.7355 3.80095 28.8792 5.9123 29.1698 8.72657C29.2341 9.34892 29.2949 10.0331 29.3481 10.778C29.4638 12.3976 29.5433 14.304 29.5433 16.4845Z" fill="#4AB9FD" fill-opacity="0.1"/>
<path d="M29.3481 10.778C29.2949 10.0331 29.2341 9.34892 29.1698 8.72657C28.8792 5.9123 26.7355 3.80095 23.918 3.54353C21.8774 3.35709 19.132 3.20215 15.6432 3.20215C12.1545 3.20215 9.40907 3.35709 7.36845 3.54353C4.55094 3.80095 2.40722 5.9123 2.11661 8.72657C2.05235 9.34892 1.99151 10.0331 1.93832 10.778M29.3481 10.778C29.4638 12.3976 29.5433 14.304 29.5433 16.4845C29.5433 19.6566 29.375 22.1557 29.172 24.0165C28.8858 26.6394 26.9028 28.5745 24.2761 28.8232C22.2508 29.0149 19.4226 29.1766 15.6432 29.1766C11.8638 29.1766 9.03566 29.0149 7.01039 28.8232C4.38364 28.5745 2.40062 26.6394 2.11444 24.0165C1.91142 22.1557 1.74316 19.6566 1.74316 16.4845C1.74316 14.304 1.82267 12.3976 1.93832 10.778M29.3481 10.778C29.3481 10.778 24.203 9.69577 15.6432 9.69577C7.08342 9.69577 1.93832 10.778 1.93832 10.778" stroke="#4AB9FD" stroke-width="2" stroke-linecap="round" stroke-linejoin="round"/>
<path d="M8.20031 1.03809C8.20031 1.03809 8.15918 1.89488 8.15918 5.90831M23.0873 1.03809C23.0873 1.03809 23.1284 1.89488 23.1284 5.90831" stroke="#4AB9FD" stroke-width="2" stroke-linecap="round" stroke-linejoin="round"/>
<path d="M20.9892 18.8955H10.2969M20.9892 18.8955L16.6425 23.2246M20.9892 18.8955L16.6425 14.5664" stroke="#4AB9FD" stroke-width="2" stroke-linecap="round" stroke-linejoin="round"/>
</g>
<defs>
<clipPath id="clip0_2_1361">
<rect width="31" height="31" fill="white" transform="translate(0.273438 0.0380859)"/>
</clipPath>
</defs>
</svg>
