<svg width="85" height="14" viewBox="0 0 85 14" fill="none" xmlns="http://www.w3.org/2000/svg">
<g clip-path="url(#clip0_2_1198)">
<path d="M11.8519 8.81084C11.1739 10.9173 9.98718 12.7456 6.91168 12.8666C2.33558 12.8666 0.943359 9.05309 0.943359 7.00665C0.943359 1.74049 5.16882 0.46875 6.86375 0.46875C8.78842 0.46875 11.5129 1.35314 11.5129 3.62888C11.5129 4.42776 11.0042 5.2029 10.1811 5.2029C9.38218 5.2029 8.78841 4.67045 8.78841 3.81068C8.78841 2.66072 9.73283 2.5031 9.73283 2.18829C9.73283 1.38941 7.86862 1.06252 7.21483 1.06252C4.3695 1.06252 3.63064 3.13271 3.63064 7.00708C3.63064 8.78666 4.07888 10.1426 4.24815 10.5541C4.69639 11.5348 5.6041 12.1523 7.14185 12.2369C8.87349 12.3341 10.52 10.9415 11.2343 8.81084H11.8519ZM15.5095 6.65601C15.5095 9.13773 15.5341 12.2737 18.5245 12.2737C21.5149 12.2737 21.5387 9.13773 21.5387 6.65558C21.5387 4.19846 21.5149 1.06252 18.5245 1.06252C15.5341 1.06252 15.5095 4.19803 15.5095 6.65601ZM24.2389 6.65601C24.2389 10.2393 21.6358 12.8666 18.5366 12.8666C15.4369 12.8666 12.8222 10.2272 12.8222 6.65601C12.8222 3.08434 15.4248 0.469182 18.5245 0.469182C21.6237 0.469182 24.2389 3.07225 24.2389 6.65601ZM26.3333 1.44944H24.7109V0.771463H25.3284C25.8855 0.783986 26.43 0.759803 26.9866 0.711007C27.5437 0.675165 28.1008 0.590094 28.6457 0.469182V3.6047H28.7062C29.5292 1.74049 30.6796 0.469182 32.8345 0.469182C33.9002 0.469182 36.3578 0.711007 36.3578 3.4229V11.7891H37.9555V12.4671H32.508V11.7891H34.0453V3.79859C34.0453 1.64376 33.3674 1.31643 32.1811 1.31643C30.1714 1.31643 28.6341 4.06503 28.6341 6.28032V11.777H30.2318V12.455H24.7109V11.777H26.3333V1.44944ZM44.9417 0.771895V1.44987H46.7454L43.755 9.93705H43.6946L40.8251 1.44944H42.3991V0.771463H37.072V1.44944H38.4884L42.4474 12.8661H43.4644L47.5443 1.44944H48.9612V0.771463L44.9417 0.771895ZM56.9142 4.876V3.87114C56.9142 1.74049 55.6671 1.06252 54.1902 1.06252C52.4102 1.06252 51.6113 2.72074 51.5508 2.92672C51.369 3.55633 51.2602 4.22221 51.2602 4.876H56.9142ZM59.5777 8.81084C58.9844 11.559 56.9746 12.8666 54.3716 12.8666C51.357 12.8666 48.4512 10.4453 48.4512 7.15218C48.4512 3.66558 50.7636 0.469182 54.2748 0.469182C57.2894 0.469182 59.5656 2.51519 59.6019 5.73578H51.224V6.9462C51.224 9.87616 51.6113 12.2369 54.8319 12.2369C56.5147 12.2369 58.5003 10.7601 58.9118 8.81084H59.5777ZM61.8547 1.44944H60.2324V0.771463H60.8494C61.4065 0.783986 61.9515 0.759803 62.5081 0.711007C63.0652 0.675165 63.6222 0.590094 64.1668 0.469182V3.6047H64.2277C65.0507 1.74049 66.2011 0.469182 68.368 0.469182C69.4334 0.469182 71.8913 0.711007 71.8913 3.4229V11.7891H73.4895V12.4671H68.0411V11.7891H69.5789V3.79859C69.5789 1.64376 68.9009 1.31643 67.7142 1.31643C65.7045 1.31643 64.1668 4.06503 64.1668 6.28032V11.777H65.765V12.455H60.2324V11.777H61.8547V1.44944ZM82.2432 4.876V3.87114C82.2432 1.74049 80.9965 1.06252 79.5192 1.06252C77.7396 1.06252 76.9403 2.72074 76.8919 2.92672C76.7106 3.55633 76.6013 4.22221 76.6013 4.876H82.2432ZM84.9067 8.81084C84.3138 11.559 82.3041 12.8666 79.701 12.8666C76.6864 12.8666 73.7927 10.4453 73.7927 7.15218C73.7927 3.66558 76.093 0.469182 79.6163 0.469182C82.631 0.469182 84.9067 2.51519 84.9434 5.73578H76.565V6.9462C76.565 9.87616 76.9524 12.2369 80.173 12.2369C81.8558 12.2369 83.8414 10.7601 84.2529 8.81084H84.9067Z" fill="black"/>
</g>
<defs>
<clipPath id="clip0_2_1198">
<rect width="84" height="13" fill="white" transform="translate(0.943359 0.46875)"/>
</clipPath>
</defs>
</svg>
