<svg width="97" height="17" viewBox="0 0 97 17" fill="none" xmlns="http://www.w3.org/2000/svg">
<g clip-path="url(#clip0_2_1192)">
<path d="M16.8979 7.37944C17.0246 7.25374 17.1512 7.08936 17.1512 6.91532C17.1512 6.62524 16.8395 6.50921 16.6057 6.47053L11.7161 5.76468L9.52453 1.36519C9.43687 1.18147 9.27128 0.96875 9.04726 0.96875C8.82323 0.96875 8.65765 1.18147 8.56998 1.36519L6.37842 5.76468L1.48881 6.47053C1.24531 6.50921 0.943359 6.62524 0.943359 6.91532C0.943359 7.08936 1.06998 7.25374 1.18687 7.37944L4.73232 10.8023L3.89466 15.6369C3.89356 15.6445 3.89247 15.652 3.89138 15.6594C3.88285 15.7178 3.87518 15.7702 3.87518 15.8303C3.87518 16.0817 4.0018 16.3138 4.28427 16.3138C4.42063 16.3138 4.54726 16.2655 4.67388 16.1978L9.04726 13.9158L13.4207 16.1978C13.5376 16.2655 13.6739 16.3138 13.8103 16.3138C14.0927 16.3138 14.2096 16.0817 14.2096 15.8303C14.2096 15.7626 14.2096 15.7046 14.1999 15.6369L13.3622 10.8023L16.8979 7.37944Z" fill="#FFC800"/>
<path d="M36.8461 7.37944C36.9727 7.25374 37.0993 7.08936 37.0993 6.91532C37.0993 6.62524 36.7877 6.50921 36.5539 6.47053L31.6643 5.76468L29.4727 1.36519C29.3851 1.18147 29.2195 0.96875 28.9954 0.96875C28.7714 0.96875 28.6058 1.18147 28.5182 1.36519L26.3266 5.76468L21.437 6.47053C21.1935 6.50921 20.8916 6.62524 20.8916 6.91532C20.8916 7.08936 21.0182 7.25374 21.1351 7.37944L24.6805 10.8023L23.8428 15.6369C23.8418 15.6445 23.8407 15.652 23.8396 15.6594C23.831 15.7178 23.8234 15.7702 23.8234 15.8303C23.8234 16.0817 23.95 16.3138 24.2325 16.3138C24.3688 16.3138 24.4954 16.2655 24.6221 16.1978L28.9954 13.9158L33.3688 16.1978C33.4857 16.2655 33.6221 16.3138 33.7584 16.3138C34.0409 16.3138 34.1578 16.0817 34.1578 15.8303C34.1578 15.7626 34.1578 15.7046 34.148 15.6369L33.3104 10.8023L36.8461 7.37944Z" fill="#FFC800"/>
<path d="M56.7939 7.37944C56.9206 7.25374 57.0472 7.08936 57.0472 6.91532C57.0472 6.62524 56.7355 6.50921 56.5017 6.47053L51.6121 5.76468L49.4206 1.36519C49.3329 1.18147 49.1673 0.96875 48.9433 0.96875C48.7193 0.96875 48.5537 1.18147 48.466 1.36519L46.2745 5.76468L41.3849 6.47053C41.1414 6.50921 40.8394 6.62524 40.8394 6.91532C40.8394 7.08936 40.966 7.25374 41.0829 7.37944L44.6284 10.8023L43.7907 15.6369C43.7896 15.6445 43.7885 15.652 43.7874 15.6594C43.7789 15.7178 43.7712 15.7702 43.7712 15.8303C43.7712 16.0817 43.8978 16.3138 44.1803 16.3138C44.3167 16.3138 44.4433 16.2655 44.5699 16.1978L48.9433 13.9158L53.3167 16.1978C53.4336 16.2655 53.5699 16.3138 53.7063 16.3138C53.9888 16.3138 54.1056 16.0817 54.1056 15.8303C54.1056 15.7626 54.1056 15.7046 54.0959 15.6369L53.2582 10.8023L56.7939 7.37944Z" fill="#FFC800"/>
<path d="M76.7421 7.37944C76.8687 7.25374 76.9953 7.08936 76.9953 6.91532C76.9953 6.62524 76.6837 6.50921 76.4499 6.47053L71.5603 5.76468L69.3687 1.36519C69.2811 1.18147 69.1155 0.96875 68.8915 0.96875C68.6674 0.96875 68.5018 1.18147 68.4142 1.36519L66.2226 5.76468L61.333 6.47053C61.0895 6.50921 60.7876 6.62524 60.7876 6.91532C60.7876 7.08936 60.9142 7.25374 61.0311 7.37944L64.5765 10.8023L63.7389 15.6369C63.7378 15.6445 63.7367 15.652 63.7356 15.6594C63.727 15.7178 63.7194 15.7702 63.7194 15.8303C63.7194 16.0817 63.846 16.3138 64.1285 16.3138C64.2648 16.3138 64.3915 16.2655 64.5181 16.1978L68.8915 13.9158L73.2648 16.1978C73.3817 16.2655 73.5181 16.3138 73.6544 16.3138C73.9369 16.3138 74.0538 16.0817 74.0538 15.8303C74.0538 15.7626 74.0538 15.7046 74.044 15.6369L73.2064 10.8023L76.7421 7.37944Z" fill="#FFC800"/>
<path d="M96.6898 7.37944C96.8165 7.25374 96.9432 7.08936 96.9432 6.91532C96.9432 6.62524 96.6315 6.50921 96.3977 6.47053L91.5081 5.76468L89.3166 1.36519C89.2289 1.18147 89.0633 0.96875 88.8393 0.96875C88.6153 0.96875 88.4497 1.18147 88.362 1.36519L86.1705 5.76468L81.2809 6.47053C81.0374 6.50921 80.7354 6.62524 80.7354 6.91532C80.7354 7.08936 80.862 7.25374 80.9789 7.37944L84.5244 10.8023L83.6867 15.6369C83.6856 15.6445 83.6844 15.652 83.6833 15.6594C83.6748 15.7178 83.6672 15.7702 83.6672 15.8303C83.6672 16.0817 83.7938 16.3138 84.0763 16.3138C84.2127 16.3138 84.3393 16.2655 84.4659 16.1978L88.8393 13.9158L93.2127 16.1978C93.3296 16.2655 93.4659 16.3138 93.6023 16.3138C93.8848 16.3138 94.0016 16.0817 94.0016 15.8303C94.0016 15.7626 94.0016 15.7046 93.9919 15.6369L93.1542 10.8023L96.6898 7.37944Z" fill="#FFC800"/>
</g>
<defs>
<clipPath id="clip0_2_1192">
<rect width="96" height="16" fill="white" transform="translate(0.943359 0.96875)"/>
</clipPath>
</defs>
</svg>
